%TF.GenerationSoftware,KiCad,Pcbnew,9.0.2*%
%TF.CreationDate,2026-02-23T14:19:40+01:00*%
%TF.ProjectId,audiograb,61756469-6f67-4726-9162-2e6b69636164,0*%
%TF.SameCoordinates,Original*%
%TF.FileFunction,Copper,L1,Top*%
%TF.FilePolarity,Positive*%
%FSLAX46Y46*%
G04 Gerber Fmt 4.6, Leading zero omitted, Abs format (unit mm)*
G04 Created by KiCad (PCBNEW 9.0.2) date 2026-02-23 14:19:40*
%MOMM*%
%LPD*%
G01*
G04 APERTURE LIST*
G04 Aperture macros list*
%AMRoundRect*
0 Rectangle with rounded corners*
0 $1 Rounding radius*
0 $2 $3 $4 $5 $6 $7 $8 $9 X,Y pos of 4 corners*
0 Add a 4 corners polygon primitive as box body*
4,1,4,$2,$3,$4,$5,$6,$7,$8,$9,$2,$3,0*
0 Add four circle primitives for the rounded corners*
1,1,$1+$1,$2,$3*
1,1,$1+$1,$4,$5*
1,1,$1+$1,$6,$7*
1,1,$1+$1,$8,$9*
0 Add four rect primitives between the rounded corners*
20,1,$1+$1,$2,$3,$4,$5,0*
20,1,$1+$1,$4,$5,$6,$7,0*
20,1,$1+$1,$6,$7,$8,$9,0*
20,1,$1+$1,$8,$9,$2,$3,0*%
%AMFreePoly0*
4,1,17,1.053536,0.853536,1.055000,0.850000,1.055000,-1.100000,1.053536,-1.103536,1.050000,-1.105000,-0.250000,-1.105000,-0.253536,-1.103536,-0.255000,-1.100000,-0.255000,-0.755000,-1.050000,-0.755000,-1.053536,-0.753536,-1.055000,-0.750000,-1.055000,0.850000,-1.053536,0.853536,-1.050000,0.855000,1.050000,0.855000,1.053536,0.853536,1.053536,0.853536,$1*%
%AMFreePoly1*
4,1,17,1.053536,0.853536,1.055000,0.850000,1.055000,-0.750000,1.053536,-0.753536,1.050000,-0.755000,0.255000,-0.755000,0.255000,-1.100000,0.253536,-1.103536,0.250000,-1.105000,-1.050000,-1.105000,-1.053536,-1.103536,-1.055000,-1.100000,-1.055000,0.850000,-1.053536,0.853536,-1.050000,0.855000,1.050000,0.855000,1.053536,0.853536,1.053536,0.853536,$1*%
G04 Aperture macros list end*
%TA.AperFunction,EtchedComponent*%
%ADD10C,0.200000*%
%TD*%
%TA.AperFunction,SMDPad,CuDef*%
%ADD11RoundRect,0.225000X-0.225000X-0.250000X0.225000X-0.250000X0.225000X0.250000X-0.225000X0.250000X0*%
%TD*%
%TA.AperFunction,SMDPad,CuDef*%
%ADD12RoundRect,0.006600X-0.103400X0.373400X-0.103400X-0.373400X0.103400X-0.373400X0.103400X0.373400X0*%
%TD*%
%TA.AperFunction,SMDPad,CuDef*%
%ADD13RoundRect,0.006600X-0.373400X0.103400X-0.373400X-0.103400X0.373400X-0.103400X0.373400X0.103400X0*%
%TD*%
%TA.AperFunction,SMDPad,CuDef*%
%ADD14R,2.300000X2.300000*%
%TD*%
%TA.AperFunction,SMDPad,CuDef*%
%ADD15R,0.700000X0.900000*%
%TD*%
%TA.AperFunction,SMDPad,CuDef*%
%ADD16R,0.700000X0.700000*%
%TD*%
%TA.AperFunction,SMDPad,CuDef*%
%ADD17R,0.650000X1.200000*%
%TD*%
%TA.AperFunction,SMDPad,CuDef*%
%ADD18R,2.900000X0.450000*%
%TD*%
%TA.AperFunction,SMDPad,CuDef*%
%ADD19R,1.900000X0.450000*%
%TD*%
%TA.AperFunction,SMDPad,CuDef*%
%ADD20R,0.700000X0.750000*%
%TD*%
%TA.AperFunction,SMDPad,CuDef*%
%ADD21R,0.500000X1.400000*%
%TD*%
%TA.AperFunction,SMDPad,CuDef*%
%ADD22R,2.400000X0.450000*%
%TD*%
%TA.AperFunction,SMDPad,CuDef*%
%ADD23R,0.600000X0.600000*%
%TD*%
%TA.AperFunction,SMDPad,CuDef*%
%ADD24RoundRect,0.200000X0.200000X0.275000X-0.200000X0.275000X-0.200000X-0.275000X0.200000X-0.275000X0*%
%TD*%
%TA.AperFunction,SMDPad,CuDef*%
%ADD25R,0.900000X0.800000*%
%TD*%
%TA.AperFunction,ComponentPad*%
%ADD26R,1.700000X1.700000*%
%TD*%
%TA.AperFunction,ComponentPad*%
%ADD27C,1.700000*%
%TD*%
%TA.AperFunction,SMDPad,CuDef*%
%ADD28R,0.800000X0.800000*%
%TD*%
%TA.AperFunction,ComponentPad*%
%ADD29C,2.000000*%
%TD*%
%TA.AperFunction,SMDPad,CuDef*%
%ADD30RoundRect,0.225000X-0.250000X0.225000X-0.250000X-0.225000X0.250000X-0.225000X0.250000X0.225000X0*%
%TD*%
%TA.AperFunction,SMDPad,CuDef*%
%ADD31R,1.000000X0.500000*%
%TD*%
%TA.AperFunction,SMDPad,CuDef*%
%ADD32R,0.500000X1.000000*%
%TD*%
%TA.AperFunction,SMDPad,CuDef*%
%ADD33R,1.000000X1.000000*%
%TD*%
%TA.AperFunction,SMDPad,CuDef*%
%ADD34R,1.000000X0.900000*%
%TD*%
%TA.AperFunction,SMDPad,CuDef*%
%ADD35C,0.800000*%
%TD*%
%TA.AperFunction,SMDPad,CuDef*%
%ADD36C,1.000000*%
%TD*%
%TA.AperFunction,SMDPad,CuDef*%
%ADD37RoundRect,0.225000X0.250000X-0.225000X0.250000X0.225000X-0.250000X0.225000X-0.250000X-0.225000X0*%
%TD*%
%TA.AperFunction,SMDPad,CuDef*%
%ADD38RoundRect,0.200000X-0.275000X0.200000X-0.275000X-0.200000X0.275000X-0.200000X0.275000X0.200000X0*%
%TD*%
%TA.AperFunction,SMDPad,CuDef*%
%ADD39RoundRect,0.062500X0.547500X0.187500X-0.547500X0.187500X-0.547500X-0.187500X0.547500X-0.187500X0*%
%TD*%
%TA.AperFunction,SMDPad,CuDef*%
%ADD40R,4.560000X0.850000*%
%TD*%
%TA.AperFunction,SMDPad,CuDef*%
%ADD41R,4.560000X1.000000*%
%TD*%
%TA.AperFunction,SMDPad,CuDef*%
%ADD42R,0.620000X1.400000*%
%TD*%
%TA.AperFunction,SMDPad,CuDef*%
%ADD43R,1.100000X2.400000*%
%TD*%
%TA.AperFunction,SMDPad,CuDef*%
%ADD44RoundRect,0.225000X0.225000X0.250000X-0.225000X0.250000X-0.225000X-0.250000X0.225000X-0.250000X0*%
%TD*%
%TA.AperFunction,SMDPad,CuDef*%
%ADD45RoundRect,0.200000X0.275000X-0.200000X0.275000X0.200000X-0.275000X0.200000X-0.275000X-0.200000X0*%
%TD*%
%TA.AperFunction,ComponentPad*%
%ADD46C,3.000000*%
%TD*%
%TA.AperFunction,SMDPad,CuDef*%
%ADD47R,1.100000X0.300000*%
%TD*%
%TA.AperFunction,SMDPad,CuDef*%
%ADD48FreePoly0,270.000000*%
%TD*%
%TA.AperFunction,SMDPad,CuDef*%
%ADD49FreePoly1,270.000000*%
%TD*%
%TA.AperFunction,SMDPad,CuDef*%
%ADD50R,0.203200X0.711200*%
%TD*%
%TA.AperFunction,SMDPad,CuDef*%
%ADD51R,0.406400X0.711200*%
%TD*%
%TA.AperFunction,SMDPad,CuDef*%
%ADD52RoundRect,0.147500X0.172500X-0.147500X0.172500X0.147500X-0.172500X0.147500X-0.172500X-0.147500X0*%
%TD*%
%TA.AperFunction,SMDPad,CuDef*%
%ADD53RoundRect,0.062500X-0.187500X0.432500X-0.187500X-0.432500X0.187500X-0.432500X0.187500X0.432500X0*%
%TD*%
%TA.AperFunction,SMDPad,CuDef*%
%ADD54RoundRect,0.200000X-0.200000X-0.275000X0.200000X-0.275000X0.200000X0.275000X-0.200000X0.275000X0*%
%TD*%
%TA.AperFunction,SMDPad,CuDef*%
%ADD55R,1.270000X5.080000*%
%TD*%
%TA.AperFunction,SMDPad,CuDef*%
%ADD56C,17.800000*%
%TD*%
%TA.AperFunction,SMDPad,CuDef*%
%ADD57RoundRect,0.062500X-0.432500X-0.187500X0.432500X-0.187500X0.432500X0.187500X-0.432500X0.187500X0*%
%TD*%
%TA.AperFunction,SMDPad,CuDef*%
%ADD58RoundRect,0.062500X0.062500X-0.475000X0.062500X0.475000X-0.062500X0.475000X-0.062500X-0.475000X0*%
%TD*%
%TA.AperFunction,SMDPad,CuDef*%
%ADD59RoundRect,0.062500X0.475000X-0.062500X0.475000X0.062500X-0.475000X0.062500X-0.475000X-0.062500X0*%
%TD*%
%TA.AperFunction,HeatsinkPad*%
%ADD60C,0.500000*%
%TD*%
%TA.AperFunction,HeatsinkPad*%
%ADD61R,4.100000X4.100000*%
%TD*%
%TA.AperFunction,SMDPad,CuDef*%
%ADD62RoundRect,0.075000X0.910000X0.225000X-0.910000X0.225000X-0.910000X-0.225000X0.910000X-0.225000X0*%
%TD*%
%TA.AperFunction,SMDPad,CuDef*%
%ADD63RoundRect,0.062500X0.432500X0.187500X-0.432500X0.187500X-0.432500X-0.187500X0.432500X-0.187500X0*%
%TD*%
%TA.AperFunction,ComponentPad*%
%ADD64C,1.950000*%
%TD*%
%TA.AperFunction,ComponentPad*%
%ADD65R,1.498000X1.498000*%
%TD*%
%TA.AperFunction,ComponentPad*%
%ADD66C,1.498000*%
%TD*%
%TA.AperFunction,SMDPad,CuDef*%
%ADD67R,1.651000X2.184400*%
%TD*%
%TA.AperFunction,SMDPad,CuDef*%
%ADD68RoundRect,0.147500X-0.172500X0.147500X-0.172500X-0.147500X0.172500X-0.147500X0.172500X0.147500X0*%
%TD*%
%TA.AperFunction,SMDPad,CuDef*%
%ADD69RoundRect,0.150000X-0.150000X-0.425000X0.150000X-0.425000X0.150000X0.425000X-0.150000X0.425000X0*%
%TD*%
%TA.AperFunction,SMDPad,CuDef*%
%ADD70RoundRect,0.075000X-0.075000X-0.500000X0.075000X-0.500000X0.075000X0.500000X-0.075000X0.500000X0*%
%TD*%
%TA.AperFunction,HeatsinkPad*%
%ADD71O,1.000000X2.100000*%
%TD*%
%TA.AperFunction,HeatsinkPad*%
%ADD72O,1.000000X1.800000*%
%TD*%
%TA.AperFunction,SMDPad,CuDef*%
%ADD73RoundRect,0.051250X-0.153750X0.733750X-0.153750X-0.733750X0.153750X-0.733750X0.153750X0.733750X0*%
%TD*%
%TA.AperFunction,SMDPad,CuDef*%
%ADD74R,0.200000X0.700000*%
%TD*%
%TA.AperFunction,ComponentPad*%
%ADD75C,5.800000*%
%TD*%
%TA.AperFunction,SMDPad,CuDef*%
%ADD76R,0.711200X0.203200*%
%TD*%
%TA.AperFunction,SMDPad,CuDef*%
%ADD77R,0.711200X0.406400*%
%TD*%
%TA.AperFunction,SMDPad,CuDef*%
%ADD78RoundRect,0.147500X-0.147500X-0.172500X0.147500X-0.172500X0.147500X0.172500X-0.147500X0.172500X0*%
%TD*%
%TA.AperFunction,SMDPad,CuDef*%
%ADD79RoundRect,0.050000X-0.150000X0.545000X-0.150000X-0.545000X0.150000X-0.545000X0.150000X0.545000X0*%
%TD*%
%TA.AperFunction,ViaPad*%
%ADD80C,0.600000*%
%TD*%
%TA.AperFunction,ViaPad*%
%ADD81C,0.500000*%
%TD*%
%TA.AperFunction,Conductor*%
%ADD82C,0.200000*%
%TD*%
%TA.AperFunction,Conductor*%
%ADD83C,0.400000*%
%TD*%
%TA.AperFunction,Conductor*%
%ADD84C,0.600000*%
%TD*%
%TA.AperFunction,Conductor*%
%ADD85C,0.500000*%
%TD*%
%TA.AperFunction,Conductor*%
%ADD86C,1.500000*%
%TD*%
%TA.AperFunction,Conductor*%
%ADD87C,0.250000*%
%TD*%
G04 APERTURE END LIST*
D10*
%TO.C,REF\u002A\u002A*%
X228500000Y-55525000D02*
X228100000Y-55525000D01*
X228200000Y-54675000D01*
X228400000Y-54675000D01*
X228500000Y-55525000D01*
%TA.AperFunction,EtchedComponent*%
G36*
X228500000Y-55525000D02*
G01*
X228100000Y-55525000D01*
X228200000Y-54675000D01*
X228400000Y-54675000D01*
X228500000Y-55525000D01*
G37*
%TD.AperFunction*%
%TD*%
D11*
%TO.P,C18,1*%
%TO.N,+3V3_CM5*%
X163225000Y-37000000D03*
%TO.P,C18,2*%
%TO.N,GND*%
X164775000Y-37000000D03*
%TD*%
D12*
%TO.P,U8,1*%
%TO.N,Net-(U10-Q4)*%
X97687500Y-47027499D03*
%TO.P,U8,2*%
X97287500Y-47027499D03*
%TO.P,U8,3*%
X96887500Y-47027499D03*
%TO.P,U8,4*%
%TO.N,Net-(J16-CLK)*%
X96487500Y-47027499D03*
%TO.P,U8,5*%
%TO.N,Net-(J16-DAT0)*%
X96087500Y-47027499D03*
%TO.P,U8,6*%
%TO.N,Net-(J16-DAT1)*%
X95687500Y-47027499D03*
D13*
%TO.P,U8,7*%
%TO.N,/sd-interface/SD8*%
X94957500Y-47757499D03*
%TO.P,U8,8*%
%TO.N,/sd-interface/SD7*%
X94957500Y-48157499D03*
%TO.P,U8,9*%
%TO.N,/sd-interface/SD5*%
X94957500Y-48557499D03*
%TO.P,U8,10*%
%TO.N,/sd-interface/SD3*%
X94957500Y-48957499D03*
%TO.P,U8,11*%
%TO.N,/sd-interface/SD2*%
X94957500Y-49357499D03*
%TO.P,U8,12*%
%TO.N,/sd-interface/SD1*%
X94957500Y-49757499D03*
D12*
%TO.P,U8,13,GND*%
%TO.N,GND*%
X95687500Y-50487499D03*
%TO.P,U8,14,VCC*%
%TO.N,+3V3*%
X96087500Y-50487499D03*
%TO.P,U8,15,EN*%
%TO.N,Net-(U10-Q3)*%
X96487500Y-50487499D03*
%TO.P,U8,16*%
%TO.N,Net-(J16-CMD)*%
X96887500Y-50487499D03*
%TO.P,U8,17*%
%TO.N,Net-(J16-CD{slash}DAT3)*%
X97287500Y-50487499D03*
%TO.P,U8,18*%
%TO.N,Net-(J16-DAT2)*%
X97687500Y-50487499D03*
D13*
%TO.P,U8,19*%
%TO.N,/sd-interface/SD-pin1*%
X98417500Y-49757499D03*
%TO.P,U8,20*%
%TO.N,/sd-interface/SD-pin2*%
X98417500Y-49357499D03*
%TO.P,U8,21*%
%TO.N,/sd-interface/SD-pin3*%
X98417500Y-48957499D03*
%TO.P,U8,22*%
%TO.N,/sd-interface/SD-pin5*%
X98417500Y-48557499D03*
%TO.P,U8,23*%
%TO.N,/sd-interface/SD-pin7*%
X98417500Y-48157499D03*
%TO.P,U8,24*%
%TO.N,/sd-interface/SD-pin8*%
X98417500Y-47757499D03*
D14*
%TO.P,U8,25,EP*%
%TO.N,GND*%
X96687500Y-48757499D03*
%TD*%
D15*
%TO.P,P1,C1,VCC*%
%TO.N,/modem/UIM_VCC*%
X240760000Y-81215000D03*
%TO.P,P1,C2,RST*%
%TO.N,/modem/UIM_RESET_N*%
X240760000Y-83655000D03*
%TO.P,P1,C3,CLK*%
%TO.N,/modem/UIM_CLK*%
X240760000Y-86095000D03*
%TO.P,P1,C5,GND*%
%TO.N,GND*%
X237590000Y-81115000D03*
%TO.P,P1,C6,VPP*%
%TO.N,unconnected-(P1-VPP-PadC6)*%
X237590000Y-83655000D03*
%TO.P,P1,C7,I/O*%
%TO.N,/modem/UIM_DATA*%
X237590000Y-86195000D03*
D16*
%TO.P,P1,CSW,CSW*%
%TO.N,GND*%
X234260000Y-87900000D03*
D17*
%TO.P,P1,DSW,DSW*%
%TO.N,Net-(D1-A2)*%
X230585000Y-84205000D03*
D18*
%TO.P,P1,G1,SHIELD*%
%TO.N,GND*%
X241460000Y-88250000D03*
D19*
%TO.P,P1,G2,SHIELD*%
X236610000Y-88250000D03*
D20*
%TO.P,P1,G3,SHIELD*%
X232460000Y-87750000D03*
D21*
%TO.P,P1,G4,SHIELD*%
X229510000Y-85855000D03*
%TO.P,P1,G5,SHIELD*%
X229510000Y-81455000D03*
D22*
%TO.P,P1,G6,SHIELD*%
X231460000Y-77100000D03*
D19*
%TO.P,P1,G7,SHIELD*%
X236610000Y-77100000D03*
D18*
%TO.P,P1,G8,SHIELD*%
X241460000Y-77100000D03*
D23*
%TO.P,P1,G9,SHIELD*%
X242610000Y-82435000D03*
%TO.P,P1,G10,SHIELD*%
X242610000Y-84875000D03*
%TD*%
D24*
%TO.P,R7,1*%
%TO.N,/modem/1V8_WAKE*%
X210125000Y-42600000D03*
%TO.P,R7,2*%
%TO.N,GND*%
X208475000Y-42600000D03*
%TD*%
D25*
%TO.P,Q1,1,G*%
%TO.N,Net-(Q1-G)*%
X108925000Y-27200000D03*
%TO.P,Q1,2,S*%
%TO.N,+3V3*%
X108925000Y-25300000D03*
%TO.P,Q1,3,D*%
%TO.N,Net-(J16-VDD)*%
X106825000Y-26250000D03*
%TD*%
D26*
%TO.P,J3,1,Pin_1*%
%TO.N,+3V3*%
X149760000Y-22860000D03*
D27*
%TO.P,J3,2,Pin_2*%
%TO.N,+5V*%
X149760000Y-25400000D03*
%TO.P,J3,3,Pin_3*%
%TO.N,/compute-module/GPIO2*%
X152300000Y-22860000D03*
%TO.P,J3,4,Pin_4*%
%TO.N,+5V*%
X152300000Y-25400000D03*
%TO.P,J3,5,Pin_5*%
%TO.N,unconnected-(J3-Pin_5-Pad5)*%
X154840000Y-22860000D03*
%TO.P,J3,6,Pin_6*%
%TO.N,GND*%
X154840000Y-25400000D03*
%TO.P,J3,7,Pin_7*%
%TO.N,unconnected-(J3-Pin_7-Pad7)*%
X157380000Y-22860000D03*
%TO.P,J3,8,Pin_8*%
%TO.N,unconnected-(J3-Pin_8-Pad8)*%
X157380000Y-25400000D03*
%TO.P,J3,9,Pin_9*%
%TO.N,GND*%
X159920000Y-22860000D03*
%TO.P,J3,10,Pin_10*%
%TO.N,unconnected-(J3-Pin_10-Pad10)*%
X159920000Y-25400000D03*
%TO.P,J3,11,Pin_11*%
%TO.N,/compute-module/GPIO17*%
X162460000Y-22860000D03*
%TO.P,J3,12,Pin_12*%
%TO.N,unconnected-(J3-Pin_12-Pad12)*%
X162460000Y-25400000D03*
%TO.P,J3,13,Pin_13*%
%TO.N,unconnected-(J3-Pin_13-Pad13)*%
X165000000Y-22860000D03*
%TO.P,J3,14,Pin_14*%
%TO.N,GND*%
X165000000Y-25400000D03*
%TO.P,J3,15,Pin_15*%
%TO.N,unconnected-(J3-Pin_15-Pad15)*%
X167540000Y-22860000D03*
%TO.P,J3,16,Pin_16*%
%TO.N,unconnected-(J3-Pin_16-Pad16)*%
X167540000Y-25400000D03*
%TO.P,J3,17,Pin_17*%
%TO.N,+3V3*%
X170080000Y-22860000D03*
%TO.P,J3,18,Pin_18*%
%TO.N,unconnected-(J3-Pin_18-Pad18)*%
X170080000Y-25400000D03*
%TO.P,J3,19,Pin_19*%
%TO.N,unconnected-(J3-Pin_19-Pad19)*%
X172620000Y-22860000D03*
%TO.P,J3,20,Pin_20*%
%TO.N,GND*%
X172620000Y-25400000D03*
%TO.P,J3,21,Pin_21*%
%TO.N,unconnected-(J3-Pin_21-Pad21)*%
X175160000Y-22860000D03*
%TO.P,J3,22,Pin_22*%
%TO.N,unconnected-(J3-Pin_22-Pad22)*%
X175160000Y-25400000D03*
%TO.P,J3,23,Pin_23*%
%TO.N,/compute-module/GPIO11*%
X177700000Y-22860000D03*
%TO.P,J3,24,Pin_24*%
%TO.N,unconnected-(J3-Pin_24-Pad24)*%
X177700000Y-25400000D03*
%TO.P,J3,25,Pin_25*%
%TO.N,GND*%
X180240000Y-22860000D03*
%TO.P,J3,26,Pin_26*%
%TO.N,unconnected-(J3-Pin_26-Pad26)*%
X180240000Y-25400000D03*
%TO.P,J3,27,Pin_27*%
%TO.N,/compute-module/ID_SD*%
X182780000Y-22860000D03*
%TO.P,J3,28,Pin_28*%
%TO.N,/compute-module/ID_SC*%
X182780000Y-25400000D03*
%TO.P,J3,29,Pin_29*%
%TO.N,+1V8_CM5*%
X185320000Y-22860000D03*
%TO.P,J3,30,Pin_30*%
%TO.N,GND*%
X185320000Y-25400000D03*
%TO.P,J3,31,Pin_31*%
%TO.N,+3V3_CM5*%
X187860000Y-22860000D03*
%TO.P,J3,32,Pin_32*%
%TO.N,unconnected-(J3-Pin_32-Pad32)*%
X187860000Y-25400000D03*
%TO.P,J3,33,Pin_33*%
%TO.N,unconnected-(J3-Pin_33-Pad33)*%
X190400000Y-22860000D03*
%TO.P,J3,34,Pin_34*%
%TO.N,GND*%
X190400000Y-25400000D03*
%TO.P,J3,35,Pin_35*%
%TO.N,/compute-module/GPIO19*%
X192940000Y-22860000D03*
%TO.P,J3,36,Pin_36*%
%TO.N,unconnected-(J3-Pin_36-Pad36)*%
X192940000Y-25400000D03*
%TO.P,J3,37,Pin_37*%
%TO.N,/compute-module/GPIO26*%
X195480000Y-22860000D03*
%TO.P,J3,38,Pin_38*%
%TO.N,unconnected-(J3-Pin_38-Pad38)*%
X195480000Y-25400000D03*
%TO.P,J3,39,Pin_39*%
%TO.N,GND*%
X198020000Y-22860000D03*
%TO.P,J3,40,Pin_40*%
%TO.N,unconnected-(J3-Pin_40-Pad40)*%
X198020000Y-25400000D03*
%TD*%
D28*
%TO.P,D11,1,K*%
%TO.N,Net-(D11-K)*%
X215600000Y-63526000D03*
%TO.P,D11,2,A*%
%TO.N,+3V3*%
X215600000Y-65026000D03*
%TD*%
D29*
%TO.P,J7,1,1*%
%TO.N,Net-(U1A-J2)*%
X205900000Y-27600000D03*
%TD*%
D30*
%TO.P,C16,1*%
%TO.N,Net-(IC1-VDD18)*%
X121737500Y-53887499D03*
%TO.P,C16,2*%
%TO.N,GND*%
X121737500Y-55437499D03*
%TD*%
D31*
%TO.P,U1,1,I2C1_CLK*%
%TO.N,unconnected-(U1A-I2C1_CLK-Pad1)*%
X217557500Y-36637500D03*
%TO.P,U1,2,UART1_RI*%
%TO.N,unconnected-(U1A-UART1_RI-Pad2)*%
X217557500Y-37437500D03*
%TO.P,U1,3,UART1_RTS*%
%TO.N,Net-(U1A-UART1_RTS)*%
X217557500Y-38237500D03*
%TO.P,U1,4,UART1_CTS*%
%TO.N,unconnected-(U1A-UART1_CTS-Pad4)*%
X217557500Y-39037500D03*
%TO.P,U1,5,UART1_TX*%
%TO.N,Net-(U1A-UART1_TX)*%
X217557500Y-39837500D03*
%TO.P,U1,6,UART1_RX*%
%TO.N,Net-(U1A-UART1_RX)*%
X217557500Y-40637500D03*
%TO.P,U1,7,UART1_DTR*%
%TO.N,Net-(U1A-UART1_DTR)*%
X217557500Y-41437500D03*
%TO.P,U1,8,UART1_DCD*%
%TO.N,unconnected-(U1A-UART1_DCD-Pad8)*%
X217557500Y-42237500D03*
%TO.P,U1,9,UART1_DSR*%
%TO.N,unconnected-(U1A-UART1_DSR-Pad9)*%
X217557500Y-43037500D03*
%TO.P,U1,10,GPIO2*%
%TO.N,/modem/1V8_WAKE*%
X217557500Y-43837500D03*
%TO.P,U1,11,~{RESET_IN}*%
%TO.N,/modem/1V8_RESET_IN_N*%
X217557500Y-44637500D03*
%TO.P,U1,12,USB_D-*%
%TO.N,/USB3-1-D_N*%
X217557500Y-45437500D03*
%TO.P,U1,13,USB_D+*%
%TO.N,/USB3-1-D_P*%
X217557500Y-46237500D03*
%TO.P,U1,14,RESERVED_1*%
%TO.N,unconnected-(U1C-RESERVED_1-Pad14)*%
X217557500Y-47037500D03*
%TO.P,U1,15,RESERVED_1*%
%TO.N,unconnected-(U1C-RESERVED_1-Pad15)*%
X217557500Y-47837500D03*
%TO.P,U1,16,USB_VBUS*%
%TO.N,VBAT_BB*%
X217557500Y-48637500D03*
%TO.P,U1,17,RESERVED_1*%
%TO.N,unconnected-(U1C-RESERVED_1-Pad17)*%
X217557500Y-49437500D03*
%TO.P,U1,18,RESERVED_1*%
%TO.N,unconnected-(U1C-RESERVED_1-Pad18)*%
X217557500Y-50237500D03*
D32*
%TO.P,U1,19,RESERVED_1*%
%TO.N,unconnected-(U1C-RESERVED_1-Pad19)*%
X218737500Y-51617500D03*
%TO.P,U1,20,RESERVED_1*%
%TO.N,unconnected-(U1C-RESERVED_1-Pad20)*%
X219537500Y-51617500D03*
%TO.P,U1,21,RESERVED_1*%
%TO.N,unconnected-(U1C-RESERVED_1-Pad21)*%
X220337500Y-51617500D03*
%TO.P,U1,22,SYS_CLK*%
%TO.N,Net-(U1A-SYS_CLK)*%
X221137500Y-51617500D03*
%TO.P,U1,23,SLEEP_CLK*%
%TO.N,Net-(U1A-SLEEP_CLK)*%
X221937500Y-51617500D03*
%TO.P,U1,24,ADC1*%
%TO.N,unconnected-(U1A-ADC1-Pad24)*%
X222737500Y-51617500D03*
%TO.P,U1,25,ADC0*%
%TO.N,unconnected-(U1A-ADC0-Pad25)*%
X223537500Y-51617500D03*
%TO.P,U1,26,UIM1_VCC*%
%TO.N,/modem/UIM_VCC*%
X224337500Y-51617500D03*
%TO.P,U1,27,UIM1_CLK*%
%TO.N,/modem/UIM_CLK*%
X225137500Y-51617500D03*
%TO.P,U1,28,UIM1_DATA*%
%TO.N,/modem/UIM_DATA*%
X225937500Y-51617500D03*
%TO.P,U1,29,~{UIM1_RESET}*%
%TO.N,/modem/UIM_RESET_N*%
X226737500Y-51617500D03*
%TO.P,U1,30,GND_1*%
%TO.N,GND*%
X227537500Y-51617500D03*
%TO.P,U1,31,RF_DIV*%
%TO.N,Net-(D7-A2)*%
X228337500Y-51617500D03*
%TO.P,U1,32,GND_1*%
%TO.N,GND*%
X229137500Y-51617500D03*
%TO.P,U1,33,PCM_OUT/I2S_OUT*%
%TO.N,unconnected-(U1A-PCM_OUT{slash}I2S_OUT-Pad33)*%
X229937500Y-51617500D03*
D31*
%TO.P,U1,34,PCM_IN/I2S_IN*%
%TO.N,unconnected-(U1A-PCM_IN{slash}I2S_IN-Pad34)*%
X231117500Y-50237500D03*
%TO.P,U1,35,PCM_SYNC/I2S_WS*%
%TO.N,unconnected-(U1A-PCM_SYNC{slash}I2S_WS-Pad35)*%
X231117500Y-49437500D03*
%TO.P,U1,36,PCM_CLK/I2S_CLK*%
%TO.N,unconnected-(U1A-PCM_CLK{slash}I2S_CLK-Pad36)*%
X231117500Y-48637500D03*
%TO.P,U1,37,GND_1*%
%TO.N,GND*%
X231117500Y-47837500D03*
%TO.P,U1,38,RF_GNSS*%
%TO.N,unconnected-(U1A-RF_GNSS-Pad38)*%
X231117500Y-47037500D03*
%TO.P,U1,39,GND_1*%
%TO.N,GND*%
X231117500Y-46237500D03*
%TO.P,U1,40,GPIO7*%
%TO.N,unconnected-(U1A-GPIO7-Pad40)*%
X231117500Y-45437500D03*
%TO.P,U1,41,GPIO8*%
%TO.N,unconnected-(U1A-GPIO8-Pad41)*%
X231117500Y-44637500D03*
%TO.P,U1,42,DR_SYNC*%
%TO.N,unconnected-(U1A-DR_SYNC-Pad42)*%
X231117500Y-43837500D03*
%TO.P,U1,43,EXT_GPS_LNA_EN*%
%TO.N,unconnected-(U1A-EXT_GPS_LNA_EN-Pad43)*%
X231117500Y-43037500D03*
%TO.P,U1,44,GPIO13*%
%TO.N,unconnected-(U1A-GPIO13-Pad44)*%
X231117500Y-42237500D03*
%TO.P,U1,45,VGPIO*%
%TO.N,unconnected-(U1A-VGPIO-Pad45)*%
X231117500Y-41437500D03*
%TO.P,U1,46,EXT_SIM_SWITCH/GPIO6/~{RESET_OUT}*%
%TO.N,unconnected-(U1A-EXT_SIM_SWITCH{slash}GPIO6{slash}~{RESET_OUT}-Pad46)*%
X231117500Y-40637500D03*
%TO.P,U1,47,TP1_BOOTPIN*%
%TO.N,/modem/1V8_BOOT_MODE*%
X231117500Y-39837500D03*
%TO.P,U1,48,GND_1*%
%TO.N,GND*%
X231117500Y-39037500D03*
%TO.P,U1,49,RF_MAIN*%
%TO.N,Net-(D6-A2)*%
X231117500Y-38237500D03*
%TO.P,U1,50,GND_1*%
%TO.N,GND*%
X231117500Y-37437500D03*
%TO.P,U1,51,SPI1_MRDY*%
%TO.N,unconnected-(U1A-SPI1_MRDY-Pad51)*%
X231117500Y-36637500D03*
D32*
%TO.P,U1,52,SPI1_MISO*%
%TO.N,unconnected-(U1A-SPI1_MISO-Pad52)*%
X229937500Y-35257500D03*
%TO.P,U1,53,SPI1_CLK*%
%TO.N,unconnected-(U1A-SPI1_CLK-Pad53)*%
X229137500Y-35257500D03*
%TO.P,U1,54,SPI1_MOSI*%
%TO.N,unconnected-(U1A-SPI1_MOSI-Pad54)*%
X228337500Y-35257500D03*
%TO.P,U1,55,RESERVED_1*%
%TO.N,unconnected-(U1C-RESERVED_1-Pad55)*%
X227537500Y-35257500D03*
%TO.P,U1,56,RESERVED_1*%
%TO.N,unconnected-(U1C-RESERVED_1-Pad56)*%
X226737500Y-35257500D03*
%TO.P,U1,57,RESERVED_1*%
%TO.N,unconnected-(U1C-RESERVED_1-Pad57)*%
X225937500Y-35257500D03*
%TO.P,U1,58,RESERVED_1*%
%TO.N,unconnected-(U1C-RESERVED_1-Pad58)*%
X225137500Y-35257500D03*
%TO.P,U1,59,~{POWER_ON}*%
%TO.N,/modem/1V8_POWER_ON_N*%
X224337500Y-35257500D03*
%TO.P,U1,60,TX_ON*%
%TO.N,/modem/1V8_TX_ON*%
X223537500Y-35257500D03*
%TO.P,U1,61,VBAT_RF*%
%TO.N,VBAT_BB*%
X222737500Y-35257500D03*
%TO.P,U1,62,VBAT_RF*%
X221937500Y-35257500D03*
%TO.P,U1,63,VBAT_BB*%
X221137500Y-35257500D03*
%TO.P,U1,64,UIM1_SIMA_DET*%
%TO.N,/modem/UIM_SIM_DET*%
X220337500Y-35257500D03*
%TO.P,U1,65,UIM1_SIMB_DET/GPIO4*%
%TO.N,unconnected-(U1A-UIM1_SIMB_DET{slash}GPIO4-Pad65)*%
X219537500Y-35257500D03*
%TO.P,U1,66,I2C1_DATA*%
%TO.N,unconnected-(U1A-I2C1_DATA-Pad66)*%
X218737500Y-35257500D03*
D33*
%TO.P,U1,67,GND_1*%
%TO.N,GND*%
X217557500Y-35257500D03*
%TO.P,U1,68,GND_1*%
X217557500Y-51617500D03*
%TO.P,U1,69,GND_1*%
X231117500Y-51617500D03*
%TO.P,U1,70,GND_1*%
X231117500Y-35257500D03*
D31*
%TO.P,U1,71,RESERVED_1*%
%TO.N,unconnected-(U1C-RESERVED_1-Pad71)*%
X214387500Y-33837500D03*
%TO.P,U1,72,RESERVED_1*%
%TO.N,unconnected-(U1C-RESERVED_1-Pad72)*%
X214387500Y-34637500D03*
%TO.P,U1,73,RESERVED_1*%
%TO.N,unconnected-(U1C-RESERVED_1-Pad73)*%
X214387500Y-35437500D03*
%TO.P,U1,74,RESERVED_1*%
%TO.N,unconnected-(U1C-RESERVED_1-Pad74)*%
X214387500Y-36237500D03*
%TO.P,U1,75,RESERVED_1*%
%TO.N,unconnected-(U1C-RESERVED_1-Pad75)*%
X214387500Y-37037500D03*
%TO.P,U1,76,RESERVED_1*%
%TO.N,unconnected-(U1C-RESERVED_1-Pad76)*%
X214387500Y-37837500D03*
%TO.P,U1,77,RESERVED_1*%
%TO.N,unconnected-(U1C-RESERVED_1-Pad77)*%
X214387500Y-38637500D03*
%TO.P,U1,78,RESERVED_1*%
%TO.N,unconnected-(U1C-RESERVED_1-Pad78)*%
X214387500Y-39437500D03*
%TO.P,U1,79,RESERVED_1*%
%TO.N,unconnected-(U1C-RESERVED_1-Pad79)*%
X214387500Y-40237500D03*
%TO.P,U1,80,RESERVED_1*%
%TO.N,unconnected-(U1C-RESERVED_1-Pad80)*%
X214387500Y-41037500D03*
%TO.P,U1,81,RESERVED_1*%
%TO.N,unconnected-(U1C-RESERVED_1-Pad81)*%
X214387500Y-41837500D03*
%TO.P,U1,82,RESERVED_1*%
%TO.N,unconnected-(U1C-RESERVED_1-Pad82)*%
X214387500Y-42637500D03*
%TO.P,U1,83,RESERVED_1*%
%TO.N,unconnected-(U1C-RESERVED_1-Pad83)*%
X214387500Y-43437500D03*
%TO.P,U1,84,RESERVED_1*%
%TO.N,unconnected-(U1C-RESERVED_1-Pad84)*%
X214387500Y-44237500D03*
%TO.P,U1,85,RESERVED_1*%
%TO.N,unconnected-(U1C-RESERVED_1-Pad85)*%
X214387500Y-45037500D03*
%TO.P,U1,86,RESERVED_1*%
%TO.N,unconnected-(U1C-RESERVED_1-Pad86)*%
X214387500Y-45837500D03*
%TO.P,U1,87,RESERVED_1*%
%TO.N,unconnected-(U1C-RESERVED_1-Pad87)*%
X214387500Y-46637500D03*
%TO.P,U1,88,RESERVED_1*%
%TO.N,unconnected-(U1C-RESERVED_1-Pad88)*%
X214387500Y-47437500D03*
%TO.P,U1,89,RESERVED_1*%
%TO.N,unconnected-(U1C-RESERVED_1-Pad89)*%
X214387500Y-48237500D03*
%TO.P,U1,90,RESERVED_1*%
%TO.N,unconnected-(U1C-RESERVED_1-Pad90)*%
X214387500Y-49037500D03*
%TO.P,U1,91,RESERVED_1*%
%TO.N,unconnected-(U1C-RESERVED_1-Pad91)*%
X214387500Y-49837500D03*
%TO.P,U1,92,RESERVED_1*%
%TO.N,unconnected-(U1C-RESERVED_1-Pad92)*%
X214387500Y-50637500D03*
%TO.P,U1,93,RESERVED_1*%
%TO.N,unconnected-(U1C-RESERVED_1-Pad93)*%
X214387500Y-51437500D03*
%TO.P,U1,94,RESERVED_1*%
%TO.N,unconnected-(U1C-RESERVED_1-Pad94)*%
X214387500Y-52237500D03*
%TO.P,U1,95,RESERVED_1*%
%TO.N,unconnected-(U1C-RESERVED_1-Pad95)*%
X214387500Y-53037500D03*
D32*
%TO.P,U1,96,UART2_TX*%
%TO.N,unconnected-(U1A-UART2_TX-Pad96)*%
X215537500Y-54087500D03*
%TO.P,U1,97,UART2_RX*%
%TO.N,unconnected-(U1A-UART2_RX-Pad97)*%
X216337500Y-54087500D03*
%TO.P,U1,98,UART2_RTS*%
%TO.N,unconnected-(U1A-UART2_RTS-Pad98)*%
X217137500Y-54087500D03*
%TO.P,U1,99,UART2_CTS*%
%TO.N,unconnected-(U1A-UART2_CTS-Pad99)*%
X217937500Y-54087500D03*
%TO.P,U1,100,RESERVED_1*%
%TO.N,unconnected-(U1C-RESERVED_1-Pad100)*%
X218737500Y-54087500D03*
%TO.P,U1,101,GPIO35*%
%TO.N,unconnected-(U1A-GPIO35-Pad101)*%
X219537500Y-54087500D03*
%TO.P,U1,102,RESERVED_2*%
%TO.N,unconnected-(U1C-RESERVED_2-Pad102)*%
X220337500Y-54087500D03*
%TO.P,U1,103,RESERVED_2*%
%TO.N,unconnected-(U1C-RESERVED_2-Pad103)*%
X221137500Y-54087500D03*
%TO.P,U1,104,GPIO32*%
%TO.N,unconnected-(U1A-GPIO32-Pad104)*%
X221937500Y-54087500D03*
%TO.P,U1,105,GPIO33*%
%TO.N,unconnected-(U1A-GPIO33-Pad105)*%
X222737500Y-54087500D03*
%TO.P,U1,106,~{WWAN_LED}*%
%TO.N,unconnected-(U1A-~{WWAN_LED}-Pad106)*%
X223537500Y-54087500D03*
%TO.P,U1,107,RESERVED_2*%
%TO.N,unconnected-(U1C-RESERVED_2-Pad107)*%
X224337500Y-54087500D03*
%TO.P,U1,108,RESERVED_2*%
%TO.N,unconnected-(U1C-RESERVED_2-Pad108)*%
X225137500Y-54087500D03*
%TO.P,U1,109,GPIO42*%
%TO.N,unconnected-(U1A-GPIO42-Pad109)*%
X225937500Y-54087500D03*
%TO.P,U1,110,WAKE_ON_WWAN*%
%TO.N,/modem/WAKE_ON_WWAN*%
X226737500Y-54087500D03*
%TO.P,U1,111,GND_1*%
%TO.N,GND*%
X227537500Y-54087500D03*
%TO.P,U1,113,GND_1*%
X229137500Y-54087500D03*
%TO.P,U1,114,RESERVED_2*%
%TO.N,unconnected-(U1C-RESERVED_2-Pad114)*%
X229937500Y-54087500D03*
%TO.P,U1,115,RESERVED_2*%
%TO.N,unconnected-(U1C-RESERVED_2-Pad115)*%
X230737500Y-54087500D03*
%TO.P,U1,116,RESERVED_2*%
%TO.N,unconnected-(U1C-RESERVED_2-Pad116)*%
X231537500Y-54087500D03*
%TO.P,U1,117,RESERVED_2*%
%TO.N,unconnected-(U1C-RESERVED_2-Pad117)*%
X232337500Y-54087500D03*
%TO.P,U1,118,RESERVED_2*%
%TO.N,unconnected-(U1C-RESERVED_2-Pad118)*%
X233137500Y-54087500D03*
D31*
%TO.P,U1,119,RESERVED_2*%
%TO.N,unconnected-(U1C-RESERVED_2-Pad119)*%
X234287500Y-53037500D03*
%TO.P,U1,120,RESERVED_2*%
%TO.N,unconnected-(U1C-RESERVED_2-Pad120)*%
X234287500Y-52237500D03*
%TO.P,U1,121,RESERVED_2*%
%TO.N,unconnected-(U1C-RESERVED_2-Pad121)*%
X234287500Y-51437500D03*
%TO.P,U1,122,RESERVED_2*%
%TO.N,unconnected-(U1C-RESERVED_2-Pad122)*%
X234287500Y-50637500D03*
%TO.P,U1,123,RESERVED_2*%
%TO.N,unconnected-(U1C-RESERVED_2-Pad123)*%
X234287500Y-49837500D03*
%TO.P,U1,124,RESERVED_2*%
%TO.N,unconnected-(U1C-RESERVED_2-Pad124)*%
X234287500Y-49037500D03*
%TO.P,U1,125,GND_1*%
%TO.N,GND*%
X234287500Y-48237500D03*
%TO.P,U1,128,GND_1*%
X234287500Y-45837500D03*
%TO.P,U1,129,RESERVED_2*%
%TO.N,unconnected-(U1C-RESERVED_2-Pad129)*%
X234287500Y-45037500D03*
%TO.P,U1,130,RESERVED_2*%
%TO.N,unconnected-(U1C-RESERVED_2-Pad130)*%
X234287500Y-44237500D03*
%TO.P,U1,131,RESERVED_2*%
%TO.N,unconnected-(U1C-RESERVED_2-Pad131)*%
X234287500Y-43437500D03*
%TO.P,U1,132,RESERVED_2*%
%TO.N,unconnected-(U1C-RESERVED_2-Pad132)*%
X234287500Y-42637500D03*
%TO.P,U1,133,RESERVED_2*%
%TO.N,unconnected-(U1C-RESERVED_2-Pad133)*%
X234287500Y-41837500D03*
%TO.P,U1,134,RESERVED_2*%
%TO.N,unconnected-(U1C-RESERVED_2-Pad134)*%
X234287500Y-41037500D03*
%TO.P,U1,135,RESERVED_2*%
%TO.N,unconnected-(U1C-RESERVED_2-Pad135)*%
X234287500Y-40237500D03*
%TO.P,U1,136,GND_1*%
%TO.N,GND*%
X234287500Y-39437500D03*
%TO.P,U1,139,GND_2*%
X234287500Y-37037500D03*
%TO.P,U1,140,RESERVED_2*%
%TO.N,unconnected-(U1C-RESERVED_2-Pad140)*%
X234287500Y-36237500D03*
%TO.P,U1,141,RESERVED_2*%
%TO.N,unconnected-(U1C-RESERVED_2-Pad141)*%
X234287500Y-35437500D03*
%TO.P,U1,142,RESERVED_2*%
%TO.N,unconnected-(U1C-RESERVED_2-Pad142)*%
X234287500Y-34637500D03*
%TO.P,U1,143,RESERVED_2*%
%TO.N,unconnected-(U1C-RESERVED_2-Pad143)*%
X234287500Y-33837500D03*
D32*
%TO.P,U1,144,RESERVED_2*%
%TO.N,unconnected-(U1C-RESERVED_2-Pad144)*%
X233137500Y-32787500D03*
%TO.P,U1,145,RESERVED_2*%
%TO.N,unconnected-(U1C-RESERVED_2-Pad145)*%
X232337500Y-32787500D03*
%TO.P,U1,146,RESERVED_2*%
%TO.N,unconnected-(U1C-RESERVED_2-Pad146)*%
X231537500Y-32787500D03*
%TO.P,U1,147,GPIO21*%
%TO.N,unconnected-(U1A-GPIO21-Pad147)*%
X230737500Y-32787500D03*
%TO.P,U1,148,GPIO22*%
%TO.N,unconnected-(U1A-GPIO22-Pad148)*%
X229937500Y-32787500D03*
%TO.P,U1,149,GPIO23*%
%TO.N,unconnected-(U1A-GPIO23-Pad149)*%
X229137500Y-32787500D03*
%TO.P,U1,150,GPIO24*%
%TO.N,unconnected-(U1A-GPIO24-Pad150)*%
X228337500Y-32787500D03*
%TO.P,U1,151,~{W_DISABLE}*%
%TO.N,unconnected-(U1A-~{W_DISABLE}-Pad151)*%
X227537500Y-32787500D03*
%TO.P,U1,152,SAFE_PWR_REMOVE*%
%TO.N,unconnected-(U1A-SAFE_PWR_REMOVE-Pad152)*%
X226737500Y-32787500D03*
%TO.P,U1,153,ANT_CNTL0/GPIO28*%
%TO.N,unconnected-(U1A-ANT_CNTL0{slash}GPIO28-Pad153)*%
X225937500Y-32787500D03*
%TO.P,U1,154,ANT_CNTL1/GPIO29*%
%TO.N,unconnected-(U1A-ANT_CNTL1{slash}GPIO29-Pad154)*%
X225137500Y-32787500D03*
%TO.P,U1,155,ANT_CNTL2/GPIO30*%
%TO.N,unconnected-(U1A-ANT_CNTL2{slash}GPIO30-Pad155)*%
X224337500Y-32787500D03*
%TO.P,U1,156,ANT_CNTL3/GPIO31*%
%TO.N,unconnected-(U1A-ANT_CNTL3{slash}GPIO31-Pad156)*%
X223537500Y-32787500D03*
%TO.P,U1,157,VBAT_RF*%
%TO.N,VBAT_BB*%
X222737500Y-32787500D03*
%TO.P,U1,158,VBAT_BB*%
X221937500Y-32787500D03*
%TO.P,U1,159,GPIO25*%
%TO.N,unconnected-(U1A-GPIO25-Pad159)*%
X221137500Y-32787500D03*
%TO.P,U1,160,RESERVED_2*%
%TO.N,unconnected-(U1C-RESERVED_2-Pad160)*%
X220337500Y-32787500D03*
%TO.P,U1,161,RESERVED_2*%
%TO.N,unconnected-(U1C-RESERVED_2-Pad161)*%
X219537500Y-32787500D03*
%TO.P,U1,162,RESERVED_2*%
%TO.N,unconnected-(U1C-RESERVED_2-Pad162)*%
X218737500Y-32787500D03*
%TO.P,U1,163,RESERVED_2*%
%TO.N,unconnected-(U1C-RESERVED_2-Pad163)*%
X217937500Y-32787500D03*
%TO.P,U1,164,RESERVED_2*%
%TO.N,unconnected-(U1C-RESERVED_2-Pad164)*%
X217137500Y-32787500D03*
%TO.P,U1,165,RESERVED_2*%
%TO.N,unconnected-(U1C-RESERVED_2-Pad165)*%
X216337500Y-32787500D03*
%TO.P,U1,166,RESERVED_2*%
%TO.N,unconnected-(U1C-RESERVED_2-Pad166)*%
X215537500Y-32787500D03*
D34*
%TO.P,U1,167,GND_2*%
%TO.N,GND*%
X214387500Y-32737500D03*
%TO.P,U1,168,GND_2*%
X214387500Y-54137500D03*
%TO.P,U1,169,GND_2*%
X234287500Y-54137500D03*
%TO.P,U1,170,GND_2*%
X234287500Y-32737500D03*
D33*
%TO.P,U1,171,GND_2*%
X219175000Y-37050000D03*
%TO.P,U1,172,GND_2*%
X220650000Y-37050000D03*
%TO.P,U1,173,GND_2*%
X222125000Y-37050000D03*
%TO.P,U1,174,GND_2*%
X223600000Y-37050000D03*
%TO.P,U1,175,GND_2*%
X225075000Y-37050000D03*
%TO.P,U1,176,GND_2*%
X226550000Y-37050000D03*
%TO.P,U1,177,GND_2*%
X228025000Y-37050000D03*
%TO.P,U1,178,GND_2*%
X229500000Y-37050000D03*
%TO.P,U1,179,GND_2*%
X229500000Y-38875000D03*
%TO.P,U1,180,GND_2*%
X229500000Y-40700000D03*
%TO.P,U1,181,GND_3*%
X229500000Y-42525000D03*
%TO.P,U1,182,GND_3*%
X229500000Y-44350000D03*
%TO.P,U1,183,GND_3*%
X229500000Y-46175000D03*
%TO.P,U1,184,GND_3*%
X229500000Y-48000000D03*
%TO.P,U1,185,GND_3*%
X229500000Y-49825000D03*
%TO.P,U1,186,GND_3*%
X228025000Y-49825000D03*
%TO.P,U1,187,GND_3*%
X226550000Y-49825000D03*
%TO.P,U1,188,GND_3*%
X225075000Y-49825000D03*
%TO.P,U1,189,GND_3*%
X223600000Y-49825000D03*
%TO.P,U1,190,GND_3*%
X222125000Y-49825000D03*
%TO.P,U1,191,GND_3*%
X220650000Y-49825000D03*
%TO.P,U1,192,GND_3*%
X219175000Y-49825000D03*
%TO.P,U1,193,GND_3*%
X219175000Y-48000000D03*
%TO.P,U1,194,GND_3*%
X219175000Y-46175000D03*
%TO.P,U1,195,GND_4*%
X219175000Y-44350000D03*
%TO.P,U1,196,GND_4*%
X219175000Y-42525000D03*
%TO.P,U1,197,GND_4*%
X219175000Y-40700000D03*
%TO.P,U1,198,GND_4*%
X219175000Y-38875000D03*
%TO.P,U1,199,GND_4*%
X220650000Y-38875000D03*
%TO.P,U1,200,GND_4*%
X222125000Y-38875000D03*
%TO.P,U1,201,GND_4*%
X223600000Y-38875000D03*
%TO.P,U1,202,GND_4*%
X225075000Y-38875000D03*
%TO.P,U1,203,GND_4*%
X226550000Y-38875000D03*
%TO.P,U1,204,GND_4*%
X228025000Y-38875000D03*
%TO.P,U1,205,GND_4*%
X228025000Y-40700000D03*
%TO.P,U1,206,GND_4*%
X228025000Y-42525000D03*
%TO.P,U1,207,GND_4*%
X228025000Y-44350000D03*
%TO.P,U1,208,GND_4*%
X228025000Y-46175000D03*
%TO.P,U1,209,GND_4*%
X228025000Y-48000000D03*
%TO.P,U1,210,GND_5*%
X226550000Y-48000000D03*
%TO.P,U1,211,GND_5*%
X225075000Y-48000000D03*
%TO.P,U1,212,GND_5*%
X223600000Y-48000000D03*
%TO.P,U1,213,GND_5*%
X222125000Y-48000000D03*
%TO.P,U1,214,GND_5*%
X220650000Y-48000000D03*
%TO.P,U1,215,GND_5*%
X220650000Y-46175000D03*
%TO.P,U1,216,GND_5*%
X220650000Y-44350000D03*
%TO.P,U1,217,GND_5*%
X220650000Y-42525000D03*
%TO.P,U1,218,GND_5*%
X220650000Y-40700000D03*
%TO.P,U1,219,GND_5*%
X222125000Y-40700000D03*
%TO.P,U1,220,GND_5*%
X223600000Y-40700000D03*
%TO.P,U1,221,GND_5*%
X225075000Y-40700000D03*
%TO.P,U1,222,GND_5*%
X226550000Y-40700000D03*
%TO.P,U1,223,GND_5*%
X226550000Y-42525000D03*
%TO.P,U1,224,GND_5*%
X226550000Y-44350000D03*
%TO.P,U1,225,GND_6*%
X226550000Y-46175000D03*
%TO.P,U1,226,GND_6*%
X225075000Y-46175000D03*
%TO.P,U1,227,GND_6*%
X223600000Y-46175000D03*
%TO.P,U1,228,GND_6*%
X222125000Y-46175000D03*
%TO.P,U1,229,GND_6*%
X222125000Y-44350000D03*
%TO.P,U1,230,GND_6*%
X222125000Y-42525000D03*
%TO.P,U1,231,GND_6*%
X223600000Y-42525000D03*
%TO.P,U1,232,GND_6*%
X225075000Y-42525000D03*
%TO.P,U1,233,GND_6*%
X225075000Y-44350000D03*
%TO.P,U1,234,GND_6*%
X223600000Y-44350000D03*
D35*
%TO.P,U1,236,J1*%
%TO.N,Net-(U1A-J1)*%
X215857500Y-37037500D03*
%TO.P,U1,237,J2*%
%TO.N,Net-(U1A-J2)*%
X215857500Y-38237500D03*
%TO.P,U1,238,J3*%
%TO.N,Net-(U1A-J3)*%
X215857500Y-39437500D03*
%TO.P,U1,239,J4*%
%TO.N,Net-(U1A-J4)*%
X215857500Y-40637500D03*
%TO.P,U1,240,J5*%
%TO.N,Net-(U1A-J5)*%
X215857500Y-41837500D03*
%TO.P,U1,241,J6*%
%TO.N,Net-(U1A-J6)*%
X215857500Y-43037500D03*
%TO.P,U1,242,J7*%
%TO.N,Net-(U1A-J7)*%
X215857500Y-44237500D03*
%TO.P,U1,243,J8*%
%TO.N,Net-(U1A-J8)*%
X215857500Y-45437500D03*
%TO.P,U1,244,J9*%
%TO.N,Net-(U1A-J9)*%
X215857500Y-46637500D03*
D36*
%TO.P,U1,PM1*%
%TO.N,N/C*%
X216057500Y-35257500D03*
%TD*%
D29*
%TO.P,J9,1,1*%
%TO.N,Net-(U1A-J4)*%
X205800000Y-37400000D03*
%TD*%
D36*
%TO.P,TP11,1,1*%
%TO.N,Net-(J16-CD{slash}DAT3)*%
X92032500Y-44624999D03*
%TD*%
D37*
%TO.P,C8,1*%
%TO.N,VBAT_BB*%
X187400000Y-79625000D03*
%TO.P,C8,2*%
%TO.N,GND*%
X187400000Y-78075000D03*
%TD*%
D30*
%TO.P,C11,1*%
%TO.N,Net-(J16-VDD)*%
X104300000Y-27800000D03*
%TO.P,C11,2*%
%TO.N,GND*%
X104300000Y-29350000D03*
%TD*%
D38*
%TO.P,R14,1*%
%TO.N,Net-(D11-K)*%
X213900000Y-63475000D03*
%TO.P,R14,2*%
%TO.N,/MODEM_TX_ON*%
X213900000Y-65125000D03*
%TD*%
D24*
%TO.P,R16,1*%
%TO.N,Net-(U10-Q1)*%
X113150000Y-27200000D03*
%TO.P,R16,2*%
%TO.N,Net-(Q1-G)*%
X111500000Y-27200000D03*
%TD*%
D30*
%TO.P,C19,1*%
%TO.N,+1V8_CM5*%
X161000000Y-38325000D03*
%TO.P,C19,2*%
%TO.N,GND*%
X161000000Y-39875000D03*
%TD*%
D11*
%TO.P,C13,1*%
%TO.N,+3V3*%
X137125000Y-34310000D03*
%TO.P,C13,2*%
%TO.N,GND*%
X138675000Y-34310000D03*
%TD*%
D39*
%TO.P,U12,1,I/O_1*%
%TO.N,/USB2_P*%
X170137500Y-78495000D03*
%TO.P,U12,2,GND*%
%TO.N,GND*%
X170137500Y-77545000D03*
%TO.P,U12,3,I/O_2*%
%TO.N,/CC2*%
X170137500Y-76595000D03*
%TO.P,U12,4,I/O_3*%
%TO.N,/CC1*%
X167647500Y-76595000D03*
%TO.P,U12,5,VP*%
%TO.N,+5V*%
X167647500Y-77545000D03*
%TO.P,U12,6,I/O_4*%
%TO.N,/USB2_N*%
X167647500Y-78495000D03*
%TD*%
D40*
%TO.P,J4,1*%
%TO.N,Net-(D6-A2)*%
X242341500Y-38159250D03*
D41*
%TO.P,J4,SH1*%
%TO.N,GND*%
X242341500Y-40929250D03*
%TO.P,J4,SH2*%
X242341500Y-35389250D03*
%TD*%
D30*
%TO.P,C2,1*%
%TO.N,+5V*%
X156120000Y-77400000D03*
%TO.P,C2,2*%
%TO.N,GND*%
X156120000Y-78950000D03*
%TD*%
D42*
%TO.P,J16,P1,DAT2*%
%TO.N,Net-(J16-DAT2)*%
X91882500Y-36799999D03*
%TO.P,J16,P2,CD/DAT3*%
%TO.N,Net-(J16-CD{slash}DAT3)*%
X92982500Y-36799999D03*
%TO.P,J16,P3,CMD*%
%TO.N,Net-(J16-CMD)*%
X94082500Y-36799999D03*
%TO.P,J16,P4,VDD*%
%TO.N,Net-(J16-VDD)*%
X95182500Y-36799999D03*
%TO.P,J16,P5,CLK*%
%TO.N,Net-(J16-CLK)*%
X96282500Y-36799999D03*
%TO.P,J16,P6,VSS*%
%TO.N,GND*%
X97382500Y-36799999D03*
%TO.P,J16,P7,DAT0*%
%TO.N,Net-(J16-DAT0)*%
X98482500Y-36799999D03*
%TO.P,J16,P8,DAT1*%
%TO.N,Net-(J16-DAT1)*%
X99582500Y-36799999D03*
%TO.P,J16,P9,CD*%
%TO.N,unconnected-(J16-CD-PadP9)*%
X100682500Y-36799999D03*
D43*
%TO.P,J16,SH1,SHIELD*%
%TO.N,GND*%
X102062500Y-25799999D03*
%TO.P,J16,SH2,SHIELD*%
X102062500Y-34799999D03*
%TO.P,J16,SH3,SHIELD*%
X85912500Y-34799999D03*
%TO.P,J16,SH4,SHIELD*%
X85912500Y-25799999D03*
%TD*%
D38*
%TO.P,R1,1*%
%TO.N,+5V*%
X158120000Y-77350000D03*
%TO.P,R1,2*%
%TO.N,GND*%
X158120000Y-79000000D03*
%TD*%
D29*
%TO.P,TP1,1,1*%
%TO.N,Net-(U1A-UART1_TX)*%
X202100000Y-30200000D03*
%TD*%
D44*
%TO.P,C7,1*%
%TO.N,/modem/UIM_VCC*%
X225635000Y-77700001D03*
%TO.P,C7,2*%
%TO.N,GND*%
X224085000Y-77700001D03*
%TD*%
D45*
%TO.P,R11,1*%
%TO.N,/modem/WAKE_ON_WWAN*%
X206330000Y-60425000D03*
%TO.P,R11,2*%
%TO.N,GND*%
X206330000Y-58775000D03*
%TD*%
D46*
%TO.P,TP14,1,1*%
%TO.N,/SD2*%
X98800000Y-61400000D03*
%TD*%
D47*
%TO.P,J15,1,1*%
%TO.N,GND*%
X83987500Y-45299999D03*
%TO.P,J15,2,2*%
X83987500Y-45799999D03*
%TO.P,J15,3,3*%
%TO.N,/sd-interface/SD8*%
X83987500Y-46299999D03*
%TO.P,J15,4,4*%
X83987500Y-46799999D03*
%TO.P,J15,5,5*%
%TO.N,GND*%
X83987500Y-47299999D03*
%TO.P,J15,6,6*%
%TO.N,/sd-interface/SD7*%
X83987500Y-47799999D03*
%TO.P,J15,7,7*%
X83987500Y-48299999D03*
%TO.P,J15,8,8*%
%TO.N,GND*%
X83987500Y-48799999D03*
%TO.P,J15,9,9*%
%TO.N,/sd-interface/SD5*%
X83987500Y-49299999D03*
%TO.P,J15,10,10*%
X83987500Y-49799999D03*
%TO.P,J15,11,11*%
%TO.N,GND*%
X83987500Y-50299999D03*
%TO.P,J15,12,12*%
%TO.N,/sd-interface/SD4*%
X83987500Y-50799999D03*
%TO.P,J15,13,13*%
X83987500Y-51299999D03*
%TO.P,J15,14,14*%
%TO.N,GND*%
X83987500Y-51799999D03*
%TO.P,J15,15,15*%
%TO.N,/sd-interface/SD3*%
X83987500Y-52299999D03*
%TO.P,J15,16,16*%
X83987500Y-52799999D03*
%TO.P,J15,17,17*%
%TO.N,GND*%
X83987500Y-53299999D03*
%TO.P,J15,18,18*%
%TO.N,/sd-interface/SD2*%
X83987500Y-53799999D03*
%TO.P,J15,19,19*%
X83987500Y-54299999D03*
%TO.P,J15,20,20*%
%TO.N,GND*%
X83987500Y-54799999D03*
%TO.P,J15,21,21*%
%TO.N,/sd-interface/SD1*%
X83987500Y-55299999D03*
%TO.P,J15,22,22*%
X83987500Y-55799999D03*
D48*
%TO.P,J15,SH1,SH1*%
%TO.N,GND*%
X82987500Y-43049999D03*
D49*
%TO.P,J15,SH2,SH2*%
X82987500Y-58049999D03*
%TD*%
D24*
%TO.P,R2,1*%
%TO.N,Net-(D5-Pad1)*%
X188000000Y-39000000D03*
%TO.P,R2,2*%
%TO.N,Net-(M1A-LED_nACT)*%
X186350000Y-39000000D03*
%TD*%
D30*
%TO.P,C22,1*%
%TO.N,+3V3_CM5*%
X117237500Y-57887499D03*
%TO.P,C22,2*%
%TO.N,GND*%
X117237500Y-59437499D03*
%TD*%
D44*
%TO.P,C9,1*%
%TO.N,+3V3*%
X95362500Y-51999999D03*
%TO.P,C9,2*%
%TO.N,GND*%
X93812500Y-51999999D03*
%TD*%
D50*
%TO.P,CR2,1,1*%
%TO.N,Net-(J16-DAT0)*%
X98487498Y-41413999D03*
%TO.P,CR2,2,2*%
%TO.N,Net-(J16-DAT1)*%
X98987500Y-41413999D03*
D51*
%TO.P,CR2,3,GND*%
%TO.N,GND*%
X99487499Y-41413999D03*
D50*
%TO.P,CR2,4,4*%
%TO.N,Net-(CR2-Pad4)*%
X99987498Y-41413999D03*
%TO.P,CR2,5,5*%
%TO.N,Net-(CR2-Pad5)*%
X100487500Y-41413999D03*
%TO.P,CR2,6,6*%
X100487500Y-40524999D03*
%TO.P,CR2,7,7*%
%TO.N,Net-(CR2-Pad4)*%
X99987498Y-40524999D03*
D51*
%TO.P,CR2,8,GND*%
%TO.N,GND*%
X99487499Y-40524999D03*
D50*
%TO.P,CR2,9,9*%
%TO.N,Net-(J16-DAT1)*%
X98987500Y-40524999D03*
%TO.P,CR2,10,10*%
%TO.N,Net-(J16-DAT0)*%
X98487498Y-40524999D03*
%TD*%
D52*
%TO.P,D6,1,A1*%
%TO.N,GND*%
X238300000Y-39170000D03*
%TO.P,D6,2,A2*%
%TO.N,Net-(D6-A2)*%
X238300000Y-38200000D03*
%TD*%
D37*
%TO.P,C6,1*%
%TO.N,VBAT_BB*%
X185300000Y-79625000D03*
%TO.P,C6,2*%
%TO.N,GND*%
X185300000Y-78075000D03*
%TD*%
D38*
%TO.P,R4,1*%
%TO.N,/MODEM_POWER_ON_N*%
X210940000Y-69625000D03*
%TO.P,R4,2*%
%TO.N,GND*%
X210940000Y-71275000D03*
%TD*%
D37*
%TO.P,C24,1*%
%TO.N,GND*%
X112737500Y-58637499D03*
%TO.P,C24,2*%
%TO.N,+3V3_CM5*%
X112737500Y-57087499D03*
%TD*%
%TO.P,C23,1*%
%TO.N,+3V3_CM5*%
X121737500Y-51437499D03*
%TO.P,C23,2*%
%TO.N,GND*%
X121737500Y-49887499D03*
%TD*%
D53*
%TO.P,U7,1*%
%TO.N,/modem/1V8_TX_ON*%
X211950000Y-63130000D03*
%TO.P,U7,2*%
%TO.N,GND*%
X210650000Y-63130000D03*
%TO.P,U7,3*%
%TO.N,/MODEM_TX_ON*%
X211300000Y-65070000D03*
%TD*%
D54*
%TO.P,R15,1*%
%TO.N,+3V3*%
X111500000Y-25200000D03*
%TO.P,R15,2*%
%TO.N,Net-(U10-Q1)*%
X113150000Y-25200000D03*
%TD*%
D28*
%TO.P,D5,1,1*%
%TO.N,Net-(D5-Pad1)*%
X188000000Y-37160000D03*
%TO.P,D5,2,2*%
%TO.N,+3V3_CM5*%
X186500000Y-37160000D03*
%TD*%
D38*
%TO.P,R6,1*%
%TO.N,/MODEM_BOOT_MODE*%
X210800000Y-73350000D03*
%TO.P,R6,2*%
%TO.N,GND*%
X210800000Y-75000000D03*
%TD*%
D45*
%TO.P,R8,1*%
%TO.N,/modem/UIM_VCC*%
X221860000Y-85325000D03*
%TO.P,R8,2*%
%TO.N,Net-(D1-A2)*%
X221860000Y-83675000D03*
%TD*%
D37*
%TO.P,C4,1*%
%TO.N,VBAT_BB*%
X183200000Y-79625000D03*
%TO.P,C4,2*%
%TO.N,GND*%
X183200000Y-78075000D03*
%TD*%
D29*
%TO.P,J14,1,1*%
%TO.N,Net-(U1A-J9)*%
X206200000Y-53000000D03*
%TD*%
D44*
%TO.P,C3,1*%
%TO.N,/modem/UIM_VCC*%
X225610000Y-82300001D03*
%TO.P,C3,2*%
%TO.N,GND*%
X224060000Y-82300001D03*
%TD*%
D46*
%TO.P,TP16,1,1*%
%TO.N,/SD5*%
X82500000Y-67500000D03*
%TD*%
D36*
%TO.P,TP10,1,1*%
%TO.N,Net-(J16-CMD)*%
X92832500Y-46624999D03*
%TD*%
D24*
%TO.P,R12,1*%
%TO.N,/modem/1V8_TX_ON*%
X211925000Y-61000000D03*
%TO.P,R12,2*%
%TO.N,GND*%
X210275000Y-61000000D03*
%TD*%
D55*
%TO.P,BT1,1,+*%
%TO.N,/compute-module/VBAT*%
X89430000Y-79000000D03*
X111400000Y-79000000D03*
D56*
%TO.P,BT1,2,-*%
%TO.N,GND*%
X100415000Y-79000000D03*
%TD*%
D46*
%TO.P,TP13,1,1*%
%TO.N,Net-(J16-VDD)*%
X107900000Y-31900000D03*
%TD*%
D29*
%TO.P,J6,1,1*%
%TO.N,Net-(U1A-J1)*%
X202700000Y-24500000D03*
%TD*%
D36*
%TO.P,TP12,1,1*%
%TO.N,Net-(J16-DAT2)*%
X91432500Y-42624999D03*
%TD*%
D30*
%TO.P,C1,1*%
%TO.N,+5V*%
X153920000Y-77400000D03*
%TO.P,C1,2*%
%TO.N,GND*%
X153920000Y-78950000D03*
%TD*%
D57*
%TO.P,U4,1*%
%TO.N,/MODEM_BOOT_MODE*%
X212830000Y-73225000D03*
%TO.P,U4,2*%
%TO.N,GND*%
X212830000Y-74525000D03*
%TO.P,U4,3*%
%TO.N,/modem/1V8_BOOT_MODE*%
X214770000Y-73875000D03*
%TD*%
D29*
%TO.P,J12,1,1*%
%TO.N,Net-(U1A-J7)*%
X206100000Y-48000000D03*
%TD*%
D11*
%TO.P,C17,1*%
%TO.N,+5V*%
X161625000Y-28800000D03*
%TO.P,C17,2*%
%TO.N,GND*%
X163175000Y-28800000D03*
%TD*%
D57*
%TO.P,U2,1*%
%TO.N,/MODEM_POWER_ON_N*%
X212900000Y-69700000D03*
%TO.P,U2,2*%
%TO.N,GND*%
X212900000Y-71000000D03*
%TO.P,U2,3*%
%TO.N,/modem/1V8_POWER_ON_N*%
X214840000Y-70350000D03*
%TD*%
D29*
%TO.P,TP2,1,1*%
%TO.N,Net-(U1A-UART1_DTR)*%
X201800000Y-39100000D03*
%TD*%
D30*
%TO.P,C14,1*%
%TO.N,+5V*%
X151920000Y-77400000D03*
%TO.P,C14,2*%
%TO.N,GND*%
X151920000Y-78950000D03*
%TD*%
D58*
%TO.P,IC1,1,LED*%
%TO.N,unconnected-(IC1-LED-Pad1)*%
X113987500Y-55299999D03*
%TO.P,IC1,2,USB+*%
%TO.N,/USB3-0-D_P*%
X114487500Y-55299999D03*
%TO.P,IC1,3,USB-*%
%TO.N,/USB3-0-D_N*%
X114987500Y-55299999D03*
%TO.P,IC1,4,SD_D1*%
%TO.N,/sd-interface/SD-pin8*%
X115487500Y-55299999D03*
%TO.P,IC1,5,SD_D0*%
%TO.N,/sd-interface/SD-pin7*%
X115987500Y-55299999D03*
%TO.P,IC1,6,VDD33_1*%
%TO.N,+3V3_CM5*%
X116487500Y-55299999D03*
%TO.P,IC1,7,SD_D7*%
%TO.N,unconnected-(IC1-SD_D7-Pad7)*%
X116987500Y-55299999D03*
%TO.P,IC1,8,SD_D6*%
%TO.N,unconnected-(IC1-SD_D6-Pad8)*%
X117487500Y-55299999D03*
%TO.P,IC1,9,SD_CLK*%
%TO.N,/sd-interface/SD-pin5*%
X117987500Y-55299999D03*
D59*
%TO.P,IC1,10,SD_D5*%
%TO.N,unconnected-(IC1-SD_D5-Pad10)*%
X118825000Y-54462499D03*
%TO.P,IC1,11,SD_CMD*%
%TO.N,/sd-interface/SD-pin3*%
X118825000Y-53962499D03*
%TO.P,IC1,12,NC_1*%
%TO.N,unconnected-(IC1-NC_1-Pad12)*%
X118825000Y-53462499D03*
%TO.P,IC1,13,VDD18*%
%TO.N,Net-(IC1-VDD18)*%
X118825000Y-52962499D03*
%TO.P,IC1,14,VDD33_2*%
%TO.N,+3V3_CM5*%
X118825000Y-52462499D03*
%TO.P,IC1,15,NC_2*%
%TO.N,unconnected-(IC1-NC_2-Pad15)*%
X118825000Y-51962499D03*
%TO.P,IC1,16,NC_3*%
%TO.N,unconnected-(IC1-NC_3-Pad16)*%
X118825000Y-51462499D03*
%TO.P,IC1,17,NC_4*%
%TO.N,unconnected-(IC1-NC_4-Pad17)*%
X118825000Y-50962499D03*
%TO.P,IC1,18,RESET_N*%
%TO.N,/USB_INT_RESET*%
X118825000Y-50462499D03*
D58*
%TO.P,IC1,19,NC_5*%
%TO.N,unconnected-(IC1-NC_5-Pad19)*%
X117987500Y-49624999D03*
%TO.P,IC1,20,SD_D4*%
%TO.N,unconnected-(IC1-SD_D4-Pad20)*%
X117487500Y-49624999D03*
%TO.P,IC1,21,CRD_PWR*%
%TO.N,/usb-interface/CRD_PWR*%
X116987500Y-49624999D03*
%TO.P,IC1,22,VDD33_3*%
%TO.N,+3V3_CM5*%
X116487500Y-49624999D03*
%TO.P,IC1,23,SD_D3*%
%TO.N,/sd-interface/SD-pin2*%
X115987500Y-49624999D03*
%TO.P,IC1,24,NC_6*%
%TO.N,unconnected-(IC1-NC_6-Pad24)*%
X115487500Y-49624999D03*
%TO.P,IC1,25,SD_D2*%
%TO.N,/sd-interface/SD-pin1*%
X114987500Y-49624999D03*
%TO.P,IC1,26,SD_NCD*%
%TO.N,unconnected-(IC1-SD_NCD-Pad26)*%
X114487500Y-49624999D03*
%TO.P,IC1,27,RXD/SDA*%
%TO.N,unconnected-(IC1-RXD{slash}SDA-Pad27)*%
X113987500Y-49624999D03*
D59*
%TO.P,IC1,28,TEST*%
%TO.N,GND*%
X113150000Y-50462499D03*
%TO.P,IC1,29,NC_7*%
%TO.N,unconnected-(IC1-NC_7-Pad29)*%
X113150000Y-50962499D03*
%TO.P,IC1,30,SD_WP*%
%TO.N,unconnected-(IC1-SD_WP-Pad30)*%
X113150000Y-51462499D03*
%TO.P,IC1,31,TXD_/_SCK*%
%TO.N,unconnected-(IC1-TXD_{slash}_SCK-Pad31)*%
X113150000Y-51962499D03*
%TO.P,IC1,32,XTAL2*%
%TO.N,unconnected-(IC1-XTAL2-Pad32)*%
X113150000Y-52462499D03*
%TO.P,IC1,33,XTAL1_(CLKIN)*%
%TO.N,/GPCLK*%
X113150000Y-52962499D03*
%TO.P,IC1,34,VDD18PLL*%
%TO.N,Net-(IC1-VDD18PLL)*%
X113150000Y-53462499D03*
%TO.P,IC1,35,RBIAS*%
%TO.N,Net-(IC1-RBIAS)*%
X113150000Y-53962499D03*
%TO.P,IC1,36,VDDA33*%
%TO.N,+3V3_CM5*%
X113150000Y-54462499D03*
D60*
%TO.P,IC1,37,EP*%
%TO.N,GND*%
X114987500Y-53462499D03*
X115987500Y-53462499D03*
X116987500Y-53462499D03*
X114987500Y-52462499D03*
X115987500Y-52462499D03*
D61*
X115987500Y-52462499D03*
D60*
X116987500Y-52462499D03*
X114987500Y-51462499D03*
X115987500Y-51462499D03*
X116987500Y-51462499D03*
%TD*%
D62*
%TO.P,U10,1,Q4*%
%TO.N,Net-(U10-Q4)*%
X140350000Y-45580000D03*
%TO.P,U10,2,Q1*%
%TO.N,Net-(U10-Q1)*%
X140350000Y-44310000D03*
%TO.P,U10,3,R1*%
%TO.N,/SD_SWITCH_ENABLE*%
X140350000Y-43040000D03*
%TO.P,U10,4,S1*%
%TO.N,/SD_SWITCH_DISABLE*%
X140350000Y-41770000D03*
%TO.P,U10,5,EN*%
%TO.N,+3V3*%
X140350000Y-40500000D03*
%TO.P,U10,6,S2*%
%TO.N,/EXT_5V_ENABLE*%
X140350000Y-39230000D03*
%TO.P,U10,7,R2*%
%TO.N,/EXT_5V_DISABLE*%
X140350000Y-37960000D03*
%TO.P,U10,8,VSS*%
%TO.N,GND*%
X140350000Y-36690000D03*
%TO.P,U10,9,Q2*%
%TO.N,Net-(U10-Q2)*%
X135400000Y-36690000D03*
%TO.P,U10,10,Q3*%
%TO.N,Net-(U10-Q3)*%
X135400000Y-37960000D03*
%TO.P,U10,11,R3*%
%TO.N,/SD_SWITCH_ENABLE*%
X135400000Y-39230000D03*
%TO.P,U10,12,S3*%
%TO.N,/SD_SWITCH_DISABLE*%
X135400000Y-40500000D03*
%TO.P,U10,13,NC*%
%TO.N,unconnected-(U10-NC-Pad13)*%
X135400000Y-41770000D03*
%TO.P,U10,14,S4*%
%TO.N,/SD_SET_HOST*%
X135400000Y-43040000D03*
%TO.P,U10,15,R4*%
%TO.N,/SD_RESET_HOST*%
X135400000Y-44310000D03*
%TO.P,U10,16,VDD*%
%TO.N,+3V3*%
X135400000Y-45580000D03*
%TD*%
D45*
%TO.P,R17,1*%
%TO.N,GND*%
X110857500Y-58687499D03*
%TO.P,R17,2*%
%TO.N,Net-(IC1-RBIAS)*%
X110857500Y-57037499D03*
%TD*%
D63*
%TO.P,U6,1*%
%TO.N,/modem/WAKE_ON_WWAN*%
X204370000Y-60450000D03*
%TO.P,U6,2*%
%TO.N,GND*%
X204370000Y-59150000D03*
%TO.P,U6,3*%
%TO.N,/CM_WAKE_ON_WWAN*%
X202430000Y-59800000D03*
%TD*%
D36*
%TO.P,TP7,1,1*%
%TO.N,Net-(J16-DAT1)*%
X100132500Y-43224999D03*
%TD*%
D29*
%TO.P,J10,1,1*%
%TO.N,Net-(U1A-J5)*%
X205600000Y-42000000D03*
%TD*%
%TO.P,TP4,1,1*%
%TO.N,Net-(U1A-UART1_RX)*%
X201800000Y-34300000D03*
%TD*%
D64*
%TO.P,J17,1*%
%TO.N,Net-(U11-VOUT)*%
X150500000Y-85000000D03*
%TO.P,J17,2*%
%TO.N,GND*%
X155500000Y-85000000D03*
%TD*%
D36*
%TO.P,TP9,1,1*%
%TO.N,Net-(J16-CLK)*%
X96100000Y-42600000D03*
%TD*%
D50*
%TO.P,CR1,1,1*%
%TO.N,Net-(J16-DAT2)*%
X92882498Y-41413999D03*
%TO.P,CR1,2,2*%
%TO.N,Net-(J16-CD{slash}DAT3)*%
X93382500Y-41413999D03*
D51*
%TO.P,CR1,3,GND*%
%TO.N,GND*%
X93882499Y-41413999D03*
D50*
%TO.P,CR1,4,4*%
%TO.N,Net-(J16-CMD)*%
X94382498Y-41413999D03*
%TO.P,CR1,5,5*%
%TO.N,Net-(J16-CLK)*%
X94882500Y-41413999D03*
%TO.P,CR1,6,6*%
X94882500Y-40524999D03*
%TO.P,CR1,7,7*%
%TO.N,Net-(J16-CMD)*%
X94382498Y-40524999D03*
D51*
%TO.P,CR1,8,GND*%
%TO.N,GND*%
X93882499Y-40524999D03*
D50*
%TO.P,CR1,9,9*%
%TO.N,Net-(J16-CD{slash}DAT3)*%
X93382500Y-40524999D03*
%TO.P,CR1,10,10*%
%TO.N,Net-(J16-DAT2)*%
X92882498Y-40524999D03*
%TD*%
D29*
%TO.P,J13,1,1*%
%TO.N,Net-(U1A-J8)*%
X202100000Y-50700000D03*
%TD*%
D30*
%TO.P,C12,1*%
%TO.N,+3V3*%
X93987500Y-59725000D03*
%TO.P,C12,2*%
%TO.N,GND*%
X93987500Y-61275000D03*
%TD*%
D40*
%TO.P,J5,1*%
%TO.N,Net-(D7-A2)*%
X242141500Y-63659250D03*
D41*
%TO.P,J5,SH1*%
%TO.N,GND*%
X242141500Y-66429250D03*
%TO.P,J5,SH2*%
X242141500Y-60889250D03*
%TD*%
D29*
%TO.P,J11,1,1*%
%TO.N,Net-(U1A-J6)*%
X202200000Y-45100000D03*
%TD*%
D26*
%TO.P,J2,1,Pin_1*%
%TO.N,GND*%
X126960000Y-23000000D03*
D27*
%TO.P,J2,2,Pin_2*%
%TO.N,/compute-module/nRPIBOOT*%
X126960000Y-25540000D03*
%TO.P,J2,3,Pin_3*%
%TO.N,GND*%
X129500000Y-23000000D03*
%TO.P,J2,4,Pin_4*%
%TO.N,/compute-module/EEPROM_nWP*%
X129500000Y-25540000D03*
%TO.P,J2,5,Pin_5*%
%TO.N,GND*%
X132040000Y-23000000D03*
%TO.P,J2,6,Pin_6*%
%TO.N,/compute-module/SYNC_OUT*%
X132040000Y-25540000D03*
%TO.P,J2,7,Pin_7*%
%TO.N,GND*%
X134580000Y-23000000D03*
%TO.P,J2,8,Pin_8*%
%TO.N,unconnected-(J2-Pin_8-Pad8)*%
X134580000Y-25540000D03*
%TO.P,J2,9,Pin_9*%
%TO.N,GND*%
X137120000Y-23000000D03*
%TO.P,J2,10,Pin_10*%
%TO.N,/compute-module/USB_OTG_ID*%
X137120000Y-25540000D03*
%TO.P,J2,11,Pin_11*%
%TO.N,GND*%
X139660000Y-23000000D03*
%TO.P,J2,12,Pin_12*%
%TO.N,/compute-module/PMIC_ENABLE*%
X139660000Y-25540000D03*
%TO.P,J2,13,Pin_13*%
%TO.N,GND*%
X142200000Y-23000000D03*
%TO.P,J2,14,Pin_14*%
%TO.N,/compute-module/PWR_BUT*%
X142200000Y-25540000D03*
%TD*%
D38*
%TO.P,R10,1*%
%TO.N,/modem/UIM_VCC*%
X219700000Y-83575000D03*
%TO.P,R10,2*%
%TO.N,/modem/UIM_DATA*%
X219700000Y-85225000D03*
%TD*%
D65*
%TO.P,SW1,1*%
%TO.N,/compute-module/PWR_BUT*%
X118950000Y-30550000D03*
D66*
%TO.P,SW1,2*%
X125450000Y-30550000D03*
%TO.P,SW1,3*%
%TO.N,GND*%
X118950000Y-35050000D03*
%TO.P,SW1,4*%
X125450000Y-35050000D03*
%TD*%
D64*
%TO.P,J19,1*%
%TO.N,+3V3*%
X119900000Y-83200000D03*
%TO.P,J19,2*%
%TO.N,GND*%
X124900000Y-83200000D03*
%TD*%
D38*
%TO.P,R5,1*%
%TO.N,/MODEM_RESET_N*%
X202570000Y-65725000D03*
%TO.P,R5,2*%
%TO.N,GND*%
X202570000Y-67375000D03*
%TD*%
D67*
%TO.P,CR4,1*%
%TO.N,GND*%
X161620000Y-81378600D03*
%TO.P,CR4,2*%
%TO.N,+5V*%
X161620000Y-77975000D03*
%TD*%
D29*
%TO.P,TP3,1,1*%
%TO.N,Net-(U1A-UART1_RTS)*%
X211100000Y-27100000D03*
%TD*%
D44*
%TO.P,C5,1*%
%TO.N,/modem/UIM_VCC*%
X225610000Y-80000001D03*
%TO.P,C5,2*%
%TO.N,GND*%
X224060000Y-80000001D03*
%TD*%
D64*
%TO.P,J18,1*%
%TO.N,VBAT_BB*%
X183700000Y-84591500D03*
%TO.P,J18,2*%
%TO.N,GND*%
X188700000Y-84591500D03*
%TD*%
D68*
%TO.P,D1,1,A1*%
%TO.N,GND*%
X227460000Y-82130000D03*
%TO.P,D1,2,A2*%
%TO.N,Net-(D1-A2)*%
X227460000Y-83100000D03*
%TD*%
D11*
%TO.P,C15,1*%
%TO.N,GND*%
X109387500Y-53862499D03*
%TO.P,C15,2*%
%TO.N,Net-(IC1-VDD18PLL)*%
X110937500Y-53862499D03*
%TD*%
D57*
%TO.P,U3,1*%
%TO.N,/MODEM_RESET_N*%
X204700000Y-65800000D03*
%TO.P,U3,2*%
%TO.N,GND*%
X204700000Y-67100000D03*
%TO.P,U3,3*%
%TO.N,/modem/1V8_RESET_IN_N*%
X206640000Y-66450000D03*
%TD*%
D69*
%TO.P,J1,A1,GND*%
%TO.N,GND*%
X165600000Y-81120000D03*
%TO.P,J1,A4,VBUS*%
%TO.N,+5V*%
X166400000Y-81120000D03*
D70*
%TO.P,J1,A5,CC1*%
%TO.N,/CC1*%
X167550000Y-81120000D03*
%TO.P,J1,A6,D+*%
%TO.N,/USB2_P*%
X168550000Y-81120000D03*
%TO.P,J1,A7,D-*%
%TO.N,/USB2_N*%
X169050000Y-81120000D03*
%TO.P,J1,A8,SBU1*%
%TO.N,unconnected-(J1-SBU1-PadA8)*%
X170050000Y-81120000D03*
D69*
%TO.P,J1,A9,VBUS*%
%TO.N,+5V*%
X171200000Y-81120000D03*
%TO.P,J1,A12,GND*%
%TO.N,GND*%
X172000000Y-81120000D03*
%TO.P,J1,B1,GND*%
X172000000Y-81120000D03*
%TO.P,J1,B4,VBUS*%
%TO.N,+5V*%
X171200000Y-81120000D03*
D70*
%TO.P,J1,B5,CC2*%
%TO.N,/CC2*%
X170550000Y-81120000D03*
%TO.P,J1,B6,D+*%
%TO.N,/USB2_P*%
X169550000Y-81120000D03*
%TO.P,J1,B7,D-*%
%TO.N,/USB2_N*%
X168050000Y-81120000D03*
%TO.P,J1,B8,SBU2*%
%TO.N,unconnected-(J1-SBU2-PadB8)*%
X167050000Y-81120000D03*
D69*
%TO.P,J1,B9,VBUS*%
%TO.N,+5V*%
X166400000Y-81120000D03*
%TO.P,J1,B12,GND*%
%TO.N,GND*%
X165600000Y-81120000D03*
D71*
%TO.P,J1,S1,SHIELD*%
X164480000Y-81695000D03*
D72*
X164480000Y-85875000D03*
D71*
X173120000Y-81695000D03*
D72*
X173120000Y-85875000D03*
%TD*%
D46*
%TO.P,TP18,1,1*%
%TO.N,/SD7*%
X88000000Y-64500000D03*
%TD*%
D29*
%TO.P,J8,1,1*%
%TO.N,Net-(U1A-J3)*%
X205300000Y-32500000D03*
%TD*%
D73*
%TO.P,U9,1,V_CCA*%
%TO.N,+1V8_CM5*%
X92362500Y-54259999D03*
%TO.P,U9,2,1DIR*%
%TO.N,/1DIR*%
X91712500Y-54259999D03*
%TO.P,U9,3,2DIR*%
%TO.N,/2DIR*%
X91062500Y-54259999D03*
%TO.P,U9,4,1A1*%
%TO.N,/sd-interface/SD2*%
X90412500Y-54259999D03*
%TO.P,U9,5,1A2*%
%TO.N,/sd-interface/SD3*%
X89762500Y-54259999D03*
%TO.P,U9,6,2A1*%
%TO.N,/sd-interface/SD5*%
X89112500Y-54259999D03*
%TO.P,U9,7,2A2*%
%TO.N,/sd-interface/SD7*%
X88462500Y-54259999D03*
%TO.P,U9,8,GND*%
%TO.N,GND*%
X87812500Y-54259999D03*
%TO.P,U9,9,GND*%
X87812500Y-59999999D03*
%TO.P,U9,10,2B2*%
%TO.N,/SD7*%
X88462500Y-59999999D03*
%TO.P,U9,11,2B1*%
%TO.N,/SD5*%
X89112500Y-59999999D03*
%TO.P,U9,12,1B2*%
%TO.N,/SD3*%
X89762500Y-59999999D03*
%TO.P,U9,13,1B1*%
%TO.N,/SD2*%
X90412500Y-59999999D03*
%TO.P,U9,14,~2OE*%
%TO.N,GND*%
X91062500Y-59999999D03*
%TO.P,U9,15,~1OE*%
X91712500Y-59999999D03*
%TO.P,U9,16,V_CCB*%
%TO.N,+3V3*%
X92362500Y-59999999D03*
%TD*%
D36*
%TO.P,TP8,1,1*%
%TO.N,Net-(J16-DAT0)*%
X98532500Y-44624999D03*
%TD*%
D54*
%TO.P,R3,1*%
%TO.N,/Wake*%
X208000000Y-44500000D03*
%TO.P,R3,2*%
%TO.N,/modem/1V8_WAKE*%
X209650000Y-44500000D03*
%TD*%
D30*
%TO.P,C10,1*%
%TO.N,+1V8_CM5*%
X93987500Y-54924999D03*
%TO.P,C10,2*%
%TO.N,GND*%
X93987500Y-56474999D03*
%TD*%
D74*
%TO.P,M1,1,GND*%
%TO.N,GND*%
X178900000Y-31560000D03*
%TO.P,M1,2,GND*%
X178900000Y-34640000D03*
%TO.P,M1,3,Ethernet_Pair3_P*%
%TO.N,unconnected-(M1A-Ethernet_Pair3_P-Pad3)*%
X178500000Y-31560000D03*
%TO.P,M1,4,Ethernet_Pair1_P*%
%TO.N,unconnected-(M1A-Ethernet_Pair1_P-Pad4)*%
X178500000Y-34640000D03*
%TO.P,M1,5,Ethernet_Pair3_N*%
%TO.N,unconnected-(M1A-Ethernet_Pair3_N-Pad5)*%
X178100000Y-31560000D03*
%TO.P,M1,6,Ethernet_Pair1_N*%
%TO.N,unconnected-(M1A-Ethernet_Pair1_N-Pad6)*%
X178100000Y-34640000D03*
%TO.P,M1,7,GND*%
%TO.N,GND*%
X177700000Y-31560000D03*
%TO.P,M1,8,GND*%
X177700000Y-34640000D03*
%TO.P,M1,9,Ethernet_Pair2_N*%
%TO.N,unconnected-(M1A-Ethernet_Pair2_N-Pad9)*%
X177300000Y-31560000D03*
%TO.P,M1,10,Ethernet_Pair0_N*%
%TO.N,unconnected-(M1A-Ethernet_Pair0_N-Pad10)*%
X177300000Y-34640000D03*
%TO.P,M1,11,Ethernet_Pair2_P*%
%TO.N,unconnected-(M1A-Ethernet_Pair2_P-Pad11)*%
X176900000Y-31560000D03*
%TO.P,M1,12,Ethernet_Pair0_P*%
%TO.N,unconnected-(M1A-Ethernet_Pair0_P-Pad12)*%
X176900000Y-34640000D03*
%TO.P,M1,13,GND*%
%TO.N,GND*%
X176500000Y-31560000D03*
%TO.P,M1,14,GND*%
X176500000Y-34640000D03*
%TO.P,M1,15,Ethernet_nLED3(3.3v)*%
%TO.N,unconnected-(M1A-Ethernet_nLED3(3.3v)-Pad15)*%
X176100000Y-31560000D03*
%TO.P,M1,16,FAN_TACHO*%
%TO.N,/compute-module/FAN_TACHO*%
X176100000Y-34640000D03*
%TO.P,M1,17,Ethernet_nLED2(3.3v)*%
%TO.N,unconnected-(M1A-Ethernet_nLED2(3.3v)-Pad17)*%
X175700000Y-31560000D03*
%TO.P,M1,18,Ethernet_SYNC_OUT(3.3v)*%
%TO.N,unconnected-(M1A-Ethernet_SYNC_OUT(3.3v)-Pad18)*%
X175700000Y-34640000D03*
%TO.P,M1,19,FAN_PWM*%
%TO.N,unconnected-(M1A-FAN_PWM-Pad19)*%
X175300000Y-31560000D03*
%TO.P,M1,20,EEPROM_nWP*%
%TO.N,/compute-module/EEPROM_nWP*%
X175300000Y-34640000D03*
%TO.P,M1,21,LED_nACT*%
%TO.N,Net-(M1A-LED_nACT)*%
X174900000Y-31560000D03*
%TO.P,M1,22,GND*%
%TO.N,GND*%
X174900000Y-34640000D03*
%TO.P,M1,23,GND*%
X174500000Y-31560000D03*
%TO.P,M1,24,GPIO26*%
%TO.N,/compute-module/GPIO26*%
X174500000Y-34640000D03*
%TO.P,M1,25,GPIO21*%
%TO.N,/SD2*%
X174100000Y-31560000D03*
%TO.P,M1,26,GPIO19*%
%TO.N,/compute-module/GPIO19*%
X174100000Y-34640000D03*
%TO.P,M1,27,GPIO20*%
%TO.N,/SD7*%
X173700000Y-31560000D03*
%TO.P,M1,28,GPIO13*%
%TO.N,/MODEM_TX_ON*%
X173700000Y-34640000D03*
%TO.P,M1,29,GPIO16*%
%TO.N,/CM_WAKE_ON_WWAN*%
X173300000Y-31560000D03*
%TO.P,M1,30,GPIO6*%
%TO.N,/MODEM_RESET_N*%
X173300000Y-34640000D03*
%TO.P,M1,31,GPIO12*%
%TO.N,/Wake*%
X172900000Y-31560000D03*
%TO.P,M1,32,GND*%
%TO.N,GND*%
X172900000Y-34640000D03*
%TO.P,M1,33,GND*%
X172500000Y-31560000D03*
%TO.P,M1,34,GPIO5*%
%TO.N,/MODEM_POWER_ON_N*%
X172500000Y-34640000D03*
%TO.P,M1,35,ID_SC*%
%TO.N,/compute-module/ID_SC*%
X172100000Y-31560000D03*
%TO.P,M1,36,ID_SD*%
%TO.N,unconnected-(M1A-ID_SD-Pad36)*%
X172100000Y-34640000D03*
%TO.P,M1,37,GPIO7*%
%TO.N,/SD_SWITCH_ENABLE*%
X171700000Y-31560000D03*
%TO.P,M1,38,GPIO11*%
%TO.N,/compute-module/GPIO11*%
X171700000Y-34640000D03*
%TO.P,M1,39,GPIO8*%
%TO.N,/SD_SET_HOST*%
X171300000Y-31560000D03*
%TO.P,M1,40,GPIO9*%
%TO.N,/MODEM_BOOT_MODE*%
X171300000Y-34640000D03*
%TO.P,M1,41,GPIO25*%
%TO.N,/SD_RESET_HOST*%
X170900000Y-31560000D03*
%TO.P,M1,42,GND*%
%TO.N,GND*%
X170900000Y-34640000D03*
%TO.P,M1,43,GND*%
X170500000Y-31560000D03*
%TO.P,M1,44,GPIO10*%
%TO.N,/MODEM_WAKE*%
X170500000Y-34640000D03*
%TO.P,M1,45,GPIO24*%
%TO.N,/SD_SWITCH_DISABLE*%
X170100000Y-31560000D03*
%TO.P,M1,46,GPIO22*%
%TO.N,/2DIR*%
X170100000Y-34640000D03*
%TO.P,M1,47,GPIO23*%
%TO.N,/EXT_5V_ENABLE*%
X169700000Y-31560000D03*
%TO.P,M1,48,GPIO27*%
%TO.N,/1DIR*%
X169700000Y-34640000D03*
%TO.P,M1,49,GPIO18*%
%TO.N,/EXT_5V_DISABLE*%
X169300000Y-31560000D03*
%TO.P,M1,50,GPIO17*%
%TO.N,/compute-module/GPIO17*%
X169300000Y-34640000D03*
%TO.P,M1,51,GPIO15*%
%TO.N,/SD3*%
X168900000Y-31560000D03*
%TO.P,M1,52,GND*%
%TO.N,GND*%
X168900000Y-34640000D03*
%TO.P,M1,53,GND*%
X168500000Y-31560000D03*
%TO.P,M1,54,GPIO4*%
%TO.N,/GPCLK*%
X168500000Y-34640000D03*
%TO.P,M1,55,GPIO14*%
%TO.N,/SD5*%
X168100000Y-31560000D03*
%TO.P,M1,56,GPIO3*%
%TO.N,/USB_INT_RESET*%
X168100000Y-34640000D03*
%TO.P,M1,57,SD_CLK*%
%TO.N,unconnected-(M1A-SD_CLK-Pad57)*%
X167700000Y-31560000D03*
%TO.P,M1,58,GPIO2*%
%TO.N,/compute-module/GPIO2*%
X167700000Y-34640000D03*
%TO.P,M1,59,GND*%
%TO.N,GND*%
X167300000Y-31560000D03*
%TO.P,M1,60,GND*%
X167300000Y-34640000D03*
%TO.P,M1,61,SD_DAT3*%
%TO.N,unconnected-(M1A-SD_DAT3-Pad61)*%
X166900000Y-31560000D03*
%TO.P,M1,62,SD_CMD*%
%TO.N,unconnected-(M1A-SD_CMD-Pad62)*%
X166900000Y-34640000D03*
%TO.P,M1,63,SD_DAT0*%
%TO.N,unconnected-(M1A-SD_DAT0-Pad63)*%
X166500000Y-31560000D03*
%TO.P,M1,64,SD_DAT5*%
%TO.N,unconnected-(M1A-SD_DAT5-Pad64)*%
X166500000Y-34640000D03*
%TO.P,M1,65,GND*%
%TO.N,GND*%
X166100000Y-31560000D03*
%TO.P,M1,66,GND*%
X166100000Y-34640000D03*
%TO.P,M1,67,SD_DAT1*%
%TO.N,unconnected-(M1A-SD_DAT1-Pad67)*%
X165700000Y-31560000D03*
%TO.P,M1,68,SD_DAT4*%
%TO.N,unconnected-(M1A-SD_DAT4-Pad68)*%
X165700000Y-34640000D03*
%TO.P,M1,69,SD_DAT2*%
%TO.N,unconnected-(M1A-SD_DAT2-Pad69)*%
X165300000Y-31560000D03*
%TO.P,M1,70,SD_DAT7*%
%TO.N,unconnected-(M1A-SD_DAT7-Pad70)*%
X165300000Y-34640000D03*
%TO.P,M1,71,GND*%
%TO.N,GND*%
X164900000Y-31560000D03*
%TO.P,M1,72,SD_DAT6*%
%TO.N,unconnected-(M1A-SD_DAT6-Pad72)*%
X164900000Y-34640000D03*
%TO.P,M1,73,SD_VDD_Override*%
%TO.N,unconnected-(M1A-SD_VDD_Override-Pad73)*%
X164500000Y-31560000D03*
%TO.P,M1,74,GND*%
%TO.N,GND*%
X164500000Y-34640000D03*
%TO.P,M1,75,SD_PWR_ON*%
%TO.N,unconnected-(M1A-SD_PWR_ON-Pad75)*%
X164100000Y-31560000D03*
%TO.P,M1,76,VBAT*%
%TO.N,/compute-module/VBAT*%
X164100000Y-34640000D03*
%TO.P,M1,77,+5v_(Input)*%
%TO.N,+5V*%
X163700000Y-31560000D03*
%TO.P,M1,78,GPIO_VREF(1.8v/3.3v_Input)*%
%TO.N,+3V3_CM5*%
X163700000Y-34640000D03*
%TO.P,M1,79,+5v_(Input)*%
%TO.N,+5V*%
X163300000Y-31560000D03*
%TO.P,M1,80,SCL0*%
%TO.N,unconnected-(M1A-SCL0-Pad80)*%
X163300000Y-34640000D03*
%TO.P,M1,81,+5v_(Input)*%
%TO.N,+5V*%
X162900000Y-31560000D03*
%TO.P,M1,82,SDA0*%
%TO.N,unconnected-(M1A-SDA0-Pad82)*%
X162900000Y-34640000D03*
%TO.P,M1,83,+5v_(Input)*%
%TO.N,+5V*%
X162500000Y-31560000D03*
%TO.P,M1,84,+3.3v_(Output)*%
%TO.N,+3V3_CM5*%
X162500000Y-34640000D03*
%TO.P,M1,85,+5v_(Input)*%
%TO.N,+5V*%
X162100000Y-31560000D03*
%TO.P,M1,86,+3.3v_(Output)*%
%TO.N,+3V3_CM5*%
X162100000Y-34640000D03*
%TO.P,M1,87,+5v_(Input)*%
%TO.N,+5V*%
X161700000Y-31560000D03*
%TO.P,M1,88,+1.8v_(Output)*%
%TO.N,+1V8_CM5*%
X161700000Y-34640000D03*
%TO.P,M1,89,WiFi_nDisable*%
%TO.N,unconnected-(M1A-WiFi_nDisable-Pad89)*%
X161300000Y-31560000D03*
%TO.P,M1,90,+1.8v_(Output)*%
%TO.N,+1V8_CM5*%
X161300000Y-34640000D03*
%TO.P,M1,91,BT_nDisable*%
%TO.N,unconnected-(M1A-BT_nDisable-Pad91)*%
X160900000Y-31560000D03*
%TO.P,M1,92,PWR_BUT*%
%TO.N,/compute-module/PWR_BUT*%
X160900000Y-34640000D03*
%TO.P,M1,93,nRPIBOOT*%
%TO.N,/compute-module/nRPIBOOT*%
X160500000Y-31560000D03*
%TO.P,M1,94,CC1*%
%TO.N,/CC1*%
X160500000Y-34640000D03*
%TO.P,M1,95,LED_nPWR*%
%TO.N,/compute-module/LED_nPWR*%
X160100000Y-31560000D03*
%TO.P,M1,96,CC2*%
%TO.N,/CC2*%
X160100000Y-34640000D03*
%TO.P,M1,97,CAM_GPIO0*%
%TO.N,unconnected-(M1A-CAM_GPIO0-Pad97)*%
X159700000Y-31560000D03*
%TO.P,M1,98,GND*%
%TO.N,GND*%
X159700000Y-34640000D03*
%TO.P,M1,99,PMIC_ENABLE*%
%TO.N,/compute-module/PMIC_ENABLE*%
X159300000Y-31560000D03*
%TO.P,M1,100,CAM_GPIO1*%
%TO.N,unconnected-(M1A-CAM_GPIO1-Pad100)*%
X159300000Y-34640000D03*
%TO.P,M1,101,USB_OTG_ID*%
%TO.N,/compute-module/USB_OTG_ID*%
X178900000Y-65560000D03*
%TO.P,M1,102,PCIe_nCLKREQ*%
%TO.N,unconnected-(M1B-PCIe_nCLKREQ-Pad102)*%
X178900000Y-68640000D03*
%TO.P,M1,103,USB2_N*%
%TO.N,/USB2_N*%
X178500000Y-65560000D03*
%TO.P,M1,104,PCIE_nWAKE*%
%TO.N,unconnected-(M1B-PCIE_nWAKE-Pad104)*%
X178500000Y-68640000D03*
%TO.P,M1,105,USB2_P*%
%TO.N,/USB2_P*%
X178100000Y-65560000D03*
%TO.P,M1,106,PCIE_PWR_EN*%
%TO.N,unconnected-(M1B-PCIE_PWR_EN-Pad106)*%
X178100000Y-68640000D03*
%TO.P,M1,107,GND*%
%TO.N,GND*%
X177700000Y-65560000D03*
%TO.P,M1,108,GND*%
X177700000Y-68640000D03*
%TO.P,M1,109,PCIe_nRST*%
%TO.N,unconnected-(M1B-PCIe_nRST-Pad109)*%
X177300000Y-65560000D03*
%TO.P,M1,110,PCIe_CLK_P*%
%TO.N,unconnected-(M1B-PCIe_CLK_P-Pad110)*%
X177300000Y-68640000D03*
%TO.P,M1,111,VBUS_EN*%
%TO.N,/VBUS_EN*%
X176900000Y-65560000D03*
%TO.P,M1,112,PCIe_CLK_N*%
%TO.N,unconnected-(M1B-PCIe_CLK_N-Pad112)*%
X176900000Y-68640000D03*
%TO.P,M1,113,GND*%
%TO.N,GND*%
X176500000Y-65560000D03*
%TO.P,M1,114,GND*%
X176500000Y-68640000D03*
%TO.P,M1,115,MIPI0_D0_N*%
%TO.N,unconnected-(M1B-MIPI0_D0_N-Pad115)*%
X176100000Y-65560000D03*
%TO.P,M1,116,PCIe_RX_P*%
%TO.N,unconnected-(M1B-PCIe_RX_P-Pad116)*%
X176100000Y-68640000D03*
%TO.P,M1,117,MIPI0_D0_P*%
%TO.N,unconnected-(M1B-MIPI0_D0_P-Pad117)*%
X175700000Y-65560000D03*
%TO.P,M1,118,PCIe_RX_N*%
%TO.N,unconnected-(M1B-PCIe_RX_N-Pad118)*%
X175700000Y-68640000D03*
%TO.P,M1,119,GND*%
%TO.N,GND*%
X175300000Y-65560000D03*
%TO.P,M1,120,GND*%
X175300000Y-68640000D03*
%TO.P,M1,121,MIPI0_D1_N*%
%TO.N,unconnected-(M1B-MIPI0_D1_N-Pad121)*%
X174900000Y-65560000D03*
%TO.P,M1,122,PCIe_TX_P*%
%TO.N,unconnected-(M1B-PCIe_TX_P-Pad122)*%
X174900000Y-68640000D03*
%TO.P,M1,123,MIPI0_D1_P*%
%TO.N,unconnected-(M1B-MIPI0_D1_P-Pad123)*%
X174500000Y-65560000D03*
%TO.P,M1,124,PCIe_TX_N*%
%TO.N,unconnected-(M1B-PCIe_TX_N-Pad124)*%
X174500000Y-68640000D03*
%TO.P,M1,125,GND*%
%TO.N,GND*%
X174100000Y-65560000D03*
%TO.P,M1,126,GND*%
X174100000Y-68640000D03*
%TO.P,M1,127,MIPI0_C_N*%
%TO.N,unconnected-(M1B-MIPI0_C_N-Pad127)*%
X173700000Y-65560000D03*
%TO.P,M1,128,USB3-0-RX_N*%
%TO.N,/compute-module/USB3-0-RX_N*%
X173700000Y-68640000D03*
%TO.P,M1,129,MIPI0_C_P*%
%TO.N,unconnected-(M1B-MIPI0_C_P-Pad129)*%
X173300000Y-65560000D03*
%TO.P,M1,130,USB3-0-RX_P*%
%TO.N,/compute-module/USB3-0-RX_P*%
X173300000Y-68640000D03*
%TO.P,M1,131,GND*%
%TO.N,GND*%
X172900000Y-65560000D03*
%TO.P,M1,132,GND*%
X172900000Y-68640000D03*
%TO.P,M1,133,MIPI0_D2_N*%
%TO.N,unconnected-(M1B-MIPI0_D2_N-Pad133)*%
X172500000Y-65560000D03*
%TO.P,M1,134,USB3-0-D_P*%
%TO.N,/USB3-0-D_P*%
X172500000Y-68640000D03*
%TO.P,M1,135,MIPI0_D2_P*%
%TO.N,unconnected-(M1B-MIPI0_D2_P-Pad135)*%
X172100000Y-65560000D03*
%TO.P,M1,136,USB3-0-D_N*%
%TO.N,/USB3-0-D_N*%
X172100000Y-68640000D03*
%TO.P,M1,137,GND*%
%TO.N,GND*%
X171700000Y-65560000D03*
%TO.P,M1,138,GND*%
X171700000Y-68640000D03*
%TO.P,M1,139,MIPI0_D3_N*%
%TO.N,unconnected-(M1B-MIPI0_D3_N-Pad139)*%
X171300000Y-65560000D03*
%TO.P,M1,140,USB3-0-TX_N*%
%TO.N,/compute-module/USB3-0-TX_N*%
X171300000Y-68640000D03*
%TO.P,M1,141,MIPI0_D3_P*%
%TO.N,unconnected-(M1B-MIPI0_D3_P-Pad141)*%
X170900000Y-65560000D03*
%TO.P,M1,142,USB3-0-TX_P*%
%TO.N,/compute-module/USB3-0-TX_P*%
X170900000Y-68640000D03*
%TO.P,M1,143,HDMI1_HOTPLUG*%
%TO.N,unconnected-(M1B-HDMI1_HOTPLUG-Pad143)*%
X170500000Y-65560000D03*
%TO.P,M1,144,GND*%
%TO.N,GND*%
X170500000Y-68640000D03*
%TO.P,M1,145,HDMI1_SDA*%
%TO.N,unconnected-(M1B-HDMI1_SDA-Pad145)*%
X170100000Y-65560000D03*
%TO.P,M1,146,HDMI1_TX2_P*%
%TO.N,unconnected-(M1B-HDMI1_TX2_P-Pad146)*%
X170100000Y-68640000D03*
%TO.P,M1,147,HDMI1_SCL*%
%TO.N,unconnected-(M1B-HDMI1_SCL-Pad147)*%
X169700000Y-65560000D03*
%TO.P,M1,148,HDMI1_TX2_N*%
%TO.N,unconnected-(M1B-HDMI1_TX2_N-Pad148)*%
X169700000Y-68640000D03*
%TO.P,M1,149,HDMI1_CEC*%
%TO.N,unconnected-(M1B-HDMI1_CEC-Pad149)*%
X169300000Y-65560000D03*
%TO.P,M1,150,GND*%
%TO.N,GND*%
X169300000Y-68640000D03*
%TO.P,M1,151,HDMI0_CEC*%
%TO.N,unconnected-(M1B-HDMI0_CEC-Pad151)*%
X168900000Y-65560000D03*
%TO.P,M1,152,HDMI1_TX1_P*%
%TO.N,unconnected-(M1B-HDMI1_TX1_P-Pad152)*%
X168900000Y-68640000D03*
%TO.P,M1,153,HDMI0_HOTPLUG*%
%TO.N,unconnected-(M1B-HDMI0_HOTPLUG-Pad153)*%
X168500000Y-65560000D03*
%TO.P,M1,154,HDMI1_TX1_N*%
%TO.N,unconnected-(M1B-HDMI1_TX1_N-Pad154)*%
X168500000Y-68640000D03*
%TO.P,M1,155,GND*%
%TO.N,GND*%
X168100000Y-65560000D03*
%TO.P,M1,156,GND*%
X168100000Y-68640000D03*
%TO.P,M1,157,USB3-1-RX_N*%
%TO.N,/compute-module/USB3-1-RX_N*%
X167700000Y-65560000D03*
%TO.P,M1,158,HDMI1_TX0_P*%
%TO.N,unconnected-(M1B-HDMI1_TX0_P-Pad158)*%
X167700000Y-68640000D03*
%TO.P,M1,159,USB3-1-RX_P*%
%TO.N,/compute-module/USB3-1-RX_P*%
X167300000Y-65560000D03*
%TO.P,M1,160,HDMI1_TX0_N*%
%TO.N,unconnected-(M1B-HDMI1_TX0_N-Pad160)*%
X167300000Y-68640000D03*
%TO.P,M1,161,GND*%
%TO.N,GND*%
X166900000Y-65560000D03*
%TO.P,M1,162,GND*%
X166900000Y-68640000D03*
%TO.P,M1,163,USB3-1-D_P*%
%TO.N,/USB3-1-D_P*%
X166500000Y-65560000D03*
%TO.P,M1,164,HDMI1_CLK_P*%
%TO.N,unconnected-(M1B-HDMI1_CLK_P-Pad164)*%
X166500000Y-68640000D03*
%TO.P,M1,165,USB3-1-D_N*%
%TO.N,/USB3-1-D_N*%
X166100000Y-65560000D03*
%TO.P,M1,166,HDMI1_CLK_N*%
%TO.N,unconnected-(M1B-HDMI1_CLK_N-Pad166)*%
X166100000Y-68640000D03*
%TO.P,M1,167,GND*%
%TO.N,GND*%
X165700000Y-65560000D03*
%TO.P,M1,168,GND*%
X165700000Y-68640000D03*
%TO.P,M1,169,USB3-1-TX_N*%
%TO.N,/compute-module/USB3-1-TX_N*%
X165300000Y-65560000D03*
%TO.P,M1,170,HDMI0_TX2_P*%
%TO.N,unconnected-(M1B-HDMI0_TX2_P-Pad170)*%
X165300000Y-68640000D03*
%TO.P,M1,171,USB3-1-TX_P*%
%TO.N,/compute-module/USB3-1-TX_P*%
X164900000Y-65560000D03*
%TO.P,M1,172,HDMI0_TX2_N*%
%TO.N,unconnected-(M1B-HDMI0_TX2_N-Pad172)*%
X164900000Y-68640000D03*
%TO.P,M1,173,GND*%
%TO.N,GND*%
X164500000Y-65560000D03*
%TO.P,M1,174,GND*%
X164500000Y-68640000D03*
%TO.P,M1,175,MIPI1_D0_N*%
%TO.N,unconnected-(M1B-MIPI1_D0_N-Pad175)*%
X164100000Y-65560000D03*
%TO.P,M1,176,HDMI0_TX1_P*%
%TO.N,unconnected-(M1B-HDMI0_TX1_P-Pad176)*%
X164100000Y-68640000D03*
%TO.P,M1,177,MIPI1_D0_P*%
%TO.N,unconnected-(M1B-MIPI1_D0_P-Pad177)*%
X163700000Y-65560000D03*
%TO.P,M1,178,HDMI0_TX1_N*%
%TO.N,unconnected-(M1B-HDMI0_TX1_N-Pad178)*%
X163700000Y-68640000D03*
%TO.P,M1,179,GND*%
%TO.N,GND*%
X163300000Y-65560000D03*
%TO.P,M1,180,GND*%
X163300000Y-68640000D03*
%TO.P,M1,181,MIPI1_D1_N*%
%TO.N,unconnected-(M1B-MIPI1_D1_N-Pad181)*%
X162900000Y-65560000D03*
%TO.P,M1,182,HDMI0_TX0_P*%
%TO.N,unconnected-(M1B-HDMI0_TX0_P-Pad182)*%
X162900000Y-68640000D03*
%TO.P,M1,183,MIPI1_D1_P*%
%TO.N,unconnected-(M1B-MIPI1_D1_P-Pad183)*%
X162500000Y-65560000D03*
%TO.P,M1,184,HDMI0_TX0_N*%
%TO.N,unconnected-(M1B-HDMI0_TX0_N-Pad184)*%
X162500000Y-68640000D03*
%TO.P,M1,185,GND*%
%TO.N,GND*%
X162100000Y-65560000D03*
%TO.P,M1,186,GND*%
X162100000Y-68640000D03*
%TO.P,M1,187,MIPI1_C_N*%
%TO.N,unconnected-(M1B-MIPI1_C_N-Pad187)*%
X161700000Y-65560000D03*
%TO.P,M1,188,HDMI0_CLK_P*%
%TO.N,unconnected-(M1B-HDMI0_CLK_P-Pad188)*%
X161700000Y-68640000D03*
%TO.P,M1,189,MIPI1_C_P*%
%TO.N,unconnected-(M1B-MIPI1_C_P-Pad189)*%
X161300000Y-65560000D03*
%TO.P,M1,190,HDMI0_CLK_N*%
%TO.N,unconnected-(M1B-HDMI0_CLK_N-Pad190)*%
X161300000Y-68640000D03*
%TO.P,M1,191,GND*%
%TO.N,GND*%
X160900000Y-65560000D03*
%TO.P,M1,192,GND*%
X160900000Y-68640000D03*
%TO.P,M1,193,MIPI1_D2_N*%
%TO.N,unconnected-(M1B-MIPI1_D2_N-Pad193)*%
X160500000Y-65560000D03*
%TO.P,M1,194,MIPI1_D3_N*%
%TO.N,unconnected-(M1B-MIPI1_D3_N-Pad194)*%
X160500000Y-68640000D03*
%TO.P,M1,195,MIPI1_D2_P*%
%TO.N,unconnected-(M1B-MIPI1_D2_P-Pad195)*%
X160100000Y-65560000D03*
%TO.P,M1,196,MIPI1_D3_P*%
%TO.N,unconnected-(M1B-MIPI1_D3_P-Pad196)*%
X160100000Y-68640000D03*
%TO.P,M1,197,GND*%
%TO.N,GND*%
X159700000Y-65560000D03*
%TO.P,M1,198,GND*%
X159700000Y-68640000D03*
%TO.P,M1,199,HDMI0_SDA*%
%TO.N,unconnected-(M1B-HDMI0_SDA-Pad199)*%
X159300000Y-65560000D03*
%TO.P,M1,200,HDMI0_SCL*%
%TO.N,unconnected-(M1B-HDMI0_SCL-Pad200)*%
X159300000Y-68640000D03*
D75*
%TO.P,M1,SH1*%
%TO.N,N/C*%
X147600000Y-33600000D03*
%TO.P,M1,SH2*%
X195600000Y-33600000D03*
%TO.P,M1,SH3*%
X147600000Y-66600000D03*
%TO.P,M1,SH4*%
X195600000Y-66600000D03*
%TD*%
D46*
%TO.P,TP17,1,1*%
%TO.N,Net-(U10-Q4)*%
X114400000Y-42300000D03*
%TD*%
D24*
%TO.P,R13,1*%
%TO.N,+3V3*%
X204055000Y-62600000D03*
%TO.P,R13,2*%
%TO.N,/CM_WAKE_ON_WWAN*%
X202405000Y-62600000D03*
%TD*%
D11*
%TO.P,C21,1*%
%TO.N,+3V3_CM5*%
X117137500Y-47700000D03*
%TO.P,C21,2*%
%TO.N,GND*%
X118687500Y-47700000D03*
%TD*%
D46*
%TO.P,TP19,1,1*%
%TO.N,Net-(U10-Q3)*%
X125200000Y-43500000D03*
%TD*%
D76*
%TO.P,CR3,1,1*%
%TO.N,/modem/UIM_DATA*%
X226504500Y-86900001D03*
%TO.P,CR3,2,2*%
%TO.N,/modem/UIM_CLK*%
X226504500Y-86399999D03*
D77*
%TO.P,CR3,3,GND*%
%TO.N,GND*%
X226504500Y-85900000D03*
D76*
%TO.P,CR3,4,4*%
%TO.N,/modem/UIM_RESET_N*%
X226504500Y-85400001D03*
%TO.P,CR3,5,5*%
%TO.N,/modem/UIM_VCC*%
X226504500Y-84899999D03*
%TO.P,CR3,6,6*%
X225615500Y-84899999D03*
%TO.P,CR3,7,7*%
%TO.N,/modem/UIM_RESET_N*%
X225615500Y-85400001D03*
D77*
%TO.P,CR3,8,GND*%
%TO.N,GND*%
X225615500Y-85900000D03*
D76*
%TO.P,CR3,9,9*%
%TO.N,/modem/UIM_CLK*%
X225615500Y-86399999D03*
%TO.P,CR3,10,10*%
%TO.N,/modem/UIM_DATA*%
X225615500Y-86900001D03*
%TD*%
D78*
%TO.P,D7,1,A1*%
%TO.N,GND*%
X227315000Y-58300000D03*
%TO.P,D7,2,A2*%
%TO.N,Net-(D7-A2)*%
X228285000Y-58300000D03*
%TD*%
D79*
%TO.P,U11,1,IN*%
%TO.N,+5V*%
X149720000Y-77655000D03*
%TO.P,U11,2,GND*%
%TO.N,GND*%
X149070000Y-77655000D03*
%TO.P,U11,3,ON*%
%TO.N,Net-(U10-Q2)*%
X148420000Y-77655000D03*
%TO.P,U11,4,4*%
%TO.N,unconnected-(U11-Pad4)*%
X148420000Y-79575000D03*
%TO.P,U11,5,QOD*%
%TO.N,unconnected-(U11-QOD-Pad5)*%
X149070000Y-79575000D03*
%TO.P,U11,6,VOUT*%
%TO.N,Net-(U11-VOUT)*%
X149720000Y-79575000D03*
%TD*%
D46*
%TO.P,TP15,1,1*%
%TO.N,/SD3*%
X83600000Y-62300000D03*
%TD*%
D63*
%TO.P,U5,1*%
%TO.N,Net-(D1-A2)*%
X220070000Y-80950000D03*
%TO.P,U5,2*%
%TO.N,GND*%
X220070000Y-79650000D03*
%TO.P,U5,3*%
%TO.N,/modem/UIM_SIM_DET*%
X218130000Y-80300000D03*
%TD*%
D11*
%TO.P,C20,1*%
%TO.N,+3V3*%
X121825000Y-77908500D03*
%TO.P,C20,2*%
%TO.N,GND*%
X123375000Y-77908500D03*
%TD*%
D80*
%TO.N,GND*%
X89487500Y-52099999D03*
X236260000Y-81160000D03*
X88487500Y-52099999D03*
X90487500Y-52099999D03*
%TO.N,/compute-module/VBAT*%
X163200000Y-33600000D03*
X122000000Y-67500000D03*
%TO.N,VBAT_BB*%
X222165057Y-33838017D03*
X215686120Y-50686120D03*
X216500000Y-49500000D03*
X222602799Y-34384264D03*
X181475000Y-79625000D03*
X216500000Y-50100000D03*
X221489647Y-34354106D03*
%TO.N,/modem/UIM_VCC*%
X224000000Y-52700000D03*
X239660000Y-81260000D03*
X216700000Y-83300000D03*
X227660000Y-77700001D03*
%TO.N,+1V8_CM5*%
X159600000Y-38900000D03*
X94000000Y-53700000D03*
%TO.N,+3V3_CM5*%
X186500000Y-36000000D03*
X163225000Y-38400000D03*
X123137500Y-51462499D03*
X113937500Y-57262499D03*
X118312500Y-57887499D03*
X115900000Y-47500000D03*
%TO.N,+5V*%
X164117584Y-77882416D03*
X154000000Y-75495000D03*
X160500000Y-28800000D03*
X166500000Y-77500000D03*
%TO.N,Net-(IC1-VDD18PLL)*%
X110937500Y-55062499D03*
%TO.N,Net-(J16-CD{slash}DAT3)*%
X93382500Y-44424999D03*
X96887500Y-52499999D03*
%TO.N,Net-(J16-CLK)*%
X94887500Y-42499999D03*
X96587500Y-45899999D03*
%TO.N,Net-(J16-DAT2)*%
X98000000Y-52400000D03*
X92882498Y-42824999D03*
%TO.N,Net-(J16-CMD)*%
X96887500Y-51799999D03*
X93987500Y-47199999D03*
%TO.N,Net-(J16-DAT1)*%
X97032500Y-43624999D03*
X98987500Y-42799999D03*
%TO.N,/modem/UIM_RESET_N*%
X239660000Y-83700000D03*
X227660000Y-84900000D03*
X223860000Y-85400000D03*
X226737500Y-52862500D03*
%TO.N,/modem/UIM_DATA*%
X216100000Y-85000000D03*
X236460000Y-86240000D03*
X225900000Y-52800000D03*
X230460000Y-87700000D03*
%TO.N,/modem/UIM_CLK*%
X239860000Y-86140000D03*
X230460000Y-86700000D03*
X223513945Y-86353945D03*
X225000000Y-52800000D03*
%TO.N,+3V3*%
X135580000Y-34310000D03*
X110500000Y-24000000D03*
X205500000Y-62500000D03*
X95500000Y-54000000D03*
X121500000Y-76500000D03*
X217100000Y-65900000D03*
X95300000Y-59974999D03*
%TO.N,/USB3-0-D_N*%
X124600000Y-71153390D03*
X115187503Y-61500000D03*
%TO.N,/compute-module/PWR_BUT*%
X154500000Y-29000000D03*
X139850000Y-28550000D03*
%TO.N,/USB3-0-D_P*%
X124000000Y-71700000D03*
X114487500Y-61500000D03*
%TO.N,/compute-module/EEPROM_nWP*%
X175500000Y-27500000D03*
X175900000Y-35600000D03*
%TO.N,/compute-module/nRPIBOOT*%
X157000000Y-27600000D03*
%TO.N,/compute-module/GPIO19*%
X183100000Y-32700000D03*
%TO.N,/compute-module/GPIO2*%
X167800000Y-33400000D03*
%TO.N,/compute-module/GPIO17*%
X169000000Y-33500000D03*
%TO.N,/compute-module/GPIO26*%
X182600000Y-33800000D03*
%TO.N,/compute-module/GPIO11*%
X181000000Y-31400000D03*
D81*
%TO.N,Net-(U1A-J1)*%
X215600000Y-36400000D03*
%TO.N,Net-(U1A-J2)*%
X215320000Y-37700000D03*
%TO.N,Net-(U1A-J3)*%
X215420000Y-39000000D03*
%TO.N,Net-(U1A-J4)*%
X215300000Y-40100000D03*
%TO.N,Net-(U1A-J5)*%
X215400000Y-41300000D03*
%TO.N,Net-(U1A-J6)*%
X215400000Y-42500000D03*
D80*
%TO.N,Net-(U1A-J7)*%
X215320000Y-43700000D03*
%TO.N,Net-(U1A-J8)*%
X215320000Y-44900000D03*
%TO.N,Net-(U1A-J9)*%
X215287499Y-45998840D03*
%TO.N,/sd-interface/SD3*%
X89987500Y-50499999D03*
X89987500Y-52699999D03*
%TO.N,/sd-interface/SD7*%
X88182500Y-48274999D03*
X87987500Y-52699999D03*
%TO.N,/sd-interface/SD2*%
X90987500Y-52699999D03*
X90987500Y-51099999D03*
%TO.N,/sd-interface/SD5*%
X88987500Y-49799999D03*
X88987500Y-52699999D03*
%TO.N,/modem/1V8_WAKE*%
X211000000Y-44000000D03*
X216600000Y-43600000D03*
%TO.N,/CC2*%
X160000000Y-42500000D03*
X171100000Y-75200000D03*
%TO.N,/CC1*%
X166810000Y-75195000D03*
X159000000Y-41500000D03*
%TO.N,/compute-module/USB_OTG_ID*%
X161000000Y-43500000D03*
X165500000Y-66500000D03*
%TO.N,/modem/1V8_TX_ON*%
X223675000Y-34200000D03*
X212000000Y-59700000D03*
%TO.N,Net-(U10-Q3)*%
X102100000Y-55100000D03*
X132125000Y-39510000D03*
D81*
%TO.N,Net-(U1A-UART1_TX)*%
X216500000Y-39000000D03*
%TO.N,Net-(U1A-UART1_DTR)*%
X216500000Y-42500000D03*
%TO.N,Net-(U1A-UART1_RTS)*%
X216500000Y-37500000D03*
%TO.N,Net-(U1A-UART1_RX)*%
X216500000Y-40000000D03*
D80*
%TO.N,Net-(U1A-SYS_CLK)*%
X220000000Y-53000000D03*
%TO.N,Net-(U1A-SLEEP_CLK)*%
X221000000Y-53000000D03*
%TO.N,Net-(U10-Q4)*%
X133500000Y-31100000D03*
X143600000Y-44100000D03*
%TO.N,/SD_SWITCH_DISABLE*%
X133500000Y-40900000D03*
X138130000Y-41770000D03*
X166800000Y-29600000D03*
X151900000Y-41770000D03*
%TO.N,/modem/UIM_SIM_DET*%
X210200000Y-77800000D03*
X219575000Y-34100000D03*
%TO.N,/SD_SWITCH_ENABLE*%
X145100000Y-43040000D03*
X138700000Y-42500000D03*
X164321268Y-27800000D03*
X133500000Y-39600000D03*
%TO.N,/modem/1V8_RESET_IN_N*%
X216600000Y-44900000D03*
X207600000Y-63500000D03*
%TO.N,/modem/1V8_POWER_ON_N*%
X217800000Y-70300000D03*
X226500000Y-34200000D03*
%TO.N,/modem/1V8_BOOT_MODE*%
X232475000Y-40100000D03*
X219600000Y-73775000D03*
%TO.N,/sd-interface/SD-pin7*%
X116187500Y-57062499D03*
X103800000Y-49074999D03*
%TO.N,/sd-interface/SD-pin5*%
X102778750Y-49341249D03*
X118587500Y-56662499D03*
%TO.N,/sd-interface/SD-pin8*%
X104882500Y-47757499D03*
X115587500Y-56662499D03*
%TO.N,/sd-interface/SD-pin3*%
X120237500Y-55162499D03*
X101157500Y-49562499D03*
%TO.N,/EXT_5V_ENABLE*%
X155000000Y-41000000D03*
X166200000Y-30600000D03*
%TO.N,/SD7*%
X175600000Y-41600000D03*
X173500000Y-33200000D03*
%TO.N,/USB3-1-D_P*%
X167200000Y-64600000D03*
X216575000Y-47300000D03*
%TO.N,Net-(U10-Q2)*%
X147300000Y-75500000D03*
X134500000Y-50500000D03*
%TO.N,/MODEM_TX_ON*%
X200500000Y-59500000D03*
X209500000Y-67000000D03*
%TO.N,/USB3-1-D_N*%
X216575000Y-46000000D03*
X166600000Y-64000000D03*
%TO.N,/SD5*%
X166800000Y-33200000D03*
X172300000Y-42500000D03*
%TO.N,/SD3*%
X171400000Y-39000000D03*
X168300000Y-32700000D03*
%TO.N,/SD2*%
X174100000Y-32500000D03*
X170800000Y-36000000D03*
%TO.N,/SD_SET_HOST*%
X157000000Y-35500000D03*
X164300000Y-28800000D03*
%TO.N,/EXT_5V_DISABLE*%
X156300000Y-41000000D03*
X167300000Y-30600000D03*
%TO.N,/SD_RESET_HOST*%
X164500000Y-29500000D03*
X144600000Y-46600000D03*
%TO.N,Net-(D1-A2)*%
X226560000Y-83600000D03*
X223235000Y-83675000D03*
%TO.N,Net-(U10-Q1)*%
X113112500Y-31087500D03*
X142500000Y-43900000D03*
%TD*%
D82*
%TO.N,Net-(U10-Q4)*%
X113000000Y-40900000D02*
X114400000Y-42300000D01*
X112900000Y-40900000D02*
X107600000Y-46199999D01*
X112900000Y-40900000D02*
X113000000Y-40900000D01*
D83*
X114400000Y-42300000D02*
X114200000Y-42300000D01*
D84*
%TO.N,VBAT_BB*%
X216272240Y-49972240D02*
X216272240Y-50100000D01*
X215700000Y-49400000D02*
X216272240Y-49972240D01*
X215700000Y-49200000D02*
X215700000Y-49400000D01*
X216262500Y-48637500D02*
X215700000Y-49200000D01*
X217557500Y-48637500D02*
X216262500Y-48637500D01*
D82*
%TO.N,/MODEM_BOOT_MODE*%
X171300000Y-35500000D02*
X171300000Y-34640000D01*
X208000000Y-70500000D02*
X201000000Y-70500000D01*
X210800000Y-73300000D02*
X208000000Y-70500000D01*
X201000000Y-70500000D02*
X199500000Y-69000000D01*
X199500000Y-69000000D02*
X199500000Y-63700000D01*
X199500000Y-63700000D02*
X171300000Y-35500000D01*
X210800000Y-73350000D02*
X210800000Y-73300000D01*
%TO.N,/MODEM_POWER_ON_N*%
X202625000Y-69625000D02*
X210940000Y-69625000D01*
X200400000Y-67400000D02*
X202625000Y-69625000D01*
X172500000Y-35300000D02*
X200400000Y-63200000D01*
X200400000Y-63200000D02*
X200400000Y-67400000D01*
X172500000Y-34640000D02*
X172500000Y-35300000D01*
D85*
%TO.N,+3V3*%
X216074000Y-65500000D02*
X215600000Y-65026000D01*
X216700000Y-65500000D02*
X216074000Y-65500000D01*
X217100000Y-65900000D02*
X216700000Y-65500000D01*
D82*
%TO.N,/compute-module/GPIO11*%
X172000000Y-33800000D02*
X171700000Y-34100000D01*
X171700000Y-34100000D02*
X171700000Y-34640000D01*
X173874322Y-33800000D02*
X172000000Y-33800000D01*
X181000000Y-31400000D02*
X179501000Y-32899000D01*
X179501000Y-32899000D02*
X174775322Y-32899000D01*
X174775322Y-32899000D02*
X173874322Y-33800000D01*
D83*
%TO.N,+1V8_CM5*%
X94000000Y-54912499D02*
X93987500Y-54924999D01*
X94000000Y-53700000D02*
X94000000Y-54912499D01*
D82*
%TO.N,/2DIR*%
X91062500Y-56937500D02*
X91062500Y-54660999D01*
X91000000Y-57000000D02*
X91062500Y-56937500D01*
X91000000Y-57500000D02*
X91000000Y-57000000D01*
X99500000Y-58500000D02*
X92000000Y-58500000D01*
X136000000Y-63500000D02*
X104500000Y-63500000D01*
X154500000Y-56000000D02*
X143500000Y-56000000D01*
X143500000Y-56000000D02*
X136000000Y-63500000D01*
X169700000Y-40800000D02*
X154500000Y-56000000D01*
X104500000Y-63500000D02*
X99500000Y-58500000D01*
X170100000Y-36525678D02*
X169700000Y-36925678D01*
X169700000Y-36925678D02*
X169700000Y-40800000D01*
X170100000Y-34640000D02*
X170100000Y-36525678D01*
X92000000Y-58500000D02*
X91000000Y-57500000D01*
%TO.N,/SD2*%
X170800000Y-37200000D02*
X170800000Y-36000000D01*
X170300000Y-37700000D02*
X170800000Y-37200000D01*
X155000000Y-57000000D02*
X170300000Y-41700000D01*
X143900000Y-57000000D02*
X155000000Y-57000000D01*
X170300000Y-41700000D02*
X170300000Y-37700000D01*
X140350000Y-60550000D02*
X143900000Y-57000000D01*
%TO.N,/1DIR*%
X91712500Y-57212500D02*
X91712500Y-54660999D01*
X92500000Y-58000000D02*
X91712500Y-57212500D01*
X100500000Y-58000000D02*
X92500000Y-58000000D01*
X142500000Y-55000000D02*
X134500000Y-63000000D01*
X169000000Y-40000000D02*
X154000000Y-55000000D01*
X154000000Y-55000000D02*
X142500000Y-55000000D01*
X134500000Y-63000000D02*
X105500000Y-63000000D01*
X105500000Y-63000000D02*
X100500000Y-58000000D01*
X169000000Y-36400000D02*
X169000000Y-40000000D01*
X169700000Y-35700000D02*
X169000000Y-36400000D01*
X169700000Y-34640000D02*
X169700000Y-35700000D01*
D83*
%TO.N,Net-(D7-A2)*%
X228285000Y-58300000D02*
X228285000Y-55490000D01*
X233644250Y-63659250D02*
X228285000Y-58300000D01*
X242141500Y-63659250D02*
X233644250Y-63659250D01*
D82*
X228337500Y-51617500D02*
X228337500Y-55437500D01*
D85*
%TO.N,GND*%
X183200000Y-78075000D02*
X187400000Y-78075000D01*
X187725000Y-78075000D02*
X187400000Y-78075000D01*
D82*
X149395000Y-78575000D02*
X151545000Y-78575000D01*
D85*
X123375000Y-81583500D02*
X124900000Y-83108500D01*
D82*
X149070000Y-77655000D02*
X149070000Y-78250000D01*
D85*
X140350000Y-36690000D02*
X139280000Y-36690000D01*
X123375000Y-77908500D02*
X123375000Y-81583500D01*
D82*
X151545000Y-78575000D02*
X151920000Y-78950000D01*
D85*
X138675000Y-36085000D02*
X138675000Y-34310000D01*
D82*
X149070000Y-78250000D02*
X149395000Y-78575000D01*
X225615500Y-85900000D02*
X226504500Y-85900000D01*
D85*
X188700000Y-79050000D02*
X187725000Y-78075000D01*
D82*
X236260000Y-81160000D02*
X237265000Y-81160000D01*
D85*
X188700000Y-79050000D02*
X188700000Y-84800000D01*
X139280000Y-36690000D02*
X138675000Y-36085000D01*
D82*
%TO.N,/compute-module/VBAT*%
X116000000Y-79000000D02*
X111400000Y-79000000D01*
X163200000Y-33600000D02*
X163600000Y-33600000D01*
X94000000Y-68500000D02*
X89430000Y-73070000D01*
X122000000Y-67500000D02*
X122000000Y-73000000D01*
X164100000Y-34100000D02*
X164100000Y-34640000D01*
X107000000Y-68500000D02*
X94000000Y-68500000D01*
X163600000Y-33600000D02*
X164100000Y-34100000D01*
X111400000Y-79000000D02*
X111400000Y-72900000D01*
X111400000Y-72900000D02*
X107000000Y-68500000D01*
X122000000Y-73000000D02*
X116000000Y-79000000D01*
X89430000Y-73070000D02*
X89430000Y-79000000D01*
D83*
%TO.N,VBAT_BB*%
X221937500Y-34310463D02*
X221937500Y-34237500D01*
D86*
X216272240Y-50100000D02*
X215686120Y-50686120D01*
D83*
X221137500Y-34537500D02*
X221137500Y-35257500D01*
X222165057Y-33838017D02*
X222336983Y-33838017D01*
X222165057Y-33838017D02*
X222375000Y-34047960D01*
X221489647Y-34354106D02*
X221320894Y-34354106D01*
X222737500Y-33437500D02*
X222737500Y-32787500D01*
X222165057Y-34009943D02*
X222165057Y-33838017D01*
X222587500Y-33587500D02*
X222737500Y-33437500D01*
X221489647Y-34354106D02*
X222572641Y-34354106D01*
D85*
X187400000Y-79625000D02*
X187400000Y-81100000D01*
D83*
X222602799Y-34384264D02*
X222011301Y-34384264D01*
X221937500Y-33610460D02*
X221937500Y-32787500D01*
X221937500Y-34765577D02*
X221937500Y-35257500D01*
X222572641Y-34354106D02*
X222602799Y-34384264D01*
X216500000Y-50100000D02*
X216272240Y-50100000D01*
D85*
X187400000Y-79625000D02*
X183200000Y-79625000D01*
D83*
X222165057Y-33838017D02*
X221937500Y-33610460D01*
D85*
X183200000Y-79625000D02*
X181475000Y-79625000D01*
D83*
X216500000Y-50100000D02*
X216500000Y-49500000D01*
X221937500Y-34237500D02*
X222165057Y-34009943D01*
X222375000Y-34047960D02*
X222375000Y-34100000D01*
X222587500Y-33587500D02*
X222587500Y-34368965D01*
X222165057Y-33838017D02*
X222005736Y-33838017D01*
X222737500Y-34462500D02*
X222737500Y-35257500D01*
X222318813Y-34384264D02*
X221937500Y-34765577D01*
X222375000Y-34100000D02*
X222737500Y-34462500D01*
X222602799Y-34384264D02*
X222318813Y-34384264D01*
X222011301Y-34384264D02*
X221937500Y-34310463D01*
X222336983Y-33838017D02*
X222587500Y-33587500D01*
X222587500Y-34368965D02*
X222602799Y-34384264D01*
X221320894Y-34354106D02*
X221137500Y-34537500D01*
X222005736Y-33838017D02*
X221489647Y-34354106D01*
D85*
X187400000Y-81100000D02*
X183700000Y-84800000D01*
D82*
%TO.N,/modem/UIM_VCC*%
X224337500Y-52362500D02*
X224000000Y-52700000D01*
X227660000Y-77700001D02*
X225660000Y-77700001D01*
X222285001Y-84899999D02*
X221860000Y-85325000D01*
D83*
X219700000Y-83575000D02*
X216975000Y-83575000D01*
X221450000Y-85325000D02*
X219700000Y-83575000D01*
D82*
X226504500Y-84899999D02*
X225615500Y-84899999D01*
D83*
X221860000Y-85325000D02*
X221450000Y-85325000D01*
D82*
X225615500Y-84899999D02*
X222285001Y-84899999D01*
X224337500Y-51617500D02*
X224337500Y-52362500D01*
D83*
X216975000Y-83575000D02*
X216700000Y-83300000D01*
D82*
X239660000Y-81260000D02*
X240435000Y-81260000D01*
X225660000Y-84055499D02*
X226504500Y-84899999D01*
X225660000Y-77700001D02*
X225660000Y-84055499D01*
D83*
%TO.N,+1V8_CM5*%
X92362500Y-54259999D02*
X93322500Y-54259999D01*
X160425000Y-38900000D02*
X161000000Y-38325000D01*
X161000000Y-36000000D02*
X161300000Y-35700000D01*
D82*
X161300000Y-35700000D02*
X161300000Y-34640000D01*
D83*
X92362500Y-54259999D02*
X91062500Y-54259999D01*
D82*
X161700000Y-35300000D02*
X161300000Y-35700000D01*
D83*
X159600000Y-38900000D02*
X160425000Y-38900000D01*
D82*
X161700000Y-34640000D02*
X161700000Y-35300000D01*
D83*
X161000000Y-38325000D02*
X161000000Y-36000000D01*
X93322500Y-54259999D02*
X93987500Y-54924999D01*
D82*
%TO.N,+3V3_CM5*%
X117237500Y-56912499D02*
X116487500Y-56162499D01*
X113150000Y-54462499D02*
X112737500Y-54874999D01*
X163700000Y-35190000D02*
X163090000Y-35800000D01*
D83*
X115900000Y-47500000D02*
X116937500Y-47500000D01*
X163225000Y-37000000D02*
X163225000Y-38400000D01*
D82*
X116487500Y-49624999D02*
X116487500Y-48912499D01*
X113887500Y-57262499D02*
X113712500Y-57087499D01*
X116487500Y-48912499D02*
X117137500Y-48262499D01*
X162100000Y-34640000D02*
X162100000Y-35300000D01*
X162100000Y-35300000D02*
X162600000Y-35800000D01*
X117237500Y-57887499D02*
X118312500Y-57887499D01*
X113712500Y-57087499D02*
X112737500Y-57087499D01*
X112737500Y-54874999D02*
X112737500Y-57087499D01*
D83*
X116937500Y-47500000D02*
X117137500Y-47700000D01*
D82*
X123112500Y-51437499D02*
X123137500Y-51462499D01*
X162500000Y-35700000D02*
X162600000Y-35800000D01*
D83*
X163225000Y-36425000D02*
X163225000Y-37000000D01*
D82*
X162500000Y-34640000D02*
X162500000Y-35700000D01*
D83*
X162600000Y-35800000D02*
X163225000Y-36425000D01*
D82*
X117237500Y-57887499D02*
X117237500Y-56912499D01*
X120712500Y-52462499D02*
X121737500Y-51437499D01*
X113937500Y-57262499D02*
X113887500Y-57262499D01*
X117137500Y-48262499D02*
X117137500Y-47700000D01*
X116487500Y-56162499D02*
X116487500Y-55299999D01*
X121737500Y-51437499D02*
X123112500Y-51437499D01*
X163090000Y-35800000D02*
X162600000Y-35800000D01*
X118825000Y-52462499D02*
X120712500Y-52462499D01*
X186500000Y-37160000D02*
X186500000Y-36000000D01*
X163700000Y-34640000D02*
X163700000Y-35190000D01*
D85*
%TO.N,Net-(J16-VDD)*%
X94500000Y-35000000D02*
X95182500Y-35682500D01*
X105850000Y-26250000D02*
X104300000Y-27800000D01*
X104800000Y-27800000D02*
X107900000Y-30900000D01*
X104300000Y-27800000D02*
X104800000Y-27800000D01*
X90200000Y-33600000D02*
X91600000Y-35000000D01*
X95182500Y-35682500D02*
X95182500Y-36799999D01*
X91600000Y-35000000D02*
X94500000Y-35000000D01*
X91700000Y-27800000D02*
X90200000Y-29300000D01*
X106825000Y-26250000D02*
X105850000Y-26250000D01*
X107900000Y-30900000D02*
X107900000Y-31900000D01*
X104300000Y-27800000D02*
X91700000Y-27800000D01*
X90200000Y-29300000D02*
X90200000Y-33600000D01*
%TO.N,+5V*%
X151920000Y-77400000D02*
X158070000Y-77400000D01*
D82*
X166400000Y-81120000D02*
X166400000Y-81661201D01*
X162100000Y-31560000D02*
X162100000Y-31100000D01*
X162900000Y-31560000D02*
X162900000Y-30900000D01*
D85*
X154000000Y-75695000D02*
X153920000Y-75775000D01*
X159145000Y-77350000D02*
X159920000Y-76575000D01*
D82*
X163700000Y-31560000D02*
X163700000Y-31100000D01*
X162900000Y-30900000D02*
X162800000Y-30800000D01*
D85*
X164117584Y-77882416D02*
X166400000Y-80164832D01*
X161625000Y-30225000D02*
X161625000Y-30625000D01*
D82*
X162500000Y-31100000D02*
X162200000Y-30800000D01*
X161700000Y-30900000D02*
X161600000Y-30800000D01*
X171200000Y-81728992D02*
X171200000Y-81120000D01*
D85*
X161625000Y-30625000D02*
X161800000Y-30800000D01*
D82*
X161700000Y-31560000D02*
X161700000Y-30900000D01*
X163300000Y-31560000D02*
X163300000Y-31100000D01*
D85*
X166400000Y-80164832D02*
X166400000Y-81120000D01*
X158120000Y-77350000D02*
X159145000Y-77350000D01*
X162810168Y-76575000D02*
X164117584Y-77882416D01*
X153920000Y-75775000D02*
X153920000Y-77400000D01*
D82*
X166400000Y-81661201D02*
X167034799Y-82296000D01*
D85*
X161820000Y-76575000D02*
X162810168Y-76575000D01*
X161820000Y-76575000D02*
X161820000Y-77775000D01*
D82*
X163000000Y-30800000D02*
X162800000Y-30800000D01*
D85*
X161625000Y-28800000D02*
X161625000Y-30225000D01*
X151920000Y-77400000D02*
X149975000Y-77400000D01*
D82*
X162200000Y-30800000D02*
X161800000Y-30800000D01*
X161800000Y-30800000D02*
X161600000Y-30800000D01*
X162800000Y-30800000D02*
X162600000Y-30800000D01*
D85*
X158070000Y-77400000D02*
X158120000Y-77350000D01*
X160500000Y-28800000D02*
X161625000Y-28800000D01*
D82*
X162100000Y-31100000D02*
X161800000Y-30800000D01*
X170632992Y-82296000D02*
X171200000Y-81728992D01*
X163300000Y-31100000D02*
X163000000Y-30800000D01*
D85*
X159920000Y-76575000D02*
X161820000Y-76575000D01*
X161820000Y-77775000D02*
X161620000Y-77975000D01*
D82*
X167034799Y-82296000D02*
X170632992Y-82296000D01*
D85*
X154000000Y-75495000D02*
X154000000Y-75695000D01*
X166500000Y-77500000D02*
X167602500Y-77500000D01*
D82*
X162500000Y-31560000D02*
X162500000Y-31100000D01*
D85*
X167602500Y-77500000D02*
X167647500Y-77545000D01*
D82*
X163700000Y-31100000D02*
X163400000Y-30800000D01*
X163400000Y-30800000D02*
X163000000Y-30800000D01*
X162600000Y-30800000D02*
X162200000Y-30800000D01*
%TO.N,Net-(IC1-VDD18PLL)*%
X111912500Y-53862499D02*
X110937500Y-53862499D01*
X113150000Y-53462499D02*
X112312500Y-53462499D01*
X110937500Y-53862499D02*
X110937500Y-55062499D01*
X112312500Y-53462499D02*
X111912500Y-53862499D01*
%TO.N,Net-(IC1-VDD18)*%
X121737500Y-53887499D02*
X123112500Y-53887499D01*
X118825000Y-52962499D02*
X120812500Y-52962499D01*
X123112500Y-53887499D02*
X123137500Y-53862499D01*
X120812500Y-52962499D02*
X121737500Y-53887499D01*
%TO.N,Net-(J16-CD{slash}DAT3)*%
X96887500Y-52499999D02*
X96987500Y-52499999D01*
X93382500Y-38799999D02*
X92982500Y-38399999D01*
X93382500Y-44424999D02*
X92032500Y-44424999D01*
X97487500Y-51999999D02*
X97487500Y-51387499D01*
X97487500Y-51387499D02*
X97287500Y-51187499D01*
X96987500Y-52499999D02*
X97487500Y-51999999D01*
X97287500Y-51187499D02*
X97287500Y-50487499D01*
X92982500Y-38399999D02*
X92982500Y-36799999D01*
X92032500Y-44424999D02*
X91832500Y-44624999D01*
X93382500Y-38799999D02*
X93382500Y-41413999D01*
X93382500Y-44424999D02*
X93382500Y-41413999D01*
%TO.N,Net-(J16-CLK)*%
X94887500Y-42409999D02*
X94882500Y-42404999D01*
X94882500Y-42404999D02*
X94882500Y-39799999D01*
X94887500Y-42499999D02*
X94887500Y-42409999D01*
X96587500Y-45899999D02*
X96487500Y-45999999D01*
X95032500Y-42644999D02*
X94887500Y-42499999D01*
X94882500Y-39799999D02*
X96282500Y-38399999D01*
X96487500Y-45999999D02*
X96487500Y-47027499D01*
X96282500Y-38399999D02*
X96282500Y-36799999D01*
X95077499Y-42600000D02*
X96100000Y-42600000D01*
X95032500Y-42644999D02*
X95077499Y-42600000D01*
%TO.N,Net-(J16-DAT2)*%
X91882500Y-38299999D02*
X91882500Y-36799999D01*
X97987500Y-52387500D02*
X97987500Y-51287499D01*
X98000000Y-52400000D02*
X97987500Y-52387500D01*
X92882498Y-39299997D02*
X91882500Y-38299999D01*
X92882498Y-42824999D02*
X92882498Y-39299997D01*
X91432500Y-42624999D02*
X92682498Y-42624999D01*
X97687500Y-50987499D02*
X97687500Y-50487499D01*
X92682498Y-42624999D02*
X92882498Y-42824999D01*
X97987500Y-51287499D02*
X97687500Y-50987499D01*
%TO.N,Net-(J16-CMD)*%
X94382498Y-38800001D02*
X94382500Y-38799999D01*
X96887500Y-51799999D02*
X96887500Y-50487499D01*
X94382500Y-38799999D02*
X94082500Y-38499999D01*
X94382498Y-40799999D02*
X94382498Y-38800001D01*
X93407500Y-47199999D02*
X92832500Y-46624999D01*
X94387500Y-42599999D02*
X94382498Y-42594997D01*
X94082500Y-38499999D02*
X94082500Y-36799999D01*
X93987500Y-47199999D02*
X93407500Y-47199999D01*
X94382498Y-40799999D02*
X94382498Y-41688999D01*
X94382498Y-42594997D02*
X94382498Y-41688999D01*
X94387500Y-46799999D02*
X94387500Y-42599999D01*
X93987500Y-47199999D02*
X94387500Y-46799999D01*
%TO.N,Net-(CR2-Pad4)*%
X99987498Y-40799999D02*
X99987498Y-41688999D01*
%TO.N,Net-(J16-DAT1)*%
X99412500Y-43224999D02*
X98987500Y-42799999D01*
X95687500Y-44969999D02*
X95687500Y-47027499D01*
X97032500Y-43624999D02*
X95687500Y-44969999D01*
X99582500Y-39099999D02*
X99582500Y-36799999D01*
X98987500Y-41688999D02*
X98987500Y-42799999D01*
X100132500Y-43224999D02*
X99412500Y-43224999D01*
X98987498Y-39695001D02*
X99582500Y-39099999D01*
X98987500Y-40799999D02*
X98987500Y-41688999D01*
X98987498Y-40799999D02*
X98987498Y-39695001D01*
%TO.N,Net-(CR2-Pad5)*%
X100487500Y-41688999D02*
X100487500Y-40799999D01*
%TO.N,Net-(J16-DAT0)*%
X97797500Y-43789999D02*
X96087500Y-45499999D01*
X98487498Y-41688999D02*
X98487498Y-43100001D01*
X96087500Y-45499999D02*
X96087500Y-47027499D01*
X98487498Y-43100001D02*
X97797500Y-43789999D01*
X98482500Y-38899999D02*
X98487498Y-38904997D01*
X98487498Y-38904997D02*
X98487498Y-40799999D01*
X98482500Y-36799999D02*
X98482500Y-38899999D01*
X98487498Y-40799999D02*
X98487498Y-41688999D01*
X98732500Y-44724999D02*
X97797500Y-43789999D01*
%TO.N,/modem/UIM_RESET_N*%
X226504500Y-85400001D02*
X225615500Y-85400001D01*
X223860000Y-85400000D02*
X224359998Y-85400000D01*
X226737500Y-52862500D02*
X226737500Y-51617500D01*
X240435000Y-83700000D02*
X239660000Y-83700000D01*
X224359998Y-85400000D02*
X224359999Y-85400001D01*
X227159999Y-85400001D02*
X226504500Y-85400001D01*
X227660000Y-84900000D02*
X227159999Y-85400001D01*
X224359999Y-85400001D02*
X225615500Y-85400001D01*
%TO.N,/modem/UIM_DATA*%
X228260000Y-87700000D02*
X227460001Y-86900001D01*
X225937500Y-52762500D02*
X225937500Y-51617500D01*
X225900000Y-52800000D02*
X225937500Y-52762500D01*
X216325000Y-85225000D02*
X216100000Y-85000000D01*
X227460001Y-86900001D02*
X226504500Y-86900001D01*
X225199999Y-86900001D02*
X224500000Y-87600000D01*
X230460000Y-87700000D02*
X228260000Y-87700000D01*
X222075000Y-87600000D02*
X219700000Y-85225000D01*
X225615500Y-86900001D02*
X226504500Y-86900001D01*
X224500000Y-87600000D02*
X222075000Y-87600000D01*
X237265000Y-86240000D02*
X236460000Y-86240000D01*
X225615500Y-86900001D02*
X225199999Y-86900001D01*
X219700000Y-85225000D02*
X216325000Y-85225000D01*
%TO.N,/modem/UIM_CLK*%
X226504500Y-86399999D02*
X225615500Y-86399999D01*
X230260000Y-86900000D02*
X228260000Y-86900000D01*
X225000000Y-52775000D02*
X225137500Y-52637500D01*
X225000000Y-52800000D02*
X225000000Y-52775000D01*
X223513945Y-86353945D02*
X223559999Y-86399999D01*
X230460000Y-86700000D02*
X230260000Y-86900000D01*
X228260000Y-86900000D02*
X227759999Y-86399999D01*
X239860000Y-86140000D02*
X240435000Y-86140000D01*
X223559999Y-86399999D02*
X225615500Y-86399999D01*
X225137500Y-52637500D02*
X225137500Y-51617500D01*
X227759999Y-86399999D02*
X226504500Y-86399999D01*
D83*
%TO.N,Net-(D6-A2)*%
X238000000Y-38200000D02*
X236400000Y-38200000D01*
X238000000Y-38200000D02*
X240362500Y-38200000D01*
D85*
%TO.N,+3V3*%
X137900000Y-40500000D02*
X137435000Y-40500000D01*
X95500000Y-54000000D02*
X95500000Y-52137499D01*
X95500000Y-52137499D02*
X95362500Y-51999999D01*
X137125000Y-40810000D02*
X137125000Y-44839999D01*
D82*
X96087500Y-51199999D02*
X95362500Y-51924999D01*
D85*
X110500000Y-24200000D02*
X111500000Y-25200000D01*
X93987500Y-59725000D02*
X92637499Y-59725000D01*
X94237499Y-59974999D02*
X93987500Y-59725000D01*
X121825000Y-76825000D02*
X121500000Y-76500000D01*
X137125000Y-34310000D02*
X137125000Y-40310000D01*
X121825000Y-77908500D02*
X121825000Y-76825000D01*
X205500000Y-62500000D02*
X204155000Y-62500000D01*
X137900000Y-40500000D02*
X137315000Y-40500000D01*
D83*
X92387500Y-59974999D02*
X92362500Y-59999999D01*
D85*
X137125000Y-40310000D02*
X137125000Y-40810000D01*
X140350000Y-40500000D02*
X137900000Y-40500000D01*
D82*
X111500000Y-25200000D02*
X109025000Y-25200000D01*
D85*
X204155000Y-62500000D02*
X204055000Y-62600000D01*
X137125000Y-44839999D02*
X136384999Y-45580000D01*
D82*
X95362500Y-51924999D02*
X95362500Y-51999999D01*
X96087500Y-50487499D02*
X96087500Y-51199999D01*
X109025000Y-25200000D02*
X108925000Y-25300000D01*
D85*
X95300000Y-59974999D02*
X94237499Y-59974999D01*
X110500000Y-24000000D02*
X110500000Y-24200000D01*
X135580000Y-34310000D02*
X137125000Y-34310000D01*
X137315000Y-40500000D02*
X137125000Y-40310000D01*
X119900000Y-83108500D02*
X121825000Y-81183500D01*
X136384999Y-45580000D02*
X135400000Y-45580000D01*
X121825000Y-81183500D02*
X121825000Y-77908500D01*
X92637499Y-59725000D02*
X92362500Y-59999999D01*
X137435000Y-40500000D02*
X137125000Y-40810000D01*
D82*
%TO.N,/USB_INT_RESET*%
X126600000Y-48600000D02*
X121400000Y-48600000D01*
X121400000Y-48600000D02*
X119537501Y-50462499D01*
X129200000Y-51200000D02*
X126600000Y-48600000D01*
X166400000Y-39100000D02*
X154300000Y-51200000D01*
X168100000Y-35300000D02*
X166400000Y-37000000D01*
X166400000Y-37000000D02*
X166400000Y-39100000D01*
X154300000Y-51200000D02*
X129200000Y-51200000D01*
X119537501Y-50462499D02*
X118825000Y-50462499D01*
X168100000Y-34640000D02*
X168100000Y-35300000D01*
%TO.N,/USB3-0-D_N*%
X172074999Y-69706803D02*
X172074999Y-68665001D01*
X115187503Y-61500000D02*
X114987500Y-61299997D01*
X124600000Y-71153390D02*
X124721610Y-71275000D01*
X170506802Y-71275000D02*
X172074999Y-69706803D01*
X124721610Y-71275000D02*
X170506802Y-71275000D01*
X114987500Y-61299997D02*
X114987500Y-55299999D01*
X172074999Y-68665001D02*
X172100000Y-68640000D01*
%TO.N,/compute-module/PWR_BUT*%
X127450000Y-28550000D02*
X125450000Y-30550000D01*
X139850000Y-28550000D02*
X127450000Y-28550000D01*
X160600000Y-33500000D02*
X160900000Y-33800000D01*
X160900000Y-33800000D02*
X160900000Y-34640000D01*
X154500000Y-29000000D02*
X159000000Y-33500000D01*
X125450000Y-30550000D02*
X118950000Y-30550000D01*
X159000000Y-33500000D02*
X160600000Y-33500000D01*
%TO.N,/USB3-0-D_P*%
X172525001Y-68665001D02*
X172500000Y-68640000D01*
X124025000Y-71725000D02*
X170693198Y-71725000D01*
X114487500Y-61500000D02*
X114487500Y-55299999D01*
X124000000Y-71700000D02*
X124025000Y-71725000D01*
X172525001Y-69893197D02*
X172525001Y-68665001D01*
X170693198Y-71725000D02*
X172525001Y-69893197D01*
%TO.N,/compute-module/PMIC_ENABLE*%
X141120000Y-27000000D02*
X147100000Y-27000000D01*
X156100000Y-27900000D02*
X159300000Y-31100000D01*
X147100000Y-27000000D02*
X148000000Y-27900000D01*
X139660000Y-25540000D02*
X141120000Y-27000000D01*
X159300000Y-31100000D02*
X159300000Y-31560000D01*
X148000000Y-27900000D02*
X156100000Y-27900000D01*
%TO.N,/compute-module/EEPROM_nWP*%
X175500000Y-27500000D02*
X175000000Y-27000000D01*
X175000000Y-27000000D02*
X156400000Y-27000000D01*
X175300000Y-35000000D02*
X175300000Y-34640000D01*
X155900000Y-27500000D02*
X149300000Y-27500000D01*
X130840000Y-24200000D02*
X129500000Y-25540000D01*
X175900000Y-35600000D02*
X175300000Y-35000000D01*
X156400000Y-27000000D02*
X155900000Y-27500000D01*
X146000000Y-24200000D02*
X130840000Y-24200000D01*
X149300000Y-27500000D02*
X146000000Y-24200000D01*
%TO.N,/compute-module/nRPIBOOT*%
X157100000Y-27600000D02*
X158890000Y-29390000D01*
X158890000Y-29400000D02*
X160500000Y-31010000D01*
X158890000Y-29390000D02*
X158890000Y-29400000D01*
X160500000Y-31010000D02*
X160500000Y-31560000D01*
X157000000Y-27600000D02*
X157100000Y-27600000D01*
%TO.N,/compute-module/GPIO19*%
X174600000Y-33500000D02*
X174100000Y-34000000D01*
X182000000Y-33500000D02*
X174600000Y-33500000D01*
X174100000Y-34000000D02*
X174100000Y-34640000D01*
X183100000Y-32700000D02*
X182800000Y-32700000D01*
X182800000Y-32700000D02*
X182000000Y-33500000D01*
%TO.N,/compute-module/ID_SC*%
X180080000Y-29100000D02*
X174000000Y-29100000D01*
X182780000Y-26400000D02*
X182780000Y-25400000D01*
X182780000Y-26400000D02*
X180080000Y-29100000D01*
X174000000Y-29100000D02*
X172100000Y-31000000D01*
X172100000Y-31000000D02*
X172100000Y-31560000D01*
%TO.N,/compute-module/GPIO2*%
X167700000Y-34640000D02*
X167700000Y-33500000D01*
X167700000Y-33500000D02*
X167800000Y-33400000D01*
%TO.N,/compute-module/GPIO17*%
X169000000Y-33800000D02*
X169300000Y-34100000D01*
X169300000Y-34100000D02*
X169300000Y-34640000D01*
X169000000Y-33500000D02*
X169000000Y-33800000D01*
%TO.N,/compute-module/GPIO26*%
X174790000Y-33800000D02*
X174500000Y-34090000D01*
X174500000Y-34090000D02*
X174500000Y-34640000D01*
X182600000Y-33800000D02*
X174790000Y-33800000D01*
%TO.N,/GPCLK*%
X142400000Y-53000000D02*
X154800000Y-53000000D01*
X106000000Y-55000000D02*
X106000000Y-60600000D01*
X106000000Y-60600000D02*
X107400000Y-62000000D01*
X168500000Y-39300000D02*
X168500000Y-34640000D01*
X113150000Y-52962499D02*
X108037501Y-52962499D01*
X108037501Y-52962499D02*
X106000000Y-55000000D01*
X133400000Y-62000000D02*
X142400000Y-53000000D01*
X107400000Y-62000000D02*
X133400000Y-62000000D01*
X154800000Y-53000000D02*
X168500000Y-39300000D01*
%TO.N,/USB2_P*%
X169110000Y-79045000D02*
X169110000Y-74908198D01*
X169560000Y-78495000D02*
X169110000Y-78945000D01*
X168550000Y-81120000D02*
X168550000Y-80555000D01*
X178074999Y-64506803D02*
X178074999Y-65534999D01*
X169010000Y-80195000D02*
X169199999Y-80195000D01*
X178706802Y-63875000D02*
X178074999Y-64506803D01*
X180993198Y-63875000D02*
X178706802Y-63875000D01*
X168550000Y-80555000D02*
X168910000Y-80195000D01*
X170193198Y-73825000D02*
X179793198Y-73825000D01*
X169110000Y-74908198D02*
X170193198Y-73825000D01*
X169550000Y-80545001D02*
X169550000Y-81120000D01*
X169110000Y-79045000D02*
X169110000Y-80095000D01*
X179793198Y-73825000D02*
X182425000Y-71193198D01*
X170137500Y-78495000D02*
X169560000Y-78495000D01*
X169110000Y-80095000D02*
X169010000Y-80195000D01*
X169110000Y-78945000D02*
X169110000Y-79045000D01*
X169199999Y-80195000D02*
X169550000Y-80545001D01*
X182425000Y-65306802D02*
X180993198Y-63875000D01*
X182425000Y-71193198D02*
X182425000Y-65306802D01*
X168910000Y-80195000D02*
X169010000Y-80195000D01*
X178074999Y-65534999D02*
X178100000Y-65560000D01*
%TO.N,Net-(U1A-J1)*%
X215857500Y-36657500D02*
X215600000Y-36400000D01*
X215857500Y-37037500D02*
X215857500Y-36657500D01*
%TO.N,Net-(U1A-J2)*%
X215857500Y-38237500D02*
X215320000Y-37700000D01*
%TO.N,Net-(U1A-J3)*%
X215857500Y-39437500D02*
X215420000Y-39000000D01*
%TO.N,Net-(U1A-J4)*%
X215320000Y-40100000D02*
X215300000Y-40100000D01*
X215857500Y-40637500D02*
X215320000Y-40100000D01*
%TO.N,Net-(U1A-J5)*%
X215400000Y-41380000D02*
X215400000Y-41300000D01*
X215857500Y-41837500D02*
X215400000Y-41380000D01*
%TO.N,Net-(U1A-J6)*%
X215857500Y-43037500D02*
X215400000Y-42580000D01*
X215400000Y-42580000D02*
X215400000Y-42500000D01*
%TO.N,Net-(U1A-J7)*%
X215857500Y-44237500D02*
X215320000Y-43700000D01*
%TO.N,Net-(U1A-J8)*%
X215857500Y-45437500D02*
X215320000Y-44900000D01*
%TO.N,Net-(U1A-J9)*%
X215287499Y-46067499D02*
X215287499Y-45998840D01*
X215857500Y-46637500D02*
X215287499Y-46067499D01*
%TO.N,/sd-interface/SD3*%
X87287500Y-50499999D02*
X85487500Y-52299999D01*
X89762500Y-54259999D02*
X89762500Y-52924999D01*
X84987500Y-52799999D02*
X85487500Y-52299999D01*
X91687500Y-50499999D02*
X93230000Y-48957499D01*
X83987500Y-52299999D02*
X85487500Y-52299999D01*
X93230000Y-48957499D02*
X94957500Y-48957499D01*
X83987500Y-52799999D02*
X84987500Y-52799999D01*
X89987500Y-50499999D02*
X87287500Y-50499999D01*
X89762500Y-52924999D02*
X89987500Y-52699999D01*
X89987500Y-50499999D02*
X91687500Y-50499999D01*
%TO.N,/sd-interface/SD8*%
X91449999Y-47049999D02*
X85237500Y-47049999D01*
X84487500Y-46299999D02*
X85237500Y-47049999D01*
X84987500Y-46799999D02*
X85237500Y-47049999D01*
X83987500Y-46799999D02*
X84987500Y-46799999D01*
X83987500Y-46299999D02*
X84487500Y-46299999D01*
X92146499Y-47746499D02*
X91449999Y-47049999D01*
X94957500Y-47746499D02*
X92146499Y-47746499D01*
%TO.N,/sd-interface/SD7*%
X83987500Y-48299999D02*
X85487500Y-48299999D01*
X84987500Y-47799999D02*
X85487500Y-48299999D01*
X88182500Y-48274999D02*
X87982500Y-48274999D01*
X87932500Y-48324999D02*
X85512500Y-48324999D01*
X87982500Y-48274999D02*
X87932500Y-48324999D01*
X88300000Y-48157499D02*
X94957500Y-48157499D01*
X88462500Y-54259999D02*
X88462500Y-53174999D01*
X85512500Y-48324999D02*
X85487500Y-48299999D01*
X88182500Y-48274999D02*
X88300000Y-48157499D01*
X83987500Y-47799999D02*
X84987500Y-47799999D01*
X88462500Y-53174999D02*
X87987500Y-52699999D01*
%TO.N,/sd-interface/SD2*%
X83987500Y-54299999D02*
X84487500Y-54299999D01*
X90412500Y-54259999D02*
X90412500Y-53274999D01*
X84487500Y-54299999D02*
X84987500Y-53799999D01*
X91687500Y-51099999D02*
X93430000Y-49357499D01*
X90412500Y-53274999D02*
X90987500Y-52699999D01*
X90987500Y-51099999D02*
X87687500Y-51099999D01*
X93430000Y-49357499D02*
X94957500Y-49357499D01*
X87687500Y-51099999D02*
X84987500Y-53799999D01*
X83987500Y-53799999D02*
X84987500Y-53799999D01*
X90987500Y-51099999D02*
X91687500Y-51099999D01*
%TO.N,/sd-interface/SD5*%
X88987500Y-49799999D02*
X85187500Y-49799999D01*
X89112500Y-52824999D02*
X88987500Y-52699999D01*
X84687500Y-49299999D02*
X83987500Y-49299999D01*
X93180910Y-48580910D02*
X93204321Y-48557499D01*
X90000000Y-49400000D02*
X91600000Y-49400000D01*
X85137500Y-49749999D02*
X84687500Y-49299999D01*
X88987500Y-49799999D02*
X89600001Y-49799999D01*
X92419090Y-48580910D02*
X93180910Y-48580910D01*
X89600001Y-49799999D02*
X90000000Y-49400000D01*
X83987500Y-49799999D02*
X85187500Y-49799999D01*
X93204321Y-48557499D02*
X94957500Y-48557499D01*
X91600000Y-49400000D02*
X92419090Y-48580910D01*
X89112500Y-54259999D02*
X89112500Y-52824999D01*
X85187500Y-49799999D02*
X85137500Y-49749999D01*
%TO.N,/sd-interface/SD1*%
X94957500Y-49757499D02*
X93630000Y-49757499D01*
X84737500Y-55299999D02*
X83987500Y-55299999D01*
X87987500Y-51599999D02*
X85362500Y-54224999D01*
X93630000Y-49757499D02*
X91787500Y-51599999D01*
X84237500Y-55799999D02*
X85362500Y-54674999D01*
X85362500Y-54224999D02*
X85362500Y-54674999D01*
X91787500Y-51599999D02*
X87987500Y-51599999D01*
X83987500Y-55799999D02*
X84237500Y-55799999D01*
X85362500Y-54674999D02*
X84737500Y-55299999D01*
D83*
%TO.N,Net-(U11-VOUT)*%
X149720000Y-79575000D02*
X149720000Y-79775000D01*
X150500000Y-80555000D02*
X150500000Y-85000000D01*
X149720000Y-79775000D02*
X150500000Y-80555000D01*
D82*
%TO.N,Net-(Q1-G)*%
X111500000Y-27200000D02*
X108925000Y-27200000D01*
%TO.N,/USB2_N*%
X178525001Y-65534999D02*
X178525001Y-64693197D01*
X168050000Y-81120000D02*
X168050000Y-81694999D01*
X178525001Y-64693197D02*
X178893198Y-64325000D01*
X181975000Y-71006802D02*
X179606802Y-73375000D01*
X168710000Y-79895000D02*
X168710000Y-78745000D01*
X168050000Y-80555000D02*
X168710000Y-79895000D01*
X168710000Y-74671802D02*
X168710000Y-78745000D01*
X180806802Y-64325000D02*
X181975000Y-65493198D01*
X169050000Y-81694999D02*
X169050000Y-81120000D01*
X168460000Y-78495000D02*
X167647500Y-78495000D01*
X168749999Y-81995000D02*
X169050000Y-81694999D01*
X181975000Y-65493198D02*
X181975000Y-71006802D01*
X178500000Y-65560000D02*
X178525001Y-65534999D01*
X168710000Y-78745000D02*
X168460000Y-78495000D01*
X178893198Y-64325000D02*
X180806802Y-64325000D01*
X168350001Y-81995000D02*
X168749999Y-81995000D01*
X179606802Y-73375000D02*
X170006802Y-73375000D01*
X168050000Y-81120000D02*
X168050000Y-80555000D01*
X170006802Y-73375000D02*
X168710000Y-74671802D01*
X168050000Y-81694999D02*
X168350001Y-81995000D01*
D87*
%TO.N,/modem/1V8_WAKE*%
X217557500Y-43837500D02*
X216837500Y-43837500D01*
X216837500Y-43837500D02*
X216600000Y-43600000D01*
X209650000Y-44500000D02*
X209650000Y-43075000D01*
X211000000Y-44000000D02*
X210500000Y-44500000D01*
X210500000Y-44500000D02*
X209650000Y-44500000D01*
X209650000Y-43075000D02*
X210125000Y-42600000D01*
D82*
%TO.N,/CC2*%
X171160000Y-76845000D02*
X171300000Y-76985000D01*
X159000000Y-42500000D02*
X158500000Y-42000000D01*
X170900000Y-76595000D02*
X171150000Y-76845000D01*
X171150000Y-76845000D02*
X171160000Y-76845000D01*
X170137500Y-76595000D02*
X170900000Y-76595000D01*
X171100000Y-75257000D02*
X171300000Y-75457000D01*
X171100000Y-75200000D02*
X171100000Y-75257000D01*
X171300000Y-79205000D02*
X170550000Y-79955000D01*
X160100000Y-35300000D02*
X160100000Y-34640000D01*
X158500000Y-42000000D02*
X158500000Y-36900000D01*
X160000000Y-42500000D02*
X159000000Y-42500000D01*
X170550000Y-79955000D02*
X170550000Y-81120000D01*
X158500000Y-36900000D02*
X160100000Y-35300000D01*
X171300000Y-76985000D02*
X171300000Y-79205000D01*
X171300000Y-75457000D02*
X171300000Y-76985000D01*
%TO.N,/CC1*%
X166405000Y-76595000D02*
X166000000Y-77000000D01*
X166000000Y-78585000D02*
X166000000Y-77000000D01*
X167550000Y-80135000D02*
X166000000Y-78585000D01*
X166000000Y-76005000D02*
X166810000Y-75195000D01*
X159000000Y-38000000D02*
X160500000Y-36500000D01*
X159000000Y-41500000D02*
X159000000Y-38000000D01*
X166000000Y-77000000D02*
X166000000Y-76005000D01*
X167550000Y-81120000D02*
X167550000Y-80135000D01*
X160500000Y-36500000D02*
X160500000Y-34640000D01*
X167647500Y-76595000D02*
X166405000Y-76595000D01*
%TO.N,/compute-module/USB_OTG_ID*%
X143500000Y-28500000D02*
X143049000Y-28049000D01*
X143049000Y-28049000D02*
X139629000Y-28049000D01*
X161000000Y-43500000D02*
X159000000Y-43500000D01*
X158000000Y-35500000D02*
X151000000Y-28500000D01*
X151000000Y-28500000D02*
X143500000Y-28500000D01*
X159000000Y-43500000D02*
X158000000Y-42500000D01*
X178900000Y-65560000D02*
X178900000Y-66110000D01*
X178510000Y-66500000D02*
X165500000Y-66500000D01*
X139629000Y-28049000D02*
X137120000Y-25540000D01*
X178900000Y-66110000D02*
X178510000Y-66500000D01*
X158000000Y-42500000D02*
X158000000Y-35500000D01*
D85*
%TO.N,/modem/1V8_TX_ON*%
X212000000Y-60925000D02*
X211925000Y-61000000D01*
X211950000Y-61025000D02*
X211925000Y-61000000D01*
X211950000Y-63130000D02*
X211950000Y-61025000D01*
X212000000Y-59700000D02*
X212000000Y-60925000D01*
D83*
X223537500Y-34337500D02*
X223675000Y-34200000D01*
X223537500Y-35257500D02*
X223537500Y-34337500D01*
D85*
%TO.N,Net-(D11-K)*%
X213900000Y-63475000D02*
X215549000Y-63475000D01*
X215549000Y-63475000D02*
X215600000Y-63526000D01*
D83*
%TO.N,Net-(U10-Q3)*%
X133675000Y-37960000D02*
X135400000Y-37960000D01*
X132125000Y-39510000D02*
X133675000Y-37960000D01*
D82*
X102100000Y-55100000D02*
X97600000Y-55100000D01*
X97600000Y-55100000D02*
X96187500Y-53687500D01*
X96487500Y-51299999D02*
X96487500Y-50487499D01*
X96187500Y-51599999D02*
X96487500Y-51299999D01*
X96187500Y-53687500D02*
X96187500Y-51599999D01*
%TO.N,Net-(IC1-RBIAS)*%
X110857500Y-56517499D02*
X110857500Y-57037499D01*
X112612501Y-53962499D02*
X111737500Y-54837500D01*
X113150000Y-53962499D02*
X112612501Y-53962499D01*
X111737500Y-55637499D02*
X110857500Y-56517499D01*
X111737500Y-54837500D02*
X111737500Y-55637499D01*
%TO.N,Net-(U1A-UART1_TX)*%
X216500000Y-39030000D02*
X216500000Y-39000000D01*
X217307500Y-39837500D02*
X216500000Y-39030000D01*
X217557500Y-39837500D02*
X217307500Y-39837500D01*
%TO.N,Net-(U1A-UART1_DTR)*%
X216500000Y-42000000D02*
X216500000Y-42500000D01*
X217557500Y-41437500D02*
X217062500Y-41437500D01*
X217062500Y-41437500D02*
X216500000Y-42000000D01*
%TO.N,Net-(U1A-UART1_RTS)*%
X217557500Y-38237500D02*
X217237500Y-38237500D01*
X217237500Y-38237500D02*
X216500000Y-37500000D01*
%TO.N,Net-(U1A-UART1_RX)*%
X217137500Y-40637500D02*
X216500000Y-40000000D01*
X217557500Y-40637500D02*
X217137500Y-40637500D01*
%TO.N,Net-(U1A-SYS_CLK)*%
X221137500Y-51617500D02*
X221137500Y-51862500D01*
X221137500Y-51862500D02*
X220000000Y-53000000D01*
%TO.N,Net-(U1A-SLEEP_CLK)*%
X221937500Y-51617500D02*
X221937500Y-52062500D01*
X221937500Y-52062500D02*
X221000000Y-53000000D01*
%TO.N,/CM_WAKE_ON_WWAN*%
X195300000Y-41100000D02*
X195600000Y-41400000D01*
X174111000Y-30199000D02*
X184399000Y-30199000D01*
X197400000Y-43200000D02*
X195150000Y-40950000D01*
D85*
X201530000Y-61725000D02*
X202405000Y-62600000D01*
D82*
X202430000Y-59800000D02*
X202430000Y-58930000D01*
D85*
X202430000Y-59800000D02*
X201930000Y-59800000D01*
D82*
X173300000Y-31560000D02*
X173300000Y-31010000D01*
X195150000Y-40950000D02*
X195300000Y-41100000D01*
X186150000Y-31950000D02*
X195150000Y-40950000D01*
D85*
X201930000Y-59800000D02*
X201530000Y-60200000D01*
D82*
X202430000Y-58930000D02*
X197400000Y-53900000D01*
X195600000Y-41400000D02*
X195700000Y-41400000D01*
X202505000Y-59725000D02*
X202430000Y-59800000D01*
D85*
X201530000Y-60200000D02*
X201530000Y-61550000D01*
D82*
X197400000Y-53900000D02*
X197400000Y-43200000D01*
D85*
X201530000Y-61550000D02*
X201530000Y-61725000D01*
D82*
X173300000Y-31010000D02*
X174111000Y-30199000D01*
X184399000Y-30199000D02*
X184600000Y-30400000D01*
X184600000Y-30400000D02*
X186150000Y-31950000D01*
%TO.N,Net-(U10-Q4)*%
X97287500Y-46399999D02*
X97487500Y-46199999D01*
X97687500Y-47027499D02*
X97687500Y-46499999D01*
X143600000Y-44100000D02*
X142120000Y-45580000D01*
X96887500Y-47027499D02*
X96887500Y-46399999D01*
X97687500Y-46499999D02*
X97987500Y-46199999D01*
X142120000Y-45580000D02*
X140350000Y-45580000D01*
X118000000Y-38800000D02*
X115000000Y-38800000D01*
X133500000Y-31100000D02*
X125800000Y-38800000D01*
X107600000Y-46199999D02*
X97987500Y-46199999D01*
X97287500Y-47027499D02*
X97287500Y-46399999D01*
X125800000Y-38800000D02*
X118000000Y-38800000D01*
X115000000Y-38800000D02*
X112900000Y-40900000D01*
X97087500Y-46199999D02*
X97487500Y-46199999D01*
X96887500Y-46399999D02*
X97087500Y-46199999D01*
X97487500Y-46199999D02*
X97987500Y-46199999D01*
%TO.N,/SD_SWITCH_DISABLE*%
X138130000Y-41770000D02*
X140350000Y-41770000D01*
X133500000Y-40700000D02*
X133500000Y-40900000D01*
X135400000Y-40500000D02*
X133700000Y-40500000D01*
X167300000Y-29600000D02*
X166800000Y-29600000D01*
X170100000Y-30800000D02*
X168900000Y-29600000D01*
X170100000Y-31560000D02*
X170100000Y-30800000D01*
X152070000Y-41770000D02*
X148030000Y-41770000D01*
X168900000Y-29600000D02*
X167300000Y-29600000D01*
X151900000Y-41770000D02*
X152070000Y-41770000D01*
X140350000Y-41770000D02*
X152070000Y-41770000D01*
X133700000Y-40500000D02*
X133500000Y-40700000D01*
D83*
%TO.N,/modem/UIM_SIM_DET*%
X220337500Y-34462500D02*
X219975000Y-34100000D01*
X212700000Y-80300000D02*
X218130000Y-80300000D01*
X219975000Y-34100000D02*
X219575000Y-34100000D01*
X220337500Y-35257500D02*
X220337500Y-34462500D01*
X210200000Y-77800000D02*
X212700000Y-80300000D01*
D82*
%TO.N,/SD_SWITCH_ENABLE*%
X138700000Y-42500000D02*
X139240000Y-43040000D01*
X164321268Y-27800000D02*
X164321268Y-27921268D01*
X139240000Y-43040000D02*
X140350000Y-43040000D01*
X145100000Y-43040000D02*
X140350000Y-43040000D01*
X170300000Y-27800000D02*
X171700000Y-29200000D01*
X164442536Y-27800000D02*
X170300000Y-27800000D01*
X133870000Y-39230000D02*
X135400000Y-39230000D01*
X171700000Y-29200000D02*
X171700000Y-31560000D01*
X164321268Y-27921268D02*
X164442536Y-27800000D01*
X133500000Y-39600000D02*
X133870000Y-39230000D01*
D83*
%TO.N,/modem/1V8_RESET_IN_N*%
X216600000Y-44900000D02*
X216862500Y-44637500D01*
X216862500Y-44637500D02*
X217557500Y-44637500D01*
X207600000Y-63500000D02*
X207600000Y-65490000D01*
X207600000Y-65490000D02*
X206640000Y-66450000D01*
%TO.N,/modem/1V8_POWER_ON_N*%
X217800000Y-70300000D02*
X214890000Y-70300000D01*
X224337500Y-34637500D02*
X224337500Y-35257500D01*
X226500000Y-34200000D02*
X224775000Y-34200000D01*
X224775000Y-34200000D02*
X224337500Y-34637500D01*
X214890000Y-70300000D02*
X214840000Y-70350000D01*
%TO.N,/modem/1V8_BOOT_MODE*%
X219600000Y-73775000D02*
X215905000Y-73775000D01*
X215805000Y-73875000D02*
X214770000Y-73875000D01*
X215905000Y-73775000D02*
X215805000Y-73875000D01*
X231117500Y-39837500D02*
X232212500Y-39837500D01*
X232212500Y-39837500D02*
X232475000Y-40100000D01*
D82*
%TO.N,/sd-interface/SD-pin7*%
X116387500Y-56862499D02*
X116187500Y-57062499D01*
X115987500Y-55299999D02*
X115987500Y-56262499D01*
X103497397Y-49074999D02*
X102579897Y-48157499D01*
X103800000Y-49074999D02*
X103497397Y-49074999D01*
X116387500Y-56662499D02*
X116387500Y-56862499D01*
X102579897Y-48157499D02*
X98417500Y-48157499D01*
X115987500Y-56262499D02*
X116387500Y-56662499D01*
%TO.N,/sd-interface/SD-pin1*%
X109432500Y-51124999D02*
X111932500Y-48624999D01*
X111932500Y-48624999D02*
X114532500Y-48624999D01*
X100362500Y-51124999D02*
X109432500Y-51124999D01*
X114532500Y-48624999D02*
X114987500Y-49079999D01*
X98417500Y-49757499D02*
X98995000Y-49757499D01*
X114987500Y-49079999D02*
X114987500Y-49624999D01*
X98995000Y-49757499D02*
X100362500Y-51124999D01*
%TO.N,/sd-interface/SD-pin5*%
X117987500Y-56062499D02*
X118587500Y-56662499D01*
X101995000Y-48557499D02*
X98417500Y-48557499D01*
X117987500Y-55299999D02*
X117987500Y-56062499D01*
X102778750Y-49341249D02*
X101995000Y-48557499D01*
%TO.N,/sd-interface/SD-pin8*%
X115487500Y-55299999D02*
X115487500Y-56562499D01*
X98417500Y-47757499D02*
X104882500Y-47757499D01*
X115487500Y-56562499D02*
X115587500Y-56662499D01*
%TO.N,/sd-interface/SD-pin2*%
X111532500Y-47624999D02*
X114832500Y-47624999D01*
X98417500Y-49357499D02*
X99865000Y-49357499D01*
X115987500Y-48779999D02*
X115987500Y-49624999D01*
X114832500Y-47624999D02*
X115987500Y-48779999D01*
X100932500Y-50424999D02*
X108732500Y-50424999D01*
X99865000Y-49357499D02*
X100932500Y-50424999D01*
X108732500Y-50424999D02*
X111532500Y-47624999D01*
%TO.N,/sd-interface/SD-pin3*%
X118825000Y-53962499D02*
X119362499Y-53962499D01*
X101157500Y-49562499D02*
X100552500Y-48957499D01*
X100552500Y-48957499D02*
X98417500Y-48957499D01*
X120237500Y-54837500D02*
X120237500Y-55162499D01*
X119362499Y-53962499D02*
X120237500Y-54837500D01*
%TO.N,/EXT_5V_ENABLE*%
X166700000Y-30100000D02*
X168815678Y-30100000D01*
X169700000Y-30984322D02*
X169700000Y-31560000D01*
X155000000Y-41000000D02*
X155000000Y-40900000D01*
X166200000Y-30600000D02*
X166700000Y-30100000D01*
X153330000Y-39230000D02*
X140350000Y-39230000D01*
X155000000Y-40900000D02*
X153330000Y-39230000D01*
X168815678Y-30100000D02*
X169700000Y-30984322D01*
D85*
%TO.N,/MODEM_BOOT_MODE*%
X212830000Y-73225000D02*
X210925000Y-73225000D01*
D82*
%TO.N,/SD7*%
X146500000Y-62200000D02*
X159900000Y-62200000D01*
X142100000Y-66600000D02*
X146500000Y-62200000D01*
X164800000Y-57300000D02*
X175600000Y-46500000D01*
X89312501Y-62587499D02*
X89312501Y-63187499D01*
X93325001Y-66600000D02*
X116200000Y-66600000D01*
X159900000Y-62200000D02*
X164800000Y-57300000D01*
X88462500Y-59999999D02*
X88462500Y-61737499D01*
X173500000Y-33200000D02*
X173500000Y-32300000D01*
X89312501Y-62587499D02*
X93325001Y-66600000D01*
X88462500Y-61737499D02*
X89312501Y-62587499D01*
X116200000Y-66600000D02*
X142100000Y-66600000D01*
X173700000Y-32100000D02*
X173700000Y-31560000D01*
X173500000Y-32300000D02*
X173700000Y-32100000D01*
X89312501Y-63187499D02*
X88000000Y-64500000D01*
X175600000Y-46500000D02*
X175600000Y-41600000D01*
X116200000Y-66600000D02*
X116300000Y-66600000D01*
%TO.N,/USB3-1-D_P*%
X217307500Y-46237500D02*
X217557500Y-46237500D01*
X166500000Y-65560000D02*
X166500000Y-65010000D01*
X166500000Y-65010000D02*
X166910000Y-64600000D01*
X216575000Y-46970000D02*
X217307500Y-46237500D01*
X216575000Y-47300000D02*
X216575000Y-46970000D01*
X166910000Y-64600000D02*
X167200000Y-64600000D01*
%TO.N,Net-(U10-Q2)*%
X131500000Y-47500000D02*
X131500000Y-39000000D01*
X147300000Y-75500000D02*
X148420000Y-76620000D01*
X134500000Y-50500000D02*
X131500000Y-47500000D01*
X131500000Y-39000000D02*
X133810000Y-36690000D01*
X148420000Y-76620000D02*
X148420000Y-77655000D01*
X133810000Y-36690000D02*
X135400000Y-36690000D01*
%TO.N,Net-(D5-Pad1)*%
X188000000Y-37160000D02*
X188000000Y-39000000D01*
%TO.N,/MODEM_TX_ON*%
X173700000Y-35100000D02*
X183500000Y-44900000D01*
D85*
X211600000Y-66100000D02*
X213400000Y-66100000D01*
X200500000Y-59500000D02*
X199500000Y-58500000D01*
X184381095Y-44881095D02*
X183518905Y-44881095D01*
X198000000Y-58500000D02*
X184381095Y-44881095D01*
X211300000Y-66200000D02*
X210500000Y-67000000D01*
X213400000Y-66100000D02*
X213900000Y-65600000D01*
X210500000Y-67000000D02*
X209500000Y-67000000D01*
X213900000Y-65600000D02*
X213900000Y-65125000D01*
X211300000Y-65070000D02*
X211300000Y-65800000D01*
X199500000Y-58500000D02*
X198000000Y-58500000D01*
D82*
X173700000Y-34640000D02*
X173700000Y-35100000D01*
D85*
X211300000Y-65070000D02*
X211300000Y-66200000D01*
X211300000Y-65800000D02*
X211600000Y-66100000D01*
D82*
%TO.N,/USB3-1-D_N*%
X217037500Y-45437500D02*
X217557500Y-45437500D01*
X166100000Y-65560000D02*
X166100000Y-64500000D01*
X216575000Y-45900000D02*
X217037500Y-45437500D01*
X166100000Y-64500000D02*
X166600000Y-64000000D01*
X216575000Y-46000000D02*
X216575000Y-45900000D01*
%TO.N,/SD5*%
X82500000Y-67500000D02*
X85500000Y-64500000D01*
X85500000Y-64500000D02*
X85500000Y-63500000D01*
X115900000Y-65700000D02*
X140100000Y-65700000D01*
X172300000Y-42500000D02*
X172300000Y-46100000D01*
X140100000Y-65700000D02*
X140200000Y-65700000D01*
X172300000Y-46100000D02*
X158400000Y-60000000D01*
X93025001Y-65700000D02*
X115900000Y-65700000D01*
X166800000Y-33200000D02*
X168100000Y-31900000D01*
X146400000Y-60000000D02*
X140700000Y-65700000D01*
X158400000Y-60000000D02*
X146400000Y-60000000D01*
X89112500Y-61787499D02*
X89187500Y-61862499D01*
X86500000Y-62500000D02*
X86500000Y-60000000D01*
X88897500Y-59000000D02*
X89112500Y-59215000D01*
X85500000Y-63500000D02*
X86500000Y-62500000D01*
X87500000Y-59000000D02*
X88897500Y-59000000D01*
X168100000Y-31900000D02*
X168100000Y-31560000D01*
X89112500Y-59215000D02*
X89112500Y-59999999D01*
X86500000Y-60000000D02*
X87500000Y-59000000D01*
X140700000Y-65700000D02*
X140100000Y-65700000D01*
X89112500Y-59999999D02*
X89112500Y-61787499D01*
X89112500Y-61787499D02*
X93025001Y-65700000D01*
%TO.N,/SD3*%
X171400000Y-39000000D02*
X171400000Y-43900000D01*
X171400000Y-39000000D02*
X171400000Y-41900000D01*
X85787500Y-60862499D02*
X84187500Y-62462499D01*
X157000000Y-58300000D02*
X145200000Y-58300000D01*
X138600000Y-64900000D02*
X93025001Y-64900000D01*
X89762500Y-59999999D02*
X89762500Y-59215000D01*
X87187500Y-58262499D02*
X85787500Y-59662499D01*
X168300000Y-32700000D02*
X168900000Y-32100000D01*
X168900000Y-32100000D02*
X168900000Y-31560000D01*
X88809999Y-58262499D02*
X87187500Y-58262499D01*
X145200000Y-58300000D02*
X138600000Y-64900000D01*
X89762500Y-59215000D02*
X88809999Y-58262499D01*
X89762500Y-61637499D02*
X89762500Y-59999999D01*
X93025001Y-64900000D02*
X89762500Y-61637499D01*
X171400000Y-43900000D02*
X157000000Y-58300000D01*
X85787500Y-59662499D02*
X85787500Y-60862499D01*
%TO.N,/MODEM_RESET_N*%
X201500000Y-63500000D02*
X183900000Y-45900000D01*
D85*
X204700000Y-65800000D02*
X202745000Y-65800000D01*
D82*
X201500000Y-64655000D02*
X201500000Y-63500000D01*
X202570000Y-65725000D02*
X201500000Y-64655000D01*
X183900000Y-45900000D02*
X173300000Y-35300000D01*
D85*
X202745000Y-65800000D02*
X202570000Y-65625000D01*
D82*
X173300000Y-35300000D02*
X173300000Y-34640000D01*
%TO.N,/SD2*%
X90412500Y-61050000D02*
X93362500Y-64000000D01*
X136900000Y-64000000D02*
X140350000Y-60550000D01*
X128000000Y-64000000D02*
X128700000Y-64000000D01*
X93362500Y-64000000D02*
X95500000Y-64000000D01*
X174100000Y-32500000D02*
X174100000Y-31560000D01*
X95500000Y-64000000D02*
X114100000Y-64000000D01*
X128000000Y-64000000D02*
X136900000Y-64000000D01*
X114100000Y-64000000D02*
X128000000Y-64000000D01*
X114100000Y-64000000D02*
X114200000Y-64000000D01*
X95500000Y-64000000D02*
X96200000Y-64000000D01*
X140350000Y-60550000D02*
X140400000Y-60500000D01*
X90412500Y-59999999D02*
X90412500Y-61050000D01*
X96200000Y-64000000D02*
X98800000Y-61400000D01*
D85*
%TO.N,/MODEM_POWER_ON_N*%
X211015000Y-69700000D02*
X210940000Y-69625000D01*
X212900000Y-69700000D02*
X211015000Y-69700000D01*
D82*
%TO.N,/SD_SET_HOST*%
X133960000Y-43040000D02*
X135400000Y-43040000D01*
X151790000Y-47710000D02*
X133610000Y-47710000D01*
X132600000Y-46700000D02*
X132600000Y-44400000D01*
X169800000Y-28600000D02*
X171300000Y-30100000D01*
X132600000Y-44400000D02*
X133960000Y-43040000D01*
X133610000Y-47710000D02*
X132600000Y-46700000D01*
X164300000Y-28800000D02*
X164500000Y-28600000D01*
X164500000Y-28600000D02*
X169800000Y-28600000D01*
X171300000Y-30100000D02*
X171300000Y-31560000D01*
X157000000Y-42500000D02*
X151790000Y-47710000D01*
X157000000Y-35500000D02*
X157000000Y-42500000D01*
%TO.N,/EXT_5V_DISABLE*%
X155900000Y-40900000D02*
X154220001Y-39220001D01*
X168890000Y-30600000D02*
X169300000Y-31010000D01*
X169300000Y-31010000D02*
X169300000Y-31560000D01*
X154220001Y-39220001D02*
X154200000Y-39220001D01*
X156300000Y-41000000D02*
X156200000Y-40900000D01*
X156200000Y-40900000D02*
X155900000Y-40900000D01*
X167300000Y-30600000D02*
X168890000Y-30600000D01*
X154200000Y-39220001D02*
X152939999Y-37960000D01*
X152939999Y-37960000D02*
X140350000Y-37960000D01*
%TO.N,/SD_RESET_HOST*%
X170900000Y-30600000D02*
X169400000Y-29100000D01*
X134300000Y-46800000D02*
X133900000Y-46400000D01*
X165300000Y-29600000D02*
X164600000Y-29600000D01*
X144400000Y-46800000D02*
X134300000Y-46800000D01*
X165800000Y-29100000D02*
X165300000Y-29600000D01*
X134415001Y-44310000D02*
X135400000Y-44310000D01*
X144600000Y-46600000D02*
X144400000Y-46800000D01*
X170900000Y-31560000D02*
X170900000Y-30600000D01*
X133900000Y-44825001D02*
X134415001Y-44310000D01*
X133900000Y-46400000D02*
X133900000Y-44825001D01*
X164600000Y-29600000D02*
X164500000Y-29500000D01*
X169400000Y-29100000D02*
X165800000Y-29100000D01*
%TO.N,Net-(M1A-LED_nACT)*%
X185000000Y-32300000D02*
X185000000Y-37650000D01*
X175308000Y-30700000D02*
X183400000Y-30700000D01*
X185000000Y-37650000D02*
X186350000Y-39000000D01*
X174900000Y-31108000D02*
X175308000Y-30700000D01*
X174900000Y-31560000D02*
X174900000Y-31108000D01*
X183400000Y-30700000D02*
X185000000Y-32300000D01*
D83*
%TO.N,Net-(D1-A2)*%
X220750000Y-80950000D02*
X220070000Y-80950000D01*
D82*
X226560000Y-83600000D02*
X226460000Y-83700000D01*
D83*
X221860000Y-82060000D02*
X220750000Y-80950000D01*
X221860000Y-83675000D02*
X221860000Y-82060000D01*
D82*
X228610000Y-84250000D02*
X230260000Y-84250000D01*
X227060000Y-83100000D02*
X226560000Y-83600000D01*
X227460000Y-83100000D02*
X228610000Y-84250000D01*
X227460000Y-83100000D02*
X227060000Y-83100000D01*
D83*
X223235000Y-83675000D02*
X221860000Y-83675000D01*
D82*
%TO.N,/Wake*%
X204500000Y-44500000D02*
X202000000Y-42000000D01*
X172900000Y-30800000D02*
X172900000Y-31560000D01*
X197460000Y-42000000D02*
X184860000Y-29400000D01*
X202000000Y-42000000D02*
X197460000Y-42000000D01*
X174300000Y-29400000D02*
X172900000Y-30800000D01*
X208000000Y-44500000D02*
X204500000Y-44500000D01*
X184860000Y-29400000D02*
X174300000Y-29400000D01*
%TO.N,Net-(U10-Q1)*%
X142090000Y-44310000D02*
X140350000Y-44310000D01*
X142500000Y-43900000D02*
X142090000Y-44310000D01*
X113150000Y-29475000D02*
X113150000Y-27200000D01*
X113150000Y-27200000D02*
X113150000Y-25200000D01*
X113112500Y-31087500D02*
X113112500Y-29512500D01*
X113112500Y-29512500D02*
X113150000Y-29475000D01*
D83*
%TO.N,/modem/WAKE_ON_WWAN*%
X225700000Y-55800000D02*
X212655000Y-55800000D01*
X208030000Y-60425000D02*
X206330000Y-60425000D01*
X212655000Y-55800000D02*
X208030000Y-60425000D01*
X226737500Y-54762500D02*
X225700000Y-55800000D01*
D85*
X204370000Y-60450000D02*
X206305000Y-60450000D01*
D83*
X226737500Y-54087500D02*
X226737500Y-54762500D01*
D85*
X206305000Y-60450000D02*
X206330000Y-60425000D01*
D82*
%TO.N,Net-(D6-A2)*%
X231117500Y-38237500D02*
X234600000Y-38237500D01*
%TD*%
M02*
