%TF.GenerationSoftware,KiCad,Pcbnew,9.0.2*%
%TF.CreationDate,2026-02-23T14:19:41+01:00*%
%TF.ProjectId,audiograb,61756469-6f67-4726-9162-2e6b69636164,0*%
%TF.SameCoordinates,Original*%
%TF.FileFunction,Soldermask,Top*%
%TF.FilePolarity,Negative*%
%FSLAX46Y46*%
G04 Gerber Fmt 4.6, Leading zero omitted, Abs format (unit mm)*
G04 Created by KiCad (PCBNEW 9.0.2) date 2026-02-23 14:19:41*
%MOMM*%
%LPD*%
G01*
G04 APERTURE LIST*
G04 Aperture macros list*
%AMRoundRect*
0 Rectangle with rounded corners*
0 $1 Rounding radius*
0 $2 $3 $4 $5 $6 $7 $8 $9 X,Y pos of 4 corners*
0 Add a 4 corners polygon primitive as box body*
4,1,4,$2,$3,$4,$5,$6,$7,$8,$9,$2,$3,0*
0 Add four circle primitives for the rounded corners*
1,1,$1+$1,$2,$3*
1,1,$1+$1,$4,$5*
1,1,$1+$1,$6,$7*
1,1,$1+$1,$8,$9*
0 Add four rect primitives between the rounded corners*
20,1,$1+$1,$2,$3,$4,$5,0*
20,1,$1+$1,$4,$5,$6,$7,0*
20,1,$1+$1,$6,$7,$8,$9,0*
20,1,$1+$1,$8,$9,$2,$3,0*%
G04 Aperture macros list end*
%ADD10C,0.450000*%
%ADD11C,0.550000*%
%ADD12C,0.010000*%
%ADD13RoundRect,0.225000X-0.225000X-0.250000X0.225000X-0.250000X0.225000X0.250000X-0.225000X0.250000X0*%
%ADD14RoundRect,0.012720X-0.199280X0.469280X-0.199280X-0.469280X0.199280X-0.469280X0.199280X0.469280X0*%
%ADD15RoundRect,0.012720X-0.469280X0.199280X-0.469280X-0.199280X0.469280X-0.199280X0.469280X0.199280X0*%
%ADD16RoundRect,0.102000X-1.150000X1.150000X-1.150000X-1.150000X1.150000X-1.150000X1.150000X1.150000X0*%
%ADD17RoundRect,0.102000X0.350000X-0.450000X0.350000X0.450000X-0.350000X0.450000X-0.350000X-0.450000X0*%
%ADD18RoundRect,0.102000X0.350000X-0.350000X0.350000X0.350000X-0.350000X0.350000X-0.350000X-0.350000X0*%
%ADD19RoundRect,0.102000X0.325000X-0.600000X0.325000X0.600000X-0.325000X0.600000X-0.325000X-0.600000X0*%
%ADD20RoundRect,0.102000X1.450000X-0.225000X1.450000X0.225000X-1.450000X0.225000X-1.450000X-0.225000X0*%
%ADD21RoundRect,0.102000X0.950000X-0.225000X0.950000X0.225000X-0.950000X0.225000X-0.950000X-0.225000X0*%
%ADD22RoundRect,0.102000X0.350000X-0.375000X0.350000X0.375000X-0.350000X0.375000X-0.350000X-0.375000X0*%
%ADD23RoundRect,0.102000X0.250000X-0.700000X0.250000X0.700000X-0.250000X0.700000X-0.250000X-0.700000X0*%
%ADD24RoundRect,0.102000X1.200000X-0.225000X1.200000X0.225000X-1.200000X0.225000X-1.200000X-0.225000X0*%
%ADD25RoundRect,0.102000X0.300000X-0.300000X0.300000X0.300000X-0.300000X0.300000X-0.300000X-0.300000X0*%
%ADD26RoundRect,0.200000X0.200000X0.275000X-0.200000X0.275000X-0.200000X-0.275000X0.200000X-0.275000X0*%
%ADD27RoundRect,0.102000X0.450000X0.400000X-0.450000X0.400000X-0.450000X-0.400000X0.450000X-0.400000X0*%
%ADD28R,1.700000X1.700000*%
%ADD29C,1.700000*%
%ADD30RoundRect,0.102000X-0.400000X0.400000X-0.400000X-0.400000X0.400000X-0.400000X0.400000X0.400000X0*%
%ADD31C,2.000000*%
%ADD32RoundRect,0.225000X-0.250000X0.225000X-0.250000X-0.225000X0.250000X-0.225000X0.250000X0.225000X0*%
%ADD33C,1.000000*%
%ADD34RoundRect,0.225000X0.250000X-0.225000X0.250000X0.225000X-0.250000X0.225000X-0.250000X-0.225000X0*%
%ADD35RoundRect,0.200000X-0.275000X0.200000X-0.275000X-0.200000X0.275000X-0.200000X0.275000X0.200000X0*%
%ADD36RoundRect,0.088000X0.624000X0.264000X-0.624000X0.264000X-0.624000X-0.264000X0.624000X-0.264000X0*%
%ADD37RoundRect,0.102000X2.280000X-0.425000X2.280000X0.425000X-2.280000X0.425000X-2.280000X-0.425000X0*%
%ADD38RoundRect,0.102000X2.280000X-0.500000X2.280000X0.500000X-2.280000X0.500000X-2.280000X-0.500000X0*%
%ADD39C,0.950000*%
%ADD40RoundRect,0.102000X0.310000X0.700000X-0.310000X0.700000X-0.310000X-0.700000X0.310000X-0.700000X0*%
%ADD41RoundRect,0.102000X0.550000X1.200000X-0.550000X1.200000X-0.550000X-1.200000X0.550000X-1.200000X0*%
%ADD42RoundRect,0.225000X0.225000X0.250000X-0.225000X0.250000X-0.225000X-0.250000X0.225000X-0.250000X0*%
%ADD43RoundRect,0.200000X0.275000X-0.200000X0.275000X0.200000X-0.275000X0.200000X-0.275000X-0.200000X0*%
%ADD44C,3.000000*%
%ADD45RoundRect,0.102000X-0.550000X0.150000X-0.550000X-0.150000X0.550000X-0.150000X0.550000X0.150000X0*%
%ADD46R,0.203200X0.711200*%
%ADD47R,0.406400X0.711200*%
%ADD48RoundRect,0.147500X0.172500X-0.147500X0.172500X0.147500X-0.172500X0.147500X-0.172500X-0.147500X0*%
%ADD49RoundRect,0.088000X-0.264000X0.509000X-0.264000X-0.509000X0.264000X-0.509000X0.264000X0.509000X0*%
%ADD50RoundRect,0.200000X-0.200000X-0.275000X0.200000X-0.275000X0.200000X0.275000X-0.200000X0.275000X0*%
%ADD51RoundRect,0.102000X0.400000X0.400000X-0.400000X0.400000X-0.400000X-0.400000X0.400000X-0.400000X0*%
%ADD52R,1.270000X5.080000*%
%ADD53C,17.800000*%
%ADD54RoundRect,0.088000X-0.509000X-0.264000X0.509000X-0.264000X0.509000X0.264000X-0.509000X0.264000X0*%
%ADD55RoundRect,0.062500X0.062500X-0.475000X0.062500X0.475000X-0.062500X0.475000X-0.062500X-0.475000X0*%
%ADD56RoundRect,0.062500X0.475000X-0.062500X0.475000X0.062500X-0.475000X0.062500X-0.475000X-0.062500X0*%
%ADD57R,4.100000X4.100000*%
%ADD58RoundRect,0.100500X0.986500X0.301500X-0.986500X0.301500X-0.986500X-0.301500X0.986500X-0.301500X0*%
%ADD59RoundRect,0.088000X0.509000X0.264000X-0.509000X0.264000X-0.509000X-0.264000X0.509000X-0.264000X0*%
%ADD60C,2.154000*%
%ADD61RoundRect,0.102000X-0.749000X-0.749000X0.749000X-0.749000X0.749000X0.749000X-0.749000X0.749000X0*%
%ADD62C,1.702000*%
%ADD63RoundRect,0.102000X0.825500X-1.092200X0.825500X1.092200X-0.825500X1.092200X-0.825500X-1.092200X0*%
%ADD64RoundRect,0.147500X-0.172500X0.147500X-0.172500X-0.147500X0.172500X-0.147500X0.172500X0.147500X0*%
%ADD65C,0.650000*%
%ADD66RoundRect,0.150000X-0.150000X-0.425000X0.150000X-0.425000X0.150000X0.425000X-0.150000X0.425000X0*%
%ADD67RoundRect,0.075000X-0.075000X-0.500000X0.075000X-0.500000X0.075000X0.500000X-0.075000X0.500000X0*%
%ADD68O,1.000000X2.100000*%
%ADD69O,1.000000X1.800000*%
%ADD70RoundRect,0.076750X-0.230250X0.810250X-0.230250X-0.810250X0.230250X-0.810250X0.230250X0.810250X0*%
%ADD71RoundRect,0.102000X-0.100000X-0.350000X0.100000X-0.350000X0.100000X0.350000X-0.100000X0.350000X0*%
%ADD72C,6.004000*%
%ADD73R,0.711200X0.203200*%
%ADD74R,0.711200X0.406400*%
%ADD75RoundRect,0.147500X-0.147500X-0.172500X0.147500X-0.172500X0.147500X0.172500X-0.147500X0.172500X0*%
%ADD76RoundRect,0.075500X-0.226500X0.621500X-0.226500X-0.621500X0.226500X-0.621500X0.226500X0.621500X0*%
G04 APERTURE END LIST*
D10*
%TO.C,U1*%
X216082500Y-37037500D02*
G75*
G02*
X215632500Y-37037500I-225000J0D01*
G01*
X215632500Y-37037500D02*
G75*
G02*
X216082500Y-37037500I225000J0D01*
G01*
X216082500Y-38237500D02*
G75*
G02*
X215632500Y-38237500I-225000J0D01*
G01*
X215632500Y-38237500D02*
G75*
G02*
X216082500Y-38237500I225000J0D01*
G01*
X216082500Y-39437500D02*
G75*
G02*
X215632500Y-39437500I-225000J0D01*
G01*
X215632500Y-39437500D02*
G75*
G02*
X216082500Y-39437500I225000J0D01*
G01*
X216082500Y-40637500D02*
G75*
G02*
X215632500Y-40637500I-225000J0D01*
G01*
X215632500Y-40637500D02*
G75*
G02*
X216082500Y-40637500I225000J0D01*
G01*
X216082500Y-41837500D02*
G75*
G02*
X215632500Y-41837500I-225000J0D01*
G01*
X215632500Y-41837500D02*
G75*
G02*
X216082500Y-41837500I225000J0D01*
G01*
X216082500Y-43037500D02*
G75*
G02*
X215632500Y-43037500I-225000J0D01*
G01*
X215632500Y-43037500D02*
G75*
G02*
X216082500Y-43037500I225000J0D01*
G01*
X216082500Y-44237500D02*
G75*
G02*
X215632500Y-44237500I-225000J0D01*
G01*
X215632500Y-44237500D02*
G75*
G02*
X216082500Y-44237500I225000J0D01*
G01*
X216082500Y-45437500D02*
G75*
G02*
X215632500Y-45437500I-225000J0D01*
G01*
X215632500Y-45437500D02*
G75*
G02*
X216082500Y-45437500I225000J0D01*
G01*
X216082500Y-46637500D02*
G75*
G02*
X215632500Y-46637500I-225000J0D01*
G01*
X215632500Y-46637500D02*
G75*
G02*
X216082500Y-46637500I225000J0D01*
G01*
D11*
X216332500Y-35257500D02*
G75*
G02*
X215782500Y-35257500I-275000J0D01*
G01*
X215782500Y-35257500D02*
G75*
G02*
X216332500Y-35257500I275000J0D01*
G01*
D12*
X214937500Y-33237500D02*
X213837500Y-33237500D01*
X213837500Y-32237500D01*
X214937500Y-32237500D01*
X214937500Y-33237500D01*
G36*
X214937500Y-33237500D02*
G01*
X213837500Y-33237500D01*
X213837500Y-32237500D01*
X214937500Y-32237500D01*
X214937500Y-33237500D01*
G37*
X214937500Y-34137500D02*
X213837500Y-34137500D01*
X213837500Y-33537500D01*
X214937500Y-33537500D01*
X214937500Y-34137500D01*
G36*
X214937500Y-34137500D02*
G01*
X213837500Y-34137500D01*
X213837500Y-33537500D01*
X214937500Y-33537500D01*
X214937500Y-34137500D01*
G37*
X214937500Y-34937500D02*
X213837500Y-34937500D01*
X213837500Y-34337500D01*
X214937500Y-34337500D01*
X214937500Y-34937500D01*
G36*
X214937500Y-34937500D02*
G01*
X213837500Y-34937500D01*
X213837500Y-34337500D01*
X214937500Y-34337500D01*
X214937500Y-34937500D01*
G37*
X214937500Y-35737500D02*
X213837500Y-35737500D01*
X213837500Y-35137500D01*
X214937500Y-35137500D01*
X214937500Y-35737500D01*
G36*
X214937500Y-35737500D02*
G01*
X213837500Y-35737500D01*
X213837500Y-35137500D01*
X214937500Y-35137500D01*
X214937500Y-35737500D01*
G37*
X214937500Y-36537500D02*
X213837500Y-36537500D01*
X213837500Y-35937500D01*
X214937500Y-35937500D01*
X214937500Y-36537500D01*
G36*
X214937500Y-36537500D02*
G01*
X213837500Y-36537500D01*
X213837500Y-35937500D01*
X214937500Y-35937500D01*
X214937500Y-36537500D01*
G37*
X214937500Y-37337500D02*
X213837500Y-37337500D01*
X213837500Y-36737500D01*
X214937500Y-36737500D01*
X214937500Y-37337500D01*
G36*
X214937500Y-37337500D02*
G01*
X213837500Y-37337500D01*
X213837500Y-36737500D01*
X214937500Y-36737500D01*
X214937500Y-37337500D01*
G37*
X214937500Y-38137500D02*
X213837500Y-38137500D01*
X213837500Y-37537500D01*
X214937500Y-37537500D01*
X214937500Y-38137500D01*
G36*
X214937500Y-38137500D02*
G01*
X213837500Y-38137500D01*
X213837500Y-37537500D01*
X214937500Y-37537500D01*
X214937500Y-38137500D01*
G37*
X214937500Y-38937500D02*
X213837500Y-38937500D01*
X213837500Y-38337500D01*
X214937500Y-38337500D01*
X214937500Y-38937500D01*
G36*
X214937500Y-38937500D02*
G01*
X213837500Y-38937500D01*
X213837500Y-38337500D01*
X214937500Y-38337500D01*
X214937500Y-38937500D01*
G37*
X214937500Y-39737500D02*
X213837500Y-39737500D01*
X213837500Y-39137500D01*
X214937500Y-39137500D01*
X214937500Y-39737500D01*
G36*
X214937500Y-39737500D02*
G01*
X213837500Y-39737500D01*
X213837500Y-39137500D01*
X214937500Y-39137500D01*
X214937500Y-39737500D01*
G37*
X214937500Y-40537500D02*
X213837500Y-40537500D01*
X213837500Y-39937500D01*
X214937500Y-39937500D01*
X214937500Y-40537500D01*
G36*
X214937500Y-40537500D02*
G01*
X213837500Y-40537500D01*
X213837500Y-39937500D01*
X214937500Y-39937500D01*
X214937500Y-40537500D01*
G37*
X214937500Y-41337500D02*
X213837500Y-41337500D01*
X213837500Y-40737500D01*
X214937500Y-40737500D01*
X214937500Y-41337500D01*
G36*
X214937500Y-41337500D02*
G01*
X213837500Y-41337500D01*
X213837500Y-40737500D01*
X214937500Y-40737500D01*
X214937500Y-41337500D01*
G37*
X214937500Y-42137500D02*
X213837500Y-42137500D01*
X213837500Y-41537500D01*
X214937500Y-41537500D01*
X214937500Y-42137500D01*
G36*
X214937500Y-42137500D02*
G01*
X213837500Y-42137500D01*
X213837500Y-41537500D01*
X214937500Y-41537500D01*
X214937500Y-42137500D01*
G37*
X214937500Y-42937500D02*
X213837500Y-42937500D01*
X213837500Y-42337500D01*
X214937500Y-42337500D01*
X214937500Y-42937500D01*
G36*
X214937500Y-42937500D02*
G01*
X213837500Y-42937500D01*
X213837500Y-42337500D01*
X214937500Y-42337500D01*
X214937500Y-42937500D01*
G37*
X214937500Y-43737500D02*
X213837500Y-43737500D01*
X213837500Y-43137500D01*
X214937500Y-43137500D01*
X214937500Y-43737500D01*
G36*
X214937500Y-43737500D02*
G01*
X213837500Y-43737500D01*
X213837500Y-43137500D01*
X214937500Y-43137500D01*
X214937500Y-43737500D01*
G37*
X214937500Y-44537500D02*
X213837500Y-44537500D01*
X213837500Y-43937500D01*
X214937500Y-43937500D01*
X214937500Y-44537500D01*
G36*
X214937500Y-44537500D02*
G01*
X213837500Y-44537500D01*
X213837500Y-43937500D01*
X214937500Y-43937500D01*
X214937500Y-44537500D01*
G37*
X214937500Y-45337500D02*
X213837500Y-45337500D01*
X213837500Y-44737500D01*
X214937500Y-44737500D01*
X214937500Y-45337500D01*
G36*
X214937500Y-45337500D02*
G01*
X213837500Y-45337500D01*
X213837500Y-44737500D01*
X214937500Y-44737500D01*
X214937500Y-45337500D01*
G37*
X214937500Y-46137500D02*
X213837500Y-46137500D01*
X213837500Y-45537500D01*
X214937500Y-45537500D01*
X214937500Y-46137500D01*
G36*
X214937500Y-46137500D02*
G01*
X213837500Y-46137500D01*
X213837500Y-45537500D01*
X214937500Y-45537500D01*
X214937500Y-46137500D01*
G37*
X214937500Y-46937500D02*
X213837500Y-46937500D01*
X213837500Y-46337500D01*
X214937500Y-46337500D01*
X214937500Y-46937500D01*
G36*
X214937500Y-46937500D02*
G01*
X213837500Y-46937500D01*
X213837500Y-46337500D01*
X214937500Y-46337500D01*
X214937500Y-46937500D01*
G37*
X214937500Y-47737500D02*
X213837500Y-47737500D01*
X213837500Y-47137500D01*
X214937500Y-47137500D01*
X214937500Y-47737500D01*
G36*
X214937500Y-47737500D02*
G01*
X213837500Y-47737500D01*
X213837500Y-47137500D01*
X214937500Y-47137500D01*
X214937500Y-47737500D01*
G37*
X214937500Y-48537500D02*
X213837500Y-48537500D01*
X213837500Y-47937500D01*
X214937500Y-47937500D01*
X214937500Y-48537500D01*
G36*
X214937500Y-48537500D02*
G01*
X213837500Y-48537500D01*
X213837500Y-47937500D01*
X214937500Y-47937500D01*
X214937500Y-48537500D01*
G37*
X214937500Y-49337500D02*
X213837500Y-49337500D01*
X213837500Y-48737500D01*
X214937500Y-48737500D01*
X214937500Y-49337500D01*
G36*
X214937500Y-49337500D02*
G01*
X213837500Y-49337500D01*
X213837500Y-48737500D01*
X214937500Y-48737500D01*
X214937500Y-49337500D01*
G37*
X214937500Y-50137500D02*
X213837500Y-50137500D01*
X213837500Y-49537500D01*
X214937500Y-49537500D01*
X214937500Y-50137500D01*
G36*
X214937500Y-50137500D02*
G01*
X213837500Y-50137500D01*
X213837500Y-49537500D01*
X214937500Y-49537500D01*
X214937500Y-50137500D01*
G37*
X214937500Y-50937500D02*
X213837500Y-50937500D01*
X213837500Y-50337500D01*
X214937500Y-50337500D01*
X214937500Y-50937500D01*
G36*
X214937500Y-50937500D02*
G01*
X213837500Y-50937500D01*
X213837500Y-50337500D01*
X214937500Y-50337500D01*
X214937500Y-50937500D01*
G37*
X214937500Y-51737500D02*
X213837500Y-51737500D01*
X213837500Y-51137500D01*
X214937500Y-51137500D01*
X214937500Y-51737500D01*
G36*
X214937500Y-51737500D02*
G01*
X213837500Y-51737500D01*
X213837500Y-51137500D01*
X214937500Y-51137500D01*
X214937500Y-51737500D01*
G37*
X214937500Y-52537500D02*
X213837500Y-52537500D01*
X213837500Y-51937500D01*
X214937500Y-51937500D01*
X214937500Y-52537500D01*
G36*
X214937500Y-52537500D02*
G01*
X213837500Y-52537500D01*
X213837500Y-51937500D01*
X214937500Y-51937500D01*
X214937500Y-52537500D01*
G37*
X214937500Y-53337500D02*
X213837500Y-53337500D01*
X213837500Y-52737500D01*
X214937500Y-52737500D01*
X214937500Y-53337500D01*
G36*
X214937500Y-53337500D02*
G01*
X213837500Y-53337500D01*
X213837500Y-52737500D01*
X214937500Y-52737500D01*
X214937500Y-53337500D01*
G37*
X214937500Y-54637500D02*
X213837500Y-54637500D01*
X213837500Y-53637500D01*
X214937500Y-53637500D01*
X214937500Y-54637500D01*
G36*
X214937500Y-54637500D02*
G01*
X213837500Y-54637500D01*
X213837500Y-53637500D01*
X214937500Y-53637500D01*
X214937500Y-54637500D01*
G37*
X215837500Y-33337500D02*
X215237500Y-33337500D01*
X215237500Y-32237500D01*
X215837500Y-32237500D01*
X215837500Y-33337500D01*
G36*
X215837500Y-33337500D02*
G01*
X215237500Y-33337500D01*
X215237500Y-32237500D01*
X215837500Y-32237500D01*
X215837500Y-33337500D01*
G37*
X215837500Y-54637500D02*
X215237500Y-54637500D01*
X215237500Y-53537500D01*
X215837500Y-53537500D01*
X215837500Y-54637500D01*
G36*
X215837500Y-54637500D02*
G01*
X215237500Y-54637500D01*
X215237500Y-53537500D01*
X215837500Y-53537500D01*
X215837500Y-54637500D01*
G37*
X216637500Y-33337500D02*
X216037500Y-33337500D01*
X216037500Y-32237500D01*
X216637500Y-32237500D01*
X216637500Y-33337500D01*
G36*
X216637500Y-33337500D02*
G01*
X216037500Y-33337500D01*
X216037500Y-32237500D01*
X216637500Y-32237500D01*
X216637500Y-33337500D01*
G37*
X216637500Y-54637500D02*
X216037500Y-54637500D01*
X216037500Y-53537500D01*
X216637500Y-53537500D01*
X216637500Y-54637500D01*
G36*
X216637500Y-54637500D02*
G01*
X216037500Y-54637500D01*
X216037500Y-53537500D01*
X216637500Y-53537500D01*
X216637500Y-54637500D01*
G37*
X217437500Y-33337500D02*
X216837500Y-33337500D01*
X216837500Y-32237500D01*
X217437500Y-32237500D01*
X217437500Y-33337500D01*
G36*
X217437500Y-33337500D02*
G01*
X216837500Y-33337500D01*
X216837500Y-32237500D01*
X217437500Y-32237500D01*
X217437500Y-33337500D01*
G37*
X217437500Y-54637500D02*
X216837500Y-54637500D01*
X216837500Y-53537500D01*
X217437500Y-53537500D01*
X217437500Y-54637500D01*
G36*
X217437500Y-54637500D02*
G01*
X216837500Y-54637500D01*
X216837500Y-53537500D01*
X217437500Y-53537500D01*
X217437500Y-54637500D01*
G37*
X218107500Y-35807500D02*
X217007500Y-35807500D01*
X217007500Y-34707500D01*
X218107500Y-34707500D01*
X218107500Y-35807500D01*
G36*
X218107500Y-35807500D02*
G01*
X217007500Y-35807500D01*
X217007500Y-34707500D01*
X218107500Y-34707500D01*
X218107500Y-35807500D01*
G37*
X218107500Y-36937500D02*
X217007500Y-36937500D01*
X217007500Y-36337500D01*
X218107500Y-36337500D01*
X218107500Y-36937500D01*
G36*
X218107500Y-36937500D02*
G01*
X217007500Y-36937500D01*
X217007500Y-36337500D01*
X218107500Y-36337500D01*
X218107500Y-36937500D01*
G37*
X218107500Y-37737500D02*
X217007500Y-37737500D01*
X217007500Y-37137500D01*
X218107500Y-37137500D01*
X218107500Y-37737500D01*
G36*
X218107500Y-37737500D02*
G01*
X217007500Y-37737500D01*
X217007500Y-37137500D01*
X218107500Y-37137500D01*
X218107500Y-37737500D01*
G37*
X218107500Y-38537500D02*
X217007500Y-38537500D01*
X217007500Y-37937500D01*
X218107500Y-37937500D01*
X218107500Y-38537500D01*
G36*
X218107500Y-38537500D02*
G01*
X217007500Y-38537500D01*
X217007500Y-37937500D01*
X218107500Y-37937500D01*
X218107500Y-38537500D01*
G37*
X218107500Y-39337500D02*
X217007500Y-39337500D01*
X217007500Y-38737500D01*
X218107500Y-38737500D01*
X218107500Y-39337500D01*
G36*
X218107500Y-39337500D02*
G01*
X217007500Y-39337500D01*
X217007500Y-38737500D01*
X218107500Y-38737500D01*
X218107500Y-39337500D01*
G37*
X218107500Y-40137500D02*
X217007500Y-40137500D01*
X217007500Y-39537500D01*
X218107500Y-39537500D01*
X218107500Y-40137500D01*
G36*
X218107500Y-40137500D02*
G01*
X217007500Y-40137500D01*
X217007500Y-39537500D01*
X218107500Y-39537500D01*
X218107500Y-40137500D01*
G37*
X218107500Y-40937500D02*
X217007500Y-40937500D01*
X217007500Y-40337500D01*
X218107500Y-40337500D01*
X218107500Y-40937500D01*
G36*
X218107500Y-40937500D02*
G01*
X217007500Y-40937500D01*
X217007500Y-40337500D01*
X218107500Y-40337500D01*
X218107500Y-40937500D01*
G37*
X218107500Y-41737500D02*
X217007500Y-41737500D01*
X217007500Y-41137500D01*
X218107500Y-41137500D01*
X218107500Y-41737500D01*
G36*
X218107500Y-41737500D02*
G01*
X217007500Y-41737500D01*
X217007500Y-41137500D01*
X218107500Y-41137500D01*
X218107500Y-41737500D01*
G37*
X218107500Y-42537500D02*
X217007500Y-42537500D01*
X217007500Y-41937500D01*
X218107500Y-41937500D01*
X218107500Y-42537500D01*
G36*
X218107500Y-42537500D02*
G01*
X217007500Y-42537500D01*
X217007500Y-41937500D01*
X218107500Y-41937500D01*
X218107500Y-42537500D01*
G37*
X218107500Y-43337500D02*
X217007500Y-43337500D01*
X217007500Y-42737500D01*
X218107500Y-42737500D01*
X218107500Y-43337500D01*
G36*
X218107500Y-43337500D02*
G01*
X217007500Y-43337500D01*
X217007500Y-42737500D01*
X218107500Y-42737500D01*
X218107500Y-43337500D01*
G37*
X218107500Y-44137500D02*
X217007500Y-44137500D01*
X217007500Y-43537500D01*
X218107500Y-43537500D01*
X218107500Y-44137500D01*
G36*
X218107500Y-44137500D02*
G01*
X217007500Y-44137500D01*
X217007500Y-43537500D01*
X218107500Y-43537500D01*
X218107500Y-44137500D01*
G37*
X218107500Y-44937500D02*
X217007500Y-44937500D01*
X217007500Y-44337500D01*
X218107500Y-44337500D01*
X218107500Y-44937500D01*
G36*
X218107500Y-44937500D02*
G01*
X217007500Y-44937500D01*
X217007500Y-44337500D01*
X218107500Y-44337500D01*
X218107500Y-44937500D01*
G37*
X218107500Y-45737500D02*
X217007500Y-45737500D01*
X217007500Y-45137500D01*
X218107500Y-45137500D01*
X218107500Y-45737500D01*
G36*
X218107500Y-45737500D02*
G01*
X217007500Y-45737500D01*
X217007500Y-45137500D01*
X218107500Y-45137500D01*
X218107500Y-45737500D01*
G37*
X218107500Y-46537500D02*
X217007500Y-46537500D01*
X217007500Y-45937500D01*
X218107500Y-45937500D01*
X218107500Y-46537500D01*
G36*
X218107500Y-46537500D02*
G01*
X217007500Y-46537500D01*
X217007500Y-45937500D01*
X218107500Y-45937500D01*
X218107500Y-46537500D01*
G37*
X218107500Y-47337500D02*
X217007500Y-47337500D01*
X217007500Y-46737500D01*
X218107500Y-46737500D01*
X218107500Y-47337500D01*
G36*
X218107500Y-47337500D02*
G01*
X217007500Y-47337500D01*
X217007500Y-46737500D01*
X218107500Y-46737500D01*
X218107500Y-47337500D01*
G37*
X218107500Y-48137500D02*
X217007500Y-48137500D01*
X217007500Y-47537500D01*
X218107500Y-47537500D01*
X218107500Y-48137500D01*
G36*
X218107500Y-48137500D02*
G01*
X217007500Y-48137500D01*
X217007500Y-47537500D01*
X218107500Y-47537500D01*
X218107500Y-48137500D01*
G37*
X218107500Y-48937500D02*
X217007500Y-48937500D01*
X217007500Y-48337500D01*
X218107500Y-48337500D01*
X218107500Y-48937500D01*
G36*
X218107500Y-48937500D02*
G01*
X217007500Y-48937500D01*
X217007500Y-48337500D01*
X218107500Y-48337500D01*
X218107500Y-48937500D01*
G37*
X218107500Y-49737500D02*
X217007500Y-49737500D01*
X217007500Y-49137500D01*
X218107500Y-49137500D01*
X218107500Y-49737500D01*
G36*
X218107500Y-49737500D02*
G01*
X217007500Y-49737500D01*
X217007500Y-49137500D01*
X218107500Y-49137500D01*
X218107500Y-49737500D01*
G37*
X218107500Y-50537500D02*
X217007500Y-50537500D01*
X217007500Y-49937500D01*
X218107500Y-49937500D01*
X218107500Y-50537500D01*
G36*
X218107500Y-50537500D02*
G01*
X217007500Y-50537500D01*
X217007500Y-49937500D01*
X218107500Y-49937500D01*
X218107500Y-50537500D01*
G37*
X218107500Y-52167500D02*
X217007500Y-52167500D01*
X217007500Y-51067500D01*
X218107500Y-51067500D01*
X218107500Y-52167500D01*
G36*
X218107500Y-52167500D02*
G01*
X217007500Y-52167500D01*
X217007500Y-51067500D01*
X218107500Y-51067500D01*
X218107500Y-52167500D01*
G37*
X218237500Y-33337500D02*
X217637500Y-33337500D01*
X217637500Y-32237500D01*
X218237500Y-32237500D01*
X218237500Y-33337500D01*
G36*
X218237500Y-33337500D02*
G01*
X217637500Y-33337500D01*
X217637500Y-32237500D01*
X218237500Y-32237500D01*
X218237500Y-33337500D01*
G37*
X218237500Y-54637500D02*
X217637500Y-54637500D01*
X217637500Y-53537500D01*
X218237500Y-53537500D01*
X218237500Y-54637500D01*
G36*
X218237500Y-54637500D02*
G01*
X217637500Y-54637500D01*
X217637500Y-53537500D01*
X218237500Y-53537500D01*
X218237500Y-54637500D01*
G37*
X219037500Y-33337500D02*
X218437500Y-33337500D01*
X218437500Y-32237500D01*
X219037500Y-32237500D01*
X219037500Y-33337500D01*
G36*
X219037500Y-33337500D02*
G01*
X218437500Y-33337500D01*
X218437500Y-32237500D01*
X219037500Y-32237500D01*
X219037500Y-33337500D01*
G37*
X219037500Y-35807500D02*
X218437500Y-35807500D01*
X218437500Y-34707500D01*
X219037500Y-34707500D01*
X219037500Y-35807500D01*
G36*
X219037500Y-35807500D02*
G01*
X218437500Y-35807500D01*
X218437500Y-34707500D01*
X219037500Y-34707500D01*
X219037500Y-35807500D01*
G37*
X219037500Y-52167500D02*
X218437500Y-52167500D01*
X218437500Y-51067500D01*
X219037500Y-51067500D01*
X219037500Y-52167500D01*
G36*
X219037500Y-52167500D02*
G01*
X218437500Y-52167500D01*
X218437500Y-51067500D01*
X219037500Y-51067500D01*
X219037500Y-52167500D01*
G37*
X219037500Y-54637500D02*
X218437500Y-54637500D01*
X218437500Y-53537500D01*
X219037500Y-53537500D01*
X219037500Y-54637500D01*
G36*
X219037500Y-54637500D02*
G01*
X218437500Y-54637500D01*
X218437500Y-53537500D01*
X219037500Y-53537500D01*
X219037500Y-54637500D01*
G37*
X219725000Y-37600000D02*
X218625000Y-37600000D01*
X218625000Y-36500000D01*
X219725000Y-36500000D01*
X219725000Y-37600000D01*
G36*
X219725000Y-37600000D02*
G01*
X218625000Y-37600000D01*
X218625000Y-36500000D01*
X219725000Y-36500000D01*
X219725000Y-37600000D01*
G37*
X219725000Y-39425000D02*
X218625000Y-39425000D01*
X218625000Y-38325000D01*
X219725000Y-38325000D01*
X219725000Y-39425000D01*
G36*
X219725000Y-39425000D02*
G01*
X218625000Y-39425000D01*
X218625000Y-38325000D01*
X219725000Y-38325000D01*
X219725000Y-39425000D01*
G37*
X219725000Y-41250000D02*
X218625000Y-41250000D01*
X218625000Y-40150000D01*
X219725000Y-40150000D01*
X219725000Y-41250000D01*
G36*
X219725000Y-41250000D02*
G01*
X218625000Y-41250000D01*
X218625000Y-40150000D01*
X219725000Y-40150000D01*
X219725000Y-41250000D01*
G37*
X219725000Y-43075000D02*
X218625000Y-43075000D01*
X218625000Y-41975000D01*
X219725000Y-41975000D01*
X219725000Y-43075000D01*
G36*
X219725000Y-43075000D02*
G01*
X218625000Y-43075000D01*
X218625000Y-41975000D01*
X219725000Y-41975000D01*
X219725000Y-43075000D01*
G37*
X219725000Y-44900000D02*
X218625000Y-44900000D01*
X218625000Y-43800000D01*
X219725000Y-43800000D01*
X219725000Y-44900000D01*
G36*
X219725000Y-44900000D02*
G01*
X218625000Y-44900000D01*
X218625000Y-43800000D01*
X219725000Y-43800000D01*
X219725000Y-44900000D01*
G37*
X219725000Y-46725000D02*
X218625000Y-46725000D01*
X218625000Y-45625000D01*
X219725000Y-45625000D01*
X219725000Y-46725000D01*
G36*
X219725000Y-46725000D02*
G01*
X218625000Y-46725000D01*
X218625000Y-45625000D01*
X219725000Y-45625000D01*
X219725000Y-46725000D01*
G37*
X219725000Y-48550000D02*
X218625000Y-48550000D01*
X218625000Y-47450000D01*
X219725000Y-47450000D01*
X219725000Y-48550000D01*
G36*
X219725000Y-48550000D02*
G01*
X218625000Y-48550000D01*
X218625000Y-47450000D01*
X219725000Y-47450000D01*
X219725000Y-48550000D01*
G37*
X219725000Y-50375000D02*
X218625000Y-50375000D01*
X218625000Y-49275000D01*
X219725000Y-49275000D01*
X219725000Y-50375000D01*
G36*
X219725000Y-50375000D02*
G01*
X218625000Y-50375000D01*
X218625000Y-49275000D01*
X219725000Y-49275000D01*
X219725000Y-50375000D01*
G37*
X219837500Y-33337500D02*
X219237500Y-33337500D01*
X219237500Y-32237500D01*
X219837500Y-32237500D01*
X219837500Y-33337500D01*
G36*
X219837500Y-33337500D02*
G01*
X219237500Y-33337500D01*
X219237500Y-32237500D01*
X219837500Y-32237500D01*
X219837500Y-33337500D01*
G37*
X219837500Y-35807500D02*
X219237500Y-35807500D01*
X219237500Y-34707500D01*
X219837500Y-34707500D01*
X219837500Y-35807500D01*
G36*
X219837500Y-35807500D02*
G01*
X219237500Y-35807500D01*
X219237500Y-34707500D01*
X219837500Y-34707500D01*
X219837500Y-35807500D01*
G37*
X219837500Y-52167500D02*
X219237500Y-52167500D01*
X219237500Y-51067500D01*
X219837500Y-51067500D01*
X219837500Y-52167500D01*
G36*
X219837500Y-52167500D02*
G01*
X219237500Y-52167500D01*
X219237500Y-51067500D01*
X219837500Y-51067500D01*
X219837500Y-52167500D01*
G37*
X219837500Y-54637500D02*
X219237500Y-54637500D01*
X219237500Y-53537500D01*
X219837500Y-53537500D01*
X219837500Y-54637500D01*
G36*
X219837500Y-54637500D02*
G01*
X219237500Y-54637500D01*
X219237500Y-53537500D01*
X219837500Y-53537500D01*
X219837500Y-54637500D01*
G37*
X220637500Y-33337500D02*
X220037500Y-33337500D01*
X220037500Y-32237500D01*
X220637500Y-32237500D01*
X220637500Y-33337500D01*
G36*
X220637500Y-33337500D02*
G01*
X220037500Y-33337500D01*
X220037500Y-32237500D01*
X220637500Y-32237500D01*
X220637500Y-33337500D01*
G37*
X220637500Y-35807500D02*
X220037500Y-35807500D01*
X220037500Y-34707500D01*
X220637500Y-34707500D01*
X220637500Y-35807500D01*
G36*
X220637500Y-35807500D02*
G01*
X220037500Y-35807500D01*
X220037500Y-34707500D01*
X220637500Y-34707500D01*
X220637500Y-35807500D01*
G37*
X220637500Y-52167500D02*
X220037500Y-52167500D01*
X220037500Y-51067500D01*
X220637500Y-51067500D01*
X220637500Y-52167500D01*
G36*
X220637500Y-52167500D02*
G01*
X220037500Y-52167500D01*
X220037500Y-51067500D01*
X220637500Y-51067500D01*
X220637500Y-52167500D01*
G37*
X220637500Y-54637500D02*
X220037500Y-54637500D01*
X220037500Y-53537500D01*
X220637500Y-53537500D01*
X220637500Y-54637500D01*
G36*
X220637500Y-54637500D02*
G01*
X220037500Y-54637500D01*
X220037500Y-53537500D01*
X220637500Y-53537500D01*
X220637500Y-54637500D01*
G37*
X221200000Y-37600000D02*
X220100000Y-37600000D01*
X220100000Y-36500000D01*
X221200000Y-36500000D01*
X221200000Y-37600000D01*
G36*
X221200000Y-37600000D02*
G01*
X220100000Y-37600000D01*
X220100000Y-36500000D01*
X221200000Y-36500000D01*
X221200000Y-37600000D01*
G37*
X221200000Y-39425000D02*
X220100000Y-39425000D01*
X220100000Y-38325000D01*
X221200000Y-38325000D01*
X221200000Y-39425000D01*
G36*
X221200000Y-39425000D02*
G01*
X220100000Y-39425000D01*
X220100000Y-38325000D01*
X221200000Y-38325000D01*
X221200000Y-39425000D01*
G37*
X221200000Y-41250000D02*
X220100000Y-41250000D01*
X220100000Y-40150000D01*
X221200000Y-40150000D01*
X221200000Y-41250000D01*
G36*
X221200000Y-41250000D02*
G01*
X220100000Y-41250000D01*
X220100000Y-40150000D01*
X221200000Y-40150000D01*
X221200000Y-41250000D01*
G37*
X221200000Y-43075000D02*
X220100000Y-43075000D01*
X220100000Y-41975000D01*
X221200000Y-41975000D01*
X221200000Y-43075000D01*
G36*
X221200000Y-43075000D02*
G01*
X220100000Y-43075000D01*
X220100000Y-41975000D01*
X221200000Y-41975000D01*
X221200000Y-43075000D01*
G37*
X221200000Y-44900000D02*
X220100000Y-44900000D01*
X220100000Y-43800000D01*
X221200000Y-43800000D01*
X221200000Y-44900000D01*
G36*
X221200000Y-44900000D02*
G01*
X220100000Y-44900000D01*
X220100000Y-43800000D01*
X221200000Y-43800000D01*
X221200000Y-44900000D01*
G37*
X221200000Y-46725000D02*
X220100000Y-46725000D01*
X220100000Y-45625000D01*
X221200000Y-45625000D01*
X221200000Y-46725000D01*
G36*
X221200000Y-46725000D02*
G01*
X220100000Y-46725000D01*
X220100000Y-45625000D01*
X221200000Y-45625000D01*
X221200000Y-46725000D01*
G37*
X221200000Y-48550000D02*
X220100000Y-48550000D01*
X220100000Y-47450000D01*
X221200000Y-47450000D01*
X221200000Y-48550000D01*
G36*
X221200000Y-48550000D02*
G01*
X220100000Y-48550000D01*
X220100000Y-47450000D01*
X221200000Y-47450000D01*
X221200000Y-48550000D01*
G37*
X221200000Y-50375000D02*
X220100000Y-50375000D01*
X220100000Y-49275000D01*
X221200000Y-49275000D01*
X221200000Y-50375000D01*
G36*
X221200000Y-50375000D02*
G01*
X220100000Y-50375000D01*
X220100000Y-49275000D01*
X221200000Y-49275000D01*
X221200000Y-50375000D01*
G37*
X221437500Y-33337500D02*
X220837500Y-33337500D01*
X220837500Y-32237500D01*
X221437500Y-32237500D01*
X221437500Y-33337500D01*
G36*
X221437500Y-33337500D02*
G01*
X220837500Y-33337500D01*
X220837500Y-32237500D01*
X221437500Y-32237500D01*
X221437500Y-33337500D01*
G37*
X221437500Y-35807500D02*
X220837500Y-35807500D01*
X220837500Y-34707500D01*
X221437500Y-34707500D01*
X221437500Y-35807500D01*
G36*
X221437500Y-35807500D02*
G01*
X220837500Y-35807500D01*
X220837500Y-34707500D01*
X221437500Y-34707500D01*
X221437500Y-35807500D01*
G37*
X221437500Y-52167500D02*
X220837500Y-52167500D01*
X220837500Y-51067500D01*
X221437500Y-51067500D01*
X221437500Y-52167500D01*
G36*
X221437500Y-52167500D02*
G01*
X220837500Y-52167500D01*
X220837500Y-51067500D01*
X221437500Y-51067500D01*
X221437500Y-52167500D01*
G37*
X221437500Y-54637500D02*
X220837500Y-54637500D01*
X220837500Y-53537500D01*
X221437500Y-53537500D01*
X221437500Y-54637500D01*
G36*
X221437500Y-54637500D02*
G01*
X220837500Y-54637500D01*
X220837500Y-53537500D01*
X221437500Y-53537500D01*
X221437500Y-54637500D01*
G37*
X222675000Y-37600000D02*
X221575000Y-37600000D01*
X221575000Y-36500000D01*
X222675000Y-36500000D01*
X222675000Y-37600000D01*
G36*
X222675000Y-37600000D02*
G01*
X221575000Y-37600000D01*
X221575000Y-36500000D01*
X222675000Y-36500000D01*
X222675000Y-37600000D01*
G37*
X222675000Y-39425000D02*
X221575000Y-39425000D01*
X221575000Y-38325000D01*
X222675000Y-38325000D01*
X222675000Y-39425000D01*
G36*
X222675000Y-39425000D02*
G01*
X221575000Y-39425000D01*
X221575000Y-38325000D01*
X222675000Y-38325000D01*
X222675000Y-39425000D01*
G37*
X222675000Y-41250000D02*
X221575000Y-41250000D01*
X221575000Y-40150000D01*
X222675000Y-40150000D01*
X222675000Y-41250000D01*
G36*
X222675000Y-41250000D02*
G01*
X221575000Y-41250000D01*
X221575000Y-40150000D01*
X222675000Y-40150000D01*
X222675000Y-41250000D01*
G37*
X222675000Y-43075000D02*
X221575000Y-43075000D01*
X221575000Y-41975000D01*
X222675000Y-41975000D01*
X222675000Y-43075000D01*
G36*
X222675000Y-43075000D02*
G01*
X221575000Y-43075000D01*
X221575000Y-41975000D01*
X222675000Y-41975000D01*
X222675000Y-43075000D01*
G37*
X222675000Y-44900000D02*
X221575000Y-44900000D01*
X221575000Y-43800000D01*
X222675000Y-43800000D01*
X222675000Y-44900000D01*
G36*
X222675000Y-44900000D02*
G01*
X221575000Y-44900000D01*
X221575000Y-43800000D01*
X222675000Y-43800000D01*
X222675000Y-44900000D01*
G37*
X222675000Y-46725000D02*
X221575000Y-46725000D01*
X221575000Y-45625000D01*
X222675000Y-45625000D01*
X222675000Y-46725000D01*
G36*
X222675000Y-46725000D02*
G01*
X221575000Y-46725000D01*
X221575000Y-45625000D01*
X222675000Y-45625000D01*
X222675000Y-46725000D01*
G37*
X222675000Y-48550000D02*
X221575000Y-48550000D01*
X221575000Y-47450000D01*
X222675000Y-47450000D01*
X222675000Y-48550000D01*
G36*
X222675000Y-48550000D02*
G01*
X221575000Y-48550000D01*
X221575000Y-47450000D01*
X222675000Y-47450000D01*
X222675000Y-48550000D01*
G37*
X222675000Y-50375000D02*
X221575000Y-50375000D01*
X221575000Y-49275000D01*
X222675000Y-49275000D01*
X222675000Y-50375000D01*
G36*
X222675000Y-50375000D02*
G01*
X221575000Y-50375000D01*
X221575000Y-49275000D01*
X222675000Y-49275000D01*
X222675000Y-50375000D01*
G37*
X222237500Y-33337500D02*
X221637500Y-33337500D01*
X221637500Y-32237500D01*
X222237500Y-32237500D01*
X222237500Y-33337500D01*
G36*
X222237500Y-33337500D02*
G01*
X221637500Y-33337500D01*
X221637500Y-32237500D01*
X222237500Y-32237500D01*
X222237500Y-33337500D01*
G37*
X222237500Y-35807500D02*
X221637500Y-35807500D01*
X221637500Y-34707500D01*
X222237500Y-34707500D01*
X222237500Y-35807500D01*
G36*
X222237500Y-35807500D02*
G01*
X221637500Y-35807500D01*
X221637500Y-34707500D01*
X222237500Y-34707500D01*
X222237500Y-35807500D01*
G37*
X222237500Y-52167500D02*
X221637500Y-52167500D01*
X221637500Y-51067500D01*
X222237500Y-51067500D01*
X222237500Y-52167500D01*
G36*
X222237500Y-52167500D02*
G01*
X221637500Y-52167500D01*
X221637500Y-51067500D01*
X222237500Y-51067500D01*
X222237500Y-52167500D01*
G37*
X222237500Y-54637500D02*
X221637500Y-54637500D01*
X221637500Y-53537500D01*
X222237500Y-53537500D01*
X222237500Y-54637500D01*
G36*
X222237500Y-54637500D02*
G01*
X221637500Y-54637500D01*
X221637500Y-53537500D01*
X222237500Y-53537500D01*
X222237500Y-54637500D01*
G37*
X223037500Y-33337500D02*
X222437500Y-33337500D01*
X222437500Y-32237500D01*
X223037500Y-32237500D01*
X223037500Y-33337500D01*
G36*
X223037500Y-33337500D02*
G01*
X222437500Y-33337500D01*
X222437500Y-32237500D01*
X223037500Y-32237500D01*
X223037500Y-33337500D01*
G37*
X223037500Y-35807500D02*
X222437500Y-35807500D01*
X222437500Y-34707500D01*
X223037500Y-34707500D01*
X223037500Y-35807500D01*
G36*
X223037500Y-35807500D02*
G01*
X222437500Y-35807500D01*
X222437500Y-34707500D01*
X223037500Y-34707500D01*
X223037500Y-35807500D01*
G37*
X223037500Y-52167500D02*
X222437500Y-52167500D01*
X222437500Y-51067500D01*
X223037500Y-51067500D01*
X223037500Y-52167500D01*
G36*
X223037500Y-52167500D02*
G01*
X222437500Y-52167500D01*
X222437500Y-51067500D01*
X223037500Y-51067500D01*
X223037500Y-52167500D01*
G37*
X223037500Y-54637500D02*
X222437500Y-54637500D01*
X222437500Y-53537500D01*
X223037500Y-53537500D01*
X223037500Y-54637500D01*
G36*
X223037500Y-54637500D02*
G01*
X222437500Y-54637500D01*
X222437500Y-53537500D01*
X223037500Y-53537500D01*
X223037500Y-54637500D01*
G37*
X224150000Y-37600000D02*
X223050000Y-37600000D01*
X223050000Y-36500000D01*
X224150000Y-36500000D01*
X224150000Y-37600000D01*
G36*
X224150000Y-37600000D02*
G01*
X223050000Y-37600000D01*
X223050000Y-36500000D01*
X224150000Y-36500000D01*
X224150000Y-37600000D01*
G37*
X224150000Y-39425000D02*
X223050000Y-39425000D01*
X223050000Y-38325000D01*
X224150000Y-38325000D01*
X224150000Y-39425000D01*
G36*
X224150000Y-39425000D02*
G01*
X223050000Y-39425000D01*
X223050000Y-38325000D01*
X224150000Y-38325000D01*
X224150000Y-39425000D01*
G37*
X224150000Y-41250000D02*
X223050000Y-41250000D01*
X223050000Y-40150000D01*
X224150000Y-40150000D01*
X224150000Y-41250000D01*
G36*
X224150000Y-41250000D02*
G01*
X223050000Y-41250000D01*
X223050000Y-40150000D01*
X224150000Y-40150000D01*
X224150000Y-41250000D01*
G37*
X224150000Y-43075000D02*
X223050000Y-43075000D01*
X223050000Y-41975000D01*
X224150000Y-41975000D01*
X224150000Y-43075000D01*
G36*
X224150000Y-43075000D02*
G01*
X223050000Y-43075000D01*
X223050000Y-41975000D01*
X224150000Y-41975000D01*
X224150000Y-43075000D01*
G37*
X224150000Y-44900000D02*
X223050000Y-44900000D01*
X223050000Y-43800000D01*
X224150000Y-43800000D01*
X224150000Y-44900000D01*
G36*
X224150000Y-44900000D02*
G01*
X223050000Y-44900000D01*
X223050000Y-43800000D01*
X224150000Y-43800000D01*
X224150000Y-44900000D01*
G37*
X224150000Y-46725000D02*
X223050000Y-46725000D01*
X223050000Y-45625000D01*
X224150000Y-45625000D01*
X224150000Y-46725000D01*
G36*
X224150000Y-46725000D02*
G01*
X223050000Y-46725000D01*
X223050000Y-45625000D01*
X224150000Y-45625000D01*
X224150000Y-46725000D01*
G37*
X224150000Y-48550000D02*
X223050000Y-48550000D01*
X223050000Y-47450000D01*
X224150000Y-47450000D01*
X224150000Y-48550000D01*
G36*
X224150000Y-48550000D02*
G01*
X223050000Y-48550000D01*
X223050000Y-47450000D01*
X224150000Y-47450000D01*
X224150000Y-48550000D01*
G37*
X224150000Y-50375000D02*
X223050000Y-50375000D01*
X223050000Y-49275000D01*
X224150000Y-49275000D01*
X224150000Y-50375000D01*
G36*
X224150000Y-50375000D02*
G01*
X223050000Y-50375000D01*
X223050000Y-49275000D01*
X224150000Y-49275000D01*
X224150000Y-50375000D01*
G37*
X223837500Y-33337500D02*
X223237500Y-33337500D01*
X223237500Y-32237500D01*
X223837500Y-32237500D01*
X223837500Y-33337500D01*
G36*
X223837500Y-33337500D02*
G01*
X223237500Y-33337500D01*
X223237500Y-32237500D01*
X223837500Y-32237500D01*
X223837500Y-33337500D01*
G37*
X223837500Y-35807500D02*
X223237500Y-35807500D01*
X223237500Y-34707500D01*
X223837500Y-34707500D01*
X223837500Y-35807500D01*
G36*
X223837500Y-35807500D02*
G01*
X223237500Y-35807500D01*
X223237500Y-34707500D01*
X223837500Y-34707500D01*
X223837500Y-35807500D01*
G37*
X223837500Y-52167500D02*
X223237500Y-52167500D01*
X223237500Y-51067500D01*
X223837500Y-51067500D01*
X223837500Y-52167500D01*
G36*
X223837500Y-52167500D02*
G01*
X223237500Y-52167500D01*
X223237500Y-51067500D01*
X223837500Y-51067500D01*
X223837500Y-52167500D01*
G37*
X223837500Y-54637500D02*
X223237500Y-54637500D01*
X223237500Y-53537500D01*
X223837500Y-53537500D01*
X223837500Y-54637500D01*
G36*
X223837500Y-54637500D02*
G01*
X223237500Y-54637500D01*
X223237500Y-53537500D01*
X223837500Y-53537500D01*
X223837500Y-54637500D01*
G37*
X224637500Y-33337500D02*
X224037500Y-33337500D01*
X224037500Y-32237500D01*
X224637500Y-32237500D01*
X224637500Y-33337500D01*
G36*
X224637500Y-33337500D02*
G01*
X224037500Y-33337500D01*
X224037500Y-32237500D01*
X224637500Y-32237500D01*
X224637500Y-33337500D01*
G37*
X224637500Y-35807500D02*
X224037500Y-35807500D01*
X224037500Y-34707500D01*
X224637500Y-34707500D01*
X224637500Y-35807500D01*
G36*
X224637500Y-35807500D02*
G01*
X224037500Y-35807500D01*
X224037500Y-34707500D01*
X224637500Y-34707500D01*
X224637500Y-35807500D01*
G37*
X224637500Y-52167500D02*
X224037500Y-52167500D01*
X224037500Y-51067500D01*
X224637500Y-51067500D01*
X224637500Y-52167500D01*
G36*
X224637500Y-52167500D02*
G01*
X224037500Y-52167500D01*
X224037500Y-51067500D01*
X224637500Y-51067500D01*
X224637500Y-52167500D01*
G37*
X224637500Y-54637500D02*
X224037500Y-54637500D01*
X224037500Y-53537500D01*
X224637500Y-53537500D01*
X224637500Y-54637500D01*
G36*
X224637500Y-54637500D02*
G01*
X224037500Y-54637500D01*
X224037500Y-53537500D01*
X224637500Y-53537500D01*
X224637500Y-54637500D01*
G37*
X225625000Y-37600000D02*
X224525000Y-37600000D01*
X224525000Y-36500000D01*
X225625000Y-36500000D01*
X225625000Y-37600000D01*
G36*
X225625000Y-37600000D02*
G01*
X224525000Y-37600000D01*
X224525000Y-36500000D01*
X225625000Y-36500000D01*
X225625000Y-37600000D01*
G37*
X225625000Y-39425000D02*
X224525000Y-39425000D01*
X224525000Y-38325000D01*
X225625000Y-38325000D01*
X225625000Y-39425000D01*
G36*
X225625000Y-39425000D02*
G01*
X224525000Y-39425000D01*
X224525000Y-38325000D01*
X225625000Y-38325000D01*
X225625000Y-39425000D01*
G37*
X225625000Y-41250000D02*
X224525000Y-41250000D01*
X224525000Y-40150000D01*
X225625000Y-40150000D01*
X225625000Y-41250000D01*
G36*
X225625000Y-41250000D02*
G01*
X224525000Y-41250000D01*
X224525000Y-40150000D01*
X225625000Y-40150000D01*
X225625000Y-41250000D01*
G37*
X225625000Y-43075000D02*
X224525000Y-43075000D01*
X224525000Y-41975000D01*
X225625000Y-41975000D01*
X225625000Y-43075000D01*
G36*
X225625000Y-43075000D02*
G01*
X224525000Y-43075000D01*
X224525000Y-41975000D01*
X225625000Y-41975000D01*
X225625000Y-43075000D01*
G37*
X225625000Y-44900000D02*
X224525000Y-44900000D01*
X224525000Y-43800000D01*
X225625000Y-43800000D01*
X225625000Y-44900000D01*
G36*
X225625000Y-44900000D02*
G01*
X224525000Y-44900000D01*
X224525000Y-43800000D01*
X225625000Y-43800000D01*
X225625000Y-44900000D01*
G37*
X225625000Y-46725000D02*
X224525000Y-46725000D01*
X224525000Y-45625000D01*
X225625000Y-45625000D01*
X225625000Y-46725000D01*
G36*
X225625000Y-46725000D02*
G01*
X224525000Y-46725000D01*
X224525000Y-45625000D01*
X225625000Y-45625000D01*
X225625000Y-46725000D01*
G37*
X225625000Y-48550000D02*
X224525000Y-48550000D01*
X224525000Y-47450000D01*
X225625000Y-47450000D01*
X225625000Y-48550000D01*
G36*
X225625000Y-48550000D02*
G01*
X224525000Y-48550000D01*
X224525000Y-47450000D01*
X225625000Y-47450000D01*
X225625000Y-48550000D01*
G37*
X225625000Y-50375000D02*
X224525000Y-50375000D01*
X224525000Y-49275000D01*
X225625000Y-49275000D01*
X225625000Y-50375000D01*
G36*
X225625000Y-50375000D02*
G01*
X224525000Y-50375000D01*
X224525000Y-49275000D01*
X225625000Y-49275000D01*
X225625000Y-50375000D01*
G37*
X225437500Y-33337500D02*
X224837500Y-33337500D01*
X224837500Y-32237500D01*
X225437500Y-32237500D01*
X225437500Y-33337500D01*
G36*
X225437500Y-33337500D02*
G01*
X224837500Y-33337500D01*
X224837500Y-32237500D01*
X225437500Y-32237500D01*
X225437500Y-33337500D01*
G37*
X225437500Y-35807500D02*
X224837500Y-35807500D01*
X224837500Y-34707500D01*
X225437500Y-34707500D01*
X225437500Y-35807500D01*
G36*
X225437500Y-35807500D02*
G01*
X224837500Y-35807500D01*
X224837500Y-34707500D01*
X225437500Y-34707500D01*
X225437500Y-35807500D01*
G37*
X225437500Y-52167500D02*
X224837500Y-52167500D01*
X224837500Y-51067500D01*
X225437500Y-51067500D01*
X225437500Y-52167500D01*
G36*
X225437500Y-52167500D02*
G01*
X224837500Y-52167500D01*
X224837500Y-51067500D01*
X225437500Y-51067500D01*
X225437500Y-52167500D01*
G37*
X225437500Y-54637500D02*
X224837500Y-54637500D01*
X224837500Y-53537500D01*
X225437500Y-53537500D01*
X225437500Y-54637500D01*
G36*
X225437500Y-54637500D02*
G01*
X224837500Y-54637500D01*
X224837500Y-53537500D01*
X225437500Y-53537500D01*
X225437500Y-54637500D01*
G37*
X226237500Y-33337500D02*
X225637500Y-33337500D01*
X225637500Y-32237500D01*
X226237500Y-32237500D01*
X226237500Y-33337500D01*
G36*
X226237500Y-33337500D02*
G01*
X225637500Y-33337500D01*
X225637500Y-32237500D01*
X226237500Y-32237500D01*
X226237500Y-33337500D01*
G37*
X226237500Y-35807500D02*
X225637500Y-35807500D01*
X225637500Y-34707500D01*
X226237500Y-34707500D01*
X226237500Y-35807500D01*
G36*
X226237500Y-35807500D02*
G01*
X225637500Y-35807500D01*
X225637500Y-34707500D01*
X226237500Y-34707500D01*
X226237500Y-35807500D01*
G37*
X226237500Y-52167500D02*
X225637500Y-52167500D01*
X225637500Y-51067500D01*
X226237500Y-51067500D01*
X226237500Y-52167500D01*
G36*
X226237500Y-52167500D02*
G01*
X225637500Y-52167500D01*
X225637500Y-51067500D01*
X226237500Y-51067500D01*
X226237500Y-52167500D01*
G37*
X226237500Y-54637500D02*
X225637500Y-54637500D01*
X225637500Y-53537500D01*
X226237500Y-53537500D01*
X226237500Y-54637500D01*
G36*
X226237500Y-54637500D02*
G01*
X225637500Y-54637500D01*
X225637500Y-53537500D01*
X226237500Y-53537500D01*
X226237500Y-54637500D01*
G37*
X227100000Y-37600000D02*
X226000000Y-37600000D01*
X226000000Y-36500000D01*
X227100000Y-36500000D01*
X227100000Y-37600000D01*
G36*
X227100000Y-37600000D02*
G01*
X226000000Y-37600000D01*
X226000000Y-36500000D01*
X227100000Y-36500000D01*
X227100000Y-37600000D01*
G37*
X227100000Y-39425000D02*
X226000000Y-39425000D01*
X226000000Y-38325000D01*
X227100000Y-38325000D01*
X227100000Y-39425000D01*
G36*
X227100000Y-39425000D02*
G01*
X226000000Y-39425000D01*
X226000000Y-38325000D01*
X227100000Y-38325000D01*
X227100000Y-39425000D01*
G37*
X227100000Y-41250000D02*
X226000000Y-41250000D01*
X226000000Y-40150000D01*
X227100000Y-40150000D01*
X227100000Y-41250000D01*
G36*
X227100000Y-41250000D02*
G01*
X226000000Y-41250000D01*
X226000000Y-40150000D01*
X227100000Y-40150000D01*
X227100000Y-41250000D01*
G37*
X227100000Y-43075000D02*
X226000000Y-43075000D01*
X226000000Y-41975000D01*
X227100000Y-41975000D01*
X227100000Y-43075000D01*
G36*
X227100000Y-43075000D02*
G01*
X226000000Y-43075000D01*
X226000000Y-41975000D01*
X227100000Y-41975000D01*
X227100000Y-43075000D01*
G37*
X227100000Y-44900000D02*
X226000000Y-44900000D01*
X226000000Y-43800000D01*
X227100000Y-43800000D01*
X227100000Y-44900000D01*
G36*
X227100000Y-44900000D02*
G01*
X226000000Y-44900000D01*
X226000000Y-43800000D01*
X227100000Y-43800000D01*
X227100000Y-44900000D01*
G37*
X227100000Y-46725000D02*
X226000000Y-46725000D01*
X226000000Y-45625000D01*
X227100000Y-45625000D01*
X227100000Y-46725000D01*
G36*
X227100000Y-46725000D02*
G01*
X226000000Y-46725000D01*
X226000000Y-45625000D01*
X227100000Y-45625000D01*
X227100000Y-46725000D01*
G37*
X227100000Y-48550000D02*
X226000000Y-48550000D01*
X226000000Y-47450000D01*
X227100000Y-47450000D01*
X227100000Y-48550000D01*
G36*
X227100000Y-48550000D02*
G01*
X226000000Y-48550000D01*
X226000000Y-47450000D01*
X227100000Y-47450000D01*
X227100000Y-48550000D01*
G37*
X227100000Y-50375000D02*
X226000000Y-50375000D01*
X226000000Y-49275000D01*
X227100000Y-49275000D01*
X227100000Y-50375000D01*
G36*
X227100000Y-50375000D02*
G01*
X226000000Y-50375000D01*
X226000000Y-49275000D01*
X227100000Y-49275000D01*
X227100000Y-50375000D01*
G37*
X227037500Y-33337500D02*
X226437500Y-33337500D01*
X226437500Y-32237500D01*
X227037500Y-32237500D01*
X227037500Y-33337500D01*
G36*
X227037500Y-33337500D02*
G01*
X226437500Y-33337500D01*
X226437500Y-32237500D01*
X227037500Y-32237500D01*
X227037500Y-33337500D01*
G37*
X227037500Y-35807500D02*
X226437500Y-35807500D01*
X226437500Y-34707500D01*
X227037500Y-34707500D01*
X227037500Y-35807500D01*
G36*
X227037500Y-35807500D02*
G01*
X226437500Y-35807500D01*
X226437500Y-34707500D01*
X227037500Y-34707500D01*
X227037500Y-35807500D01*
G37*
X227037500Y-52167500D02*
X226437500Y-52167500D01*
X226437500Y-51067500D01*
X227037500Y-51067500D01*
X227037500Y-52167500D01*
G36*
X227037500Y-52167500D02*
G01*
X226437500Y-52167500D01*
X226437500Y-51067500D01*
X227037500Y-51067500D01*
X227037500Y-52167500D01*
G37*
X227037500Y-54637500D02*
X226437500Y-54637500D01*
X226437500Y-53537500D01*
X227037500Y-53537500D01*
X227037500Y-54637500D01*
G36*
X227037500Y-54637500D02*
G01*
X226437500Y-54637500D01*
X226437500Y-53537500D01*
X227037500Y-53537500D01*
X227037500Y-54637500D01*
G37*
X227837500Y-33337500D02*
X227237500Y-33337500D01*
X227237500Y-32237500D01*
X227837500Y-32237500D01*
X227837500Y-33337500D01*
G36*
X227837500Y-33337500D02*
G01*
X227237500Y-33337500D01*
X227237500Y-32237500D01*
X227837500Y-32237500D01*
X227837500Y-33337500D01*
G37*
X227837500Y-35807500D02*
X227237500Y-35807500D01*
X227237500Y-34707500D01*
X227837500Y-34707500D01*
X227837500Y-35807500D01*
G36*
X227837500Y-35807500D02*
G01*
X227237500Y-35807500D01*
X227237500Y-34707500D01*
X227837500Y-34707500D01*
X227837500Y-35807500D01*
G37*
X227837500Y-52167500D02*
X227237500Y-52167500D01*
X227237500Y-51067500D01*
X227837500Y-51067500D01*
X227837500Y-52167500D01*
G36*
X227837500Y-52167500D02*
G01*
X227237500Y-52167500D01*
X227237500Y-51067500D01*
X227837500Y-51067500D01*
X227837500Y-52167500D01*
G37*
X227837500Y-54637500D02*
X227237500Y-54637500D01*
X227237500Y-53537500D01*
X227837500Y-53537500D01*
X227837500Y-54637500D01*
G36*
X227837500Y-54637500D02*
G01*
X227237500Y-54637500D01*
X227237500Y-53537500D01*
X227837500Y-53537500D01*
X227837500Y-54637500D01*
G37*
X228575000Y-37600000D02*
X227475000Y-37600000D01*
X227475000Y-36500000D01*
X228575000Y-36500000D01*
X228575000Y-37600000D01*
G36*
X228575000Y-37600000D02*
G01*
X227475000Y-37600000D01*
X227475000Y-36500000D01*
X228575000Y-36500000D01*
X228575000Y-37600000D01*
G37*
X228575000Y-39425000D02*
X227475000Y-39425000D01*
X227475000Y-38325000D01*
X228575000Y-38325000D01*
X228575000Y-39425000D01*
G36*
X228575000Y-39425000D02*
G01*
X227475000Y-39425000D01*
X227475000Y-38325000D01*
X228575000Y-38325000D01*
X228575000Y-39425000D01*
G37*
X228575000Y-41250000D02*
X227475000Y-41250000D01*
X227475000Y-40150000D01*
X228575000Y-40150000D01*
X228575000Y-41250000D01*
G36*
X228575000Y-41250000D02*
G01*
X227475000Y-41250000D01*
X227475000Y-40150000D01*
X228575000Y-40150000D01*
X228575000Y-41250000D01*
G37*
X228575000Y-43075000D02*
X227475000Y-43075000D01*
X227475000Y-41975000D01*
X228575000Y-41975000D01*
X228575000Y-43075000D01*
G36*
X228575000Y-43075000D02*
G01*
X227475000Y-43075000D01*
X227475000Y-41975000D01*
X228575000Y-41975000D01*
X228575000Y-43075000D01*
G37*
X228575000Y-44900000D02*
X227475000Y-44900000D01*
X227475000Y-43800000D01*
X228575000Y-43800000D01*
X228575000Y-44900000D01*
G36*
X228575000Y-44900000D02*
G01*
X227475000Y-44900000D01*
X227475000Y-43800000D01*
X228575000Y-43800000D01*
X228575000Y-44900000D01*
G37*
X228575000Y-46725000D02*
X227475000Y-46725000D01*
X227475000Y-45625000D01*
X228575000Y-45625000D01*
X228575000Y-46725000D01*
G36*
X228575000Y-46725000D02*
G01*
X227475000Y-46725000D01*
X227475000Y-45625000D01*
X228575000Y-45625000D01*
X228575000Y-46725000D01*
G37*
X228575000Y-48550000D02*
X227475000Y-48550000D01*
X227475000Y-47450000D01*
X228575000Y-47450000D01*
X228575000Y-48550000D01*
G36*
X228575000Y-48550000D02*
G01*
X227475000Y-48550000D01*
X227475000Y-47450000D01*
X228575000Y-47450000D01*
X228575000Y-48550000D01*
G37*
X228575000Y-50375000D02*
X227475000Y-50375000D01*
X227475000Y-49275000D01*
X228575000Y-49275000D01*
X228575000Y-50375000D01*
G36*
X228575000Y-50375000D02*
G01*
X227475000Y-50375000D01*
X227475000Y-49275000D01*
X228575000Y-49275000D01*
X228575000Y-50375000D01*
G37*
X228637500Y-33337500D02*
X228037500Y-33337500D01*
X228037500Y-32237500D01*
X228637500Y-32237500D01*
X228637500Y-33337500D01*
G36*
X228637500Y-33337500D02*
G01*
X228037500Y-33337500D01*
X228037500Y-32237500D01*
X228637500Y-32237500D01*
X228637500Y-33337500D01*
G37*
X228637500Y-35807500D02*
X228037500Y-35807500D01*
X228037500Y-34707500D01*
X228637500Y-34707500D01*
X228637500Y-35807500D01*
G36*
X228637500Y-35807500D02*
G01*
X228037500Y-35807500D01*
X228037500Y-34707500D01*
X228637500Y-34707500D01*
X228637500Y-35807500D01*
G37*
X228637500Y-52167500D02*
X228037500Y-52167500D01*
X228037500Y-51067500D01*
X228637500Y-51067500D01*
X228637500Y-52167500D01*
G36*
X228637500Y-52167500D02*
G01*
X228037500Y-52167500D01*
X228037500Y-51067500D01*
X228637500Y-51067500D01*
X228637500Y-52167500D01*
G37*
X229437500Y-33337500D02*
X228837500Y-33337500D01*
X228837500Y-32237500D01*
X229437500Y-32237500D01*
X229437500Y-33337500D01*
G36*
X229437500Y-33337500D02*
G01*
X228837500Y-33337500D01*
X228837500Y-32237500D01*
X229437500Y-32237500D01*
X229437500Y-33337500D01*
G37*
X229437500Y-35807500D02*
X228837500Y-35807500D01*
X228837500Y-34707500D01*
X229437500Y-34707500D01*
X229437500Y-35807500D01*
G36*
X229437500Y-35807500D02*
G01*
X228837500Y-35807500D01*
X228837500Y-34707500D01*
X229437500Y-34707500D01*
X229437500Y-35807500D01*
G37*
X229437500Y-52167500D02*
X228837500Y-52167500D01*
X228837500Y-51067500D01*
X229437500Y-51067500D01*
X229437500Y-52167500D01*
G36*
X229437500Y-52167500D02*
G01*
X228837500Y-52167500D01*
X228837500Y-51067500D01*
X229437500Y-51067500D01*
X229437500Y-52167500D01*
G37*
X229437500Y-54637500D02*
X228837500Y-54637500D01*
X228837500Y-53537500D01*
X229437500Y-53537500D01*
X229437500Y-54637500D01*
G36*
X229437500Y-54637500D02*
G01*
X228837500Y-54637500D01*
X228837500Y-53537500D01*
X229437500Y-53537500D01*
X229437500Y-54637500D01*
G37*
X230050000Y-37600000D02*
X228950000Y-37600000D01*
X228950000Y-36500000D01*
X230050000Y-36500000D01*
X230050000Y-37600000D01*
G36*
X230050000Y-37600000D02*
G01*
X228950000Y-37600000D01*
X228950000Y-36500000D01*
X230050000Y-36500000D01*
X230050000Y-37600000D01*
G37*
X230050000Y-39425000D02*
X228950000Y-39425000D01*
X228950000Y-38325000D01*
X230050000Y-38325000D01*
X230050000Y-39425000D01*
G36*
X230050000Y-39425000D02*
G01*
X228950000Y-39425000D01*
X228950000Y-38325000D01*
X230050000Y-38325000D01*
X230050000Y-39425000D01*
G37*
X230050000Y-41250000D02*
X228950000Y-41250000D01*
X228950000Y-40150000D01*
X230050000Y-40150000D01*
X230050000Y-41250000D01*
G36*
X230050000Y-41250000D02*
G01*
X228950000Y-41250000D01*
X228950000Y-40150000D01*
X230050000Y-40150000D01*
X230050000Y-41250000D01*
G37*
X230050000Y-43075000D02*
X228950000Y-43075000D01*
X228950000Y-41975000D01*
X230050000Y-41975000D01*
X230050000Y-43075000D01*
G36*
X230050000Y-43075000D02*
G01*
X228950000Y-43075000D01*
X228950000Y-41975000D01*
X230050000Y-41975000D01*
X230050000Y-43075000D01*
G37*
X230050000Y-44900000D02*
X228950000Y-44900000D01*
X228950000Y-43800000D01*
X230050000Y-43800000D01*
X230050000Y-44900000D01*
G36*
X230050000Y-44900000D02*
G01*
X228950000Y-44900000D01*
X228950000Y-43800000D01*
X230050000Y-43800000D01*
X230050000Y-44900000D01*
G37*
X230050000Y-46725000D02*
X228950000Y-46725000D01*
X228950000Y-45625000D01*
X230050000Y-45625000D01*
X230050000Y-46725000D01*
G36*
X230050000Y-46725000D02*
G01*
X228950000Y-46725000D01*
X228950000Y-45625000D01*
X230050000Y-45625000D01*
X230050000Y-46725000D01*
G37*
X230050000Y-48550000D02*
X228950000Y-48550000D01*
X228950000Y-47450000D01*
X230050000Y-47450000D01*
X230050000Y-48550000D01*
G36*
X230050000Y-48550000D02*
G01*
X228950000Y-48550000D01*
X228950000Y-47450000D01*
X230050000Y-47450000D01*
X230050000Y-48550000D01*
G37*
X230050000Y-50375000D02*
X228950000Y-50375000D01*
X228950000Y-49275000D01*
X230050000Y-49275000D01*
X230050000Y-50375000D01*
G36*
X230050000Y-50375000D02*
G01*
X228950000Y-50375000D01*
X228950000Y-49275000D01*
X230050000Y-49275000D01*
X230050000Y-50375000D01*
G37*
X230237500Y-33337500D02*
X229637500Y-33337500D01*
X229637500Y-32237500D01*
X230237500Y-32237500D01*
X230237500Y-33337500D01*
G36*
X230237500Y-33337500D02*
G01*
X229637500Y-33337500D01*
X229637500Y-32237500D01*
X230237500Y-32237500D01*
X230237500Y-33337500D01*
G37*
X230237500Y-35807500D02*
X229637500Y-35807500D01*
X229637500Y-34707500D01*
X230237500Y-34707500D01*
X230237500Y-35807500D01*
G36*
X230237500Y-35807500D02*
G01*
X229637500Y-35807500D01*
X229637500Y-34707500D01*
X230237500Y-34707500D01*
X230237500Y-35807500D01*
G37*
X230237500Y-52167500D02*
X229637500Y-52167500D01*
X229637500Y-51067500D01*
X230237500Y-51067500D01*
X230237500Y-52167500D01*
G36*
X230237500Y-52167500D02*
G01*
X229637500Y-52167500D01*
X229637500Y-51067500D01*
X230237500Y-51067500D01*
X230237500Y-52167500D01*
G37*
X230237500Y-54637500D02*
X229637500Y-54637500D01*
X229637500Y-53537500D01*
X230237500Y-53537500D01*
X230237500Y-54637500D01*
G36*
X230237500Y-54637500D02*
G01*
X229637500Y-54637500D01*
X229637500Y-53537500D01*
X230237500Y-53537500D01*
X230237500Y-54637500D01*
G37*
X231037500Y-33337500D02*
X230437500Y-33337500D01*
X230437500Y-32237500D01*
X231037500Y-32237500D01*
X231037500Y-33337500D01*
G36*
X231037500Y-33337500D02*
G01*
X230437500Y-33337500D01*
X230437500Y-32237500D01*
X231037500Y-32237500D01*
X231037500Y-33337500D01*
G37*
X231037500Y-54637500D02*
X230437500Y-54637500D01*
X230437500Y-53537500D01*
X231037500Y-53537500D01*
X231037500Y-54637500D01*
G36*
X231037500Y-54637500D02*
G01*
X230437500Y-54637500D01*
X230437500Y-53537500D01*
X231037500Y-53537500D01*
X231037500Y-54637500D01*
G37*
X231667500Y-35807500D02*
X230567500Y-35807500D01*
X230567500Y-34707500D01*
X231667500Y-34707500D01*
X231667500Y-35807500D01*
G36*
X231667500Y-35807500D02*
G01*
X230567500Y-35807500D01*
X230567500Y-34707500D01*
X231667500Y-34707500D01*
X231667500Y-35807500D01*
G37*
X231667500Y-36937500D02*
X230567500Y-36937500D01*
X230567500Y-36337500D01*
X231667500Y-36337500D01*
X231667500Y-36937500D01*
G36*
X231667500Y-36937500D02*
G01*
X230567500Y-36937500D01*
X230567500Y-36337500D01*
X231667500Y-36337500D01*
X231667500Y-36937500D01*
G37*
X231667500Y-37737500D02*
X230567500Y-37737500D01*
X230567500Y-37137500D01*
X231667500Y-37137500D01*
X231667500Y-37737500D01*
G36*
X231667500Y-37737500D02*
G01*
X230567500Y-37737500D01*
X230567500Y-37137500D01*
X231667500Y-37137500D01*
X231667500Y-37737500D01*
G37*
X231667500Y-38537500D02*
X230567500Y-38537500D01*
X230567500Y-37937500D01*
X231667500Y-37937500D01*
X231667500Y-38537500D01*
G36*
X231667500Y-38537500D02*
G01*
X230567500Y-38537500D01*
X230567500Y-37937500D01*
X231667500Y-37937500D01*
X231667500Y-38537500D01*
G37*
X231667500Y-39337500D02*
X230567500Y-39337500D01*
X230567500Y-38737500D01*
X231667500Y-38737500D01*
X231667500Y-39337500D01*
G36*
X231667500Y-39337500D02*
G01*
X230567500Y-39337500D01*
X230567500Y-38737500D01*
X231667500Y-38737500D01*
X231667500Y-39337500D01*
G37*
X231667500Y-40137500D02*
X230567500Y-40137500D01*
X230567500Y-39537500D01*
X231667500Y-39537500D01*
X231667500Y-40137500D01*
G36*
X231667500Y-40137500D02*
G01*
X230567500Y-40137500D01*
X230567500Y-39537500D01*
X231667500Y-39537500D01*
X231667500Y-40137500D01*
G37*
X231667500Y-40937500D02*
X230567500Y-40937500D01*
X230567500Y-40337500D01*
X231667500Y-40337500D01*
X231667500Y-40937500D01*
G36*
X231667500Y-40937500D02*
G01*
X230567500Y-40937500D01*
X230567500Y-40337500D01*
X231667500Y-40337500D01*
X231667500Y-40937500D01*
G37*
X231667500Y-41737500D02*
X230567500Y-41737500D01*
X230567500Y-41137500D01*
X231667500Y-41137500D01*
X231667500Y-41737500D01*
G36*
X231667500Y-41737500D02*
G01*
X230567500Y-41737500D01*
X230567500Y-41137500D01*
X231667500Y-41137500D01*
X231667500Y-41737500D01*
G37*
X231667500Y-42537500D02*
X230567500Y-42537500D01*
X230567500Y-41937500D01*
X231667500Y-41937500D01*
X231667500Y-42537500D01*
G36*
X231667500Y-42537500D02*
G01*
X230567500Y-42537500D01*
X230567500Y-41937500D01*
X231667500Y-41937500D01*
X231667500Y-42537500D01*
G37*
X231667500Y-43337500D02*
X230567500Y-43337500D01*
X230567500Y-42737500D01*
X231667500Y-42737500D01*
X231667500Y-43337500D01*
G36*
X231667500Y-43337500D02*
G01*
X230567500Y-43337500D01*
X230567500Y-42737500D01*
X231667500Y-42737500D01*
X231667500Y-43337500D01*
G37*
X231667500Y-44137500D02*
X230567500Y-44137500D01*
X230567500Y-43537500D01*
X231667500Y-43537500D01*
X231667500Y-44137500D01*
G36*
X231667500Y-44137500D02*
G01*
X230567500Y-44137500D01*
X230567500Y-43537500D01*
X231667500Y-43537500D01*
X231667500Y-44137500D01*
G37*
X231667500Y-44937500D02*
X230567500Y-44937500D01*
X230567500Y-44337500D01*
X231667500Y-44337500D01*
X231667500Y-44937500D01*
G36*
X231667500Y-44937500D02*
G01*
X230567500Y-44937500D01*
X230567500Y-44337500D01*
X231667500Y-44337500D01*
X231667500Y-44937500D01*
G37*
X231667500Y-45737500D02*
X230567500Y-45737500D01*
X230567500Y-45137500D01*
X231667500Y-45137500D01*
X231667500Y-45737500D01*
G36*
X231667500Y-45737500D02*
G01*
X230567500Y-45737500D01*
X230567500Y-45137500D01*
X231667500Y-45137500D01*
X231667500Y-45737500D01*
G37*
X231667500Y-46537500D02*
X230567500Y-46537500D01*
X230567500Y-45937500D01*
X231667500Y-45937500D01*
X231667500Y-46537500D01*
G36*
X231667500Y-46537500D02*
G01*
X230567500Y-46537500D01*
X230567500Y-45937500D01*
X231667500Y-45937500D01*
X231667500Y-46537500D01*
G37*
X231667500Y-47337500D02*
X230567500Y-47337500D01*
X230567500Y-46737500D01*
X231667500Y-46737500D01*
X231667500Y-47337500D01*
G36*
X231667500Y-47337500D02*
G01*
X230567500Y-47337500D01*
X230567500Y-46737500D01*
X231667500Y-46737500D01*
X231667500Y-47337500D01*
G37*
X231667500Y-48137500D02*
X230567500Y-48137500D01*
X230567500Y-47537500D01*
X231667500Y-47537500D01*
X231667500Y-48137500D01*
G36*
X231667500Y-48137500D02*
G01*
X230567500Y-48137500D01*
X230567500Y-47537500D01*
X231667500Y-47537500D01*
X231667500Y-48137500D01*
G37*
X231667500Y-48937500D02*
X230567500Y-48937500D01*
X230567500Y-48337500D01*
X231667500Y-48337500D01*
X231667500Y-48937500D01*
G36*
X231667500Y-48937500D02*
G01*
X230567500Y-48937500D01*
X230567500Y-48337500D01*
X231667500Y-48337500D01*
X231667500Y-48937500D01*
G37*
X231667500Y-49737500D02*
X230567500Y-49737500D01*
X230567500Y-49137500D01*
X231667500Y-49137500D01*
X231667500Y-49737500D01*
G36*
X231667500Y-49737500D02*
G01*
X230567500Y-49737500D01*
X230567500Y-49137500D01*
X231667500Y-49137500D01*
X231667500Y-49737500D01*
G37*
X231667500Y-50537500D02*
X230567500Y-50537500D01*
X230567500Y-49937500D01*
X231667500Y-49937500D01*
X231667500Y-50537500D01*
G36*
X231667500Y-50537500D02*
G01*
X230567500Y-50537500D01*
X230567500Y-49937500D01*
X231667500Y-49937500D01*
X231667500Y-50537500D01*
G37*
X231667500Y-52167500D02*
X230567500Y-52167500D01*
X230567500Y-51067500D01*
X231667500Y-51067500D01*
X231667500Y-52167500D01*
G36*
X231667500Y-52167500D02*
G01*
X230567500Y-52167500D01*
X230567500Y-51067500D01*
X231667500Y-51067500D01*
X231667500Y-52167500D01*
G37*
X231837500Y-33337500D02*
X231237500Y-33337500D01*
X231237500Y-32237500D01*
X231837500Y-32237500D01*
X231837500Y-33337500D01*
G36*
X231837500Y-33337500D02*
G01*
X231237500Y-33337500D01*
X231237500Y-32237500D01*
X231837500Y-32237500D01*
X231837500Y-33337500D01*
G37*
X231837500Y-54637500D02*
X231237500Y-54637500D01*
X231237500Y-53537500D01*
X231837500Y-53537500D01*
X231837500Y-54637500D01*
G36*
X231837500Y-54637500D02*
G01*
X231237500Y-54637500D01*
X231237500Y-53537500D01*
X231837500Y-53537500D01*
X231837500Y-54637500D01*
G37*
X232637500Y-33337500D02*
X232037500Y-33337500D01*
X232037500Y-32237500D01*
X232637500Y-32237500D01*
X232637500Y-33337500D01*
G36*
X232637500Y-33337500D02*
G01*
X232037500Y-33337500D01*
X232037500Y-32237500D01*
X232637500Y-32237500D01*
X232637500Y-33337500D01*
G37*
X232637500Y-54637500D02*
X232037500Y-54637500D01*
X232037500Y-53537500D01*
X232637500Y-53537500D01*
X232637500Y-54637500D01*
G36*
X232637500Y-54637500D02*
G01*
X232037500Y-54637500D01*
X232037500Y-53537500D01*
X232637500Y-53537500D01*
X232637500Y-54637500D01*
G37*
X233437500Y-33337500D02*
X232837500Y-33337500D01*
X232837500Y-32237500D01*
X233437500Y-32237500D01*
X233437500Y-33337500D01*
G36*
X233437500Y-33337500D02*
G01*
X232837500Y-33337500D01*
X232837500Y-32237500D01*
X233437500Y-32237500D01*
X233437500Y-33337500D01*
G37*
X233437500Y-54637500D02*
X232837500Y-54637500D01*
X232837500Y-53537500D01*
X233437500Y-53537500D01*
X233437500Y-54637500D01*
G36*
X233437500Y-54637500D02*
G01*
X232837500Y-54637500D01*
X232837500Y-53537500D01*
X233437500Y-53537500D01*
X233437500Y-54637500D01*
G37*
X234837500Y-33237500D02*
X233737500Y-33237500D01*
X233737500Y-32237500D01*
X234837500Y-32237500D01*
X234837500Y-33237500D01*
G36*
X234837500Y-33237500D02*
G01*
X233737500Y-33237500D01*
X233737500Y-32237500D01*
X234837500Y-32237500D01*
X234837500Y-33237500D01*
G37*
X234837500Y-34137500D02*
X233737500Y-34137500D01*
X233737500Y-33537500D01*
X234837500Y-33537500D01*
X234837500Y-34137500D01*
G36*
X234837500Y-34137500D02*
G01*
X233737500Y-34137500D01*
X233737500Y-33537500D01*
X234837500Y-33537500D01*
X234837500Y-34137500D01*
G37*
X234837500Y-34937500D02*
X233737500Y-34937500D01*
X233737500Y-34337500D01*
X234837500Y-34337500D01*
X234837500Y-34937500D01*
G36*
X234837500Y-34937500D02*
G01*
X233737500Y-34937500D01*
X233737500Y-34337500D01*
X234837500Y-34337500D01*
X234837500Y-34937500D01*
G37*
X234837500Y-35737500D02*
X233737500Y-35737500D01*
X233737500Y-35137500D01*
X234837500Y-35137500D01*
X234837500Y-35737500D01*
G36*
X234837500Y-35737500D02*
G01*
X233737500Y-35737500D01*
X233737500Y-35137500D01*
X234837500Y-35137500D01*
X234837500Y-35737500D01*
G37*
X234837500Y-36537500D02*
X233737500Y-36537500D01*
X233737500Y-35937500D01*
X234837500Y-35937500D01*
X234837500Y-36537500D01*
G36*
X234837500Y-36537500D02*
G01*
X233737500Y-36537500D01*
X233737500Y-35937500D01*
X234837500Y-35937500D01*
X234837500Y-36537500D01*
G37*
X234837500Y-37337500D02*
X233737500Y-37337500D01*
X233737500Y-36737500D01*
X234837500Y-36737500D01*
X234837500Y-37337500D01*
G36*
X234837500Y-37337500D02*
G01*
X233737500Y-37337500D01*
X233737500Y-36737500D01*
X234837500Y-36737500D01*
X234837500Y-37337500D01*
G37*
X234837500Y-39737500D02*
X233737500Y-39737500D01*
X233737500Y-39137500D01*
X234837500Y-39137500D01*
X234837500Y-39737500D01*
G36*
X234837500Y-39737500D02*
G01*
X233737500Y-39737500D01*
X233737500Y-39137500D01*
X234837500Y-39137500D01*
X234837500Y-39737500D01*
G37*
X234837500Y-40537500D02*
X233737500Y-40537500D01*
X233737500Y-39937500D01*
X234837500Y-39937500D01*
X234837500Y-40537500D01*
G36*
X234837500Y-40537500D02*
G01*
X233737500Y-40537500D01*
X233737500Y-39937500D01*
X234837500Y-39937500D01*
X234837500Y-40537500D01*
G37*
X234837500Y-41337500D02*
X233737500Y-41337500D01*
X233737500Y-40737500D01*
X234837500Y-40737500D01*
X234837500Y-41337500D01*
G36*
X234837500Y-41337500D02*
G01*
X233737500Y-41337500D01*
X233737500Y-40737500D01*
X234837500Y-40737500D01*
X234837500Y-41337500D01*
G37*
X234837500Y-42137500D02*
X233737500Y-42137500D01*
X233737500Y-41537500D01*
X234837500Y-41537500D01*
X234837500Y-42137500D01*
G36*
X234837500Y-42137500D02*
G01*
X233737500Y-42137500D01*
X233737500Y-41537500D01*
X234837500Y-41537500D01*
X234837500Y-42137500D01*
G37*
X234837500Y-42937500D02*
X233737500Y-42937500D01*
X233737500Y-42337500D01*
X234837500Y-42337500D01*
X234837500Y-42937500D01*
G36*
X234837500Y-42937500D02*
G01*
X233737500Y-42937500D01*
X233737500Y-42337500D01*
X234837500Y-42337500D01*
X234837500Y-42937500D01*
G37*
X234837500Y-43737500D02*
X233737500Y-43737500D01*
X233737500Y-43137500D01*
X234837500Y-43137500D01*
X234837500Y-43737500D01*
G36*
X234837500Y-43737500D02*
G01*
X233737500Y-43737500D01*
X233737500Y-43137500D01*
X234837500Y-43137500D01*
X234837500Y-43737500D01*
G37*
X234837500Y-44537500D02*
X233737500Y-44537500D01*
X233737500Y-43937500D01*
X234837500Y-43937500D01*
X234837500Y-44537500D01*
G36*
X234837500Y-44537500D02*
G01*
X233737500Y-44537500D01*
X233737500Y-43937500D01*
X234837500Y-43937500D01*
X234837500Y-44537500D01*
G37*
X234837500Y-45337500D02*
X233737500Y-45337500D01*
X233737500Y-44737500D01*
X234837500Y-44737500D01*
X234837500Y-45337500D01*
G36*
X234837500Y-45337500D02*
G01*
X233737500Y-45337500D01*
X233737500Y-44737500D01*
X234837500Y-44737500D01*
X234837500Y-45337500D01*
G37*
X234837500Y-46137500D02*
X233737500Y-46137500D01*
X233737500Y-45537500D01*
X234837500Y-45537500D01*
X234837500Y-46137500D01*
G36*
X234837500Y-46137500D02*
G01*
X233737500Y-46137500D01*
X233737500Y-45537500D01*
X234837500Y-45537500D01*
X234837500Y-46137500D01*
G37*
X234837500Y-48537500D02*
X233737500Y-48537500D01*
X233737500Y-47937500D01*
X234837500Y-47937500D01*
X234837500Y-48537500D01*
G36*
X234837500Y-48537500D02*
G01*
X233737500Y-48537500D01*
X233737500Y-47937500D01*
X234837500Y-47937500D01*
X234837500Y-48537500D01*
G37*
X234837500Y-49337500D02*
X233737500Y-49337500D01*
X233737500Y-48737500D01*
X234837500Y-48737500D01*
X234837500Y-49337500D01*
G36*
X234837500Y-49337500D02*
G01*
X233737500Y-49337500D01*
X233737500Y-48737500D01*
X234837500Y-48737500D01*
X234837500Y-49337500D01*
G37*
X234837500Y-50137500D02*
X233737500Y-50137500D01*
X233737500Y-49537500D01*
X234837500Y-49537500D01*
X234837500Y-50137500D01*
G36*
X234837500Y-50137500D02*
G01*
X233737500Y-50137500D01*
X233737500Y-49537500D01*
X234837500Y-49537500D01*
X234837500Y-50137500D01*
G37*
X234837500Y-50937500D02*
X233737500Y-50937500D01*
X233737500Y-50337500D01*
X234837500Y-50337500D01*
X234837500Y-50937500D01*
G36*
X234837500Y-50937500D02*
G01*
X233737500Y-50937500D01*
X233737500Y-50337500D01*
X234837500Y-50337500D01*
X234837500Y-50937500D01*
G37*
X234837500Y-51737500D02*
X233737500Y-51737500D01*
X233737500Y-51137500D01*
X234837500Y-51137500D01*
X234837500Y-51737500D01*
G36*
X234837500Y-51737500D02*
G01*
X233737500Y-51737500D01*
X233737500Y-51137500D01*
X234837500Y-51137500D01*
X234837500Y-51737500D01*
G37*
X234837500Y-52537500D02*
X233737500Y-52537500D01*
X233737500Y-51937500D01*
X234837500Y-51937500D01*
X234837500Y-52537500D01*
G36*
X234837500Y-52537500D02*
G01*
X233737500Y-52537500D01*
X233737500Y-51937500D01*
X234837500Y-51937500D01*
X234837500Y-52537500D01*
G37*
X234837500Y-53337500D02*
X233737500Y-53337500D01*
X233737500Y-52737500D01*
X234837500Y-52737500D01*
X234837500Y-53337500D01*
G36*
X234837500Y-53337500D02*
G01*
X233737500Y-53337500D01*
X233737500Y-52737500D01*
X234837500Y-52737500D01*
X234837500Y-53337500D01*
G37*
X234837500Y-54637500D02*
X233737500Y-54637500D01*
X233737500Y-53637500D01*
X234837500Y-53637500D01*
X234837500Y-54637500D01*
G36*
X234837500Y-54637500D02*
G01*
X233737500Y-54637500D01*
X233737500Y-53637500D01*
X234837500Y-53637500D01*
X234837500Y-54637500D01*
G37*
%TO.C,J15*%
X83937500Y-59199999D02*
X82137500Y-59199999D01*
X82137500Y-58399999D01*
X81787500Y-58399999D01*
X81787500Y-56899999D01*
X83937500Y-56899999D01*
X83937500Y-59199999D01*
G36*
X83937500Y-59199999D02*
G01*
X82137500Y-59199999D01*
X82137500Y-58399999D01*
X81787500Y-58399999D01*
X81787500Y-56899999D01*
X83937500Y-56899999D01*
X83937500Y-59199999D01*
G37*
X83937500Y-44199999D02*
X81787500Y-44199999D01*
X81787500Y-42699999D01*
X82137500Y-42699999D01*
X82137500Y-41899999D01*
X83937500Y-41899999D01*
X83937500Y-44199999D01*
G36*
X83937500Y-44199999D02*
G01*
X81787500Y-44199999D01*
X81787500Y-42699999D01*
X82137500Y-42699999D01*
X82137500Y-41899999D01*
X83937500Y-41899999D01*
X83937500Y-44199999D01*
G37*
%TD*%
D13*
%TO.C,C18*%
X163225000Y-37000000D03*
X164775000Y-37000000D03*
%TD*%
D14*
%TO.C,U8*%
X97687500Y-47027499D03*
X97287500Y-47027499D03*
X96887500Y-47027499D03*
X96487500Y-47027499D03*
X96087500Y-47027499D03*
X95687500Y-47027499D03*
D15*
X94957500Y-47757499D03*
X94957500Y-48157499D03*
X94957500Y-48557499D03*
X94957500Y-48957499D03*
X94957500Y-49357499D03*
X94957500Y-49757499D03*
D14*
X95687500Y-50487499D03*
X96087500Y-50487499D03*
X96487500Y-50487499D03*
X96887500Y-50487499D03*
X97287500Y-50487499D03*
X97687500Y-50487499D03*
D15*
X98417500Y-49757499D03*
X98417500Y-49357499D03*
X98417500Y-48957499D03*
X98417500Y-48557499D03*
X98417500Y-48157499D03*
X98417500Y-47757499D03*
D16*
X96687500Y-48757499D03*
%TD*%
D17*
%TO.C,P1*%
X240760000Y-81215000D03*
X240760000Y-83655000D03*
X240760000Y-86095000D03*
X237590000Y-81115000D03*
X237590000Y-83655000D03*
X237590000Y-86195000D03*
D18*
X234260000Y-87900000D03*
D19*
X230585000Y-84205000D03*
D20*
X241460000Y-88250000D03*
D21*
X236610000Y-88250000D03*
D22*
X232460000Y-87750000D03*
D23*
X229510000Y-85855000D03*
X229510000Y-81455000D03*
D24*
X231460000Y-77100000D03*
D21*
X236610000Y-77100000D03*
D20*
X241460000Y-77100000D03*
D25*
X242610000Y-82435000D03*
X242610000Y-84875000D03*
%TD*%
D26*
%TO.C,R7*%
X210125000Y-42600000D03*
X208475000Y-42600000D03*
%TD*%
D27*
%TO.C,Q1*%
X108925000Y-27200000D03*
X108925000Y-25300000D03*
X106825000Y-26250000D03*
%TD*%
D28*
%TO.C,J3*%
X149760000Y-22860000D03*
D29*
X149760000Y-25400000D03*
X152300000Y-22860000D03*
X152300000Y-25400000D03*
X154840000Y-22860000D03*
X154840000Y-25400000D03*
X157380000Y-22860000D03*
X157380000Y-25400000D03*
X159920000Y-22860000D03*
X159920000Y-25400000D03*
X162460000Y-22860000D03*
X162460000Y-25400000D03*
X165000000Y-22860000D03*
X165000000Y-25400000D03*
X167540000Y-22860000D03*
X167540000Y-25400000D03*
X170080000Y-22860000D03*
X170080000Y-25400000D03*
X172620000Y-22860000D03*
X172620000Y-25400000D03*
X175160000Y-22860000D03*
X175160000Y-25400000D03*
X177700000Y-22860000D03*
X177700000Y-25400000D03*
X180240000Y-22860000D03*
X180240000Y-25400000D03*
X182780000Y-22860000D03*
X182780000Y-25400000D03*
X185320000Y-22860000D03*
X185320000Y-25400000D03*
X187860000Y-22860000D03*
X187860000Y-25400000D03*
X190400000Y-22860000D03*
X190400000Y-25400000D03*
X192940000Y-22860000D03*
X192940000Y-25400000D03*
X195480000Y-22860000D03*
X195480000Y-25400000D03*
X198020000Y-22860000D03*
X198020000Y-25400000D03*
%TD*%
D30*
%TO.C,D11*%
X215600000Y-63526000D03*
X215600000Y-65026000D03*
%TD*%
D31*
%TO.C,J7*%
X205900000Y-27600000D03*
%TD*%
D32*
%TO.C,C16*%
X121737500Y-53887499D03*
X121737500Y-55437499D03*
%TD*%
D31*
%TO.C,J9*%
X205800000Y-37400000D03*
%TD*%
D33*
%TO.C,TP11*%
X92032500Y-44624999D03*
%TD*%
D34*
%TO.C,C8*%
X187400000Y-79625000D03*
X187400000Y-78075000D03*
%TD*%
D32*
%TO.C,C11*%
X104300000Y-27800000D03*
X104300000Y-29350000D03*
%TD*%
D35*
%TO.C,R14*%
X213900000Y-63475000D03*
X213900000Y-65125000D03*
%TD*%
D26*
%TO.C,R16*%
X113150000Y-27200000D03*
X111500000Y-27200000D03*
%TD*%
D32*
%TO.C,C19*%
X161000000Y-38325000D03*
X161000000Y-39875000D03*
%TD*%
D13*
%TO.C,C13*%
X137125000Y-34310000D03*
X138675000Y-34310000D03*
%TD*%
D36*
%TO.C,U12*%
X170137500Y-78495000D03*
X170137500Y-77545000D03*
X170137500Y-76595000D03*
X167647500Y-76595000D03*
X167647500Y-77545000D03*
X167647500Y-78495000D03*
%TD*%
D37*
%TO.C,J4*%
X242341500Y-38159250D03*
D38*
X242341500Y-40929250D03*
X242341500Y-35389250D03*
%TD*%
D32*
%TO.C,C2*%
X156120000Y-77400000D03*
X156120000Y-78950000D03*
%TD*%
D39*
%TO.C,J16*%
X97862500Y-25379999D03*
X91062500Y-25379999D03*
D40*
X91882500Y-36799999D03*
X92982500Y-36799999D03*
X94082500Y-36799999D03*
X95182500Y-36799999D03*
X96282500Y-36799999D03*
X97382500Y-36799999D03*
X98482500Y-36799999D03*
X99582500Y-36799999D03*
X100682500Y-36799999D03*
D41*
X102062500Y-25799999D03*
X102062500Y-34799999D03*
X85912500Y-34799999D03*
X85912500Y-25799999D03*
%TD*%
D35*
%TO.C,R1*%
X158120000Y-77350000D03*
X158120000Y-79000000D03*
%TD*%
D31*
%TO.C,TP1*%
X202100000Y-30200000D03*
%TD*%
D42*
%TO.C,C7*%
X225635000Y-77700001D03*
X224085000Y-77700001D03*
%TD*%
D43*
%TO.C,R11*%
X206330000Y-60425000D03*
X206330000Y-58775000D03*
%TD*%
D44*
%TO.C,TP14*%
X98800000Y-61400000D03*
%TD*%
D45*
%TO.C,J15*%
X83987500Y-45299999D03*
X83987500Y-45799999D03*
X83987500Y-46299999D03*
X83987500Y-46799999D03*
X83987500Y-47299999D03*
X83987500Y-47799999D03*
X83987500Y-48299999D03*
X83987500Y-48799999D03*
X83987500Y-49299999D03*
X83987500Y-49799999D03*
X83987500Y-50299999D03*
X83987500Y-50799999D03*
X83987500Y-51299999D03*
X83987500Y-51799999D03*
X83987500Y-52299999D03*
X83987500Y-52799999D03*
X83987500Y-53299999D03*
X83987500Y-53799999D03*
X83987500Y-54299999D03*
X83987500Y-54799999D03*
X83987500Y-55299999D03*
X83987500Y-55799999D03*
%TD*%
D26*
%TO.C,R2*%
X188000000Y-39000000D03*
X186350000Y-39000000D03*
%TD*%
D32*
%TO.C,C22*%
X117237500Y-57887499D03*
X117237500Y-59437499D03*
%TD*%
D42*
%TO.C,C9*%
X95362500Y-51999999D03*
X93812500Y-51999999D03*
%TD*%
D46*
%TO.C,CR2*%
X98487498Y-41413999D03*
X98987500Y-41413999D03*
D47*
X99487499Y-41413999D03*
D46*
X99987498Y-41413999D03*
X100487500Y-41413999D03*
X100487500Y-40524999D03*
X99987498Y-40524999D03*
D47*
X99487499Y-40524999D03*
D46*
X98987500Y-40524999D03*
X98487498Y-40524999D03*
%TD*%
D48*
%TO.C,D6*%
X238300000Y-39170000D03*
X238300000Y-38200000D03*
%TD*%
D34*
%TO.C,C6*%
X185300000Y-79625000D03*
X185300000Y-78075000D03*
%TD*%
D35*
%TO.C,R4*%
X210940000Y-69625000D03*
X210940000Y-71275000D03*
%TD*%
D34*
%TO.C,C24*%
X112737500Y-58637499D03*
X112737500Y-57087499D03*
%TD*%
%TO.C,C23*%
X121737500Y-51437499D03*
X121737500Y-49887499D03*
%TD*%
D49*
%TO.C,U7*%
X211950000Y-63130000D03*
X210650000Y-63130000D03*
X211300000Y-65070000D03*
%TD*%
D50*
%TO.C,R15*%
X111500000Y-25200000D03*
X113150000Y-25200000D03*
%TD*%
D51*
%TO.C,D5*%
X188000000Y-37160000D03*
X186500000Y-37160000D03*
%TD*%
D35*
%TO.C,R6*%
X210800000Y-73350000D03*
X210800000Y-75000000D03*
%TD*%
D43*
%TO.C,R8*%
X221860000Y-85325000D03*
X221860000Y-83675000D03*
%TD*%
D34*
%TO.C,C4*%
X183200000Y-79625000D03*
X183200000Y-78075000D03*
%TD*%
D31*
%TO.C,J14*%
X206200000Y-53000000D03*
%TD*%
D42*
%TO.C,C3*%
X225610000Y-82300001D03*
X224060000Y-82300001D03*
%TD*%
D44*
%TO.C,TP16*%
X82500000Y-67500000D03*
%TD*%
D33*
%TO.C,TP10*%
X92832500Y-46624999D03*
%TD*%
D26*
%TO.C,R12*%
X211925000Y-61000000D03*
X210275000Y-61000000D03*
%TD*%
D52*
%TO.C,BT1*%
X89430000Y-79000000D03*
X111400000Y-79000000D03*
D53*
X100415000Y-79000000D03*
%TD*%
D44*
%TO.C,TP13*%
X107900000Y-31900000D03*
%TD*%
D31*
%TO.C,J6*%
X202700000Y-24500000D03*
%TD*%
D33*
%TO.C,TP12*%
X91432500Y-42624999D03*
%TD*%
D32*
%TO.C,C1*%
X153920000Y-77400000D03*
X153920000Y-78950000D03*
%TD*%
D54*
%TO.C,U4*%
X212830000Y-73225000D03*
X212830000Y-74525000D03*
X214770000Y-73875000D03*
%TD*%
D31*
%TO.C,J12*%
X206100000Y-48000000D03*
%TD*%
D13*
%TO.C,C17*%
X161625000Y-28800000D03*
X163175000Y-28800000D03*
%TD*%
D54*
%TO.C,U2*%
X212900000Y-69700000D03*
X212900000Y-71000000D03*
X214840000Y-70350000D03*
%TD*%
D31*
%TO.C,TP2*%
X201800000Y-39100000D03*
%TD*%
D32*
%TO.C,C14*%
X151920000Y-77400000D03*
X151920000Y-78950000D03*
%TD*%
D55*
%TO.C,IC1*%
X113987500Y-55299999D03*
X114487500Y-55299999D03*
X114987500Y-55299999D03*
X115487500Y-55299999D03*
X115987500Y-55299999D03*
X116487500Y-55299999D03*
X116987500Y-55299999D03*
X117487500Y-55299999D03*
X117987500Y-55299999D03*
D56*
X118825000Y-54462499D03*
X118825000Y-53962499D03*
X118825000Y-53462499D03*
X118825000Y-52962499D03*
X118825000Y-52462499D03*
X118825000Y-51962499D03*
X118825000Y-51462499D03*
X118825000Y-50962499D03*
X118825000Y-50462499D03*
D55*
X117987500Y-49624999D03*
X117487500Y-49624999D03*
X116987500Y-49624999D03*
X116487500Y-49624999D03*
X115987500Y-49624999D03*
X115487500Y-49624999D03*
X114987500Y-49624999D03*
X114487500Y-49624999D03*
X113987500Y-49624999D03*
D56*
X113150000Y-50462499D03*
X113150000Y-50962499D03*
X113150000Y-51462499D03*
X113150000Y-51962499D03*
X113150000Y-52462499D03*
X113150000Y-52962499D03*
X113150000Y-53462499D03*
X113150000Y-53962499D03*
X113150000Y-54462499D03*
D57*
X115987500Y-52462499D03*
%TD*%
D58*
%TO.C,U10*%
X140350000Y-45580000D03*
X140350000Y-44310000D03*
X140350000Y-43040000D03*
X140350000Y-41770000D03*
X140350000Y-40500000D03*
X140350000Y-39230000D03*
X140350000Y-37960000D03*
X140350000Y-36690000D03*
X135400000Y-36690000D03*
X135400000Y-37960000D03*
X135400000Y-39230000D03*
X135400000Y-40500000D03*
X135400000Y-41770000D03*
X135400000Y-43040000D03*
X135400000Y-44310000D03*
X135400000Y-45580000D03*
%TD*%
D43*
%TO.C,R17*%
X110857500Y-58687499D03*
X110857500Y-57037499D03*
%TD*%
D59*
%TO.C,U6*%
X204370000Y-60450000D03*
X204370000Y-59150000D03*
X202430000Y-59800000D03*
%TD*%
D33*
%TO.C,TP7*%
X100132500Y-43224999D03*
%TD*%
D31*
%TO.C,J10*%
X205600000Y-42000000D03*
%TD*%
%TO.C,TP4*%
X201800000Y-34300000D03*
%TD*%
D60*
%TO.C,J17*%
X150500000Y-85000000D03*
X155500000Y-85000000D03*
%TD*%
D33*
%TO.C,TP9*%
X96100000Y-42600000D03*
%TD*%
D46*
%TO.C,CR1*%
X92882498Y-41413999D03*
X93382500Y-41413999D03*
D47*
X93882499Y-41413999D03*
D46*
X94382498Y-41413999D03*
X94882500Y-41413999D03*
X94882500Y-40524999D03*
X94382498Y-40524999D03*
D47*
X93882499Y-40524999D03*
D46*
X93382500Y-40524999D03*
X92882498Y-40524999D03*
%TD*%
D31*
%TO.C,J13*%
X202100000Y-50700000D03*
%TD*%
D32*
%TO.C,C12*%
X93987500Y-59725000D03*
X93987500Y-61275000D03*
%TD*%
D37*
%TO.C,J5*%
X242141500Y-63659250D03*
D38*
X242141500Y-66429250D03*
X242141500Y-60889250D03*
%TD*%
D31*
%TO.C,J11*%
X202200000Y-45100000D03*
%TD*%
D28*
%TO.C,J2*%
X126960000Y-23000000D03*
D29*
X126960000Y-25540000D03*
X129500000Y-23000000D03*
X129500000Y-25540000D03*
X132040000Y-23000000D03*
X132040000Y-25540000D03*
X134580000Y-23000000D03*
X134580000Y-25540000D03*
X137120000Y-23000000D03*
X137120000Y-25540000D03*
X139660000Y-23000000D03*
X139660000Y-25540000D03*
X142200000Y-23000000D03*
X142200000Y-25540000D03*
%TD*%
D35*
%TO.C,R10*%
X219700000Y-83575000D03*
X219700000Y-85225000D03*
%TD*%
D61*
%TO.C,SW1*%
X118950000Y-30550000D03*
D62*
X125450000Y-30550000D03*
X118950000Y-35050000D03*
X125450000Y-35050000D03*
%TD*%
D60*
%TO.C,J19*%
X119900000Y-83200000D03*
X124900000Y-83200000D03*
%TD*%
D35*
%TO.C,R5*%
X202570000Y-65725000D03*
X202570000Y-67375000D03*
%TD*%
D63*
%TO.C,CR4*%
X161620000Y-81378600D03*
X161620000Y-77975000D03*
%TD*%
D31*
%TO.C,TP3*%
X211100000Y-27100000D03*
%TD*%
D42*
%TO.C,C5*%
X225610000Y-80000001D03*
X224060000Y-80000001D03*
%TD*%
D60*
%TO.C,J18*%
X183700000Y-84591500D03*
X188700000Y-84591500D03*
%TD*%
D64*
%TO.C,D1*%
X227460000Y-82130000D03*
X227460000Y-83100000D03*
%TD*%
D13*
%TO.C,C15*%
X109387500Y-53862499D03*
X110937500Y-53862499D03*
%TD*%
D54*
%TO.C,U3*%
X204700000Y-65800000D03*
X204700000Y-67100000D03*
X206640000Y-66450000D03*
%TD*%
D65*
%TO.C,J1*%
X165910000Y-82195000D03*
X171690000Y-82195000D03*
D66*
X165600000Y-81120000D03*
X166400000Y-81120000D03*
D67*
X167550000Y-81120000D03*
X168550000Y-81120000D03*
X169050000Y-81120000D03*
X170050000Y-81120000D03*
D66*
X171200000Y-81120000D03*
X172000000Y-81120000D03*
X172000000Y-81120000D03*
X171200000Y-81120000D03*
D67*
X170550000Y-81120000D03*
X169550000Y-81120000D03*
X168050000Y-81120000D03*
X167050000Y-81120000D03*
D66*
X166400000Y-81120000D03*
X165600000Y-81120000D03*
D68*
X164480000Y-81695000D03*
D69*
X164480000Y-85875000D03*
D68*
X173120000Y-81695000D03*
D69*
X173120000Y-85875000D03*
%TD*%
D44*
%TO.C,TP18*%
X88000000Y-64500000D03*
%TD*%
D31*
%TO.C,J8*%
X205300000Y-32500000D03*
%TD*%
D70*
%TO.C,U9*%
X92362500Y-54259999D03*
X91712500Y-54259999D03*
X91062500Y-54259999D03*
X90412500Y-54259999D03*
X89762500Y-54259999D03*
X89112500Y-54259999D03*
X88462500Y-54259999D03*
X87812500Y-54259999D03*
X87812500Y-59999999D03*
X88462500Y-59999999D03*
X89112500Y-59999999D03*
X89762500Y-59999999D03*
X90412500Y-59999999D03*
X91062500Y-59999999D03*
X91712500Y-59999999D03*
X92362500Y-59999999D03*
%TD*%
D33*
%TO.C,TP8*%
X98532500Y-44624999D03*
%TD*%
D50*
%TO.C,R3*%
X208000000Y-44500000D03*
X209650000Y-44500000D03*
%TD*%
D32*
%TO.C,C10*%
X93987500Y-54924999D03*
X93987500Y-56474999D03*
%TD*%
D71*
%TO.C,M1*%
X178900000Y-31560000D03*
X178900000Y-34640000D03*
X178500000Y-31560000D03*
X178500000Y-34640000D03*
X178100000Y-31560000D03*
X178100000Y-34640000D03*
X177700000Y-31560000D03*
X177700000Y-34640000D03*
X177300000Y-31560000D03*
X177300000Y-34640000D03*
X176900000Y-31560000D03*
X176900000Y-34640000D03*
X176500000Y-31560000D03*
X176500000Y-34640000D03*
X176100000Y-31560000D03*
X176100000Y-34640000D03*
X175700000Y-31560000D03*
X175700000Y-34640000D03*
X175300000Y-31560000D03*
X175300000Y-34640000D03*
X174900000Y-31560000D03*
X174900000Y-34640000D03*
X174500000Y-31560000D03*
X174500000Y-34640000D03*
X174100000Y-31560000D03*
X174100000Y-34640000D03*
X173700000Y-31560000D03*
X173700000Y-34640000D03*
X173300000Y-31560000D03*
X173300000Y-34640000D03*
X172900000Y-31560000D03*
X172900000Y-34640000D03*
X172500000Y-31560000D03*
X172500000Y-34640000D03*
X172100000Y-31560000D03*
X172100000Y-34640000D03*
X171700000Y-31560000D03*
X171700000Y-34640000D03*
X171300000Y-31560000D03*
X171300000Y-34640000D03*
X170900000Y-31560000D03*
X170900000Y-34640000D03*
X170500000Y-31560000D03*
X170500000Y-34640000D03*
X170100000Y-31560000D03*
X170100000Y-34640000D03*
X169700000Y-31560000D03*
X169700000Y-34640000D03*
X169300000Y-31560000D03*
X169300000Y-34640000D03*
X168900000Y-31560000D03*
X168900000Y-34640000D03*
X168500000Y-31560000D03*
X168500000Y-34640000D03*
X168100000Y-31560000D03*
X168100000Y-34640000D03*
X167700000Y-31560000D03*
X167700000Y-34640000D03*
X167300000Y-31560000D03*
X167300000Y-34640000D03*
X166900000Y-31560000D03*
X166900000Y-34640000D03*
X166500000Y-31560000D03*
X166500000Y-34640000D03*
X166100000Y-31560000D03*
X166100000Y-34640000D03*
X165700000Y-31560000D03*
X165700000Y-34640000D03*
X165300000Y-31560000D03*
X165300000Y-34640000D03*
X164900000Y-31560000D03*
X164900000Y-34640000D03*
X164500000Y-31560000D03*
X164500000Y-34640000D03*
X164100000Y-31560000D03*
X164100000Y-34640000D03*
X163700000Y-31560000D03*
X163700000Y-34640000D03*
X163300000Y-31560000D03*
X163300000Y-34640000D03*
X162900000Y-31560000D03*
X162900000Y-34640000D03*
X162500000Y-31560000D03*
X162500000Y-34640000D03*
X162100000Y-31560000D03*
X162100000Y-34640000D03*
X161700000Y-31560000D03*
X161700000Y-34640000D03*
X161300000Y-31560000D03*
X161300000Y-34640000D03*
X160900000Y-31560000D03*
X160900000Y-34640000D03*
X160500000Y-31560000D03*
X160500000Y-34640000D03*
X160100000Y-31560000D03*
X160100000Y-34640000D03*
X159700000Y-31560000D03*
X159700000Y-34640000D03*
X159300000Y-31560000D03*
X159300000Y-34640000D03*
X178900000Y-65560000D03*
X178900000Y-68640000D03*
X178500000Y-65560000D03*
X178500000Y-68640000D03*
X178100000Y-65560000D03*
X178100000Y-68640000D03*
X177700000Y-65560000D03*
X177700000Y-68640000D03*
X177300000Y-65560000D03*
X177300000Y-68640000D03*
X176900000Y-65560000D03*
X176900000Y-68640000D03*
X176500000Y-65560000D03*
X176500000Y-68640000D03*
X176100000Y-65560000D03*
X176100000Y-68640000D03*
X175700000Y-65560000D03*
X175700000Y-68640000D03*
X175300000Y-65560000D03*
X175300000Y-68640000D03*
X174900000Y-65560000D03*
X174900000Y-68640000D03*
X174500000Y-65560000D03*
X174500000Y-68640000D03*
X174100000Y-65560000D03*
X174100000Y-68640000D03*
X173700000Y-65560000D03*
X173700000Y-68640000D03*
X173300000Y-65560000D03*
X173300000Y-68640000D03*
X172900000Y-65560000D03*
X172900000Y-68640000D03*
X172500000Y-65560000D03*
X172500000Y-68640000D03*
X172100000Y-65560000D03*
X172100000Y-68640000D03*
X171700000Y-65560000D03*
X171700000Y-68640000D03*
X171300000Y-65560000D03*
X171300000Y-68640000D03*
X170900000Y-65560000D03*
X170900000Y-68640000D03*
X170500000Y-65560000D03*
X170500000Y-68640000D03*
X170100000Y-65560000D03*
X170100000Y-68640000D03*
X169700000Y-65560000D03*
X169700000Y-68640000D03*
X169300000Y-65560000D03*
X169300000Y-68640000D03*
X168900000Y-65560000D03*
X168900000Y-68640000D03*
X168500000Y-65560000D03*
X168500000Y-68640000D03*
X168100000Y-65560000D03*
X168100000Y-68640000D03*
X167700000Y-65560000D03*
X167700000Y-68640000D03*
X167300000Y-65560000D03*
X167300000Y-68640000D03*
X166900000Y-65560000D03*
X166900000Y-68640000D03*
X166500000Y-65560000D03*
X166500000Y-68640000D03*
X166100000Y-65560000D03*
X166100000Y-68640000D03*
X165700000Y-65560000D03*
X165700000Y-68640000D03*
X165300000Y-65560000D03*
X165300000Y-68640000D03*
X164900000Y-65560000D03*
X164900000Y-68640000D03*
X164500000Y-65560000D03*
X164500000Y-68640000D03*
X164100000Y-65560000D03*
X164100000Y-68640000D03*
X163700000Y-65560000D03*
X163700000Y-68640000D03*
X163300000Y-65560000D03*
X163300000Y-68640000D03*
X162900000Y-65560000D03*
X162900000Y-68640000D03*
X162500000Y-65560000D03*
X162500000Y-68640000D03*
X162100000Y-65560000D03*
X162100000Y-68640000D03*
X161700000Y-65560000D03*
X161700000Y-68640000D03*
X161300000Y-65560000D03*
X161300000Y-68640000D03*
X160900000Y-65560000D03*
X160900000Y-68640000D03*
X160500000Y-65560000D03*
X160500000Y-68640000D03*
X160100000Y-65560000D03*
X160100000Y-68640000D03*
X159700000Y-65560000D03*
X159700000Y-68640000D03*
X159300000Y-65560000D03*
X159300000Y-68640000D03*
D72*
X147600000Y-33600000D03*
X195600000Y-33600000D03*
X147600000Y-66600000D03*
X195600000Y-66600000D03*
%TD*%
D44*
%TO.C,TP17*%
X114400000Y-42300000D03*
%TD*%
D26*
%TO.C,R13*%
X204055000Y-62600000D03*
X202405000Y-62600000D03*
%TD*%
D13*
%TO.C,C21*%
X117137500Y-47700000D03*
X118687500Y-47700000D03*
%TD*%
D44*
%TO.C,TP19*%
X125200000Y-43500000D03*
%TD*%
D73*
%TO.C,CR3*%
X226504500Y-86900001D03*
X226504500Y-86399999D03*
D74*
X226504500Y-85900000D03*
D73*
X226504500Y-85400001D03*
X226504500Y-84899999D03*
X225615500Y-84899999D03*
X225615500Y-85400001D03*
D74*
X225615500Y-85900000D03*
D73*
X225615500Y-86399999D03*
X225615500Y-86900001D03*
%TD*%
D75*
%TO.C,D7*%
X227315000Y-58300000D03*
X228285000Y-58300000D03*
%TD*%
D76*
%TO.C,U11*%
X149720000Y-77655000D03*
X149070000Y-77655000D03*
X148420000Y-77655000D03*
X148420000Y-79575000D03*
X149070000Y-79575000D03*
X149720000Y-79575000D03*
%TD*%
D44*
%TO.C,TP15*%
X83600000Y-62300000D03*
%TD*%
D59*
%TO.C,U5*%
X220070000Y-80950000D03*
X220070000Y-79650000D03*
X218130000Y-80300000D03*
%TD*%
D13*
%TO.C,C20*%
X121825000Y-77908500D03*
X123375000Y-77908500D03*
%TD*%
M02*
