%TF.GenerationSoftware,KiCad,Pcbnew,9.0.2*%
%TF.CreationDate,2026-02-23T14:19:40+01:00*%
%TF.ProjectId,audiograb,61756469-6f67-4726-9162-2e6b69636164,0*%
%TF.SameCoordinates,Original*%
%TF.FileFunction,Copper,L2,Inr*%
%TF.FilePolarity,Positive*%
%FSLAX46Y46*%
G04 Gerber Fmt 4.6, Leading zero omitted, Abs format (unit mm)*
G04 Created by KiCad (PCBNEW 9.0.2) date 2026-02-23 14:19:40*
%MOMM*%
%LPD*%
G01*
G04 APERTURE LIST*
%TA.AperFunction,ComponentPad*%
%ADD10R,1.700000X1.700000*%
%TD*%
%TA.AperFunction,ComponentPad*%
%ADD11C,1.700000*%
%TD*%
%TA.AperFunction,ComponentPad*%
%ADD12C,2.000000*%
%TD*%
%TA.AperFunction,ComponentPad*%
%ADD13C,3.000000*%
%TD*%
%TA.AperFunction,HeatsinkPad*%
%ADD14C,0.500000*%
%TD*%
%TA.AperFunction,ComponentPad*%
%ADD15C,1.950000*%
%TD*%
%TA.AperFunction,ComponentPad*%
%ADD16R,1.498000X1.498000*%
%TD*%
%TA.AperFunction,ComponentPad*%
%ADD17C,1.498000*%
%TD*%
%TA.AperFunction,HeatsinkPad*%
%ADD18O,1.000000X2.100000*%
%TD*%
%TA.AperFunction,HeatsinkPad*%
%ADD19O,1.000000X1.800000*%
%TD*%
%TA.AperFunction,ComponentPad*%
%ADD20C,5.800000*%
%TD*%
%TA.AperFunction,ViaPad*%
%ADD21C,0.600000*%
%TD*%
%TA.AperFunction,ViaPad*%
%ADD22C,0.500000*%
%TD*%
%TA.AperFunction,Conductor*%
%ADD23C,0.500000*%
%TD*%
%TA.AperFunction,Conductor*%
%ADD24C,0.400000*%
%TD*%
G04 APERTURE END LIST*
D10*
%TO.N,+3V3*%
%TO.C,J3*%
X149760000Y-22860000D03*
D11*
%TO.N,+5V*%
X149760000Y-25400000D03*
%TO.N,/compute-module/GPIO2*%
X152300000Y-22860000D03*
%TO.N,+5V*%
X152300000Y-25400000D03*
%TO.N,unconnected-(J3-Pin_5-Pad5)*%
X154840000Y-22860000D03*
%TO.N,GND*%
X154840000Y-25400000D03*
%TO.N,unconnected-(J3-Pin_7-Pad7)*%
X157380000Y-22860000D03*
%TO.N,unconnected-(J3-Pin_8-Pad8)*%
X157380000Y-25400000D03*
%TO.N,GND*%
X159920000Y-22860000D03*
%TO.N,unconnected-(J3-Pin_10-Pad10)*%
X159920000Y-25400000D03*
%TO.N,/compute-module/GPIO17*%
X162460000Y-22860000D03*
%TO.N,unconnected-(J3-Pin_12-Pad12)*%
X162460000Y-25400000D03*
%TO.N,unconnected-(J3-Pin_13-Pad13)*%
X165000000Y-22860000D03*
%TO.N,GND*%
X165000000Y-25400000D03*
%TO.N,unconnected-(J3-Pin_15-Pad15)*%
X167540000Y-22860000D03*
%TO.N,unconnected-(J3-Pin_16-Pad16)*%
X167540000Y-25400000D03*
%TO.N,+3V3*%
X170080000Y-22860000D03*
%TO.N,unconnected-(J3-Pin_18-Pad18)*%
X170080000Y-25400000D03*
%TO.N,unconnected-(J3-Pin_19-Pad19)*%
X172620000Y-22860000D03*
%TO.N,GND*%
X172620000Y-25400000D03*
%TO.N,unconnected-(J3-Pin_21-Pad21)*%
X175160000Y-22860000D03*
%TO.N,unconnected-(J3-Pin_22-Pad22)*%
X175160000Y-25400000D03*
%TO.N,/compute-module/GPIO11*%
X177700000Y-22860000D03*
%TO.N,unconnected-(J3-Pin_24-Pad24)*%
X177700000Y-25400000D03*
%TO.N,GND*%
X180240000Y-22860000D03*
%TO.N,unconnected-(J3-Pin_26-Pad26)*%
X180240000Y-25400000D03*
%TO.N,/compute-module/ID_SD*%
X182780000Y-22860000D03*
%TO.N,/compute-module/ID_SC*%
X182780000Y-25400000D03*
%TO.N,+1V8_CM5*%
X185320000Y-22860000D03*
%TO.N,GND*%
X185320000Y-25400000D03*
%TO.N,+3V3_CM5*%
X187860000Y-22860000D03*
%TO.N,unconnected-(J3-Pin_32-Pad32)*%
X187860000Y-25400000D03*
%TO.N,unconnected-(J3-Pin_33-Pad33)*%
X190400000Y-22860000D03*
%TO.N,GND*%
X190400000Y-25400000D03*
%TO.N,/compute-module/GPIO19*%
X192940000Y-22860000D03*
%TO.N,unconnected-(J3-Pin_36-Pad36)*%
X192940000Y-25400000D03*
%TO.N,/compute-module/GPIO26*%
X195480000Y-22860000D03*
%TO.N,unconnected-(J3-Pin_38-Pad38)*%
X195480000Y-25400000D03*
%TO.N,GND*%
X198020000Y-22860000D03*
%TO.N,unconnected-(J3-Pin_40-Pad40)*%
X198020000Y-25400000D03*
%TD*%
D12*
%TO.N,Net-(U1A-J2)*%
%TO.C,J7*%
X205900000Y-27600000D03*
%TD*%
%TO.N,Net-(U1A-J4)*%
%TO.C,J9*%
X205800000Y-37400000D03*
%TD*%
%TO.N,Net-(U1A-UART1_TX)*%
%TO.C,TP1*%
X202100000Y-30200000D03*
%TD*%
D13*
%TO.N,/SD2*%
%TO.C,TP14*%
X98800000Y-61400000D03*
%TD*%
D12*
%TO.N,Net-(U1A-J9)*%
%TO.C,J14*%
X206200000Y-53000000D03*
%TD*%
D13*
%TO.N,/SD5*%
%TO.C,TP16*%
X82500000Y-67500000D03*
%TD*%
%TO.N,Net-(J16-VDD)*%
%TO.C,TP13*%
X107900000Y-31900000D03*
%TD*%
D12*
%TO.N,Net-(U1A-J1)*%
%TO.C,J6*%
X202700000Y-24500000D03*
%TD*%
%TO.N,Net-(U1A-J7)*%
%TO.C,J12*%
X206100000Y-48000000D03*
%TD*%
%TO.N,Net-(U1A-UART1_DTR)*%
%TO.C,TP2*%
X201800000Y-39100000D03*
%TD*%
D14*
%TO.N,GND*%
%TO.C,IC1*%
X114987500Y-53462499D03*
X115987500Y-53462499D03*
X116987500Y-53462499D03*
X114987500Y-52462499D03*
X115987500Y-52462499D03*
X116987500Y-52462499D03*
X114987500Y-51462499D03*
X115987500Y-51462499D03*
X116987500Y-51462499D03*
%TD*%
D12*
%TO.N,Net-(U1A-J5)*%
%TO.C,J10*%
X205600000Y-42000000D03*
%TD*%
%TO.N,Net-(U1A-UART1_RX)*%
%TO.C,TP4*%
X201800000Y-34300000D03*
%TD*%
D15*
%TO.N,Net-(U11-VOUT)*%
%TO.C,J17*%
X150500000Y-85000000D03*
%TO.N,GND*%
X155500000Y-85000000D03*
%TD*%
D12*
%TO.N,Net-(U1A-J8)*%
%TO.C,J13*%
X202100000Y-50700000D03*
%TD*%
%TO.N,Net-(U1A-J6)*%
%TO.C,J11*%
X202200000Y-45100000D03*
%TD*%
D10*
%TO.N,GND*%
%TO.C,J2*%
X126960000Y-23000000D03*
D11*
%TO.N,/compute-module/nRPIBOOT*%
X126960000Y-25540000D03*
%TO.N,GND*%
X129500000Y-23000000D03*
%TO.N,/compute-module/EEPROM_nWP*%
X129500000Y-25540000D03*
%TO.N,GND*%
X132040000Y-23000000D03*
%TO.N,/compute-module/SYNC_OUT*%
X132040000Y-25540000D03*
%TO.N,GND*%
X134580000Y-23000000D03*
%TO.N,unconnected-(J2-Pin_8-Pad8)*%
X134580000Y-25540000D03*
%TO.N,GND*%
X137120000Y-23000000D03*
%TO.N,/compute-module/USB_OTG_ID*%
X137120000Y-25540000D03*
%TO.N,GND*%
X139660000Y-23000000D03*
%TO.N,/compute-module/PMIC_ENABLE*%
X139660000Y-25540000D03*
%TO.N,GND*%
X142200000Y-23000000D03*
%TO.N,/compute-module/PWR_BUT*%
X142200000Y-25540000D03*
%TD*%
D16*
%TO.N,/compute-module/PWR_BUT*%
%TO.C,SW1*%
X118950000Y-30550000D03*
D17*
X125450000Y-30550000D03*
%TO.N,GND*%
X118950000Y-35050000D03*
X125450000Y-35050000D03*
%TD*%
D15*
%TO.N,+3V3*%
%TO.C,J19*%
X119900000Y-83200000D03*
%TO.N,GND*%
X124900000Y-83200000D03*
%TD*%
D12*
%TO.N,Net-(U1A-UART1_RTS)*%
%TO.C,TP3*%
X211100000Y-27100000D03*
%TD*%
D15*
%TO.N,VBAT_BB*%
%TO.C,J18*%
X183700000Y-84591500D03*
%TO.N,GND*%
X188700000Y-84591500D03*
%TD*%
D18*
%TO.N,GND*%
%TO.C,J1*%
X164480000Y-81695000D03*
D19*
X164480000Y-85875000D03*
D18*
X173120000Y-81695000D03*
D19*
X173120000Y-85875000D03*
%TD*%
D13*
%TO.N,/SD7*%
%TO.C,TP18*%
X88000000Y-64500000D03*
%TD*%
D12*
%TO.N,Net-(U1A-J3)*%
%TO.C,J8*%
X205300000Y-32500000D03*
%TD*%
D20*
%TO.N,N/C*%
%TO.C,M1*%
X147600000Y-33600000D03*
X195600000Y-33600000D03*
X147600000Y-66600000D03*
X195600000Y-66600000D03*
%TD*%
D13*
%TO.N,Net-(U10-Q4)*%
%TO.C,TP17*%
X114400000Y-42300000D03*
%TD*%
%TO.N,Net-(U10-Q3)*%
%TO.C,TP19*%
X125200000Y-43500000D03*
%TD*%
%TO.N,/SD3*%
%TO.C,TP15*%
X83600000Y-62300000D03*
%TD*%
D21*
%TO.N,GND*%
X89487500Y-52099999D03*
X236260000Y-81160000D03*
X88487500Y-52099999D03*
X90487500Y-52099999D03*
%TO.N,/compute-module/VBAT*%
X163200000Y-33600000D03*
X122000000Y-67500000D03*
%TO.N,VBAT_BB*%
X222165057Y-33838017D03*
X215686120Y-50686120D03*
X216500000Y-49500000D03*
X222602799Y-34384264D03*
X181475000Y-79625000D03*
X216500000Y-50100000D03*
X221489647Y-34354106D03*
%TO.N,/modem/UIM_VCC*%
X224000000Y-52700000D03*
X239660000Y-81260000D03*
X216700000Y-83300000D03*
X227660000Y-77700001D03*
%TO.N,+1V8_CM5*%
X159600000Y-38900000D03*
X94000000Y-53700000D03*
%TO.N,+3V3_CM5*%
X186500000Y-36000000D03*
X163225000Y-38400000D03*
X123137500Y-51462499D03*
X113937500Y-57262499D03*
X118312500Y-57887499D03*
X115900000Y-47500000D03*
%TO.N,+5V*%
X164117584Y-77882416D03*
X154000000Y-75495000D03*
X160500000Y-28800000D03*
X166500000Y-77500000D03*
%TO.N,Net-(IC1-VDD18PLL)*%
X110937500Y-55062499D03*
%TO.N,Net-(J16-CD{slash}DAT3)*%
X93382500Y-44424999D03*
X96887500Y-52499999D03*
%TO.N,Net-(J16-CLK)*%
X94887500Y-42499999D03*
X96587500Y-45899999D03*
%TO.N,Net-(J16-DAT2)*%
X98000000Y-52400000D03*
X92882498Y-42824999D03*
%TO.N,Net-(J16-CMD)*%
X96887500Y-51799999D03*
X93987500Y-47199999D03*
%TO.N,Net-(J16-DAT1)*%
X97032500Y-43624999D03*
X98987500Y-42799999D03*
%TO.N,/modem/UIM_RESET_N*%
X239660000Y-83700000D03*
X227660000Y-84900000D03*
X223860000Y-85400000D03*
X226737500Y-52862500D03*
%TO.N,/modem/UIM_DATA*%
X216100000Y-85000000D03*
X236460000Y-86240000D03*
X225900000Y-52800000D03*
X230460000Y-87700000D03*
%TO.N,/modem/UIM_CLK*%
X239860000Y-86140000D03*
X230460000Y-86700000D03*
X223513945Y-86353945D03*
X225000000Y-52800000D03*
%TO.N,+3V3*%
X135580000Y-34310000D03*
X110500000Y-24000000D03*
X205500000Y-62500000D03*
X95500000Y-54000000D03*
X121500000Y-76500000D03*
X217100000Y-65900000D03*
X95300000Y-59974999D03*
%TO.N,/USB3-0-D_N*%
X124600000Y-71153390D03*
X115187503Y-61500000D03*
%TO.N,/compute-module/PWR_BUT*%
X154500000Y-29000000D03*
X139850000Y-28550000D03*
%TO.N,/USB3-0-D_P*%
X124000000Y-71700000D03*
X114487500Y-61500000D03*
%TO.N,/compute-module/EEPROM_nWP*%
X175500000Y-27500000D03*
X175900000Y-35600000D03*
%TO.N,/compute-module/nRPIBOOT*%
X157000000Y-27600000D03*
%TO.N,/compute-module/GPIO19*%
X183100000Y-32700000D03*
%TO.N,/compute-module/GPIO2*%
X167800000Y-33400000D03*
%TO.N,/compute-module/GPIO17*%
X169000000Y-33500000D03*
%TO.N,/compute-module/GPIO26*%
X182600000Y-33800000D03*
%TO.N,/compute-module/GPIO11*%
X181000000Y-31400000D03*
D22*
%TO.N,Net-(U1A-J1)*%
X215600000Y-36400000D03*
%TO.N,Net-(U1A-J2)*%
X215320000Y-37700000D03*
%TO.N,Net-(U1A-J3)*%
X215420000Y-39000000D03*
%TO.N,Net-(U1A-J4)*%
X215300000Y-40100000D03*
%TO.N,Net-(U1A-J5)*%
X215400000Y-41300000D03*
%TO.N,Net-(U1A-J6)*%
X215400000Y-42500000D03*
D21*
%TO.N,Net-(U1A-J7)*%
X215320000Y-43700000D03*
%TO.N,Net-(U1A-J8)*%
X215320000Y-44900000D03*
%TO.N,Net-(U1A-J9)*%
X215287499Y-45998840D03*
%TO.N,/sd-interface/SD3*%
X89987500Y-50499999D03*
X89987500Y-52699999D03*
%TO.N,/sd-interface/SD7*%
X88182500Y-48274999D03*
X87987500Y-52699999D03*
%TO.N,/sd-interface/SD2*%
X90987500Y-52699999D03*
X90987500Y-51099999D03*
%TO.N,/sd-interface/SD5*%
X88987500Y-49799999D03*
X88987500Y-52699999D03*
%TO.N,/modem/1V8_WAKE*%
X211000000Y-44000000D03*
X216600000Y-43600000D03*
%TO.N,/CC2*%
X160000000Y-42500000D03*
X171100000Y-75200000D03*
%TO.N,/CC1*%
X166810000Y-75195000D03*
X159000000Y-41500000D03*
%TO.N,/compute-module/USB_OTG_ID*%
X161000000Y-43500000D03*
X165500000Y-66500000D03*
%TO.N,/modem/1V8_TX_ON*%
X223675000Y-34200000D03*
X212000000Y-59700000D03*
%TO.N,Net-(U10-Q3)*%
X102100000Y-55100000D03*
X132125000Y-39510000D03*
D22*
%TO.N,Net-(U1A-UART1_TX)*%
X216500000Y-39000000D03*
%TO.N,Net-(U1A-UART1_DTR)*%
X216500000Y-42500000D03*
%TO.N,Net-(U1A-UART1_RTS)*%
X216500000Y-37500000D03*
%TO.N,Net-(U1A-UART1_RX)*%
X216500000Y-40000000D03*
D21*
%TO.N,Net-(U1A-SYS_CLK)*%
X220000000Y-53000000D03*
%TO.N,Net-(U1A-SLEEP_CLK)*%
X221000000Y-53000000D03*
%TO.N,Net-(U10-Q4)*%
X133500000Y-31100000D03*
X143600000Y-44100000D03*
%TO.N,/SD_SWITCH_DISABLE*%
X133500000Y-40900000D03*
X138130000Y-41770000D03*
X166800000Y-29600000D03*
X151900000Y-41770000D03*
%TO.N,/modem/UIM_SIM_DET*%
X210200000Y-77800000D03*
X219575000Y-34100000D03*
%TO.N,/SD_SWITCH_ENABLE*%
X145100000Y-43040000D03*
X138700000Y-42500000D03*
X164321268Y-27800000D03*
X133500000Y-39600000D03*
%TO.N,/modem/1V8_RESET_IN_N*%
X216600000Y-44900000D03*
X207600000Y-63500000D03*
%TO.N,/modem/1V8_POWER_ON_N*%
X217800000Y-70300000D03*
X226500000Y-34200000D03*
%TO.N,/modem/1V8_BOOT_MODE*%
X232475000Y-40100000D03*
X219600000Y-73775000D03*
%TO.N,/sd-interface/SD-pin7*%
X116187500Y-57062499D03*
X103800000Y-49074999D03*
%TO.N,/sd-interface/SD-pin5*%
X102778750Y-49341249D03*
X118587500Y-56662499D03*
%TO.N,/sd-interface/SD-pin8*%
X104882500Y-47757499D03*
X115587500Y-56662499D03*
%TO.N,/sd-interface/SD-pin3*%
X120237500Y-55162499D03*
X101157500Y-49562499D03*
%TO.N,/EXT_5V_ENABLE*%
X155000000Y-41000000D03*
X166200000Y-30600000D03*
%TO.N,/SD7*%
X175600000Y-41600000D03*
X173500000Y-33200000D03*
%TO.N,/USB3-1-D_P*%
X167200000Y-64600000D03*
X216575000Y-47300000D03*
%TO.N,Net-(U10-Q2)*%
X147300000Y-75500000D03*
X134500000Y-50500000D03*
%TO.N,/MODEM_TX_ON*%
X200500000Y-59500000D03*
X209500000Y-67000000D03*
%TO.N,/USB3-1-D_N*%
X216575000Y-46000000D03*
X166600000Y-64000000D03*
%TO.N,/SD5*%
X166800000Y-33200000D03*
X172300000Y-42500000D03*
%TO.N,/SD3*%
X171400000Y-39000000D03*
X168300000Y-32700000D03*
%TO.N,/SD2*%
X174100000Y-32500000D03*
X170800000Y-36000000D03*
%TO.N,/SD_SET_HOST*%
X157000000Y-35500000D03*
X164300000Y-28800000D03*
%TO.N,/EXT_5V_DISABLE*%
X156300000Y-41000000D03*
X167300000Y-30600000D03*
%TO.N,/SD_RESET_HOST*%
X164500000Y-29500000D03*
X144600000Y-46600000D03*
%TO.N,Net-(D1-A2)*%
X226560000Y-83600000D03*
X223235000Y-83675000D03*
%TO.N,Net-(U10-Q1)*%
X113112500Y-31087500D03*
X142500000Y-43900000D03*
%TD*%
D23*
%TO.N,VBAT_BB*%
X216500000Y-50579346D02*
X216500000Y-50100000D01*
D24*
%TO.N,+3V3_CM5*%
X118425001Y-58000000D02*
X118312500Y-57887499D01*
%TD*%
M02*
