%TF.GenerationSoftware,KiCad,Pcbnew,9.0.2*%
%TF.CreationDate,2026-02-23T14:19:41+01:00*%
%TF.ProjectId,audiograb,61756469-6f67-4726-9162-2e6b69636164,0*%
%TF.SameCoordinates,Original*%
%TF.FileFunction,Soldermask,Bot*%
%TF.FilePolarity,Negative*%
%FSLAX46Y46*%
G04 Gerber Fmt 4.6, Leading zero omitted, Abs format (unit mm)*
G04 Created by KiCad (PCBNEW 9.0.2) date 2026-02-23 14:19:41*
%MOMM*%
%LPD*%
G01*
G04 APERTURE LIST*
G04 Aperture macros list*
%AMRoundRect*
0 Rectangle with rounded corners*
0 $1 Rounding radius*
0 $2 $3 $4 $5 $6 $7 $8 $9 X,Y pos of 4 corners*
0 Add a 4 corners polygon primitive as box body*
4,1,4,$2,$3,$4,$5,$6,$7,$8,$9,$2,$3,0*
0 Add four circle primitives for the rounded corners*
1,1,$1+$1,$2,$3*
1,1,$1+$1,$4,$5*
1,1,$1+$1,$6,$7*
1,1,$1+$1,$8,$9*
0 Add four rect primitives between the rounded corners*
20,1,$1+$1,$2,$3,$4,$5,0*
20,1,$1+$1,$4,$5,$6,$7,0*
20,1,$1+$1,$6,$7,$8,$9,0*
20,1,$1+$1,$8,$9,$2,$3,0*%
G04 Aperture macros list end*
%ADD10R,1.700000X1.700000*%
%ADD11C,1.700000*%
%ADD12C,2.000000*%
%ADD13RoundRect,0.102000X2.280000X-0.500000X2.280000X0.500000X-2.280000X0.500000X-2.280000X-0.500000X0*%
%ADD14C,0.950000*%
%ADD15C,3.000000*%
%ADD16C,2.154000*%
%ADD17RoundRect,0.102000X-0.749000X-0.749000X0.749000X-0.749000X0.749000X0.749000X-0.749000X0.749000X0*%
%ADD18C,1.702000*%
%ADD19C,0.650000*%
%ADD20O,1.000000X2.100000*%
%ADD21O,1.000000X1.800000*%
%ADD22C,6.004000*%
%ADD23C,1.500000*%
G04 APERTURE END LIST*
D10*
%TO.C,J3*%
X149760000Y-22860000D03*
D11*
X149760000Y-25400000D03*
X152300000Y-22860000D03*
X152300000Y-25400000D03*
X154840000Y-22860000D03*
X154840000Y-25400000D03*
X157380000Y-22860000D03*
X157380000Y-25400000D03*
X159920000Y-22860000D03*
X159920000Y-25400000D03*
X162460000Y-22860000D03*
X162460000Y-25400000D03*
X165000000Y-22860000D03*
X165000000Y-25400000D03*
X167540000Y-22860000D03*
X167540000Y-25400000D03*
X170080000Y-22860000D03*
X170080000Y-25400000D03*
X172620000Y-22860000D03*
X172620000Y-25400000D03*
X175160000Y-22860000D03*
X175160000Y-25400000D03*
X177700000Y-22860000D03*
X177700000Y-25400000D03*
X180240000Y-22860000D03*
X180240000Y-25400000D03*
X182780000Y-22860000D03*
X182780000Y-25400000D03*
X185320000Y-22860000D03*
X185320000Y-25400000D03*
X187860000Y-22860000D03*
X187860000Y-25400000D03*
X190400000Y-22860000D03*
X190400000Y-25400000D03*
X192940000Y-22860000D03*
X192940000Y-25400000D03*
X195480000Y-22860000D03*
X195480000Y-25400000D03*
X198020000Y-22860000D03*
X198020000Y-25400000D03*
%TD*%
D12*
%TO.C,J7*%
X205900000Y-27600000D03*
%TD*%
%TO.C,J9*%
X205800000Y-37400000D03*
%TD*%
D13*
%TO.C,J4*%
X242341500Y-40929250D03*
X242341500Y-35389250D03*
%TD*%
D14*
%TO.C,J16*%
X97862500Y-25379999D03*
X91062500Y-25379999D03*
%TD*%
D12*
%TO.C,TP1*%
X202100000Y-30200000D03*
%TD*%
D15*
%TO.C,TP14*%
X98800000Y-61400000D03*
%TD*%
D12*
%TO.C,J14*%
X206200000Y-53000000D03*
%TD*%
D15*
%TO.C,TP16*%
X82500000Y-67500000D03*
%TD*%
%TO.C,TP13*%
X107900000Y-31900000D03*
%TD*%
D12*
%TO.C,J6*%
X202700000Y-24500000D03*
%TD*%
%TO.C,J12*%
X206100000Y-48000000D03*
%TD*%
%TO.C,TP2*%
X201800000Y-39100000D03*
%TD*%
%TO.C,J10*%
X205600000Y-42000000D03*
%TD*%
%TO.C,TP4*%
X201800000Y-34300000D03*
%TD*%
D16*
%TO.C,J17*%
X150500000Y-85000000D03*
X155500000Y-85000000D03*
%TD*%
D12*
%TO.C,J13*%
X202100000Y-50700000D03*
%TD*%
D13*
%TO.C,J5*%
X242141500Y-66429250D03*
X242141500Y-60889250D03*
%TD*%
D12*
%TO.C,J11*%
X202200000Y-45100000D03*
%TD*%
D10*
%TO.C,J2*%
X126960000Y-23000000D03*
D11*
X126960000Y-25540000D03*
X129500000Y-23000000D03*
X129500000Y-25540000D03*
X132040000Y-23000000D03*
X132040000Y-25540000D03*
X134580000Y-23000000D03*
X134580000Y-25540000D03*
X137120000Y-23000000D03*
X137120000Y-25540000D03*
X139660000Y-23000000D03*
X139660000Y-25540000D03*
X142200000Y-23000000D03*
X142200000Y-25540000D03*
%TD*%
D17*
%TO.C,SW1*%
X118950000Y-30550000D03*
D18*
X125450000Y-30550000D03*
X118950000Y-35050000D03*
X125450000Y-35050000D03*
%TD*%
D16*
%TO.C,J19*%
X119900000Y-83200000D03*
X124900000Y-83200000D03*
%TD*%
D12*
%TO.C,TP3*%
X211100000Y-27100000D03*
%TD*%
D16*
%TO.C,J18*%
X183700000Y-84591500D03*
X188700000Y-84591500D03*
%TD*%
D19*
%TO.C,J1*%
X165910000Y-82195000D03*
X171690000Y-82195000D03*
D20*
X164480000Y-81695000D03*
D21*
X164480000Y-85875000D03*
D20*
X173120000Y-81695000D03*
D21*
X173120000Y-85875000D03*
%TD*%
D15*
%TO.C,TP18*%
X88000000Y-64500000D03*
%TD*%
D12*
%TO.C,J8*%
X205300000Y-32500000D03*
%TD*%
D22*
%TO.C,M1*%
X147600000Y-33600000D03*
X195600000Y-33600000D03*
X147600000Y-66600000D03*
X195600000Y-66600000D03*
%TD*%
D15*
%TO.C,TP17*%
X114400000Y-42300000D03*
%TD*%
%TO.C,TP19*%
X125200000Y-43500000D03*
%TD*%
%TO.C,TP15*%
X83600000Y-62300000D03*
%TD*%
D23*
%TO.C,TP5*%
X214000000Y-24000000D03*
%TD*%
%TO.C,TP6*%
X217500000Y-24000000D03*
%TD*%
M02*
