%TF.GenerationSoftware,KiCad,Pcbnew,9.0.2*%
%TF.CreationDate,2026-02-23T14:19:40+01:00*%
%TF.ProjectId,audiograb,61756469-6f67-4726-9162-2e6b69636164,0*%
%TF.SameCoordinates,Original*%
%TF.FileFunction,Paste,Top*%
%TF.FilePolarity,Positive*%
%FSLAX46Y46*%
G04 Gerber Fmt 4.6, Leading zero omitted, Abs format (unit mm)*
G04 Created by KiCad (PCBNEW 9.0.2) date 2026-02-23 14:19:40*
%MOMM*%
%LPD*%
G01*
G04 APERTURE LIST*
G04 Aperture macros list*
%AMRoundRect*
0 Rectangle with rounded corners*
0 $1 Rounding radius*
0 $2 $3 $4 $5 $6 $7 $8 $9 X,Y pos of 4 corners*
0 Add a 4 corners polygon primitive as box body*
4,1,4,$2,$3,$4,$5,$6,$7,$8,$9,$2,$3,0*
0 Add four circle primitives for the rounded corners*
1,1,$1+$1,$2,$3*
1,1,$1+$1,$4,$5*
1,1,$1+$1,$6,$7*
1,1,$1+$1,$8,$9*
0 Add four rect primitives between the rounded corners*
20,1,$1+$1,$2,$3,$4,$5,0*
20,1,$1+$1,$4,$5,$6,$7,0*
20,1,$1+$1,$6,$7,$8,$9,0*
20,1,$1+$1,$8,$9,$2,$3,0*%
G04 Aperture macros list end*
%ADD10C,0.010000*%
%ADD11C,0.360000*%
%ADD12RoundRect,0.225000X-0.225000X-0.250000X0.225000X-0.250000X0.225000X0.250000X-0.225000X0.250000X0*%
%ADD13RoundRect,0.006600X-0.103400X0.373400X-0.103400X-0.373400X0.103400X-0.373400X0.103400X0.373400X0*%
%ADD14RoundRect,0.006600X-0.373400X0.103400X-0.373400X-0.103400X0.373400X-0.103400X0.373400X0.103400X0*%
%ADD15R,0.700000X0.900000*%
%ADD16R,0.700000X0.700000*%
%ADD17R,0.650000X1.200000*%
%ADD18R,2.900000X0.450000*%
%ADD19R,1.900000X0.450000*%
%ADD20R,0.700000X0.750000*%
%ADD21R,0.500000X1.400000*%
%ADD22R,2.400000X0.450000*%
%ADD23R,0.600000X0.600000*%
%ADD24RoundRect,0.200000X0.200000X0.275000X-0.200000X0.275000X-0.200000X-0.275000X0.200000X-0.275000X0*%
%ADD25R,0.900000X0.800000*%
%ADD26R,0.800000X0.800000*%
%ADD27RoundRect,0.225000X-0.250000X0.225000X-0.250000X-0.225000X0.250000X-0.225000X0.250000X0.225000X0*%
%ADD28RoundRect,0.225000X0.250000X-0.225000X0.250000X0.225000X-0.250000X0.225000X-0.250000X-0.225000X0*%
%ADD29RoundRect,0.200000X-0.275000X0.200000X-0.275000X-0.200000X0.275000X-0.200000X0.275000X0.200000X0*%
%ADD30RoundRect,0.062500X0.547500X0.187500X-0.547500X0.187500X-0.547500X-0.187500X0.547500X-0.187500X0*%
%ADD31R,4.560000X0.850000*%
%ADD32R,4.560000X1.000000*%
%ADD33R,0.620000X1.400000*%
%ADD34R,1.100000X2.400000*%
%ADD35RoundRect,0.225000X0.225000X0.250000X-0.225000X0.250000X-0.225000X-0.250000X0.225000X-0.250000X0*%
%ADD36RoundRect,0.200000X0.275000X-0.200000X0.275000X0.200000X-0.275000X0.200000X-0.275000X-0.200000X0*%
%ADD37R,1.100000X0.300000*%
%ADD38R,0.203200X0.711200*%
%ADD39R,0.406400X0.711200*%
%ADD40RoundRect,0.147500X0.172500X-0.147500X0.172500X0.147500X-0.172500X0.147500X-0.172500X-0.147500X0*%
%ADD41RoundRect,0.062500X-0.187500X0.432500X-0.187500X-0.432500X0.187500X-0.432500X0.187500X0.432500X0*%
%ADD42RoundRect,0.200000X-0.200000X-0.275000X0.200000X-0.275000X0.200000X0.275000X-0.200000X0.275000X0*%
%ADD43R,1.270000X5.080000*%
%ADD44RoundRect,0.062500X-0.432500X-0.187500X0.432500X-0.187500X0.432500X0.187500X-0.432500X0.187500X0*%
%ADD45RoundRect,0.250000X0.300000X-0.300000X0.300000X0.300000X-0.300000X0.300000X-0.300000X-0.300000X0*%
%ADD46RoundRect,0.062500X0.062500X-0.475000X0.062500X0.475000X-0.062500X0.475000X-0.062500X-0.475000X0*%
%ADD47RoundRect,0.062500X0.475000X-0.062500X0.475000X0.062500X-0.475000X0.062500X-0.475000X-0.062500X0*%
%ADD48RoundRect,0.075000X0.910000X0.225000X-0.910000X0.225000X-0.910000X-0.225000X0.910000X-0.225000X0*%
%ADD49RoundRect,0.062500X0.432500X0.187500X-0.432500X0.187500X-0.432500X-0.187500X0.432500X-0.187500X0*%
%ADD50R,1.651000X2.184400*%
%ADD51RoundRect,0.147500X-0.172500X0.147500X-0.172500X-0.147500X0.172500X-0.147500X0.172500X0.147500X0*%
%ADD52RoundRect,0.150000X-0.150000X-0.425000X0.150000X-0.425000X0.150000X0.425000X-0.150000X0.425000X0*%
%ADD53RoundRect,0.075000X-0.075000X-0.500000X0.075000X-0.500000X0.075000X0.500000X-0.075000X0.500000X0*%
%ADD54O,1.000000X2.100000*%
%ADD55O,1.000000X1.800000*%
%ADD56RoundRect,0.051250X-0.153750X0.733750X-0.153750X-0.733750X0.153750X-0.733750X0.153750X0.733750X0*%
%ADD57R,0.200000X0.700000*%
%ADD58R,0.711200X0.203200*%
%ADD59R,0.711200X0.406400*%
%ADD60RoundRect,0.147500X-0.147500X-0.172500X0.147500X-0.172500X0.147500X0.172500X-0.147500X0.172500X0*%
%ADD61RoundRect,0.050000X-0.150000X0.545000X-0.150000X-0.545000X0.150000X-0.545000X0.150000X0.545000X0*%
G04 APERTURE END LIST*
D10*
%TO.C,U8*%
X96577500Y-48647499D02*
X95767500Y-48647499D01*
X95767500Y-47837499D01*
X96577500Y-47837499D01*
X96577500Y-48647499D01*
G36*
X96577500Y-48647499D02*
G01*
X95767500Y-48647499D01*
X95767500Y-47837499D01*
X96577500Y-47837499D01*
X96577500Y-48647499D01*
G37*
X96577500Y-49677499D02*
X95767500Y-49677499D01*
X95767500Y-48867499D01*
X96577500Y-48867499D01*
X96577500Y-49677499D01*
G36*
X96577500Y-49677499D02*
G01*
X95767500Y-49677499D01*
X95767500Y-48867499D01*
X96577500Y-48867499D01*
X96577500Y-49677499D01*
G37*
X97607500Y-48647499D02*
X96797500Y-48647499D01*
X96797500Y-47837499D01*
X97607500Y-47837499D01*
X97607500Y-48647499D01*
G36*
X97607500Y-48647499D02*
G01*
X96797500Y-48647499D01*
X96797500Y-47837499D01*
X97607500Y-47837499D01*
X97607500Y-48647499D01*
G37*
X97607500Y-49677499D02*
X96797500Y-49677499D01*
X96797500Y-48867499D01*
X97607500Y-48867499D01*
X97607500Y-49677499D01*
G36*
X97607500Y-49677499D02*
G01*
X96797500Y-49677499D01*
X96797500Y-48867499D01*
X97607500Y-48867499D01*
X97607500Y-49677499D01*
G37*
D11*
%TO.C,U1*%
X216037500Y-37037500D02*
G75*
G02*
X215677500Y-37037500I-180000J0D01*
G01*
X215677500Y-37037500D02*
G75*
G02*
X216037500Y-37037500I180000J0D01*
G01*
X216037500Y-38237500D02*
G75*
G02*
X215677500Y-38237500I-180000J0D01*
G01*
X215677500Y-38237500D02*
G75*
G02*
X216037500Y-38237500I180000J0D01*
G01*
X216037500Y-39437500D02*
G75*
G02*
X215677500Y-39437500I-180000J0D01*
G01*
X215677500Y-39437500D02*
G75*
G02*
X216037500Y-39437500I180000J0D01*
G01*
X216037500Y-40637500D02*
G75*
G02*
X215677500Y-40637500I-180000J0D01*
G01*
X215677500Y-40637500D02*
G75*
G02*
X216037500Y-40637500I180000J0D01*
G01*
X216037500Y-41837500D02*
G75*
G02*
X215677500Y-41837500I-180000J0D01*
G01*
X215677500Y-41837500D02*
G75*
G02*
X216037500Y-41837500I180000J0D01*
G01*
X216037500Y-43037500D02*
G75*
G02*
X215677500Y-43037500I-180000J0D01*
G01*
X215677500Y-43037500D02*
G75*
G02*
X216037500Y-43037500I180000J0D01*
G01*
X216037500Y-44237500D02*
G75*
G02*
X215677500Y-44237500I-180000J0D01*
G01*
X215677500Y-44237500D02*
G75*
G02*
X216037500Y-44237500I180000J0D01*
G01*
X216037500Y-45437500D02*
G75*
G02*
X215677500Y-45437500I-180000J0D01*
G01*
X215677500Y-45437500D02*
G75*
G02*
X216037500Y-45437500I180000J0D01*
G01*
X216037500Y-46637500D02*
G75*
G02*
X215677500Y-46637500I-180000J0D01*
G01*
X215677500Y-46637500D02*
G75*
G02*
X216037500Y-46637500I180000J0D01*
G01*
D10*
X213887500Y-32742500D02*
X213887500Y-32287500D01*
X214342520Y-32287500D01*
X213887500Y-32742500D01*
G36*
X213887500Y-32742500D02*
G01*
X213887500Y-32287500D01*
X214342520Y-32287500D01*
X213887500Y-32742500D01*
G37*
X213887500Y-54142500D02*
X213887500Y-53687500D01*
X214342520Y-53687500D01*
X213887500Y-54142500D01*
G36*
X213887500Y-54142500D02*
G01*
X213887500Y-53687500D01*
X214342520Y-53687500D01*
X213887500Y-54142500D01*
G37*
X214887500Y-33187500D02*
X214432470Y-33187500D01*
X214887500Y-32732500D01*
X214887500Y-33187500D01*
G36*
X214887500Y-33187500D02*
G01*
X214432470Y-33187500D01*
X214887500Y-32732500D01*
X214887500Y-33187500D01*
G37*
X214887500Y-54587500D02*
X214432470Y-54587500D01*
X214887500Y-54132500D01*
X214887500Y-54587500D01*
G36*
X214887500Y-54587500D02*
G01*
X214432470Y-54587500D01*
X214887500Y-54132500D01*
X214887500Y-54587500D01*
G37*
X233787500Y-32742500D02*
X233787500Y-32287500D01*
X234242530Y-32287500D01*
X233787500Y-32742500D01*
G36*
X233787500Y-32742500D02*
G01*
X233787500Y-32287500D01*
X234242530Y-32287500D01*
X233787500Y-32742500D01*
G37*
X233787500Y-54142500D02*
X233787500Y-53687500D01*
X234242530Y-53687500D01*
X233787500Y-54142500D01*
G36*
X233787500Y-54142500D02*
G01*
X233787500Y-53687500D01*
X234242530Y-53687500D01*
X233787500Y-54142500D01*
G37*
X234787500Y-33187500D02*
X234332480Y-33187500D01*
X234787500Y-32732500D01*
X234787500Y-33187500D01*
G36*
X234787500Y-33187500D02*
G01*
X234332480Y-33187500D01*
X234787500Y-32732500D01*
X234787500Y-33187500D01*
G37*
X234787500Y-54587500D02*
X234332480Y-54587500D01*
X234787500Y-54132500D01*
X234787500Y-54587500D01*
G36*
X234787500Y-54587500D02*
G01*
X234332480Y-54587500D01*
X234787500Y-54132500D01*
X234787500Y-54587500D01*
G37*
X214847500Y-34047500D02*
X213927500Y-34047500D01*
X213927500Y-33627500D01*
X214847500Y-33627500D01*
X214847500Y-34047500D01*
G36*
X214847500Y-34047500D02*
G01*
X213927500Y-34047500D01*
X213927500Y-33627500D01*
X214847500Y-33627500D01*
X214847500Y-34047500D01*
G37*
X214847500Y-34847500D02*
X213927500Y-34847500D01*
X213927500Y-34427500D01*
X214847500Y-34427500D01*
X214847500Y-34847500D01*
G36*
X214847500Y-34847500D02*
G01*
X213927500Y-34847500D01*
X213927500Y-34427500D01*
X214847500Y-34427500D01*
X214847500Y-34847500D01*
G37*
X214847500Y-35647500D02*
X213927500Y-35647500D01*
X213927500Y-35227500D01*
X214847500Y-35227500D01*
X214847500Y-35647500D01*
G36*
X214847500Y-35647500D02*
G01*
X213927500Y-35647500D01*
X213927500Y-35227500D01*
X214847500Y-35227500D01*
X214847500Y-35647500D01*
G37*
X214847500Y-36447500D02*
X213927500Y-36447500D01*
X213927500Y-36027500D01*
X214847500Y-36027500D01*
X214847500Y-36447500D01*
G36*
X214847500Y-36447500D02*
G01*
X213927500Y-36447500D01*
X213927500Y-36027500D01*
X214847500Y-36027500D01*
X214847500Y-36447500D01*
G37*
X214847500Y-37247500D02*
X213927500Y-37247500D01*
X213927500Y-36827500D01*
X214847500Y-36827500D01*
X214847500Y-37247500D01*
G36*
X214847500Y-37247500D02*
G01*
X213927500Y-37247500D01*
X213927500Y-36827500D01*
X214847500Y-36827500D01*
X214847500Y-37247500D01*
G37*
X214847500Y-38047500D02*
X213927500Y-38047500D01*
X213927500Y-37627500D01*
X214847500Y-37627500D01*
X214847500Y-38047500D01*
G36*
X214847500Y-38047500D02*
G01*
X213927500Y-38047500D01*
X213927500Y-37627500D01*
X214847500Y-37627500D01*
X214847500Y-38047500D01*
G37*
X214847500Y-38847500D02*
X213927500Y-38847500D01*
X213927500Y-38427500D01*
X214847500Y-38427500D01*
X214847500Y-38847500D01*
G36*
X214847500Y-38847500D02*
G01*
X213927500Y-38847500D01*
X213927500Y-38427500D01*
X214847500Y-38427500D01*
X214847500Y-38847500D01*
G37*
X214847500Y-39647500D02*
X213927500Y-39647500D01*
X213927500Y-39227500D01*
X214847500Y-39227500D01*
X214847500Y-39647500D01*
G36*
X214847500Y-39647500D02*
G01*
X213927500Y-39647500D01*
X213927500Y-39227500D01*
X214847500Y-39227500D01*
X214847500Y-39647500D01*
G37*
X214847500Y-40447500D02*
X213927500Y-40447500D01*
X213927500Y-40027500D01*
X214847500Y-40027500D01*
X214847500Y-40447500D01*
G36*
X214847500Y-40447500D02*
G01*
X213927500Y-40447500D01*
X213927500Y-40027500D01*
X214847500Y-40027500D01*
X214847500Y-40447500D01*
G37*
X214847500Y-41247500D02*
X213927500Y-41247500D01*
X213927500Y-40827500D01*
X214847500Y-40827500D01*
X214847500Y-41247500D01*
G36*
X214847500Y-41247500D02*
G01*
X213927500Y-41247500D01*
X213927500Y-40827500D01*
X214847500Y-40827500D01*
X214847500Y-41247500D01*
G37*
X214847500Y-42047500D02*
X213927500Y-42047500D01*
X213927500Y-41627500D01*
X214847500Y-41627500D01*
X214847500Y-42047500D01*
G36*
X214847500Y-42047500D02*
G01*
X213927500Y-42047500D01*
X213927500Y-41627500D01*
X214847500Y-41627500D01*
X214847500Y-42047500D01*
G37*
X214847500Y-42847500D02*
X213927500Y-42847500D01*
X213927500Y-42427500D01*
X214847500Y-42427500D01*
X214847500Y-42847500D01*
G36*
X214847500Y-42847500D02*
G01*
X213927500Y-42847500D01*
X213927500Y-42427500D01*
X214847500Y-42427500D01*
X214847500Y-42847500D01*
G37*
X214847500Y-43647500D02*
X213927500Y-43647500D01*
X213927500Y-43227500D01*
X214847500Y-43227500D01*
X214847500Y-43647500D01*
G36*
X214847500Y-43647500D02*
G01*
X213927500Y-43647500D01*
X213927500Y-43227500D01*
X214847500Y-43227500D01*
X214847500Y-43647500D01*
G37*
X214847500Y-44447500D02*
X213927500Y-44447500D01*
X213927500Y-44027500D01*
X214847500Y-44027500D01*
X214847500Y-44447500D01*
G36*
X214847500Y-44447500D02*
G01*
X213927500Y-44447500D01*
X213927500Y-44027500D01*
X214847500Y-44027500D01*
X214847500Y-44447500D01*
G37*
X214847500Y-45247500D02*
X213927500Y-45247500D01*
X213927500Y-44827500D01*
X214847500Y-44827500D01*
X214847500Y-45247500D01*
G36*
X214847500Y-45247500D02*
G01*
X213927500Y-45247500D01*
X213927500Y-44827500D01*
X214847500Y-44827500D01*
X214847500Y-45247500D01*
G37*
X214847500Y-46047500D02*
X213927500Y-46047500D01*
X213927500Y-45627500D01*
X214847500Y-45627500D01*
X214847500Y-46047500D01*
G36*
X214847500Y-46047500D02*
G01*
X213927500Y-46047500D01*
X213927500Y-45627500D01*
X214847500Y-45627500D01*
X214847500Y-46047500D01*
G37*
X214847500Y-46847500D02*
X213927500Y-46847500D01*
X213927500Y-46427500D01*
X214847500Y-46427500D01*
X214847500Y-46847500D01*
G36*
X214847500Y-46847500D02*
G01*
X213927500Y-46847500D01*
X213927500Y-46427500D01*
X214847500Y-46427500D01*
X214847500Y-46847500D01*
G37*
X214847500Y-47647500D02*
X213927500Y-47647500D01*
X213927500Y-47227500D01*
X214847500Y-47227500D01*
X214847500Y-47647500D01*
G36*
X214847500Y-47647500D02*
G01*
X213927500Y-47647500D01*
X213927500Y-47227500D01*
X214847500Y-47227500D01*
X214847500Y-47647500D01*
G37*
X214847500Y-48447500D02*
X213927500Y-48447500D01*
X213927500Y-48027500D01*
X214847500Y-48027500D01*
X214847500Y-48447500D01*
G36*
X214847500Y-48447500D02*
G01*
X213927500Y-48447500D01*
X213927500Y-48027500D01*
X214847500Y-48027500D01*
X214847500Y-48447500D01*
G37*
X214847500Y-49247500D02*
X213927500Y-49247500D01*
X213927500Y-48827500D01*
X214847500Y-48827500D01*
X214847500Y-49247500D01*
G36*
X214847500Y-49247500D02*
G01*
X213927500Y-49247500D01*
X213927500Y-48827500D01*
X214847500Y-48827500D01*
X214847500Y-49247500D01*
G37*
X214847500Y-50047500D02*
X213927500Y-50047500D01*
X213927500Y-49627500D01*
X214847500Y-49627500D01*
X214847500Y-50047500D01*
G36*
X214847500Y-50047500D02*
G01*
X213927500Y-50047500D01*
X213927500Y-49627500D01*
X214847500Y-49627500D01*
X214847500Y-50047500D01*
G37*
X214847500Y-50847500D02*
X213927500Y-50847500D01*
X213927500Y-50427500D01*
X214847500Y-50427500D01*
X214847500Y-50847500D01*
G36*
X214847500Y-50847500D02*
G01*
X213927500Y-50847500D01*
X213927500Y-50427500D01*
X214847500Y-50427500D01*
X214847500Y-50847500D01*
G37*
X214847500Y-51647500D02*
X213927500Y-51647500D01*
X213927500Y-51227500D01*
X214847500Y-51227500D01*
X214847500Y-51647500D01*
G36*
X214847500Y-51647500D02*
G01*
X213927500Y-51647500D01*
X213927500Y-51227500D01*
X214847500Y-51227500D01*
X214847500Y-51647500D01*
G37*
X214847500Y-52447500D02*
X213927500Y-52447500D01*
X213927500Y-52027500D01*
X214847500Y-52027500D01*
X214847500Y-52447500D01*
G36*
X214847500Y-52447500D02*
G01*
X213927500Y-52447500D01*
X213927500Y-52027500D01*
X214847500Y-52027500D01*
X214847500Y-52447500D01*
G37*
X214847500Y-53247500D02*
X213927500Y-53247500D01*
X213927500Y-52827500D01*
X214847500Y-52827500D01*
X214847500Y-53247500D01*
G36*
X214847500Y-53247500D02*
G01*
X213927500Y-53247500D01*
X213927500Y-52827500D01*
X214847500Y-52827500D01*
X214847500Y-53247500D01*
G37*
X215747500Y-33247500D02*
X215327500Y-33247500D01*
X215327500Y-32327500D01*
X215747500Y-32327500D01*
X215747500Y-33247500D01*
G36*
X215747500Y-33247500D02*
G01*
X215327500Y-33247500D01*
X215327500Y-32327500D01*
X215747500Y-32327500D01*
X215747500Y-33247500D01*
G37*
X215747500Y-54547500D02*
X215327500Y-54547500D01*
X215327500Y-53627500D01*
X215747500Y-53627500D01*
X215747500Y-54547500D01*
G36*
X215747500Y-54547500D02*
G01*
X215327500Y-54547500D01*
X215327500Y-53627500D01*
X215747500Y-53627500D01*
X215747500Y-54547500D01*
G37*
X216547500Y-33247500D02*
X216127500Y-33247500D01*
X216127500Y-32327500D01*
X216547500Y-32327500D01*
X216547500Y-33247500D01*
G36*
X216547500Y-33247500D02*
G01*
X216127500Y-33247500D01*
X216127500Y-32327500D01*
X216547500Y-32327500D01*
X216547500Y-33247500D01*
G37*
X216547500Y-54547500D02*
X216127500Y-54547500D01*
X216127500Y-53627500D01*
X216547500Y-53627500D01*
X216547500Y-54547500D01*
G36*
X216547500Y-54547500D02*
G01*
X216127500Y-54547500D01*
X216127500Y-53627500D01*
X216547500Y-53627500D01*
X216547500Y-54547500D01*
G37*
X217347500Y-33247500D02*
X216927500Y-33247500D01*
X216927500Y-32327500D01*
X217347500Y-32327500D01*
X217347500Y-33247500D01*
G36*
X217347500Y-33247500D02*
G01*
X216927500Y-33247500D01*
X216927500Y-32327500D01*
X217347500Y-32327500D01*
X217347500Y-33247500D01*
G37*
X217347500Y-54547500D02*
X216927500Y-54547500D01*
X216927500Y-53627500D01*
X217347500Y-53627500D01*
X217347500Y-54547500D01*
G36*
X217347500Y-54547500D02*
G01*
X216927500Y-54547500D01*
X216927500Y-53627500D01*
X217347500Y-53627500D01*
X217347500Y-54547500D01*
G37*
X217062530Y-35257500D02*
X217057500Y-35262520D01*
X217057500Y-34757500D01*
X217562520Y-34757500D01*
X217062530Y-35257500D01*
G36*
X217062530Y-35257500D02*
G01*
X217057500Y-35262520D01*
X217057500Y-34757500D01*
X217562520Y-34757500D01*
X217062530Y-35257500D01*
G37*
X217062530Y-51617500D02*
X217057500Y-51622520D01*
X217057500Y-51117500D01*
X217562520Y-51117500D01*
X217062530Y-51617500D01*
G36*
X217062530Y-51617500D02*
G01*
X217057500Y-51622520D01*
X217057500Y-51117500D01*
X217562520Y-51117500D01*
X217062530Y-51617500D01*
G37*
X218017500Y-36847500D02*
X217097500Y-36847500D01*
X217097500Y-36427500D01*
X218017500Y-36427500D01*
X218017500Y-36847500D01*
G36*
X218017500Y-36847500D02*
G01*
X217097500Y-36847500D01*
X217097500Y-36427500D01*
X218017500Y-36427500D01*
X218017500Y-36847500D01*
G37*
X218017500Y-37647500D02*
X217097500Y-37647500D01*
X217097500Y-37227500D01*
X218017500Y-37227500D01*
X218017500Y-37647500D01*
G36*
X218017500Y-37647500D02*
G01*
X217097500Y-37647500D01*
X217097500Y-37227500D01*
X218017500Y-37227500D01*
X218017500Y-37647500D01*
G37*
X218017500Y-38447500D02*
X217097500Y-38447500D01*
X217097500Y-38027500D01*
X218017500Y-38027500D01*
X218017500Y-38447500D01*
G36*
X218017500Y-38447500D02*
G01*
X217097500Y-38447500D01*
X217097500Y-38027500D01*
X218017500Y-38027500D01*
X218017500Y-38447500D01*
G37*
X218017500Y-39247500D02*
X217097500Y-39247500D01*
X217097500Y-38827500D01*
X218017500Y-38827500D01*
X218017500Y-39247500D01*
G36*
X218017500Y-39247500D02*
G01*
X217097500Y-39247500D01*
X217097500Y-38827500D01*
X218017500Y-38827500D01*
X218017500Y-39247500D01*
G37*
X218017500Y-40047500D02*
X217097500Y-40047500D01*
X217097500Y-39627500D01*
X218017500Y-39627500D01*
X218017500Y-40047500D01*
G36*
X218017500Y-40047500D02*
G01*
X217097500Y-40047500D01*
X217097500Y-39627500D01*
X218017500Y-39627500D01*
X218017500Y-40047500D01*
G37*
X218017500Y-40847500D02*
X217097500Y-40847500D01*
X217097500Y-40427500D01*
X218017500Y-40427500D01*
X218017500Y-40847500D01*
G36*
X218017500Y-40847500D02*
G01*
X217097500Y-40847500D01*
X217097500Y-40427500D01*
X218017500Y-40427500D01*
X218017500Y-40847500D01*
G37*
X218017500Y-41647500D02*
X217097500Y-41647500D01*
X217097500Y-41227500D01*
X218017500Y-41227500D01*
X218017500Y-41647500D01*
G36*
X218017500Y-41647500D02*
G01*
X217097500Y-41647500D01*
X217097500Y-41227500D01*
X218017500Y-41227500D01*
X218017500Y-41647500D01*
G37*
X218017500Y-42447500D02*
X217097500Y-42447500D01*
X217097500Y-42027500D01*
X218017500Y-42027500D01*
X218017500Y-42447500D01*
G36*
X218017500Y-42447500D02*
G01*
X217097500Y-42447500D01*
X217097500Y-42027500D01*
X218017500Y-42027500D01*
X218017500Y-42447500D01*
G37*
X218017500Y-43247500D02*
X217097500Y-43247500D01*
X217097500Y-42827500D01*
X218017500Y-42827500D01*
X218017500Y-43247500D01*
G36*
X218017500Y-43247500D02*
G01*
X217097500Y-43247500D01*
X217097500Y-42827500D01*
X218017500Y-42827500D01*
X218017500Y-43247500D01*
G37*
X218017500Y-44047500D02*
X217097500Y-44047500D01*
X217097500Y-43627500D01*
X218017500Y-43627500D01*
X218017500Y-44047500D01*
G36*
X218017500Y-44047500D02*
G01*
X217097500Y-44047500D01*
X217097500Y-43627500D01*
X218017500Y-43627500D01*
X218017500Y-44047500D01*
G37*
X218017500Y-44847500D02*
X217097500Y-44847500D01*
X217097500Y-44427500D01*
X218017500Y-44427500D01*
X218017500Y-44847500D01*
G36*
X218017500Y-44847500D02*
G01*
X217097500Y-44847500D01*
X217097500Y-44427500D01*
X218017500Y-44427500D01*
X218017500Y-44847500D01*
G37*
X218017500Y-45647500D02*
X217097500Y-45647500D01*
X217097500Y-45227500D01*
X218017500Y-45227500D01*
X218017500Y-45647500D01*
G36*
X218017500Y-45647500D02*
G01*
X217097500Y-45647500D01*
X217097500Y-45227500D01*
X218017500Y-45227500D01*
X218017500Y-45647500D01*
G37*
X218017500Y-46447500D02*
X217097500Y-46447500D01*
X217097500Y-46027500D01*
X218017500Y-46027500D01*
X218017500Y-46447500D01*
G36*
X218017500Y-46447500D02*
G01*
X217097500Y-46447500D01*
X217097500Y-46027500D01*
X218017500Y-46027500D01*
X218017500Y-46447500D01*
G37*
X218017500Y-47247500D02*
X217097500Y-47247500D01*
X217097500Y-46827500D01*
X218017500Y-46827500D01*
X218017500Y-47247500D01*
G36*
X218017500Y-47247500D02*
G01*
X217097500Y-47247500D01*
X217097500Y-46827500D01*
X218017500Y-46827500D01*
X218017500Y-47247500D01*
G37*
X218017500Y-48047500D02*
X217097500Y-48047500D01*
X217097500Y-47627500D01*
X218017500Y-47627500D01*
X218017500Y-48047500D01*
G36*
X218017500Y-48047500D02*
G01*
X217097500Y-48047500D01*
X217097500Y-47627500D01*
X218017500Y-47627500D01*
X218017500Y-48047500D01*
G37*
X218017500Y-48847500D02*
X217097500Y-48847500D01*
X217097500Y-48427500D01*
X218017500Y-48427500D01*
X218017500Y-48847500D01*
G36*
X218017500Y-48847500D02*
G01*
X217097500Y-48847500D01*
X217097500Y-48427500D01*
X218017500Y-48427500D01*
X218017500Y-48847500D01*
G37*
X218017500Y-49647500D02*
X217097500Y-49647500D01*
X217097500Y-49227500D01*
X218017500Y-49227500D01*
X218017500Y-49647500D01*
G36*
X218017500Y-49647500D02*
G01*
X217097500Y-49647500D01*
X217097500Y-49227500D01*
X218017500Y-49227500D01*
X218017500Y-49647500D01*
G37*
X218017500Y-50447500D02*
X217097500Y-50447500D01*
X217097500Y-50027500D01*
X218017500Y-50027500D01*
X218017500Y-50447500D01*
G36*
X218017500Y-50447500D02*
G01*
X217097500Y-50447500D01*
X217097500Y-50027500D01*
X218017500Y-50027500D01*
X218017500Y-50447500D01*
G37*
X218147500Y-33247500D02*
X217727500Y-33247500D01*
X217727500Y-32327500D01*
X218147500Y-32327500D01*
X218147500Y-33247500D01*
G36*
X218147500Y-33247500D02*
G01*
X217727500Y-33247500D01*
X217727500Y-32327500D01*
X218147500Y-32327500D01*
X218147500Y-33247500D01*
G37*
X218147500Y-54547500D02*
X217727500Y-54547500D01*
X217727500Y-53627500D01*
X218147500Y-53627500D01*
X218147500Y-54547500D01*
G36*
X218147500Y-54547500D02*
G01*
X217727500Y-54547500D01*
X217727500Y-53627500D01*
X218147500Y-53627500D01*
X218147500Y-54547500D01*
G37*
X218947500Y-33247500D02*
X218527500Y-33247500D01*
X218527500Y-32327500D01*
X218947500Y-32327500D01*
X218947500Y-33247500D01*
G36*
X218947500Y-33247500D02*
G01*
X218527500Y-33247500D01*
X218527500Y-32327500D01*
X218947500Y-32327500D01*
X218947500Y-33247500D01*
G37*
X218947500Y-35717500D02*
X218527500Y-35717500D01*
X218527500Y-34797500D01*
X218947500Y-34797500D01*
X218947500Y-35717500D01*
G36*
X218947500Y-35717500D02*
G01*
X218527500Y-35717500D01*
X218527500Y-34797500D01*
X218947500Y-34797500D01*
X218947500Y-35717500D01*
G37*
X218947500Y-52077500D02*
X218527500Y-52077500D01*
X218527500Y-51157500D01*
X218947500Y-51157500D01*
X218947500Y-52077500D01*
G36*
X218947500Y-52077500D02*
G01*
X218527500Y-52077500D01*
X218527500Y-51157500D01*
X218947500Y-51157500D01*
X218947500Y-52077500D01*
G37*
X218947500Y-54547500D02*
X218527500Y-54547500D01*
X218527500Y-53627500D01*
X218947500Y-53627500D01*
X218947500Y-54547500D01*
G36*
X218947500Y-54547500D02*
G01*
X218527500Y-54547500D01*
X218527500Y-53627500D01*
X218947500Y-53627500D01*
X218947500Y-54547500D01*
G37*
X218680030Y-37050000D02*
X218675000Y-37055020D01*
X218675000Y-36550000D01*
X219180020Y-36550000D01*
X218680030Y-37050000D01*
G36*
X218680030Y-37050000D02*
G01*
X218675000Y-37055020D01*
X218675000Y-36550000D01*
X219180020Y-36550000D01*
X218680030Y-37050000D01*
G37*
X218680030Y-38875000D02*
X218675000Y-38880020D01*
X218675000Y-38375000D01*
X219180020Y-38375000D01*
X218680030Y-38875000D01*
G36*
X218680030Y-38875000D02*
G01*
X218675000Y-38880020D01*
X218675000Y-38375000D01*
X219180020Y-38375000D01*
X218680030Y-38875000D01*
G37*
X218680030Y-40700000D02*
X218675000Y-40705020D01*
X218675000Y-40200000D01*
X219180020Y-40200000D01*
X218680030Y-40700000D01*
G36*
X218680030Y-40700000D02*
G01*
X218675000Y-40705020D01*
X218675000Y-40200000D01*
X219180020Y-40200000D01*
X218680030Y-40700000D01*
G37*
X218680030Y-42525000D02*
X218675000Y-42530022D01*
X218675000Y-42025000D01*
X219180020Y-42025000D01*
X218680030Y-42525000D01*
G36*
X218680030Y-42525000D02*
G01*
X218675000Y-42530022D01*
X218675000Y-42025000D01*
X219180020Y-42025000D01*
X218680030Y-42525000D01*
G37*
X218680030Y-44350000D02*
X218675000Y-44355022D01*
X218675000Y-43850003D01*
X219180020Y-43850003D01*
X218680030Y-44350000D01*
G36*
X218680030Y-44350000D02*
G01*
X218675000Y-44355022D01*
X218675000Y-43850003D01*
X219180020Y-43850003D01*
X218680030Y-44350000D01*
G37*
X218680030Y-46175000D02*
X218675000Y-46180020D01*
X218675000Y-45675000D01*
X219180020Y-45675000D01*
X218680030Y-46175000D01*
G36*
X218680030Y-46175000D02*
G01*
X218675000Y-46180020D01*
X218675000Y-45675000D01*
X219180020Y-45675000D01*
X218680030Y-46175000D01*
G37*
X218680030Y-48000000D02*
X218675000Y-48005020D01*
X218675000Y-47500000D01*
X219180020Y-47500000D01*
X218680030Y-48000000D01*
G36*
X218680030Y-48000000D02*
G01*
X218675000Y-48005020D01*
X218675000Y-47500000D01*
X219180020Y-47500000D01*
X218680030Y-48000000D01*
G37*
X218680030Y-49825000D02*
X218675000Y-49830020D01*
X218675000Y-49325000D01*
X219180020Y-49325000D01*
X218680030Y-49825000D01*
G36*
X218680030Y-49825000D02*
G01*
X218675000Y-49830020D01*
X218675000Y-49325000D01*
X219180020Y-49325000D01*
X218680030Y-49825000D01*
G37*
X219747500Y-33247500D02*
X219327500Y-33247500D01*
X219327500Y-32327500D01*
X219747500Y-32327500D01*
X219747500Y-33247500D01*
G36*
X219747500Y-33247500D02*
G01*
X219327500Y-33247500D01*
X219327500Y-32327500D01*
X219747500Y-32327500D01*
X219747500Y-33247500D01*
G37*
X219747500Y-35717500D02*
X219327500Y-35717500D01*
X219327500Y-34797500D01*
X219747500Y-34797500D01*
X219747500Y-35717500D01*
G36*
X219747500Y-35717500D02*
G01*
X219327500Y-35717500D01*
X219327500Y-34797500D01*
X219747500Y-34797500D01*
X219747500Y-35717500D01*
G37*
X219747500Y-52077500D02*
X219327500Y-52077500D01*
X219327500Y-51157500D01*
X219747500Y-51157500D01*
X219747500Y-52077500D01*
G36*
X219747500Y-52077500D02*
G01*
X219327500Y-52077500D01*
X219327500Y-51157500D01*
X219747500Y-51157500D01*
X219747500Y-52077500D01*
G37*
X219747500Y-54547500D02*
X219327500Y-54547500D01*
X219327500Y-53627500D01*
X219747500Y-53627500D01*
X219747500Y-54547500D01*
G36*
X219747500Y-54547500D02*
G01*
X219327500Y-54547500D01*
X219327500Y-53627500D01*
X219747500Y-53627500D01*
X219747500Y-54547500D01*
G37*
X220547500Y-33247500D02*
X220127500Y-33247500D01*
X220127500Y-32327500D01*
X220547500Y-32327500D01*
X220547500Y-33247500D01*
G36*
X220547500Y-33247500D02*
G01*
X220127500Y-33247500D01*
X220127500Y-32327500D01*
X220547500Y-32327500D01*
X220547500Y-33247500D01*
G37*
X220547500Y-35717500D02*
X220127500Y-35717500D01*
X220127500Y-34797500D01*
X220547500Y-34797500D01*
X220547500Y-35717500D01*
G36*
X220547500Y-35717500D02*
G01*
X220127500Y-35717500D01*
X220127500Y-34797500D01*
X220547500Y-34797500D01*
X220547500Y-35717500D01*
G37*
X220547500Y-52077500D02*
X220127500Y-52077500D01*
X220127500Y-51157500D01*
X220547500Y-51157500D01*
X220547500Y-52077500D01*
G36*
X220547500Y-52077500D02*
G01*
X220127500Y-52077500D01*
X220127500Y-51157500D01*
X220547500Y-51157500D01*
X220547500Y-52077500D01*
G37*
X220547500Y-54547500D02*
X220127500Y-54547500D01*
X220127500Y-53627500D01*
X220547500Y-53627500D01*
X220547500Y-54547500D01*
G36*
X220547500Y-54547500D02*
G01*
X220127500Y-54547500D01*
X220127500Y-53627500D01*
X220547500Y-53627500D01*
X220547500Y-54547500D01*
G37*
X220155030Y-37050000D02*
X220150000Y-37055020D01*
X220150000Y-36550000D01*
X220655020Y-36550000D01*
X220155030Y-37050000D01*
G36*
X220155030Y-37050000D02*
G01*
X220150000Y-37055020D01*
X220150000Y-36550000D01*
X220655020Y-36550000D01*
X220155030Y-37050000D01*
G37*
X220155030Y-38875000D02*
X220150000Y-38880020D01*
X220150000Y-38375000D01*
X220655020Y-38375000D01*
X220155030Y-38875000D01*
G36*
X220155030Y-38875000D02*
G01*
X220150000Y-38880020D01*
X220150000Y-38375000D01*
X220655020Y-38375000D01*
X220155030Y-38875000D01*
G37*
X220155030Y-40700000D02*
X220150000Y-40705020D01*
X220150000Y-40200000D01*
X220655020Y-40200000D01*
X220155030Y-40700000D01*
G36*
X220155030Y-40700000D02*
G01*
X220150000Y-40705020D01*
X220150000Y-40200000D01*
X220655020Y-40200000D01*
X220155030Y-40700000D01*
G37*
X220155030Y-42525000D02*
X220150000Y-42530022D01*
X220150000Y-42025000D01*
X220655020Y-42025000D01*
X220155030Y-42525000D01*
G36*
X220155030Y-42525000D02*
G01*
X220150000Y-42530022D01*
X220150000Y-42025000D01*
X220655020Y-42025000D01*
X220155030Y-42525000D01*
G37*
X220155030Y-44350000D02*
X220150000Y-44355022D01*
X220150000Y-43850003D01*
X220655020Y-43850003D01*
X220155030Y-44350000D01*
G36*
X220155030Y-44350000D02*
G01*
X220150000Y-44355022D01*
X220150000Y-43850003D01*
X220655020Y-43850003D01*
X220155030Y-44350000D01*
G37*
X220155030Y-46175000D02*
X220150000Y-46180020D01*
X220150000Y-45675000D01*
X220655020Y-45675000D01*
X220155030Y-46175000D01*
G36*
X220155030Y-46175000D02*
G01*
X220150000Y-46180020D01*
X220150000Y-45675000D01*
X220655020Y-45675000D01*
X220155030Y-46175000D01*
G37*
X220155030Y-48000000D02*
X220150000Y-48005020D01*
X220150000Y-47500000D01*
X220655020Y-47500000D01*
X220155030Y-48000000D01*
G36*
X220155030Y-48000000D02*
G01*
X220150000Y-48005020D01*
X220150000Y-47500000D01*
X220655020Y-47500000D01*
X220155030Y-48000000D01*
G37*
X220155030Y-49825000D02*
X220150000Y-49830020D01*
X220150000Y-49325000D01*
X220655020Y-49325000D01*
X220155030Y-49825000D01*
G36*
X220155030Y-49825000D02*
G01*
X220150000Y-49830020D01*
X220150000Y-49325000D01*
X220655020Y-49325000D01*
X220155030Y-49825000D01*
G37*
X221347500Y-33247500D02*
X220927500Y-33247500D01*
X220927500Y-32327500D01*
X221347500Y-32327500D01*
X221347500Y-33247500D01*
G36*
X221347500Y-33247500D02*
G01*
X220927500Y-33247500D01*
X220927500Y-32327500D01*
X221347500Y-32327500D01*
X221347500Y-33247500D01*
G37*
X221347500Y-35717500D02*
X220927500Y-35717500D01*
X220927500Y-34797500D01*
X221347500Y-34797500D01*
X221347500Y-35717500D01*
G36*
X221347500Y-35717500D02*
G01*
X220927500Y-35717500D01*
X220927500Y-34797500D01*
X221347500Y-34797500D01*
X221347500Y-35717500D01*
G37*
X221347500Y-52077500D02*
X220927500Y-52077500D01*
X220927500Y-51157500D01*
X221347500Y-51157500D01*
X221347500Y-52077500D01*
G36*
X221347500Y-52077500D02*
G01*
X220927500Y-52077500D01*
X220927500Y-51157500D01*
X221347500Y-51157500D01*
X221347500Y-52077500D01*
G37*
X221347500Y-54547500D02*
X220927500Y-54547500D01*
X220927500Y-53627500D01*
X221347500Y-53627500D01*
X221347500Y-54547500D01*
G36*
X221347500Y-54547500D02*
G01*
X220927500Y-54547500D01*
X220927500Y-53627500D01*
X221347500Y-53627500D01*
X221347500Y-54547500D01*
G37*
X221630030Y-37050000D02*
X221625000Y-37055020D01*
X221625000Y-36550000D01*
X222130020Y-36550000D01*
X221630030Y-37050000D01*
G36*
X221630030Y-37050000D02*
G01*
X221625000Y-37055020D01*
X221625000Y-36550000D01*
X222130020Y-36550000D01*
X221630030Y-37050000D01*
G37*
X221630030Y-38875000D02*
X221625000Y-38880020D01*
X221625000Y-38375000D01*
X222130020Y-38375000D01*
X221630030Y-38875000D01*
G36*
X221630030Y-38875000D02*
G01*
X221625000Y-38880020D01*
X221625000Y-38375000D01*
X222130020Y-38375000D01*
X221630030Y-38875000D01*
G37*
X221630030Y-40700000D02*
X221625000Y-40705020D01*
X221625000Y-40200000D01*
X222130020Y-40200000D01*
X221630030Y-40700000D01*
G36*
X221630030Y-40700000D02*
G01*
X221625000Y-40705020D01*
X221625000Y-40200000D01*
X222130020Y-40200000D01*
X221630030Y-40700000D01*
G37*
X221630030Y-42525000D02*
X221625000Y-42530022D01*
X221625000Y-42025000D01*
X222130020Y-42025000D01*
X221630030Y-42525000D01*
G36*
X221630030Y-42525000D02*
G01*
X221625000Y-42530022D01*
X221625000Y-42025000D01*
X222130020Y-42025000D01*
X221630030Y-42525000D01*
G37*
X221630030Y-44350000D02*
X221625000Y-44355022D01*
X221625000Y-43850003D01*
X222130020Y-43850003D01*
X221630030Y-44350000D01*
G36*
X221630030Y-44350000D02*
G01*
X221625000Y-44355022D01*
X221625000Y-43850003D01*
X222130020Y-43850003D01*
X221630030Y-44350000D01*
G37*
X221630030Y-46175000D02*
X221625000Y-46180020D01*
X221625000Y-45675000D01*
X222130020Y-45675000D01*
X221630030Y-46175000D01*
G36*
X221630030Y-46175000D02*
G01*
X221625000Y-46180020D01*
X221625000Y-45675000D01*
X222130020Y-45675000D01*
X221630030Y-46175000D01*
G37*
X221630030Y-48000000D02*
X221625000Y-48005020D01*
X221625000Y-47500000D01*
X222130020Y-47500000D01*
X221630030Y-48000000D01*
G36*
X221630030Y-48000000D02*
G01*
X221625000Y-48005020D01*
X221625000Y-47500000D01*
X222130020Y-47500000D01*
X221630030Y-48000000D01*
G37*
X221630030Y-49825000D02*
X221625000Y-49830020D01*
X221625000Y-49325000D01*
X222130020Y-49325000D01*
X221630030Y-49825000D01*
G36*
X221630030Y-49825000D02*
G01*
X221625000Y-49830020D01*
X221625000Y-49325000D01*
X222130020Y-49325000D01*
X221630030Y-49825000D01*
G37*
X222147500Y-33247500D02*
X221727500Y-33247500D01*
X221727500Y-32327500D01*
X222147500Y-32327500D01*
X222147500Y-33247500D01*
G36*
X222147500Y-33247500D02*
G01*
X221727500Y-33247500D01*
X221727500Y-32327500D01*
X222147500Y-32327500D01*
X222147500Y-33247500D01*
G37*
X222147500Y-35717500D02*
X221727500Y-35717500D01*
X221727500Y-34797500D01*
X222147500Y-34797500D01*
X222147500Y-35717500D01*
G36*
X222147500Y-35717500D02*
G01*
X221727500Y-35717500D01*
X221727500Y-34797500D01*
X222147500Y-34797500D01*
X222147500Y-35717500D01*
G37*
X222147500Y-52077500D02*
X221727500Y-52077500D01*
X221727500Y-51157500D01*
X222147500Y-51157500D01*
X222147500Y-52077500D01*
G36*
X222147500Y-52077500D02*
G01*
X221727500Y-52077500D01*
X221727500Y-51157500D01*
X222147500Y-51157500D01*
X222147500Y-52077500D01*
G37*
X222147500Y-54547500D02*
X221727500Y-54547500D01*
X221727500Y-53627500D01*
X222147500Y-53627500D01*
X222147500Y-54547500D01*
G36*
X222147500Y-54547500D02*
G01*
X221727500Y-54547500D01*
X221727500Y-53627500D01*
X222147500Y-53627500D01*
X222147500Y-54547500D01*
G37*
X222947500Y-33247500D02*
X222527500Y-33247500D01*
X222527500Y-32327500D01*
X222947500Y-32327500D01*
X222947500Y-33247500D01*
G36*
X222947500Y-33247500D02*
G01*
X222527500Y-33247500D01*
X222527500Y-32327500D01*
X222947500Y-32327500D01*
X222947500Y-33247500D01*
G37*
X222947500Y-35717500D02*
X222527500Y-35717500D01*
X222527500Y-34797500D01*
X222947500Y-34797500D01*
X222947500Y-35717500D01*
G36*
X222947500Y-35717500D02*
G01*
X222527500Y-35717500D01*
X222527500Y-34797500D01*
X222947500Y-34797500D01*
X222947500Y-35717500D01*
G37*
X222947500Y-52077500D02*
X222527500Y-52077500D01*
X222527500Y-51157500D01*
X222947500Y-51157500D01*
X222947500Y-52077500D01*
G36*
X222947500Y-52077500D02*
G01*
X222527500Y-52077500D01*
X222527500Y-51157500D01*
X222947500Y-51157500D01*
X222947500Y-52077500D01*
G37*
X222947500Y-54547500D02*
X222527500Y-54547500D01*
X222527500Y-53627500D01*
X222947500Y-53627500D01*
X222947500Y-54547500D01*
G36*
X222947500Y-54547500D02*
G01*
X222527500Y-54547500D01*
X222527500Y-53627500D01*
X222947500Y-53627500D01*
X222947500Y-54547500D01*
G37*
X223105030Y-37050000D02*
X223100000Y-37055020D01*
X223100000Y-36550000D01*
X223605022Y-36550000D01*
X223105030Y-37050000D01*
G36*
X223105030Y-37050000D02*
G01*
X223100000Y-37055020D01*
X223100000Y-36550000D01*
X223605022Y-36550000D01*
X223105030Y-37050000D01*
G37*
X223105030Y-38875000D02*
X223100000Y-38880020D01*
X223100000Y-38375000D01*
X223605022Y-38375000D01*
X223105030Y-38875000D01*
G36*
X223105030Y-38875000D02*
G01*
X223100000Y-38880020D01*
X223100000Y-38375000D01*
X223605022Y-38375000D01*
X223105030Y-38875000D01*
G37*
X223105030Y-40700000D02*
X223100000Y-40705020D01*
X223100000Y-40200000D01*
X223605022Y-40200000D01*
X223105030Y-40700000D01*
G36*
X223105030Y-40700000D02*
G01*
X223100000Y-40705020D01*
X223100000Y-40200000D01*
X223605022Y-40200000D01*
X223105030Y-40700000D01*
G37*
X223105030Y-42525000D02*
X223100000Y-42530022D01*
X223100000Y-42025000D01*
X223605022Y-42025000D01*
X223105030Y-42525000D01*
G36*
X223105030Y-42525000D02*
G01*
X223100000Y-42530022D01*
X223100000Y-42025000D01*
X223605022Y-42025000D01*
X223105030Y-42525000D01*
G37*
X223105030Y-44350000D02*
X223100000Y-44355022D01*
X223100000Y-43850003D01*
X223605022Y-43850003D01*
X223105030Y-44350000D01*
G36*
X223105030Y-44350000D02*
G01*
X223100000Y-44355022D01*
X223100000Y-43850003D01*
X223605022Y-43850003D01*
X223105030Y-44350000D01*
G37*
X223105030Y-46175000D02*
X223100000Y-46180020D01*
X223100000Y-45675000D01*
X223605022Y-45675000D01*
X223105030Y-46175000D01*
G36*
X223105030Y-46175000D02*
G01*
X223100000Y-46180020D01*
X223100000Y-45675000D01*
X223605022Y-45675000D01*
X223105030Y-46175000D01*
G37*
X223105030Y-48000000D02*
X223100000Y-48005020D01*
X223100000Y-47500000D01*
X223605022Y-47500000D01*
X223105030Y-48000000D01*
G36*
X223105030Y-48000000D02*
G01*
X223100000Y-48005020D01*
X223100000Y-47500000D01*
X223605022Y-47500000D01*
X223105030Y-48000000D01*
G37*
X223105030Y-49825000D02*
X223100000Y-49830020D01*
X223100000Y-49325000D01*
X223605022Y-49325000D01*
X223105030Y-49825000D01*
G36*
X223105030Y-49825000D02*
G01*
X223100000Y-49830020D01*
X223100000Y-49325000D01*
X223605022Y-49325000D01*
X223105030Y-49825000D01*
G37*
X223747500Y-33247500D02*
X223327500Y-33247500D01*
X223327500Y-32327500D01*
X223747500Y-32327500D01*
X223747500Y-33247500D01*
G36*
X223747500Y-33247500D02*
G01*
X223327500Y-33247500D01*
X223327500Y-32327500D01*
X223747500Y-32327500D01*
X223747500Y-33247500D01*
G37*
X223747500Y-35717500D02*
X223327500Y-35717500D01*
X223327500Y-34797500D01*
X223747500Y-34797500D01*
X223747500Y-35717500D01*
G36*
X223747500Y-35717500D02*
G01*
X223327500Y-35717500D01*
X223327500Y-34797500D01*
X223747500Y-34797500D01*
X223747500Y-35717500D01*
G37*
X223747500Y-52077500D02*
X223327500Y-52077500D01*
X223327500Y-51157500D01*
X223747500Y-51157500D01*
X223747500Y-52077500D01*
G36*
X223747500Y-52077500D02*
G01*
X223327500Y-52077500D01*
X223327500Y-51157500D01*
X223747500Y-51157500D01*
X223747500Y-52077500D01*
G37*
X223747500Y-54547500D02*
X223327500Y-54547500D01*
X223327500Y-53627500D01*
X223747500Y-53627500D01*
X223747500Y-54547500D01*
G36*
X223747500Y-54547500D02*
G01*
X223327500Y-54547500D01*
X223327500Y-53627500D01*
X223747500Y-53627500D01*
X223747500Y-54547500D01*
G37*
X224547500Y-33247500D02*
X224127500Y-33247500D01*
X224127500Y-32327500D01*
X224547500Y-32327500D01*
X224547500Y-33247500D01*
G36*
X224547500Y-33247500D02*
G01*
X224127500Y-33247500D01*
X224127500Y-32327500D01*
X224547500Y-32327500D01*
X224547500Y-33247500D01*
G37*
X224547500Y-35717500D02*
X224127500Y-35717500D01*
X224127500Y-34797500D01*
X224547500Y-34797500D01*
X224547500Y-35717500D01*
G36*
X224547500Y-35717500D02*
G01*
X224127500Y-35717500D01*
X224127500Y-34797500D01*
X224547500Y-34797500D01*
X224547500Y-35717500D01*
G37*
X224547500Y-52077500D02*
X224127500Y-52077500D01*
X224127500Y-51157500D01*
X224547500Y-51157500D01*
X224547500Y-52077500D01*
G36*
X224547500Y-52077500D02*
G01*
X224127500Y-52077500D01*
X224127500Y-51157500D01*
X224547500Y-51157500D01*
X224547500Y-52077500D01*
G37*
X224547500Y-54547500D02*
X224127500Y-54547500D01*
X224127500Y-53627500D01*
X224547500Y-53627500D01*
X224547500Y-54547500D01*
G36*
X224547500Y-54547500D02*
G01*
X224127500Y-54547500D01*
X224127500Y-53627500D01*
X224547500Y-53627500D01*
X224547500Y-54547500D01*
G37*
X224580028Y-37050000D02*
X224575003Y-37055020D01*
X224575003Y-36550000D01*
X225080022Y-36550000D01*
X224580028Y-37050000D01*
G36*
X224580028Y-37050000D02*
G01*
X224575003Y-37055020D01*
X224575003Y-36550000D01*
X225080022Y-36550000D01*
X224580028Y-37050000D01*
G37*
X224580028Y-38875000D02*
X224575003Y-38880020D01*
X224575003Y-38375000D01*
X225080022Y-38375000D01*
X224580028Y-38875000D01*
G36*
X224580028Y-38875000D02*
G01*
X224575003Y-38880020D01*
X224575003Y-38375000D01*
X225080022Y-38375000D01*
X224580028Y-38875000D01*
G37*
X224580028Y-40700000D02*
X224575003Y-40705020D01*
X224575003Y-40200000D01*
X225080022Y-40200000D01*
X224580028Y-40700000D01*
G36*
X224580028Y-40700000D02*
G01*
X224575003Y-40705020D01*
X224575003Y-40200000D01*
X225080022Y-40200000D01*
X224580028Y-40700000D01*
G37*
X224580028Y-42525000D02*
X224575003Y-42530022D01*
X224575003Y-42025000D01*
X225080022Y-42025000D01*
X224580028Y-42525000D01*
G36*
X224580028Y-42525000D02*
G01*
X224575003Y-42530022D01*
X224575003Y-42025000D01*
X225080022Y-42025000D01*
X224580028Y-42525000D01*
G37*
X224580028Y-44350000D02*
X224575003Y-44355022D01*
X224575003Y-43850003D01*
X225080022Y-43850003D01*
X224580028Y-44350000D01*
G36*
X224580028Y-44350000D02*
G01*
X224575003Y-44355022D01*
X224575003Y-43850003D01*
X225080022Y-43850003D01*
X224580028Y-44350000D01*
G37*
X224580028Y-46175000D02*
X224575003Y-46180020D01*
X224575003Y-45675000D01*
X225080022Y-45675000D01*
X224580028Y-46175000D01*
G36*
X224580028Y-46175000D02*
G01*
X224575003Y-46180020D01*
X224575003Y-45675000D01*
X225080022Y-45675000D01*
X224580028Y-46175000D01*
G37*
X224580028Y-48000000D02*
X224575003Y-48005020D01*
X224575003Y-47500000D01*
X225080022Y-47500000D01*
X224580028Y-48000000D01*
G36*
X224580028Y-48000000D02*
G01*
X224575003Y-48005020D01*
X224575003Y-47500000D01*
X225080022Y-47500000D01*
X224580028Y-48000000D01*
G37*
X224580028Y-49825000D02*
X224575003Y-49830020D01*
X224575003Y-49325000D01*
X225080022Y-49325000D01*
X224580028Y-49825000D01*
G36*
X224580028Y-49825000D02*
G01*
X224575003Y-49830020D01*
X224575003Y-49325000D01*
X225080022Y-49325000D01*
X224580028Y-49825000D01*
G37*
X225347500Y-33247500D02*
X224927500Y-33247500D01*
X224927500Y-32327500D01*
X225347500Y-32327500D01*
X225347500Y-33247500D01*
G36*
X225347500Y-33247500D02*
G01*
X224927500Y-33247500D01*
X224927500Y-32327500D01*
X225347500Y-32327500D01*
X225347500Y-33247500D01*
G37*
X225347500Y-35717500D02*
X224927500Y-35717500D01*
X224927500Y-34797500D01*
X225347500Y-34797500D01*
X225347500Y-35717500D01*
G36*
X225347500Y-35717500D02*
G01*
X224927500Y-35717500D01*
X224927500Y-34797500D01*
X225347500Y-34797500D01*
X225347500Y-35717500D01*
G37*
X225347500Y-52077500D02*
X224927500Y-52077500D01*
X224927500Y-51157500D01*
X225347500Y-51157500D01*
X225347500Y-52077500D01*
G36*
X225347500Y-52077500D02*
G01*
X224927500Y-52077500D01*
X224927500Y-51157500D01*
X225347500Y-51157500D01*
X225347500Y-52077500D01*
G37*
X225347500Y-54547500D02*
X224927500Y-54547500D01*
X224927500Y-53627500D01*
X225347500Y-53627500D01*
X225347500Y-54547500D01*
G36*
X225347500Y-54547500D02*
G01*
X224927500Y-54547500D01*
X224927500Y-53627500D01*
X225347500Y-53627500D01*
X225347500Y-54547500D01*
G37*
X226147500Y-33247500D02*
X225727500Y-33247500D01*
X225727500Y-32327500D01*
X226147500Y-32327500D01*
X226147500Y-33247500D01*
G36*
X226147500Y-33247500D02*
G01*
X225727500Y-33247500D01*
X225727500Y-32327500D01*
X226147500Y-32327500D01*
X226147500Y-33247500D01*
G37*
X226147500Y-35717500D02*
X225727500Y-35717500D01*
X225727500Y-34797500D01*
X226147500Y-34797500D01*
X226147500Y-35717500D01*
G36*
X226147500Y-35717500D02*
G01*
X225727500Y-35717500D01*
X225727500Y-34797500D01*
X226147500Y-34797500D01*
X226147500Y-35717500D01*
G37*
X226147500Y-52077500D02*
X225727500Y-52077500D01*
X225727500Y-51157500D01*
X226147500Y-51157500D01*
X226147500Y-52077500D01*
G36*
X226147500Y-52077500D02*
G01*
X225727500Y-52077500D01*
X225727500Y-51157500D01*
X226147500Y-51157500D01*
X226147500Y-52077500D01*
G37*
X226147500Y-54547500D02*
X225727500Y-54547500D01*
X225727500Y-53627500D01*
X226147500Y-53627500D01*
X226147500Y-54547500D01*
G36*
X226147500Y-54547500D02*
G01*
X225727500Y-54547500D01*
X225727500Y-53627500D01*
X226147500Y-53627500D01*
X226147500Y-54547500D01*
G37*
X226055030Y-37050000D02*
X226050000Y-37055020D01*
X226050000Y-36550000D01*
X226555020Y-36550000D01*
X226055030Y-37050000D01*
G36*
X226055030Y-37050000D02*
G01*
X226050000Y-37055020D01*
X226050000Y-36550000D01*
X226555020Y-36550000D01*
X226055030Y-37050000D01*
G37*
X226055030Y-38875000D02*
X226050000Y-38880020D01*
X226050000Y-38375000D01*
X226555020Y-38375000D01*
X226055030Y-38875000D01*
G36*
X226055030Y-38875000D02*
G01*
X226050000Y-38880020D01*
X226050000Y-38375000D01*
X226555020Y-38375000D01*
X226055030Y-38875000D01*
G37*
X226055030Y-40700000D02*
X226050000Y-40705020D01*
X226050000Y-40200000D01*
X226555020Y-40200000D01*
X226055030Y-40700000D01*
G36*
X226055030Y-40700000D02*
G01*
X226050000Y-40705020D01*
X226050000Y-40200000D01*
X226555020Y-40200000D01*
X226055030Y-40700000D01*
G37*
X226055030Y-42525000D02*
X226050000Y-42530022D01*
X226050000Y-42025000D01*
X226555020Y-42025000D01*
X226055030Y-42525000D01*
G36*
X226055030Y-42525000D02*
G01*
X226050000Y-42530022D01*
X226050000Y-42025000D01*
X226555020Y-42025000D01*
X226055030Y-42525000D01*
G37*
X226055030Y-44350000D02*
X226050000Y-44355022D01*
X226050000Y-43850003D01*
X226555020Y-43850003D01*
X226055030Y-44350000D01*
G36*
X226055030Y-44350000D02*
G01*
X226050000Y-44355022D01*
X226050000Y-43850003D01*
X226555020Y-43850003D01*
X226055030Y-44350000D01*
G37*
X226055030Y-46175000D02*
X226050000Y-46180020D01*
X226050000Y-45675000D01*
X226555020Y-45675000D01*
X226055030Y-46175000D01*
G36*
X226055030Y-46175000D02*
G01*
X226050000Y-46180020D01*
X226050000Y-45675000D01*
X226555020Y-45675000D01*
X226055030Y-46175000D01*
G37*
X226055030Y-48000000D02*
X226050000Y-48005020D01*
X226050000Y-47500000D01*
X226555020Y-47500000D01*
X226055030Y-48000000D01*
G36*
X226055030Y-48000000D02*
G01*
X226050000Y-48005020D01*
X226050000Y-47500000D01*
X226555020Y-47500000D01*
X226055030Y-48000000D01*
G37*
X226055030Y-49825000D02*
X226050000Y-49830020D01*
X226050000Y-49325000D01*
X226555020Y-49325000D01*
X226055030Y-49825000D01*
G36*
X226055030Y-49825000D02*
G01*
X226050000Y-49830020D01*
X226050000Y-49325000D01*
X226555020Y-49325000D01*
X226055030Y-49825000D01*
G37*
X226947500Y-33247500D02*
X226527500Y-33247500D01*
X226527500Y-32327500D01*
X226947500Y-32327500D01*
X226947500Y-33247500D01*
G36*
X226947500Y-33247500D02*
G01*
X226527500Y-33247500D01*
X226527500Y-32327500D01*
X226947500Y-32327500D01*
X226947500Y-33247500D01*
G37*
X226947500Y-35717500D02*
X226527500Y-35717500D01*
X226527500Y-34797500D01*
X226947500Y-34797500D01*
X226947500Y-35717500D01*
G36*
X226947500Y-35717500D02*
G01*
X226527500Y-35717500D01*
X226527500Y-34797500D01*
X226947500Y-34797500D01*
X226947500Y-35717500D01*
G37*
X226947500Y-52077500D02*
X226527500Y-52077500D01*
X226527500Y-51157500D01*
X226947500Y-51157500D01*
X226947500Y-52077500D01*
G36*
X226947500Y-52077500D02*
G01*
X226527500Y-52077500D01*
X226527500Y-51157500D01*
X226947500Y-51157500D01*
X226947500Y-52077500D01*
G37*
X226947500Y-54547500D02*
X226527500Y-54547500D01*
X226527500Y-53627500D01*
X226947500Y-53627500D01*
X226947500Y-54547500D01*
G36*
X226947500Y-54547500D02*
G01*
X226527500Y-54547500D01*
X226527500Y-53627500D01*
X226947500Y-53627500D01*
X226947500Y-54547500D01*
G37*
X227747500Y-33247500D02*
X227327500Y-33247500D01*
X227327500Y-32327500D01*
X227747500Y-32327500D01*
X227747500Y-33247500D01*
G36*
X227747500Y-33247500D02*
G01*
X227327500Y-33247500D01*
X227327500Y-32327500D01*
X227747500Y-32327500D01*
X227747500Y-33247500D01*
G37*
X227747500Y-35717500D02*
X227327500Y-35717500D01*
X227327500Y-34797500D01*
X227747500Y-34797500D01*
X227747500Y-35717500D01*
G36*
X227747500Y-35717500D02*
G01*
X227327500Y-35717500D01*
X227327500Y-34797500D01*
X227747500Y-34797500D01*
X227747500Y-35717500D01*
G37*
X227747500Y-52077500D02*
X227327500Y-52077500D01*
X227327500Y-51157500D01*
X227747500Y-51157500D01*
X227747500Y-52077500D01*
G36*
X227747500Y-52077500D02*
G01*
X227327500Y-52077500D01*
X227327500Y-51157500D01*
X227747500Y-51157500D01*
X227747500Y-52077500D01*
G37*
X227747500Y-54547500D02*
X227327500Y-54547500D01*
X227327500Y-53627500D01*
X227747500Y-53627500D01*
X227747500Y-54547500D01*
G36*
X227747500Y-54547500D02*
G01*
X227327500Y-54547500D01*
X227327500Y-53627500D01*
X227747500Y-53627500D01*
X227747500Y-54547500D01*
G37*
X227530030Y-37050000D02*
X227525000Y-37055020D01*
X227525000Y-36550000D01*
X228030020Y-36550000D01*
X227530030Y-37050000D01*
G36*
X227530030Y-37050000D02*
G01*
X227525000Y-37055020D01*
X227525000Y-36550000D01*
X228030020Y-36550000D01*
X227530030Y-37050000D01*
G37*
X227530030Y-38875000D02*
X227525000Y-38880020D01*
X227525000Y-38375000D01*
X228030020Y-38375000D01*
X227530030Y-38875000D01*
G36*
X227530030Y-38875000D02*
G01*
X227525000Y-38880020D01*
X227525000Y-38375000D01*
X228030020Y-38375000D01*
X227530030Y-38875000D01*
G37*
X227530030Y-40700000D02*
X227525000Y-40705020D01*
X227525000Y-40200000D01*
X228030020Y-40200000D01*
X227530030Y-40700000D01*
G36*
X227530030Y-40700000D02*
G01*
X227525000Y-40705020D01*
X227525000Y-40200000D01*
X228030020Y-40200000D01*
X227530030Y-40700000D01*
G37*
X227530030Y-42525000D02*
X227525000Y-42530022D01*
X227525000Y-42025000D01*
X228030020Y-42025000D01*
X227530030Y-42525000D01*
G36*
X227530030Y-42525000D02*
G01*
X227525000Y-42530022D01*
X227525000Y-42025000D01*
X228030020Y-42025000D01*
X227530030Y-42525000D01*
G37*
X227530030Y-44350000D02*
X227525000Y-44355022D01*
X227525000Y-43850003D01*
X228030020Y-43850003D01*
X227530030Y-44350000D01*
G36*
X227530030Y-44350000D02*
G01*
X227525000Y-44355022D01*
X227525000Y-43850003D01*
X228030020Y-43850003D01*
X227530030Y-44350000D01*
G37*
X227530030Y-46175000D02*
X227525000Y-46180020D01*
X227525000Y-45675000D01*
X228030020Y-45675000D01*
X227530030Y-46175000D01*
G36*
X227530030Y-46175000D02*
G01*
X227525000Y-46180020D01*
X227525000Y-45675000D01*
X228030020Y-45675000D01*
X227530030Y-46175000D01*
G37*
X227530030Y-48000000D02*
X227525000Y-48005020D01*
X227525000Y-47500000D01*
X228030020Y-47500000D01*
X227530030Y-48000000D01*
G36*
X227530030Y-48000000D02*
G01*
X227525000Y-48005020D01*
X227525000Y-47500000D01*
X228030020Y-47500000D01*
X227530030Y-48000000D01*
G37*
X227530030Y-49825000D02*
X227525000Y-49830020D01*
X227525000Y-49325000D01*
X228030020Y-49325000D01*
X227530030Y-49825000D01*
G36*
X227530030Y-49825000D02*
G01*
X227525000Y-49830020D01*
X227525000Y-49325000D01*
X228030020Y-49325000D01*
X227530030Y-49825000D01*
G37*
X228547500Y-33247500D02*
X228127500Y-33247500D01*
X228127500Y-32327500D01*
X228547500Y-32327500D01*
X228547500Y-33247500D01*
G36*
X228547500Y-33247500D02*
G01*
X228127500Y-33247500D01*
X228127500Y-32327500D01*
X228547500Y-32327500D01*
X228547500Y-33247500D01*
G37*
X228547500Y-35717500D02*
X228127500Y-35717500D01*
X228127500Y-34797500D01*
X228547500Y-34797500D01*
X228547500Y-35717500D01*
G36*
X228547500Y-35717500D02*
G01*
X228127500Y-35717500D01*
X228127500Y-34797500D01*
X228547500Y-34797500D01*
X228547500Y-35717500D01*
G37*
X228547500Y-52077500D02*
X228127500Y-52077500D01*
X228127500Y-51157500D01*
X228547500Y-51157500D01*
X228547500Y-52077500D01*
G36*
X228547500Y-52077500D02*
G01*
X228127500Y-52077500D01*
X228127500Y-51157500D01*
X228547500Y-51157500D01*
X228547500Y-52077500D01*
G37*
X229347500Y-33247500D02*
X228927500Y-33247500D01*
X228927500Y-32327500D01*
X229347500Y-32327500D01*
X229347500Y-33247500D01*
G36*
X229347500Y-33247500D02*
G01*
X228927500Y-33247500D01*
X228927500Y-32327500D01*
X229347500Y-32327500D01*
X229347500Y-33247500D01*
G37*
X229347500Y-35717500D02*
X228927500Y-35717500D01*
X228927500Y-34797500D01*
X229347500Y-34797500D01*
X229347500Y-35717500D01*
G36*
X229347500Y-35717500D02*
G01*
X228927500Y-35717500D01*
X228927500Y-34797500D01*
X229347500Y-34797500D01*
X229347500Y-35717500D01*
G37*
X229347500Y-52077500D02*
X228927500Y-52077500D01*
X228927500Y-51157500D01*
X229347500Y-51157500D01*
X229347500Y-52077500D01*
G36*
X229347500Y-52077500D02*
G01*
X228927500Y-52077500D01*
X228927500Y-51157500D01*
X229347500Y-51157500D01*
X229347500Y-52077500D01*
G37*
X229347500Y-54547500D02*
X228927500Y-54547500D01*
X228927500Y-53627500D01*
X229347500Y-53627500D01*
X229347500Y-54547500D01*
G36*
X229347500Y-54547500D02*
G01*
X228927500Y-54547500D01*
X228927500Y-53627500D01*
X229347500Y-53627500D01*
X229347500Y-54547500D01*
G37*
X229005030Y-37050000D02*
X229000000Y-37055020D01*
X229000000Y-36550000D01*
X229505020Y-36550000D01*
X229005030Y-37050000D01*
G36*
X229005030Y-37050000D02*
G01*
X229000000Y-37055020D01*
X229000000Y-36550000D01*
X229505020Y-36550000D01*
X229005030Y-37050000D01*
G37*
X229005030Y-38875000D02*
X229000000Y-38880020D01*
X229000000Y-38375000D01*
X229505020Y-38375000D01*
X229005030Y-38875000D01*
G36*
X229005030Y-38875000D02*
G01*
X229000000Y-38880020D01*
X229000000Y-38375000D01*
X229505020Y-38375000D01*
X229005030Y-38875000D01*
G37*
X229005030Y-40700000D02*
X229000000Y-40705020D01*
X229000000Y-40200000D01*
X229505020Y-40200000D01*
X229005030Y-40700000D01*
G36*
X229005030Y-40700000D02*
G01*
X229000000Y-40705020D01*
X229000000Y-40200000D01*
X229505020Y-40200000D01*
X229005030Y-40700000D01*
G37*
X229005030Y-42525000D02*
X229000000Y-42530022D01*
X229000000Y-42025000D01*
X229505020Y-42025000D01*
X229005030Y-42525000D01*
G36*
X229005030Y-42525000D02*
G01*
X229000000Y-42530022D01*
X229000000Y-42025000D01*
X229505020Y-42025000D01*
X229005030Y-42525000D01*
G37*
X229005030Y-44350000D02*
X229000000Y-44355022D01*
X229000000Y-43850003D01*
X229505020Y-43850003D01*
X229005030Y-44350000D01*
G36*
X229005030Y-44350000D02*
G01*
X229000000Y-44355022D01*
X229000000Y-43850003D01*
X229505020Y-43850003D01*
X229005030Y-44350000D01*
G37*
X229005030Y-46175000D02*
X229000000Y-46180020D01*
X229000000Y-45675000D01*
X229505020Y-45675000D01*
X229005030Y-46175000D01*
G36*
X229005030Y-46175000D02*
G01*
X229000000Y-46180020D01*
X229000000Y-45675000D01*
X229505020Y-45675000D01*
X229005030Y-46175000D01*
G37*
X229005030Y-48000000D02*
X229000000Y-48005020D01*
X229000000Y-47500000D01*
X229505020Y-47500000D01*
X229005030Y-48000000D01*
G36*
X229005030Y-48000000D02*
G01*
X229000000Y-48005020D01*
X229000000Y-47500000D01*
X229505020Y-47500000D01*
X229005030Y-48000000D01*
G37*
X229005030Y-49825000D02*
X229000000Y-49830020D01*
X229000000Y-49325000D01*
X229505020Y-49325000D01*
X229005030Y-49825000D01*
G36*
X229005030Y-49825000D02*
G01*
X229000000Y-49830020D01*
X229000000Y-49325000D01*
X229505020Y-49325000D01*
X229005030Y-49825000D01*
G37*
X230147500Y-33247500D02*
X229727500Y-33247500D01*
X229727500Y-32327500D01*
X230147500Y-32327500D01*
X230147500Y-33247500D01*
G36*
X230147500Y-33247500D02*
G01*
X229727500Y-33247500D01*
X229727500Y-32327500D01*
X230147500Y-32327500D01*
X230147500Y-33247500D01*
G37*
X230147500Y-35717500D02*
X229727500Y-35717500D01*
X229727500Y-34797500D01*
X230147500Y-34797500D01*
X230147500Y-35717500D01*
G36*
X230147500Y-35717500D02*
G01*
X229727500Y-35717500D01*
X229727500Y-34797500D01*
X230147500Y-34797500D01*
X230147500Y-35717500D01*
G37*
X230147500Y-52077500D02*
X229727500Y-52077500D01*
X229727500Y-51157500D01*
X230147500Y-51157500D01*
X230147500Y-52077500D01*
G36*
X230147500Y-52077500D02*
G01*
X229727500Y-52077500D01*
X229727500Y-51157500D01*
X230147500Y-51157500D01*
X230147500Y-52077500D01*
G37*
X230147500Y-54547500D02*
X229727500Y-54547500D01*
X229727500Y-53627500D01*
X230147500Y-53627500D01*
X230147500Y-54547500D01*
G36*
X230147500Y-54547500D02*
G01*
X229727500Y-54547500D01*
X229727500Y-53627500D01*
X230147500Y-53627500D01*
X230147500Y-54547500D01*
G37*
X230947500Y-33247500D02*
X230527500Y-33247500D01*
X230527500Y-32327500D01*
X230947500Y-32327500D01*
X230947500Y-33247500D01*
G36*
X230947500Y-33247500D02*
G01*
X230527500Y-33247500D01*
X230527500Y-32327500D01*
X230947500Y-32327500D01*
X230947500Y-33247500D01*
G37*
X230947500Y-54547500D02*
X230527500Y-54547500D01*
X230527500Y-53627500D01*
X230947500Y-53627500D01*
X230947500Y-54547500D01*
G36*
X230947500Y-54547500D02*
G01*
X230527500Y-54547500D01*
X230527500Y-53627500D01*
X230947500Y-53627500D01*
X230947500Y-54547500D01*
G37*
X230622530Y-35257500D02*
X230617500Y-35262520D01*
X230617500Y-34757500D01*
X231122520Y-34757500D01*
X230622530Y-35257500D01*
G36*
X230622530Y-35257500D02*
G01*
X230617500Y-35262520D01*
X230617500Y-34757500D01*
X231122520Y-34757500D01*
X230622530Y-35257500D01*
G37*
X230622530Y-51617500D02*
X230617500Y-51622520D01*
X230617500Y-51117500D01*
X231122520Y-51117500D01*
X230622530Y-51617500D01*
G36*
X230622530Y-51617500D02*
G01*
X230617500Y-51622520D01*
X230617500Y-51117500D01*
X231122520Y-51117500D01*
X230622530Y-51617500D01*
G37*
X231577500Y-36847500D02*
X230657500Y-36847500D01*
X230657500Y-36427500D01*
X231577500Y-36427500D01*
X231577500Y-36847500D01*
G36*
X231577500Y-36847500D02*
G01*
X230657500Y-36847500D01*
X230657500Y-36427500D01*
X231577500Y-36427500D01*
X231577500Y-36847500D01*
G37*
X231577500Y-37647500D02*
X230657500Y-37647500D01*
X230657500Y-37227500D01*
X231577500Y-37227500D01*
X231577500Y-37647500D01*
G36*
X231577500Y-37647500D02*
G01*
X230657500Y-37647500D01*
X230657500Y-37227500D01*
X231577500Y-37227500D01*
X231577500Y-37647500D01*
G37*
X231577500Y-38447500D02*
X230657500Y-38447500D01*
X230657500Y-38027500D01*
X231577500Y-38027500D01*
X231577500Y-38447500D01*
G36*
X231577500Y-38447500D02*
G01*
X230657500Y-38447500D01*
X230657500Y-38027500D01*
X231577500Y-38027500D01*
X231577500Y-38447500D01*
G37*
X231577500Y-39247500D02*
X230657500Y-39247500D01*
X230657500Y-38827500D01*
X231577500Y-38827500D01*
X231577500Y-39247500D01*
G36*
X231577500Y-39247500D02*
G01*
X230657500Y-39247500D01*
X230657500Y-38827500D01*
X231577500Y-38827500D01*
X231577500Y-39247500D01*
G37*
X231577500Y-40047500D02*
X230657500Y-40047500D01*
X230657500Y-39627500D01*
X231577500Y-39627500D01*
X231577500Y-40047500D01*
G36*
X231577500Y-40047500D02*
G01*
X230657500Y-40047500D01*
X230657500Y-39627500D01*
X231577500Y-39627500D01*
X231577500Y-40047500D01*
G37*
X231577500Y-40847500D02*
X230657500Y-40847500D01*
X230657500Y-40427500D01*
X231577500Y-40427500D01*
X231577500Y-40847500D01*
G36*
X231577500Y-40847500D02*
G01*
X230657500Y-40847500D01*
X230657500Y-40427500D01*
X231577500Y-40427500D01*
X231577500Y-40847500D01*
G37*
X231577500Y-41647500D02*
X230657500Y-41647500D01*
X230657500Y-41227500D01*
X231577500Y-41227500D01*
X231577500Y-41647500D01*
G36*
X231577500Y-41647500D02*
G01*
X230657500Y-41647500D01*
X230657500Y-41227500D01*
X231577500Y-41227500D01*
X231577500Y-41647500D01*
G37*
X231577500Y-42447500D02*
X230657500Y-42447500D01*
X230657500Y-42027500D01*
X231577500Y-42027500D01*
X231577500Y-42447500D01*
G36*
X231577500Y-42447500D02*
G01*
X230657500Y-42447500D01*
X230657500Y-42027500D01*
X231577500Y-42027500D01*
X231577500Y-42447500D01*
G37*
X231577500Y-43247500D02*
X230657500Y-43247500D01*
X230657500Y-42827500D01*
X231577500Y-42827500D01*
X231577500Y-43247500D01*
G36*
X231577500Y-43247500D02*
G01*
X230657500Y-43247500D01*
X230657500Y-42827500D01*
X231577500Y-42827500D01*
X231577500Y-43247500D01*
G37*
X231577500Y-44047500D02*
X230657500Y-44047500D01*
X230657500Y-43627500D01*
X231577500Y-43627500D01*
X231577500Y-44047500D01*
G36*
X231577500Y-44047500D02*
G01*
X230657500Y-44047500D01*
X230657500Y-43627500D01*
X231577500Y-43627500D01*
X231577500Y-44047500D01*
G37*
X231577500Y-44847500D02*
X230657500Y-44847500D01*
X230657500Y-44427500D01*
X231577500Y-44427500D01*
X231577500Y-44847500D01*
G36*
X231577500Y-44847500D02*
G01*
X230657500Y-44847500D01*
X230657500Y-44427500D01*
X231577500Y-44427500D01*
X231577500Y-44847500D01*
G37*
X231577500Y-45647500D02*
X230657500Y-45647500D01*
X230657500Y-45227500D01*
X231577500Y-45227500D01*
X231577500Y-45647500D01*
G36*
X231577500Y-45647500D02*
G01*
X230657500Y-45647500D01*
X230657500Y-45227500D01*
X231577500Y-45227500D01*
X231577500Y-45647500D01*
G37*
X231577500Y-46447500D02*
X230657500Y-46447500D01*
X230657500Y-46027500D01*
X231577500Y-46027500D01*
X231577500Y-46447500D01*
G36*
X231577500Y-46447500D02*
G01*
X230657500Y-46447500D01*
X230657500Y-46027500D01*
X231577500Y-46027500D01*
X231577500Y-46447500D01*
G37*
X231577500Y-47247500D02*
X230657500Y-47247500D01*
X230657500Y-46827500D01*
X231577500Y-46827500D01*
X231577500Y-47247500D01*
G36*
X231577500Y-47247500D02*
G01*
X230657500Y-47247500D01*
X230657500Y-46827500D01*
X231577500Y-46827500D01*
X231577500Y-47247500D01*
G37*
X231577500Y-48047500D02*
X230657500Y-48047500D01*
X230657500Y-47627500D01*
X231577500Y-47627500D01*
X231577500Y-48047500D01*
G36*
X231577500Y-48047500D02*
G01*
X230657500Y-48047500D01*
X230657500Y-47627500D01*
X231577500Y-47627500D01*
X231577500Y-48047500D01*
G37*
X231577500Y-48847500D02*
X230657500Y-48847500D01*
X230657500Y-48427500D01*
X231577500Y-48427500D01*
X231577500Y-48847500D01*
G36*
X231577500Y-48847500D02*
G01*
X230657500Y-48847500D01*
X230657500Y-48427500D01*
X231577500Y-48427500D01*
X231577500Y-48847500D01*
G37*
X231577500Y-49647500D02*
X230657500Y-49647500D01*
X230657500Y-49227500D01*
X231577500Y-49227500D01*
X231577500Y-49647500D01*
G36*
X231577500Y-49647500D02*
G01*
X230657500Y-49647500D01*
X230657500Y-49227500D01*
X231577500Y-49227500D01*
X231577500Y-49647500D01*
G37*
X231577500Y-50447500D02*
X230657500Y-50447500D01*
X230657500Y-50027500D01*
X231577500Y-50027500D01*
X231577500Y-50447500D01*
G36*
X231577500Y-50447500D02*
G01*
X230657500Y-50447500D01*
X230657500Y-50027500D01*
X231577500Y-50027500D01*
X231577500Y-50447500D01*
G37*
X231747500Y-33247500D02*
X231327500Y-33247500D01*
X231327500Y-32327500D01*
X231747500Y-32327500D01*
X231747500Y-33247500D01*
G36*
X231747500Y-33247500D02*
G01*
X231327500Y-33247500D01*
X231327500Y-32327500D01*
X231747500Y-32327500D01*
X231747500Y-33247500D01*
G37*
X231747500Y-54547500D02*
X231327500Y-54547500D01*
X231327500Y-53627500D01*
X231747500Y-53627500D01*
X231747500Y-54547500D01*
G36*
X231747500Y-54547500D02*
G01*
X231327500Y-54547500D01*
X231327500Y-53627500D01*
X231747500Y-53627500D01*
X231747500Y-54547500D01*
G37*
X232547500Y-33247500D02*
X232127500Y-33247500D01*
X232127500Y-32327500D01*
X232547500Y-32327500D01*
X232547500Y-33247500D01*
G36*
X232547500Y-33247500D02*
G01*
X232127500Y-33247500D01*
X232127500Y-32327500D01*
X232547500Y-32327500D01*
X232547500Y-33247500D01*
G37*
X232547500Y-54547500D02*
X232127500Y-54547500D01*
X232127500Y-53627500D01*
X232547500Y-53627500D01*
X232547500Y-54547500D01*
G36*
X232547500Y-54547500D02*
G01*
X232127500Y-54547500D01*
X232127500Y-53627500D01*
X232547500Y-53627500D01*
X232547500Y-54547500D01*
G37*
X233347500Y-33247500D02*
X232927500Y-33247500D01*
X232927500Y-32327500D01*
X233347500Y-32327500D01*
X233347500Y-33247500D01*
G36*
X233347500Y-33247500D02*
G01*
X232927500Y-33247500D01*
X232927500Y-32327500D01*
X233347500Y-32327500D01*
X233347500Y-33247500D01*
G37*
X233347500Y-54547500D02*
X232927500Y-54547500D01*
X232927500Y-53627500D01*
X233347500Y-53627500D01*
X233347500Y-54547500D01*
G36*
X233347500Y-54547500D02*
G01*
X232927500Y-54547500D01*
X232927500Y-53627500D01*
X233347500Y-53627500D01*
X233347500Y-54547500D01*
G37*
X234747500Y-34047500D02*
X233827500Y-34047500D01*
X233827500Y-33627500D01*
X234747500Y-33627500D01*
X234747500Y-34047500D01*
G36*
X234747500Y-34047500D02*
G01*
X233827500Y-34047500D01*
X233827500Y-33627500D01*
X234747500Y-33627500D01*
X234747500Y-34047500D01*
G37*
X234747500Y-34847500D02*
X233827500Y-34847500D01*
X233827500Y-34427500D01*
X234747500Y-34427500D01*
X234747500Y-34847500D01*
G36*
X234747500Y-34847500D02*
G01*
X233827500Y-34847500D01*
X233827500Y-34427500D01*
X234747500Y-34427500D01*
X234747500Y-34847500D01*
G37*
X234747500Y-35647500D02*
X233827500Y-35647500D01*
X233827500Y-35227500D01*
X234747500Y-35227500D01*
X234747500Y-35647500D01*
G36*
X234747500Y-35647500D02*
G01*
X233827500Y-35647500D01*
X233827500Y-35227500D01*
X234747500Y-35227500D01*
X234747500Y-35647500D01*
G37*
X234747500Y-36447500D02*
X233827500Y-36447500D01*
X233827500Y-36027500D01*
X234747500Y-36027500D01*
X234747500Y-36447500D01*
G36*
X234747500Y-36447500D02*
G01*
X233827500Y-36447500D01*
X233827500Y-36027500D01*
X234747500Y-36027500D01*
X234747500Y-36447500D01*
G37*
X234747500Y-37247500D02*
X233827500Y-37247500D01*
X233827500Y-36827500D01*
X234747500Y-36827500D01*
X234747500Y-37247500D01*
G36*
X234747500Y-37247500D02*
G01*
X233827500Y-37247500D01*
X233827500Y-36827500D01*
X234747500Y-36827500D01*
X234747500Y-37247500D01*
G37*
X234747500Y-39647500D02*
X233827500Y-39647500D01*
X233827500Y-39227500D01*
X234747500Y-39227500D01*
X234747500Y-39647500D01*
G36*
X234747500Y-39647500D02*
G01*
X233827500Y-39647500D01*
X233827500Y-39227500D01*
X234747500Y-39227500D01*
X234747500Y-39647500D01*
G37*
X234747500Y-40447500D02*
X233827500Y-40447500D01*
X233827500Y-40027500D01*
X234747500Y-40027500D01*
X234747500Y-40447500D01*
G36*
X234747500Y-40447500D02*
G01*
X233827500Y-40447500D01*
X233827500Y-40027500D01*
X234747500Y-40027500D01*
X234747500Y-40447500D01*
G37*
X234747500Y-41247500D02*
X233827500Y-41247500D01*
X233827500Y-40827500D01*
X234747500Y-40827500D01*
X234747500Y-41247500D01*
G36*
X234747500Y-41247500D02*
G01*
X233827500Y-41247500D01*
X233827500Y-40827500D01*
X234747500Y-40827500D01*
X234747500Y-41247500D01*
G37*
X234747500Y-42047500D02*
X233827500Y-42047500D01*
X233827500Y-41627500D01*
X234747500Y-41627500D01*
X234747500Y-42047500D01*
G36*
X234747500Y-42047500D02*
G01*
X233827500Y-42047500D01*
X233827500Y-41627500D01*
X234747500Y-41627500D01*
X234747500Y-42047500D01*
G37*
X234747500Y-42847500D02*
X233827500Y-42847500D01*
X233827500Y-42427500D01*
X234747500Y-42427500D01*
X234747500Y-42847500D01*
G36*
X234747500Y-42847500D02*
G01*
X233827500Y-42847500D01*
X233827500Y-42427500D01*
X234747500Y-42427500D01*
X234747500Y-42847500D01*
G37*
X234747500Y-43647500D02*
X233827500Y-43647500D01*
X233827500Y-43227500D01*
X234747500Y-43227500D01*
X234747500Y-43647500D01*
G36*
X234747500Y-43647500D02*
G01*
X233827500Y-43647500D01*
X233827500Y-43227500D01*
X234747500Y-43227500D01*
X234747500Y-43647500D01*
G37*
X234747500Y-44447500D02*
X233827500Y-44447500D01*
X233827500Y-44027500D01*
X234747500Y-44027500D01*
X234747500Y-44447500D01*
G36*
X234747500Y-44447500D02*
G01*
X233827500Y-44447500D01*
X233827500Y-44027500D01*
X234747500Y-44027500D01*
X234747500Y-44447500D01*
G37*
X234747500Y-45247500D02*
X233827500Y-45247500D01*
X233827500Y-44827500D01*
X234747500Y-44827500D01*
X234747500Y-45247500D01*
G36*
X234747500Y-45247500D02*
G01*
X233827500Y-45247500D01*
X233827500Y-44827500D01*
X234747500Y-44827500D01*
X234747500Y-45247500D01*
G37*
X234747500Y-46047500D02*
X233827500Y-46047500D01*
X233827500Y-45627500D01*
X234747500Y-45627500D01*
X234747500Y-46047500D01*
G36*
X234747500Y-46047500D02*
G01*
X233827500Y-46047500D01*
X233827500Y-45627500D01*
X234747500Y-45627500D01*
X234747500Y-46047500D01*
G37*
X234747500Y-48447500D02*
X233827500Y-48447500D01*
X233827500Y-48027500D01*
X234747500Y-48027500D01*
X234747500Y-48447500D01*
G36*
X234747500Y-48447500D02*
G01*
X233827500Y-48447500D01*
X233827500Y-48027500D01*
X234747500Y-48027500D01*
X234747500Y-48447500D01*
G37*
X234747500Y-49247500D02*
X233827500Y-49247500D01*
X233827500Y-48827500D01*
X234747500Y-48827500D01*
X234747500Y-49247500D01*
G36*
X234747500Y-49247500D02*
G01*
X233827500Y-49247500D01*
X233827500Y-48827500D01*
X234747500Y-48827500D01*
X234747500Y-49247500D01*
G37*
X234747500Y-50047500D02*
X233827500Y-50047500D01*
X233827500Y-49627500D01*
X234747500Y-49627500D01*
X234747500Y-50047500D01*
G36*
X234747500Y-50047500D02*
G01*
X233827500Y-50047500D01*
X233827500Y-49627500D01*
X234747500Y-49627500D01*
X234747500Y-50047500D01*
G37*
X234747500Y-50847500D02*
X233827500Y-50847500D01*
X233827500Y-50427500D01*
X234747500Y-50427500D01*
X234747500Y-50847500D01*
G36*
X234747500Y-50847500D02*
G01*
X233827500Y-50847500D01*
X233827500Y-50427500D01*
X234747500Y-50427500D01*
X234747500Y-50847500D01*
G37*
X234747500Y-51647500D02*
X233827500Y-51647500D01*
X233827500Y-51227500D01*
X234747500Y-51227500D01*
X234747500Y-51647500D01*
G36*
X234747500Y-51647500D02*
G01*
X233827500Y-51647500D01*
X233827500Y-51227500D01*
X234747500Y-51227500D01*
X234747500Y-51647500D01*
G37*
X234747500Y-52447500D02*
X233827500Y-52447500D01*
X233827500Y-52027500D01*
X234747500Y-52027500D01*
X234747500Y-52447500D01*
G36*
X234747500Y-52447500D02*
G01*
X233827500Y-52447500D01*
X233827500Y-52027500D01*
X234747500Y-52027500D01*
X234747500Y-52447500D01*
G37*
X234747500Y-53247500D02*
X233827500Y-53247500D01*
X233827500Y-52827500D01*
X234747500Y-52827500D01*
X234747500Y-53247500D01*
G36*
X234747500Y-53247500D02*
G01*
X233827500Y-53247500D01*
X233827500Y-52827500D01*
X234747500Y-52827500D01*
X234747500Y-53247500D01*
G37*
X218057500Y-35757500D02*
X217552480Y-35757500D01*
X217557500Y-35752470D01*
X218017120Y-35292850D01*
X218057500Y-35252480D01*
X218057500Y-35757500D01*
G36*
X218057500Y-35757500D02*
G01*
X217552480Y-35757500D01*
X217557500Y-35752470D01*
X218017120Y-35292850D01*
X218057500Y-35252480D01*
X218057500Y-35757500D01*
G37*
X218057500Y-52117500D02*
X217552480Y-52117500D01*
X217557500Y-52112470D01*
X218017120Y-51652850D01*
X218057500Y-51612480D01*
X218057500Y-52117500D01*
G36*
X218057500Y-52117500D02*
G01*
X217552480Y-52117500D01*
X217557500Y-52112470D01*
X218017120Y-51652850D01*
X218057500Y-51612480D01*
X218057500Y-52117500D01*
G37*
X219675000Y-37550000D02*
X219169980Y-37550000D01*
X219175000Y-37544970D01*
X219634620Y-37085350D01*
X219675000Y-37044980D01*
X219675000Y-37550000D01*
G36*
X219675000Y-37550000D02*
G01*
X219169980Y-37550000D01*
X219175000Y-37544970D01*
X219634620Y-37085350D01*
X219675000Y-37044980D01*
X219675000Y-37550000D01*
G37*
X219675000Y-39375000D02*
X219169980Y-39375000D01*
X219175000Y-39369970D01*
X219634620Y-38910350D01*
X219675000Y-38869980D01*
X219675000Y-39375000D01*
G36*
X219675000Y-39375000D02*
G01*
X219169980Y-39375000D01*
X219175000Y-39369970D01*
X219634620Y-38910350D01*
X219675000Y-38869980D01*
X219675000Y-39375000D01*
G37*
X219675000Y-41200000D02*
X219169980Y-41200000D01*
X219175000Y-41194970D01*
X219634620Y-40735350D01*
X219675000Y-40694980D01*
X219675000Y-41200000D01*
G36*
X219675000Y-41200000D02*
G01*
X219169980Y-41200000D01*
X219175000Y-41194970D01*
X219634620Y-40735350D01*
X219675000Y-40694980D01*
X219675000Y-41200000D01*
G37*
X219675000Y-43024997D02*
X219169980Y-43024997D01*
X219175000Y-43019972D01*
X219634620Y-42560353D01*
X219675000Y-42519978D01*
X219675000Y-43024997D01*
G36*
X219675000Y-43024997D02*
G01*
X219169980Y-43024997D01*
X219175000Y-43019972D01*
X219634620Y-42560353D01*
X219675000Y-42519978D01*
X219675000Y-43024997D01*
G37*
X219675000Y-44850000D02*
X219169980Y-44850000D01*
X219175000Y-44844970D01*
X219634620Y-44385353D01*
X219675000Y-44344978D01*
X219675000Y-44850000D01*
G36*
X219675000Y-44850000D02*
G01*
X219169980Y-44850000D01*
X219175000Y-44844970D01*
X219634620Y-44385353D01*
X219675000Y-44344978D01*
X219675000Y-44850000D01*
G37*
X219675000Y-46675000D02*
X219169980Y-46675000D01*
X219175000Y-46669970D01*
X219634620Y-46210350D01*
X219675000Y-46169980D01*
X219675000Y-46675000D01*
G36*
X219675000Y-46675000D02*
G01*
X219169980Y-46675000D01*
X219175000Y-46669970D01*
X219634620Y-46210350D01*
X219675000Y-46169980D01*
X219675000Y-46675000D01*
G37*
X219675000Y-48500000D02*
X219169980Y-48500000D01*
X219175000Y-48494970D01*
X219634620Y-48035350D01*
X219675000Y-47994980D01*
X219675000Y-48500000D01*
G36*
X219675000Y-48500000D02*
G01*
X219169980Y-48500000D01*
X219175000Y-48494970D01*
X219634620Y-48035350D01*
X219675000Y-47994980D01*
X219675000Y-48500000D01*
G37*
X219675000Y-50325000D02*
X219169980Y-50325000D01*
X219175000Y-50319970D01*
X219634620Y-49860350D01*
X219675000Y-49819980D01*
X219675000Y-50325000D01*
G36*
X219675000Y-50325000D02*
G01*
X219169980Y-50325000D01*
X219175000Y-50319970D01*
X219634620Y-49860350D01*
X219675000Y-49819980D01*
X219675000Y-50325000D01*
G37*
X221150000Y-37550000D02*
X220644980Y-37550000D01*
X220650000Y-37544970D01*
X221109620Y-37085350D01*
X221150000Y-37044980D01*
X221150000Y-37550000D01*
G36*
X221150000Y-37550000D02*
G01*
X220644980Y-37550000D01*
X220650000Y-37544970D01*
X221109620Y-37085350D01*
X221150000Y-37044980D01*
X221150000Y-37550000D01*
G37*
X221150000Y-39375000D02*
X220644980Y-39375000D01*
X220650000Y-39369970D01*
X221109620Y-38910350D01*
X221150000Y-38869980D01*
X221150000Y-39375000D01*
G36*
X221150000Y-39375000D02*
G01*
X220644980Y-39375000D01*
X220650000Y-39369970D01*
X221109620Y-38910350D01*
X221150000Y-38869980D01*
X221150000Y-39375000D01*
G37*
X221150000Y-41200000D02*
X220644980Y-41200000D01*
X220650000Y-41194970D01*
X221109620Y-40735350D01*
X221150000Y-40694980D01*
X221150000Y-41200000D01*
G36*
X221150000Y-41200000D02*
G01*
X220644980Y-41200000D01*
X220650000Y-41194970D01*
X221109620Y-40735350D01*
X221150000Y-40694980D01*
X221150000Y-41200000D01*
G37*
X221150000Y-43024997D02*
X220644980Y-43024997D01*
X220650000Y-43019972D01*
X221109620Y-42560353D01*
X221150000Y-42519978D01*
X221150000Y-43024997D01*
G36*
X221150000Y-43024997D02*
G01*
X220644980Y-43024997D01*
X220650000Y-43019972D01*
X221109620Y-42560353D01*
X221150000Y-42519978D01*
X221150000Y-43024997D01*
G37*
X221150000Y-44850000D02*
X220644980Y-44850000D01*
X220650000Y-44844970D01*
X221109620Y-44385353D01*
X221150000Y-44344978D01*
X221150000Y-44850000D01*
G36*
X221150000Y-44850000D02*
G01*
X220644980Y-44850000D01*
X220650000Y-44844970D01*
X221109620Y-44385353D01*
X221150000Y-44344978D01*
X221150000Y-44850000D01*
G37*
X221150000Y-46675000D02*
X220644980Y-46675000D01*
X220650000Y-46669970D01*
X221109620Y-46210350D01*
X221150000Y-46169980D01*
X221150000Y-46675000D01*
G36*
X221150000Y-46675000D02*
G01*
X220644980Y-46675000D01*
X220650000Y-46669970D01*
X221109620Y-46210350D01*
X221150000Y-46169980D01*
X221150000Y-46675000D01*
G37*
X221150000Y-48500000D02*
X220644980Y-48500000D01*
X220650000Y-48494970D01*
X221109620Y-48035350D01*
X221150000Y-47994980D01*
X221150000Y-48500000D01*
G36*
X221150000Y-48500000D02*
G01*
X220644980Y-48500000D01*
X220650000Y-48494970D01*
X221109620Y-48035350D01*
X221150000Y-47994980D01*
X221150000Y-48500000D01*
G37*
X221150000Y-50325000D02*
X220644980Y-50325000D01*
X220650000Y-50319970D01*
X221109620Y-49860350D01*
X221150000Y-49819980D01*
X221150000Y-50325000D01*
G36*
X221150000Y-50325000D02*
G01*
X220644980Y-50325000D01*
X220650000Y-50319970D01*
X221109620Y-49860350D01*
X221150000Y-49819980D01*
X221150000Y-50325000D01*
G37*
X222625000Y-37550000D02*
X222119980Y-37550000D01*
X222125000Y-37544970D01*
X222584620Y-37085350D01*
X222625000Y-37044980D01*
X222625000Y-37550000D01*
G36*
X222625000Y-37550000D02*
G01*
X222119980Y-37550000D01*
X222125000Y-37544970D01*
X222584620Y-37085350D01*
X222625000Y-37044980D01*
X222625000Y-37550000D01*
G37*
X222625000Y-39375000D02*
X222119980Y-39375000D01*
X222125000Y-39369970D01*
X222584620Y-38910350D01*
X222625000Y-38869980D01*
X222625000Y-39375000D01*
G36*
X222625000Y-39375000D02*
G01*
X222119980Y-39375000D01*
X222125000Y-39369970D01*
X222584620Y-38910350D01*
X222625000Y-38869980D01*
X222625000Y-39375000D01*
G37*
X222625000Y-41200000D02*
X222119980Y-41200000D01*
X222125000Y-41194970D01*
X222584620Y-40735350D01*
X222625000Y-40694980D01*
X222625000Y-41200000D01*
G36*
X222625000Y-41200000D02*
G01*
X222119980Y-41200000D01*
X222125000Y-41194970D01*
X222584620Y-40735350D01*
X222625000Y-40694980D01*
X222625000Y-41200000D01*
G37*
X222625000Y-43024997D02*
X222119980Y-43024997D01*
X222125000Y-43019972D01*
X222584620Y-42560353D01*
X222625000Y-42519978D01*
X222625000Y-43024997D01*
G36*
X222625000Y-43024997D02*
G01*
X222119980Y-43024997D01*
X222125000Y-43019972D01*
X222584620Y-42560353D01*
X222625000Y-42519978D01*
X222625000Y-43024997D01*
G37*
X222625000Y-44850000D02*
X222119980Y-44850000D01*
X222125000Y-44844970D01*
X222584620Y-44385353D01*
X222625000Y-44344978D01*
X222625000Y-44850000D01*
G36*
X222625000Y-44850000D02*
G01*
X222119980Y-44850000D01*
X222125000Y-44844970D01*
X222584620Y-44385353D01*
X222625000Y-44344978D01*
X222625000Y-44850000D01*
G37*
X222625000Y-46675000D02*
X222119980Y-46675000D01*
X222125000Y-46669970D01*
X222584620Y-46210350D01*
X222625000Y-46169980D01*
X222625000Y-46675000D01*
G36*
X222625000Y-46675000D02*
G01*
X222119980Y-46675000D01*
X222125000Y-46669970D01*
X222584620Y-46210350D01*
X222625000Y-46169980D01*
X222625000Y-46675000D01*
G37*
X222625000Y-48500000D02*
X222119980Y-48500000D01*
X222125000Y-48494970D01*
X222584620Y-48035350D01*
X222625000Y-47994980D01*
X222625000Y-48500000D01*
G36*
X222625000Y-48500000D02*
G01*
X222119980Y-48500000D01*
X222125000Y-48494970D01*
X222584620Y-48035350D01*
X222625000Y-47994980D01*
X222625000Y-48500000D01*
G37*
X222625000Y-50325000D02*
X222119980Y-50325000D01*
X222125000Y-50319970D01*
X222584620Y-49860350D01*
X222625000Y-49819980D01*
X222625000Y-50325000D01*
G36*
X222625000Y-50325000D02*
G01*
X222119980Y-50325000D01*
X222125000Y-50319970D01*
X222584620Y-49860350D01*
X222625000Y-49819980D01*
X222625000Y-50325000D01*
G37*
X224099997Y-37550000D02*
X223594978Y-37550000D01*
X223600000Y-37544970D01*
X224059619Y-37085350D01*
X224099997Y-37044980D01*
X224099997Y-37550000D01*
G36*
X224099997Y-37550000D02*
G01*
X223594978Y-37550000D01*
X223600000Y-37544970D01*
X224059619Y-37085350D01*
X224099997Y-37044980D01*
X224099997Y-37550000D01*
G37*
X224099997Y-39375000D02*
X223594978Y-39375000D01*
X223600000Y-39369970D01*
X224059619Y-38910350D01*
X224099997Y-38869980D01*
X224099997Y-39375000D01*
G36*
X224099997Y-39375000D02*
G01*
X223594978Y-39375000D01*
X223600000Y-39369970D01*
X224059619Y-38910350D01*
X224099997Y-38869980D01*
X224099997Y-39375000D01*
G37*
X224099997Y-41200000D02*
X223594978Y-41200000D01*
X223600000Y-41194970D01*
X224059619Y-40735350D01*
X224099997Y-40694980D01*
X224099997Y-41200000D01*
G36*
X224099997Y-41200000D02*
G01*
X223594978Y-41200000D01*
X223600000Y-41194970D01*
X224059619Y-40735350D01*
X224099997Y-40694980D01*
X224099997Y-41200000D01*
G37*
X224099997Y-43024997D02*
X223594978Y-43024997D01*
X223600000Y-43019972D01*
X224059619Y-42560353D01*
X224099997Y-42519978D01*
X224099997Y-43024997D01*
G36*
X224099997Y-43024997D02*
G01*
X223594978Y-43024997D01*
X223600000Y-43019972D01*
X224059619Y-42560353D01*
X224099997Y-42519978D01*
X224099997Y-43024997D01*
G37*
X224099997Y-44850000D02*
X223594978Y-44850000D01*
X223600000Y-44844970D01*
X224059619Y-44385353D01*
X224099997Y-44344978D01*
X224099997Y-44850000D01*
G36*
X224099997Y-44850000D02*
G01*
X223594978Y-44850000D01*
X223600000Y-44844970D01*
X224059619Y-44385353D01*
X224099997Y-44344978D01*
X224099997Y-44850000D01*
G37*
X224099997Y-46675000D02*
X223594978Y-46675000D01*
X223600000Y-46669970D01*
X224059619Y-46210350D01*
X224099997Y-46169980D01*
X224099997Y-46675000D01*
G36*
X224099997Y-46675000D02*
G01*
X223594978Y-46675000D01*
X223600000Y-46669970D01*
X224059619Y-46210350D01*
X224099997Y-46169980D01*
X224099997Y-46675000D01*
G37*
X224099997Y-48500000D02*
X223594978Y-48500000D01*
X223600000Y-48494970D01*
X224059619Y-48035350D01*
X224099997Y-47994980D01*
X224099997Y-48500000D01*
G36*
X224099997Y-48500000D02*
G01*
X223594978Y-48500000D01*
X223600000Y-48494970D01*
X224059619Y-48035350D01*
X224099997Y-47994980D01*
X224099997Y-48500000D01*
G37*
X224099997Y-50325000D02*
X223594978Y-50325000D01*
X223600000Y-50319970D01*
X224059619Y-49860350D01*
X224099997Y-49819980D01*
X224099997Y-50325000D01*
G36*
X224099997Y-50325000D02*
G01*
X223594978Y-50325000D01*
X223600000Y-50319970D01*
X224059619Y-49860350D01*
X224099997Y-49819980D01*
X224099997Y-50325000D01*
G37*
X225575000Y-37550000D02*
X225069978Y-37550000D01*
X225075000Y-37544970D01*
X225534620Y-37085350D01*
X225575000Y-37044980D01*
X225575000Y-37550000D01*
G36*
X225575000Y-37550000D02*
G01*
X225069978Y-37550000D01*
X225075000Y-37544970D01*
X225534620Y-37085350D01*
X225575000Y-37044980D01*
X225575000Y-37550000D01*
G37*
X225575000Y-39375000D02*
X225069978Y-39375000D01*
X225075000Y-39369970D01*
X225534620Y-38910350D01*
X225575000Y-38869980D01*
X225575000Y-39375000D01*
G36*
X225575000Y-39375000D02*
G01*
X225069978Y-39375000D01*
X225075000Y-39369970D01*
X225534620Y-38910350D01*
X225575000Y-38869980D01*
X225575000Y-39375000D01*
G37*
X225575000Y-41200000D02*
X225069978Y-41200000D01*
X225075000Y-41194970D01*
X225534620Y-40735350D01*
X225575000Y-40694980D01*
X225575000Y-41200000D01*
G36*
X225575000Y-41200000D02*
G01*
X225069978Y-41200000D01*
X225075000Y-41194970D01*
X225534620Y-40735350D01*
X225575000Y-40694980D01*
X225575000Y-41200000D01*
G37*
X225575000Y-43024997D02*
X225069978Y-43024997D01*
X225075000Y-43019972D01*
X225534620Y-42560353D01*
X225575000Y-42519978D01*
X225575000Y-43024997D01*
G36*
X225575000Y-43024997D02*
G01*
X225069978Y-43024997D01*
X225075000Y-43019972D01*
X225534620Y-42560353D01*
X225575000Y-42519978D01*
X225575000Y-43024997D01*
G37*
X225575000Y-44850000D02*
X225069978Y-44850000D01*
X225075000Y-44844970D01*
X225534620Y-44385353D01*
X225575000Y-44344978D01*
X225575000Y-44850000D01*
G36*
X225575000Y-44850000D02*
G01*
X225069978Y-44850000D01*
X225075000Y-44844970D01*
X225534620Y-44385353D01*
X225575000Y-44344978D01*
X225575000Y-44850000D01*
G37*
X225575000Y-46675000D02*
X225069978Y-46675000D01*
X225075000Y-46669970D01*
X225534620Y-46210350D01*
X225575000Y-46169980D01*
X225575000Y-46675000D01*
G36*
X225575000Y-46675000D02*
G01*
X225069978Y-46675000D01*
X225075000Y-46669970D01*
X225534620Y-46210350D01*
X225575000Y-46169980D01*
X225575000Y-46675000D01*
G37*
X225575000Y-48500000D02*
X225069978Y-48500000D01*
X225075000Y-48494970D01*
X225534620Y-48035350D01*
X225575000Y-47994980D01*
X225575000Y-48500000D01*
G36*
X225575000Y-48500000D02*
G01*
X225069978Y-48500000D01*
X225075000Y-48494970D01*
X225534620Y-48035350D01*
X225575000Y-47994980D01*
X225575000Y-48500000D01*
G37*
X225575000Y-50325000D02*
X225069978Y-50325000D01*
X225075000Y-50319970D01*
X225534620Y-49860350D01*
X225575000Y-49819980D01*
X225575000Y-50325000D01*
G36*
X225575000Y-50325000D02*
G01*
X225069978Y-50325000D01*
X225075000Y-50319970D01*
X225534620Y-49860350D01*
X225575000Y-49819980D01*
X225575000Y-50325000D01*
G37*
X227050000Y-37550000D02*
X226544980Y-37550000D01*
X226550000Y-37544970D01*
X227009620Y-37085350D01*
X227050000Y-37044980D01*
X227050000Y-37550000D01*
G36*
X227050000Y-37550000D02*
G01*
X226544980Y-37550000D01*
X226550000Y-37544970D01*
X227009620Y-37085350D01*
X227050000Y-37044980D01*
X227050000Y-37550000D01*
G37*
X227050000Y-39375000D02*
X226544980Y-39375000D01*
X226550000Y-39369970D01*
X227009620Y-38910350D01*
X227050000Y-38869980D01*
X227050000Y-39375000D01*
G36*
X227050000Y-39375000D02*
G01*
X226544980Y-39375000D01*
X226550000Y-39369970D01*
X227009620Y-38910350D01*
X227050000Y-38869980D01*
X227050000Y-39375000D01*
G37*
X227050000Y-41200000D02*
X226544980Y-41200000D01*
X226550000Y-41194970D01*
X227009620Y-40735350D01*
X227050000Y-40694980D01*
X227050000Y-41200000D01*
G36*
X227050000Y-41200000D02*
G01*
X226544980Y-41200000D01*
X226550000Y-41194970D01*
X227009620Y-40735350D01*
X227050000Y-40694980D01*
X227050000Y-41200000D01*
G37*
X227050000Y-43024997D02*
X226544980Y-43024997D01*
X226550000Y-43019972D01*
X227009620Y-42560353D01*
X227050000Y-42519978D01*
X227050000Y-43024997D01*
G36*
X227050000Y-43024997D02*
G01*
X226544980Y-43024997D01*
X226550000Y-43019972D01*
X227009620Y-42560353D01*
X227050000Y-42519978D01*
X227050000Y-43024997D01*
G37*
X227050000Y-44850000D02*
X226544980Y-44850000D01*
X226550000Y-44844970D01*
X227009620Y-44385353D01*
X227050000Y-44344978D01*
X227050000Y-44850000D01*
G36*
X227050000Y-44850000D02*
G01*
X226544980Y-44850000D01*
X226550000Y-44844970D01*
X227009620Y-44385353D01*
X227050000Y-44344978D01*
X227050000Y-44850000D01*
G37*
X227050000Y-46675000D02*
X226544980Y-46675000D01*
X226550000Y-46669970D01*
X227009620Y-46210350D01*
X227050000Y-46169980D01*
X227050000Y-46675000D01*
G36*
X227050000Y-46675000D02*
G01*
X226544980Y-46675000D01*
X226550000Y-46669970D01*
X227009620Y-46210350D01*
X227050000Y-46169980D01*
X227050000Y-46675000D01*
G37*
X227050000Y-48500000D02*
X226544980Y-48500000D01*
X226550000Y-48494970D01*
X227009620Y-48035350D01*
X227050000Y-47994980D01*
X227050000Y-48500000D01*
G36*
X227050000Y-48500000D02*
G01*
X226544980Y-48500000D01*
X226550000Y-48494970D01*
X227009620Y-48035350D01*
X227050000Y-47994980D01*
X227050000Y-48500000D01*
G37*
X227050000Y-50325000D02*
X226544980Y-50325000D01*
X226550000Y-50319970D01*
X227009620Y-49860350D01*
X227050000Y-49819980D01*
X227050000Y-50325000D01*
G36*
X227050000Y-50325000D02*
G01*
X226544980Y-50325000D01*
X226550000Y-50319970D01*
X227009620Y-49860350D01*
X227050000Y-49819980D01*
X227050000Y-50325000D01*
G37*
X228525000Y-37550000D02*
X228019980Y-37550000D01*
X228025000Y-37544970D01*
X228484620Y-37085350D01*
X228525000Y-37044980D01*
X228525000Y-37550000D01*
G36*
X228525000Y-37550000D02*
G01*
X228019980Y-37550000D01*
X228025000Y-37544970D01*
X228484620Y-37085350D01*
X228525000Y-37044980D01*
X228525000Y-37550000D01*
G37*
X228525000Y-39375000D02*
X228019980Y-39375000D01*
X228025000Y-39369970D01*
X228484620Y-38910350D01*
X228525000Y-38869980D01*
X228525000Y-39375000D01*
G36*
X228525000Y-39375000D02*
G01*
X228019980Y-39375000D01*
X228025000Y-39369970D01*
X228484620Y-38910350D01*
X228525000Y-38869980D01*
X228525000Y-39375000D01*
G37*
X228525000Y-41200000D02*
X228019980Y-41200000D01*
X228025000Y-41194970D01*
X228484620Y-40735350D01*
X228525000Y-40694980D01*
X228525000Y-41200000D01*
G36*
X228525000Y-41200000D02*
G01*
X228019980Y-41200000D01*
X228025000Y-41194970D01*
X228484620Y-40735350D01*
X228525000Y-40694980D01*
X228525000Y-41200000D01*
G37*
X228525000Y-43024997D02*
X228019980Y-43024997D01*
X228025000Y-43019972D01*
X228484620Y-42560353D01*
X228525000Y-42519978D01*
X228525000Y-43024997D01*
G36*
X228525000Y-43024997D02*
G01*
X228019980Y-43024997D01*
X228025000Y-43019972D01*
X228484620Y-42560353D01*
X228525000Y-42519978D01*
X228525000Y-43024997D01*
G37*
X228525000Y-44850000D02*
X228019980Y-44850000D01*
X228025000Y-44844970D01*
X228484620Y-44385353D01*
X228525000Y-44344978D01*
X228525000Y-44850000D01*
G36*
X228525000Y-44850000D02*
G01*
X228019980Y-44850000D01*
X228025000Y-44844970D01*
X228484620Y-44385353D01*
X228525000Y-44344978D01*
X228525000Y-44850000D01*
G37*
X228525000Y-46675000D02*
X228019980Y-46675000D01*
X228025000Y-46669970D01*
X228484620Y-46210350D01*
X228525000Y-46169980D01*
X228525000Y-46675000D01*
G36*
X228525000Y-46675000D02*
G01*
X228019980Y-46675000D01*
X228025000Y-46669970D01*
X228484620Y-46210350D01*
X228525000Y-46169980D01*
X228525000Y-46675000D01*
G37*
X228525000Y-48500000D02*
X228019980Y-48500000D01*
X228025000Y-48494970D01*
X228484620Y-48035350D01*
X228525000Y-47994980D01*
X228525000Y-48500000D01*
G36*
X228525000Y-48500000D02*
G01*
X228019980Y-48500000D01*
X228025000Y-48494970D01*
X228484620Y-48035350D01*
X228525000Y-47994980D01*
X228525000Y-48500000D01*
G37*
X228525000Y-50325000D02*
X228019980Y-50325000D01*
X228025000Y-50319970D01*
X228484620Y-49860350D01*
X228525000Y-49819980D01*
X228525000Y-50325000D01*
G36*
X228525000Y-50325000D02*
G01*
X228019980Y-50325000D01*
X228025000Y-50319970D01*
X228484620Y-49860350D01*
X228525000Y-49819980D01*
X228525000Y-50325000D01*
G37*
X230000000Y-37550000D02*
X229494980Y-37550000D01*
X229500000Y-37544970D01*
X229959620Y-37085350D01*
X230000000Y-37044980D01*
X230000000Y-37550000D01*
G36*
X230000000Y-37550000D02*
G01*
X229494980Y-37550000D01*
X229500000Y-37544970D01*
X229959620Y-37085350D01*
X230000000Y-37044980D01*
X230000000Y-37550000D01*
G37*
X230000000Y-39375000D02*
X229494980Y-39375000D01*
X229500000Y-39369970D01*
X229959620Y-38910350D01*
X230000000Y-38869980D01*
X230000000Y-39375000D01*
G36*
X230000000Y-39375000D02*
G01*
X229494980Y-39375000D01*
X229500000Y-39369970D01*
X229959620Y-38910350D01*
X230000000Y-38869980D01*
X230000000Y-39375000D01*
G37*
X230000000Y-41200000D02*
X229494980Y-41200000D01*
X229500000Y-41194970D01*
X229959620Y-40735350D01*
X230000000Y-40694980D01*
X230000000Y-41200000D01*
G36*
X230000000Y-41200000D02*
G01*
X229494980Y-41200000D01*
X229500000Y-41194970D01*
X229959620Y-40735350D01*
X230000000Y-40694980D01*
X230000000Y-41200000D01*
G37*
X230000000Y-43024997D02*
X229494980Y-43024997D01*
X229500000Y-43019972D01*
X229959620Y-42560353D01*
X230000000Y-42519978D01*
X230000000Y-43024997D01*
G36*
X230000000Y-43024997D02*
G01*
X229494980Y-43024997D01*
X229500000Y-43019972D01*
X229959620Y-42560353D01*
X230000000Y-42519978D01*
X230000000Y-43024997D01*
G37*
X230000000Y-44850000D02*
X229494980Y-44850000D01*
X229500000Y-44844970D01*
X229959620Y-44385353D01*
X230000000Y-44344978D01*
X230000000Y-44850000D01*
G36*
X230000000Y-44850000D02*
G01*
X229494980Y-44850000D01*
X229500000Y-44844970D01*
X229959620Y-44385353D01*
X230000000Y-44344978D01*
X230000000Y-44850000D01*
G37*
X230000000Y-46675000D02*
X229494980Y-46675000D01*
X229500000Y-46669970D01*
X229959620Y-46210350D01*
X230000000Y-46169980D01*
X230000000Y-46675000D01*
G36*
X230000000Y-46675000D02*
G01*
X229494980Y-46675000D01*
X229500000Y-46669970D01*
X229959620Y-46210350D01*
X230000000Y-46169980D01*
X230000000Y-46675000D01*
G37*
X230000000Y-48500000D02*
X229494980Y-48500000D01*
X229500000Y-48494970D01*
X229959620Y-48035350D01*
X230000000Y-47994980D01*
X230000000Y-48500000D01*
G36*
X230000000Y-48500000D02*
G01*
X229494980Y-48500000D01*
X229500000Y-48494970D01*
X229959620Y-48035350D01*
X230000000Y-47994980D01*
X230000000Y-48500000D01*
G37*
X230000000Y-50325000D02*
X229494980Y-50325000D01*
X229500000Y-50319970D01*
X229959620Y-49860350D01*
X230000000Y-49819980D01*
X230000000Y-50325000D01*
G36*
X230000000Y-50325000D02*
G01*
X229494980Y-50325000D01*
X229500000Y-50319970D01*
X229959620Y-49860350D01*
X230000000Y-49819980D01*
X230000000Y-50325000D01*
G37*
X231617500Y-35757500D02*
X231112480Y-35757500D01*
X231117500Y-35752470D01*
X231577120Y-35292850D01*
X231617500Y-35252480D01*
X231617500Y-35757500D01*
G36*
X231617500Y-35757500D02*
G01*
X231112480Y-35757500D01*
X231117500Y-35752470D01*
X231577120Y-35292850D01*
X231617500Y-35252480D01*
X231617500Y-35757500D01*
G37*
X231617500Y-52117500D02*
X231112480Y-52117500D01*
X231117500Y-52112470D01*
X231577120Y-51652850D01*
X231617500Y-51612480D01*
X231617500Y-52117500D01*
G36*
X231617500Y-52117500D02*
G01*
X231112480Y-52117500D01*
X231117500Y-52112470D01*
X231577120Y-51652850D01*
X231617500Y-51612480D01*
X231617500Y-52117500D01*
G37*
X214887500Y-32449600D02*
X214149600Y-33187500D01*
X213887500Y-33187500D01*
X213887500Y-33025400D01*
X214625370Y-32287500D01*
X214887500Y-32287500D01*
X214887500Y-32449600D01*
G36*
X214887500Y-32449600D02*
G01*
X214149600Y-33187500D01*
X213887500Y-33187500D01*
X213887500Y-33025400D01*
X214625370Y-32287500D01*
X214887500Y-32287500D01*
X214887500Y-32449600D01*
G37*
X214887500Y-53849600D02*
X214149600Y-54587500D01*
X213887500Y-54587500D01*
X213887500Y-54425400D01*
X214625370Y-53687500D01*
X214887500Y-53687500D01*
X214887500Y-53849600D01*
G36*
X214887500Y-53849600D02*
G01*
X214149600Y-54587500D01*
X213887500Y-54587500D01*
X213887500Y-54425400D01*
X214625370Y-53687500D01*
X214887500Y-53687500D01*
X214887500Y-53849600D01*
G37*
X218057500Y-34969630D02*
X217269630Y-35757500D01*
X217057500Y-35757500D01*
X217057500Y-35545370D01*
X217845370Y-34757500D01*
X218057500Y-34757500D01*
X218057500Y-34969630D01*
G36*
X218057500Y-34969630D02*
G01*
X217269630Y-35757500D01*
X217057500Y-35757500D01*
X217057500Y-35545370D01*
X217845370Y-34757500D01*
X218057500Y-34757500D01*
X218057500Y-34969630D01*
G37*
X218057500Y-51329630D02*
X217269630Y-52117500D01*
X217057500Y-52117500D01*
X217057500Y-51905370D01*
X217845370Y-51117500D01*
X218057500Y-51117500D01*
X218057500Y-51329630D01*
G36*
X218057500Y-51329630D02*
G01*
X217269630Y-52117500D01*
X217057500Y-52117500D01*
X217057500Y-51905370D01*
X217845370Y-51117500D01*
X218057500Y-51117500D01*
X218057500Y-51329630D01*
G37*
X219675000Y-36762130D02*
X218887130Y-37550000D01*
X218675000Y-37550000D01*
X218675000Y-37337870D01*
X219462870Y-36550000D01*
X219675000Y-36550000D01*
X219675000Y-36762130D01*
G36*
X219675000Y-36762130D02*
G01*
X218887130Y-37550000D01*
X218675000Y-37550000D01*
X218675000Y-37337870D01*
X219462870Y-36550000D01*
X219675000Y-36550000D01*
X219675000Y-36762130D01*
G37*
X219675000Y-38587130D02*
X218887130Y-39375000D01*
X218675000Y-39375000D01*
X218675000Y-39162870D01*
X219462870Y-38375000D01*
X219675000Y-38375000D01*
X219675000Y-38587130D01*
G36*
X219675000Y-38587130D02*
G01*
X218887130Y-39375000D01*
X218675000Y-39375000D01*
X218675000Y-39162870D01*
X219462870Y-38375000D01*
X219675000Y-38375000D01*
X219675000Y-38587130D01*
G37*
X219675000Y-40412130D02*
X218887130Y-41200000D01*
X218675000Y-41200000D01*
X218675000Y-40987870D01*
X219462870Y-40200000D01*
X219675000Y-40200000D01*
X219675000Y-40412130D01*
G36*
X219675000Y-40412130D02*
G01*
X218887130Y-41200000D01*
X218675000Y-41200000D01*
X218675000Y-40987870D01*
X219462870Y-40200000D01*
X219675000Y-40200000D01*
X219675000Y-40412130D01*
G37*
X219675000Y-42237130D02*
X218887130Y-43024997D01*
X218675000Y-43024997D01*
X218675000Y-42812866D01*
X219462870Y-42025000D01*
X219675000Y-42025000D01*
X219675000Y-42237130D01*
G36*
X219675000Y-42237130D02*
G01*
X218887130Y-43024997D01*
X218675000Y-43024997D01*
X218675000Y-42812866D01*
X219462870Y-42025000D01*
X219675000Y-42025000D01*
X219675000Y-42237130D01*
G37*
X219675000Y-44062134D02*
X218887130Y-44850000D01*
X218675000Y-44850000D01*
X218675000Y-44637870D01*
X219462870Y-43850003D01*
X219675000Y-43850003D01*
X219675000Y-44062134D01*
G36*
X219675000Y-44062134D02*
G01*
X218887130Y-44850000D01*
X218675000Y-44850000D01*
X218675000Y-44637870D01*
X219462870Y-43850003D01*
X219675000Y-43850003D01*
X219675000Y-44062134D01*
G37*
X219675000Y-45887130D02*
X218887130Y-46675000D01*
X218675000Y-46675000D01*
X218675000Y-46462870D01*
X219462870Y-45675000D01*
X219675000Y-45675000D01*
X219675000Y-45887130D01*
G36*
X219675000Y-45887130D02*
G01*
X218887130Y-46675000D01*
X218675000Y-46675000D01*
X218675000Y-46462870D01*
X219462870Y-45675000D01*
X219675000Y-45675000D01*
X219675000Y-45887130D01*
G37*
X219675000Y-47712130D02*
X218887130Y-48500000D01*
X218675000Y-48500000D01*
X218675000Y-48287870D01*
X219462870Y-47500000D01*
X219675000Y-47500000D01*
X219675000Y-47712130D01*
G36*
X219675000Y-47712130D02*
G01*
X218887130Y-48500000D01*
X218675000Y-48500000D01*
X218675000Y-48287870D01*
X219462870Y-47500000D01*
X219675000Y-47500000D01*
X219675000Y-47712130D01*
G37*
X219675000Y-49537130D02*
X218887130Y-50325000D01*
X218675000Y-50325000D01*
X218675000Y-50112870D01*
X219462870Y-49325000D01*
X219675000Y-49325000D01*
X219675000Y-49537130D01*
G36*
X219675000Y-49537130D02*
G01*
X218887130Y-50325000D01*
X218675000Y-50325000D01*
X218675000Y-50112870D01*
X219462870Y-49325000D01*
X219675000Y-49325000D01*
X219675000Y-49537130D01*
G37*
X221150000Y-36762130D02*
X220362130Y-37550000D01*
X220150000Y-37550000D01*
X220150000Y-37337870D01*
X220937870Y-36550000D01*
X221150000Y-36550000D01*
X221150000Y-36762130D01*
G36*
X221150000Y-36762130D02*
G01*
X220362130Y-37550000D01*
X220150000Y-37550000D01*
X220150000Y-37337870D01*
X220937870Y-36550000D01*
X221150000Y-36550000D01*
X221150000Y-36762130D01*
G37*
X221150000Y-38587130D02*
X220362130Y-39375000D01*
X220150000Y-39375000D01*
X220150000Y-39162870D01*
X220937870Y-38375000D01*
X221150000Y-38375000D01*
X221150000Y-38587130D01*
G36*
X221150000Y-38587130D02*
G01*
X220362130Y-39375000D01*
X220150000Y-39375000D01*
X220150000Y-39162870D01*
X220937870Y-38375000D01*
X221150000Y-38375000D01*
X221150000Y-38587130D01*
G37*
X221150000Y-40412130D02*
X220362130Y-41200000D01*
X220150000Y-41200000D01*
X220150000Y-40987870D01*
X220937870Y-40200000D01*
X221150000Y-40200000D01*
X221150000Y-40412130D01*
G36*
X221150000Y-40412130D02*
G01*
X220362130Y-41200000D01*
X220150000Y-41200000D01*
X220150000Y-40987870D01*
X220937870Y-40200000D01*
X221150000Y-40200000D01*
X221150000Y-40412130D01*
G37*
X221150000Y-42237130D02*
X220362130Y-43024997D01*
X220150000Y-43024997D01*
X220150000Y-42812866D01*
X220937870Y-42025000D01*
X221150000Y-42025000D01*
X221150000Y-42237130D01*
G36*
X221150000Y-42237130D02*
G01*
X220362130Y-43024997D01*
X220150000Y-43024997D01*
X220150000Y-42812866D01*
X220937870Y-42025000D01*
X221150000Y-42025000D01*
X221150000Y-42237130D01*
G37*
X221150000Y-44062134D02*
X220362130Y-44850000D01*
X220150000Y-44850000D01*
X220150000Y-44637870D01*
X220937870Y-43850003D01*
X221150000Y-43850003D01*
X221150000Y-44062134D01*
G36*
X221150000Y-44062134D02*
G01*
X220362130Y-44850000D01*
X220150000Y-44850000D01*
X220150000Y-44637870D01*
X220937870Y-43850003D01*
X221150000Y-43850003D01*
X221150000Y-44062134D01*
G37*
X221150000Y-45887130D02*
X220362130Y-46675000D01*
X220150000Y-46675000D01*
X220150000Y-46462870D01*
X220937870Y-45675000D01*
X221150000Y-45675000D01*
X221150000Y-45887130D01*
G36*
X221150000Y-45887130D02*
G01*
X220362130Y-46675000D01*
X220150000Y-46675000D01*
X220150000Y-46462870D01*
X220937870Y-45675000D01*
X221150000Y-45675000D01*
X221150000Y-45887130D01*
G37*
X221150000Y-47712130D02*
X220362130Y-48500000D01*
X220150000Y-48500000D01*
X220150000Y-48287870D01*
X220937870Y-47500000D01*
X221150000Y-47500000D01*
X221150000Y-47712130D01*
G36*
X221150000Y-47712130D02*
G01*
X220362130Y-48500000D01*
X220150000Y-48500000D01*
X220150000Y-48287870D01*
X220937870Y-47500000D01*
X221150000Y-47500000D01*
X221150000Y-47712130D01*
G37*
X221150000Y-49537130D02*
X220362130Y-50325000D01*
X220150000Y-50325000D01*
X220150000Y-50112870D01*
X220937870Y-49325000D01*
X221150000Y-49325000D01*
X221150000Y-49537130D01*
G36*
X221150000Y-49537130D02*
G01*
X220362130Y-50325000D01*
X220150000Y-50325000D01*
X220150000Y-50112870D01*
X220937870Y-49325000D01*
X221150000Y-49325000D01*
X221150000Y-49537130D01*
G37*
X222625000Y-36762130D02*
X221837130Y-37550000D01*
X221625000Y-37550000D01*
X221625000Y-37337870D01*
X222412870Y-36550000D01*
X222625000Y-36550000D01*
X222625000Y-36762130D01*
G36*
X222625000Y-36762130D02*
G01*
X221837130Y-37550000D01*
X221625000Y-37550000D01*
X221625000Y-37337870D01*
X222412870Y-36550000D01*
X222625000Y-36550000D01*
X222625000Y-36762130D01*
G37*
X222625000Y-38587130D02*
X221837130Y-39375000D01*
X221625000Y-39375000D01*
X221625000Y-39162870D01*
X222412870Y-38375000D01*
X222625000Y-38375000D01*
X222625000Y-38587130D01*
G36*
X222625000Y-38587130D02*
G01*
X221837130Y-39375000D01*
X221625000Y-39375000D01*
X221625000Y-39162870D01*
X222412870Y-38375000D01*
X222625000Y-38375000D01*
X222625000Y-38587130D01*
G37*
X222625000Y-40412130D02*
X221837130Y-41200000D01*
X221625000Y-41200000D01*
X221625000Y-40987870D01*
X222412870Y-40200000D01*
X222625000Y-40200000D01*
X222625000Y-40412130D01*
G36*
X222625000Y-40412130D02*
G01*
X221837130Y-41200000D01*
X221625000Y-41200000D01*
X221625000Y-40987870D01*
X222412870Y-40200000D01*
X222625000Y-40200000D01*
X222625000Y-40412130D01*
G37*
X222625000Y-42237130D02*
X221837130Y-43024997D01*
X221625000Y-43024997D01*
X221625000Y-42812866D01*
X222412870Y-42025000D01*
X222625000Y-42025000D01*
X222625000Y-42237130D01*
G36*
X222625000Y-42237130D02*
G01*
X221837130Y-43024997D01*
X221625000Y-43024997D01*
X221625000Y-42812866D01*
X222412870Y-42025000D01*
X222625000Y-42025000D01*
X222625000Y-42237130D01*
G37*
X222625000Y-44062134D02*
X221837130Y-44850000D01*
X221625000Y-44850000D01*
X221625000Y-44637870D01*
X222412870Y-43850003D01*
X222625000Y-43850003D01*
X222625000Y-44062134D01*
G36*
X222625000Y-44062134D02*
G01*
X221837130Y-44850000D01*
X221625000Y-44850000D01*
X221625000Y-44637870D01*
X222412870Y-43850003D01*
X222625000Y-43850003D01*
X222625000Y-44062134D01*
G37*
X222625000Y-45887130D02*
X221837130Y-46675000D01*
X221625000Y-46675000D01*
X221625000Y-46462870D01*
X222412870Y-45675000D01*
X222625000Y-45675000D01*
X222625000Y-45887130D01*
G36*
X222625000Y-45887130D02*
G01*
X221837130Y-46675000D01*
X221625000Y-46675000D01*
X221625000Y-46462870D01*
X222412870Y-45675000D01*
X222625000Y-45675000D01*
X222625000Y-45887130D01*
G37*
X222625000Y-47712130D02*
X221837130Y-48500000D01*
X221625000Y-48500000D01*
X221625000Y-48287870D01*
X222412870Y-47500000D01*
X222625000Y-47500000D01*
X222625000Y-47712130D01*
G36*
X222625000Y-47712130D02*
G01*
X221837130Y-48500000D01*
X221625000Y-48500000D01*
X221625000Y-48287870D01*
X222412870Y-47500000D01*
X222625000Y-47500000D01*
X222625000Y-47712130D01*
G37*
X222625000Y-49537130D02*
X221837130Y-50325000D01*
X221625000Y-50325000D01*
X221625000Y-50112870D01*
X222412870Y-49325000D01*
X222625000Y-49325000D01*
X222625000Y-49537130D01*
G36*
X222625000Y-49537130D02*
G01*
X221837130Y-50325000D01*
X221625000Y-50325000D01*
X221625000Y-50112870D01*
X222412870Y-49325000D01*
X222625000Y-49325000D01*
X222625000Y-49537130D01*
G37*
X224099997Y-36762130D02*
X223312130Y-37550000D01*
X223100000Y-37550000D01*
X223100000Y-37337870D01*
X223887866Y-36550000D01*
X224099997Y-36550000D01*
X224099997Y-36762130D01*
G36*
X224099997Y-36762130D02*
G01*
X223312130Y-37550000D01*
X223100000Y-37550000D01*
X223100000Y-37337870D01*
X223887866Y-36550000D01*
X224099997Y-36550000D01*
X224099997Y-36762130D01*
G37*
X224099997Y-38587130D02*
X223312130Y-39375000D01*
X223100000Y-39375000D01*
X223100000Y-39162870D01*
X223887866Y-38375000D01*
X224099997Y-38375000D01*
X224099997Y-38587130D01*
G36*
X224099997Y-38587130D02*
G01*
X223312130Y-39375000D01*
X223100000Y-39375000D01*
X223100000Y-39162870D01*
X223887866Y-38375000D01*
X224099997Y-38375000D01*
X224099997Y-38587130D01*
G37*
X224099997Y-40412130D02*
X223312130Y-41200000D01*
X223100000Y-41200000D01*
X223100000Y-40987870D01*
X223887866Y-40200000D01*
X224099997Y-40200000D01*
X224099997Y-40412130D01*
G36*
X224099997Y-40412130D02*
G01*
X223312130Y-41200000D01*
X223100000Y-41200000D01*
X223100000Y-40987870D01*
X223887866Y-40200000D01*
X224099997Y-40200000D01*
X224099997Y-40412130D01*
G37*
X224099997Y-42237130D02*
X223312130Y-43024997D01*
X223100000Y-43024997D01*
X223100000Y-42812866D01*
X223887866Y-42025000D01*
X224099997Y-42025000D01*
X224099997Y-42237130D01*
G36*
X224099997Y-42237130D02*
G01*
X223312130Y-43024997D01*
X223100000Y-43024997D01*
X223100000Y-42812866D01*
X223887866Y-42025000D01*
X224099997Y-42025000D01*
X224099997Y-42237130D01*
G37*
X224099997Y-44062134D02*
X223312130Y-44850000D01*
X223100000Y-44850000D01*
X223100000Y-44637870D01*
X223887866Y-43850003D01*
X224099997Y-43850003D01*
X224099997Y-44062134D01*
G36*
X224099997Y-44062134D02*
G01*
X223312130Y-44850000D01*
X223100000Y-44850000D01*
X223100000Y-44637870D01*
X223887866Y-43850003D01*
X224099997Y-43850003D01*
X224099997Y-44062134D01*
G37*
X224099997Y-45887130D02*
X223312130Y-46675000D01*
X223100000Y-46675000D01*
X223100000Y-46462870D01*
X223887866Y-45675000D01*
X224099997Y-45675000D01*
X224099997Y-45887130D01*
G36*
X224099997Y-45887130D02*
G01*
X223312130Y-46675000D01*
X223100000Y-46675000D01*
X223100000Y-46462870D01*
X223887866Y-45675000D01*
X224099997Y-45675000D01*
X224099997Y-45887130D01*
G37*
X224099997Y-47712130D02*
X223312130Y-48500000D01*
X223100000Y-48500000D01*
X223100000Y-48287870D01*
X223887866Y-47500000D01*
X224099997Y-47500000D01*
X224099997Y-47712130D01*
G36*
X224099997Y-47712130D02*
G01*
X223312130Y-48500000D01*
X223100000Y-48500000D01*
X223100000Y-48287870D01*
X223887866Y-47500000D01*
X224099997Y-47500000D01*
X224099997Y-47712130D01*
G37*
X224099997Y-49537130D02*
X223312130Y-50325000D01*
X223100000Y-50325000D01*
X223100000Y-50112870D01*
X223887866Y-49325000D01*
X224099997Y-49325000D01*
X224099997Y-49537130D01*
G36*
X224099997Y-49537130D02*
G01*
X223312130Y-50325000D01*
X223100000Y-50325000D01*
X223100000Y-50112870D01*
X223887866Y-49325000D01*
X224099997Y-49325000D01*
X224099997Y-49537130D01*
G37*
X225575000Y-36762130D02*
X224787134Y-37550000D01*
X224575003Y-37550000D01*
X224575003Y-37337870D01*
X225362870Y-36550000D01*
X225575000Y-36550000D01*
X225575000Y-36762130D01*
G36*
X225575000Y-36762130D02*
G01*
X224787134Y-37550000D01*
X224575003Y-37550000D01*
X224575003Y-37337870D01*
X225362870Y-36550000D01*
X225575000Y-36550000D01*
X225575000Y-36762130D01*
G37*
X225575000Y-38587130D02*
X224787134Y-39375000D01*
X224575003Y-39375000D01*
X224575003Y-39162870D01*
X225362870Y-38375000D01*
X225575000Y-38375000D01*
X225575000Y-38587130D01*
G36*
X225575000Y-38587130D02*
G01*
X224787134Y-39375000D01*
X224575003Y-39375000D01*
X224575003Y-39162870D01*
X225362870Y-38375000D01*
X225575000Y-38375000D01*
X225575000Y-38587130D01*
G37*
X225575000Y-40412130D02*
X224787134Y-41200000D01*
X224575003Y-41200000D01*
X224575003Y-40987870D01*
X225362870Y-40200000D01*
X225575000Y-40200000D01*
X225575000Y-40412130D01*
G36*
X225575000Y-40412130D02*
G01*
X224787134Y-41200000D01*
X224575003Y-41200000D01*
X224575003Y-40987870D01*
X225362870Y-40200000D01*
X225575000Y-40200000D01*
X225575000Y-40412130D01*
G37*
X225575000Y-42237130D02*
X224787134Y-43024997D01*
X224575003Y-43024997D01*
X224575003Y-42812866D01*
X225362870Y-42025000D01*
X225575000Y-42025000D01*
X225575000Y-42237130D01*
G36*
X225575000Y-42237130D02*
G01*
X224787134Y-43024997D01*
X224575003Y-43024997D01*
X224575003Y-42812866D01*
X225362870Y-42025000D01*
X225575000Y-42025000D01*
X225575000Y-42237130D01*
G37*
X225575000Y-44062134D02*
X224787134Y-44850000D01*
X224575003Y-44850000D01*
X224575003Y-44637870D01*
X225362870Y-43850003D01*
X225575000Y-43850003D01*
X225575000Y-44062134D01*
G36*
X225575000Y-44062134D02*
G01*
X224787134Y-44850000D01*
X224575003Y-44850000D01*
X224575003Y-44637870D01*
X225362870Y-43850003D01*
X225575000Y-43850003D01*
X225575000Y-44062134D01*
G37*
X225575000Y-45887130D02*
X224787134Y-46675000D01*
X224575003Y-46675000D01*
X224575003Y-46462870D01*
X225362870Y-45675000D01*
X225575000Y-45675000D01*
X225575000Y-45887130D01*
G36*
X225575000Y-45887130D02*
G01*
X224787134Y-46675000D01*
X224575003Y-46675000D01*
X224575003Y-46462870D01*
X225362870Y-45675000D01*
X225575000Y-45675000D01*
X225575000Y-45887130D01*
G37*
X225575000Y-47712130D02*
X224787134Y-48500000D01*
X224575003Y-48500000D01*
X224575003Y-48287870D01*
X225362870Y-47500000D01*
X225575000Y-47500000D01*
X225575000Y-47712130D01*
G36*
X225575000Y-47712130D02*
G01*
X224787134Y-48500000D01*
X224575003Y-48500000D01*
X224575003Y-48287870D01*
X225362870Y-47500000D01*
X225575000Y-47500000D01*
X225575000Y-47712130D01*
G37*
X225575000Y-49537130D02*
X224787134Y-50325000D01*
X224575003Y-50325000D01*
X224575003Y-50112870D01*
X225362870Y-49325000D01*
X225575000Y-49325000D01*
X225575000Y-49537130D01*
G36*
X225575000Y-49537130D02*
G01*
X224787134Y-50325000D01*
X224575003Y-50325000D01*
X224575003Y-50112870D01*
X225362870Y-49325000D01*
X225575000Y-49325000D01*
X225575000Y-49537130D01*
G37*
X227050000Y-36762130D02*
X226262130Y-37550000D01*
X226050000Y-37550000D01*
X226050000Y-37337870D01*
X226837870Y-36550000D01*
X227050000Y-36550000D01*
X227050000Y-36762130D01*
G36*
X227050000Y-36762130D02*
G01*
X226262130Y-37550000D01*
X226050000Y-37550000D01*
X226050000Y-37337870D01*
X226837870Y-36550000D01*
X227050000Y-36550000D01*
X227050000Y-36762130D01*
G37*
X227050000Y-38587130D02*
X226262130Y-39375000D01*
X226050000Y-39375000D01*
X226050000Y-39162870D01*
X226837870Y-38375000D01*
X227050000Y-38375000D01*
X227050000Y-38587130D01*
G36*
X227050000Y-38587130D02*
G01*
X226262130Y-39375000D01*
X226050000Y-39375000D01*
X226050000Y-39162870D01*
X226837870Y-38375000D01*
X227050000Y-38375000D01*
X227050000Y-38587130D01*
G37*
X227050000Y-40412130D02*
X226262130Y-41200000D01*
X226050000Y-41200000D01*
X226050000Y-40987870D01*
X226837870Y-40200000D01*
X227050000Y-40200000D01*
X227050000Y-40412130D01*
G36*
X227050000Y-40412130D02*
G01*
X226262130Y-41200000D01*
X226050000Y-41200000D01*
X226050000Y-40987870D01*
X226837870Y-40200000D01*
X227050000Y-40200000D01*
X227050000Y-40412130D01*
G37*
X227050000Y-42237130D02*
X226262130Y-43024997D01*
X226050000Y-43024997D01*
X226050000Y-42812866D01*
X226837870Y-42025000D01*
X227050000Y-42025000D01*
X227050000Y-42237130D01*
G36*
X227050000Y-42237130D02*
G01*
X226262130Y-43024997D01*
X226050000Y-43024997D01*
X226050000Y-42812866D01*
X226837870Y-42025000D01*
X227050000Y-42025000D01*
X227050000Y-42237130D01*
G37*
X227050000Y-44062134D02*
X226262130Y-44850000D01*
X226050000Y-44850000D01*
X226050000Y-44637870D01*
X226837870Y-43850003D01*
X227050000Y-43850003D01*
X227050000Y-44062134D01*
G36*
X227050000Y-44062134D02*
G01*
X226262130Y-44850000D01*
X226050000Y-44850000D01*
X226050000Y-44637870D01*
X226837870Y-43850003D01*
X227050000Y-43850003D01*
X227050000Y-44062134D01*
G37*
X227050000Y-45887130D02*
X226262130Y-46675000D01*
X226050000Y-46675000D01*
X226050000Y-46462870D01*
X226837870Y-45675000D01*
X227050000Y-45675000D01*
X227050000Y-45887130D01*
G36*
X227050000Y-45887130D02*
G01*
X226262130Y-46675000D01*
X226050000Y-46675000D01*
X226050000Y-46462870D01*
X226837870Y-45675000D01*
X227050000Y-45675000D01*
X227050000Y-45887130D01*
G37*
X227050000Y-47712130D02*
X226262130Y-48500000D01*
X226050000Y-48500000D01*
X226050000Y-48287870D01*
X226837870Y-47500000D01*
X227050000Y-47500000D01*
X227050000Y-47712130D01*
G36*
X227050000Y-47712130D02*
G01*
X226262130Y-48500000D01*
X226050000Y-48500000D01*
X226050000Y-48287870D01*
X226837870Y-47500000D01*
X227050000Y-47500000D01*
X227050000Y-47712130D01*
G37*
X227050000Y-49537130D02*
X226262130Y-50325000D01*
X226050000Y-50325000D01*
X226050000Y-50112870D01*
X226837870Y-49325000D01*
X227050000Y-49325000D01*
X227050000Y-49537130D01*
G36*
X227050000Y-49537130D02*
G01*
X226262130Y-50325000D01*
X226050000Y-50325000D01*
X226050000Y-50112870D01*
X226837870Y-49325000D01*
X227050000Y-49325000D01*
X227050000Y-49537130D01*
G37*
X228525000Y-36762130D02*
X227737130Y-37550000D01*
X227525000Y-37550000D01*
X227525000Y-37337870D01*
X228312870Y-36550000D01*
X228525000Y-36550000D01*
X228525000Y-36762130D01*
G36*
X228525000Y-36762130D02*
G01*
X227737130Y-37550000D01*
X227525000Y-37550000D01*
X227525000Y-37337870D01*
X228312870Y-36550000D01*
X228525000Y-36550000D01*
X228525000Y-36762130D01*
G37*
X228525000Y-38587130D02*
X227737130Y-39375000D01*
X227525000Y-39375000D01*
X227525000Y-39162870D01*
X228312870Y-38375000D01*
X228525000Y-38375000D01*
X228525000Y-38587130D01*
G36*
X228525000Y-38587130D02*
G01*
X227737130Y-39375000D01*
X227525000Y-39375000D01*
X227525000Y-39162870D01*
X228312870Y-38375000D01*
X228525000Y-38375000D01*
X228525000Y-38587130D01*
G37*
X228525000Y-40412130D02*
X227737130Y-41200000D01*
X227525000Y-41200000D01*
X227525000Y-40987870D01*
X228312870Y-40200000D01*
X228525000Y-40200000D01*
X228525000Y-40412130D01*
G36*
X228525000Y-40412130D02*
G01*
X227737130Y-41200000D01*
X227525000Y-41200000D01*
X227525000Y-40987870D01*
X228312870Y-40200000D01*
X228525000Y-40200000D01*
X228525000Y-40412130D01*
G37*
X228525000Y-42237130D02*
X227737130Y-43024997D01*
X227525000Y-43024997D01*
X227525000Y-42812866D01*
X228312870Y-42025000D01*
X228525000Y-42025000D01*
X228525000Y-42237130D01*
G36*
X228525000Y-42237130D02*
G01*
X227737130Y-43024997D01*
X227525000Y-43024997D01*
X227525000Y-42812866D01*
X228312870Y-42025000D01*
X228525000Y-42025000D01*
X228525000Y-42237130D01*
G37*
X228525000Y-44062134D02*
X227737130Y-44850000D01*
X227525000Y-44850000D01*
X227525000Y-44637870D01*
X228312870Y-43850003D01*
X228525000Y-43850003D01*
X228525000Y-44062134D01*
G36*
X228525000Y-44062134D02*
G01*
X227737130Y-44850000D01*
X227525000Y-44850000D01*
X227525000Y-44637870D01*
X228312870Y-43850003D01*
X228525000Y-43850003D01*
X228525000Y-44062134D01*
G37*
X228525000Y-45887130D02*
X227737130Y-46675000D01*
X227525000Y-46675000D01*
X227525000Y-46462870D01*
X228312870Y-45675000D01*
X228525000Y-45675000D01*
X228525000Y-45887130D01*
G36*
X228525000Y-45887130D02*
G01*
X227737130Y-46675000D01*
X227525000Y-46675000D01*
X227525000Y-46462870D01*
X228312870Y-45675000D01*
X228525000Y-45675000D01*
X228525000Y-45887130D01*
G37*
X228525000Y-47712130D02*
X227737130Y-48500000D01*
X227525000Y-48500000D01*
X227525000Y-48287870D01*
X228312870Y-47500000D01*
X228525000Y-47500000D01*
X228525000Y-47712130D01*
G36*
X228525000Y-47712130D02*
G01*
X227737130Y-48500000D01*
X227525000Y-48500000D01*
X227525000Y-48287870D01*
X228312870Y-47500000D01*
X228525000Y-47500000D01*
X228525000Y-47712130D01*
G37*
X228525000Y-49537130D02*
X227737130Y-50325000D01*
X227525000Y-50325000D01*
X227525000Y-50112870D01*
X228312870Y-49325000D01*
X228525000Y-49325000D01*
X228525000Y-49537130D01*
G36*
X228525000Y-49537130D02*
G01*
X227737130Y-50325000D01*
X227525000Y-50325000D01*
X227525000Y-50112870D01*
X228312870Y-49325000D01*
X228525000Y-49325000D01*
X228525000Y-49537130D01*
G37*
X230000000Y-36762130D02*
X229212130Y-37550000D01*
X229000000Y-37550000D01*
X229000000Y-37337870D01*
X229787870Y-36550000D01*
X230000000Y-36550000D01*
X230000000Y-36762130D01*
G36*
X230000000Y-36762130D02*
G01*
X229212130Y-37550000D01*
X229000000Y-37550000D01*
X229000000Y-37337870D01*
X229787870Y-36550000D01*
X230000000Y-36550000D01*
X230000000Y-36762130D01*
G37*
X230000000Y-38587130D02*
X229212130Y-39375000D01*
X229000000Y-39375000D01*
X229000000Y-39162870D01*
X229787870Y-38375000D01*
X230000000Y-38375000D01*
X230000000Y-38587130D01*
G36*
X230000000Y-38587130D02*
G01*
X229212130Y-39375000D01*
X229000000Y-39375000D01*
X229000000Y-39162870D01*
X229787870Y-38375000D01*
X230000000Y-38375000D01*
X230000000Y-38587130D01*
G37*
X230000000Y-40412130D02*
X229212130Y-41200000D01*
X229000000Y-41200000D01*
X229000000Y-40987870D01*
X229787870Y-40200000D01*
X230000000Y-40200000D01*
X230000000Y-40412130D01*
G36*
X230000000Y-40412130D02*
G01*
X229212130Y-41200000D01*
X229000000Y-41200000D01*
X229000000Y-40987870D01*
X229787870Y-40200000D01*
X230000000Y-40200000D01*
X230000000Y-40412130D01*
G37*
X230000000Y-42237130D02*
X229212130Y-43024997D01*
X229000000Y-43024997D01*
X229000000Y-42812866D01*
X229787870Y-42025000D01*
X230000000Y-42025000D01*
X230000000Y-42237130D01*
G36*
X230000000Y-42237130D02*
G01*
X229212130Y-43024997D01*
X229000000Y-43024997D01*
X229000000Y-42812866D01*
X229787870Y-42025000D01*
X230000000Y-42025000D01*
X230000000Y-42237130D01*
G37*
X230000000Y-44062134D02*
X229212130Y-44850000D01*
X229000000Y-44850000D01*
X229000000Y-44637870D01*
X229787870Y-43850003D01*
X230000000Y-43850003D01*
X230000000Y-44062134D01*
G36*
X230000000Y-44062134D02*
G01*
X229212130Y-44850000D01*
X229000000Y-44850000D01*
X229000000Y-44637870D01*
X229787870Y-43850003D01*
X230000000Y-43850003D01*
X230000000Y-44062134D01*
G37*
X230000000Y-45887130D02*
X229212130Y-46675000D01*
X229000000Y-46675000D01*
X229000000Y-46462870D01*
X229787870Y-45675000D01*
X230000000Y-45675000D01*
X230000000Y-45887130D01*
G36*
X230000000Y-45887130D02*
G01*
X229212130Y-46675000D01*
X229000000Y-46675000D01*
X229000000Y-46462870D01*
X229787870Y-45675000D01*
X230000000Y-45675000D01*
X230000000Y-45887130D01*
G37*
X230000000Y-47712130D02*
X229212130Y-48500000D01*
X229000000Y-48500000D01*
X229000000Y-48287870D01*
X229787870Y-47500000D01*
X230000000Y-47500000D01*
X230000000Y-47712130D01*
G36*
X230000000Y-47712130D02*
G01*
X229212130Y-48500000D01*
X229000000Y-48500000D01*
X229000000Y-48287870D01*
X229787870Y-47500000D01*
X230000000Y-47500000D01*
X230000000Y-47712130D01*
G37*
X230000000Y-49537130D02*
X229212130Y-50325000D01*
X229000000Y-50325000D01*
X229000000Y-50112870D01*
X229787870Y-49325000D01*
X230000000Y-49325000D01*
X230000000Y-49537130D01*
G36*
X230000000Y-49537130D02*
G01*
X229212130Y-50325000D01*
X229000000Y-50325000D01*
X229000000Y-50112870D01*
X229787870Y-49325000D01*
X230000000Y-49325000D01*
X230000000Y-49537130D01*
G37*
X231617500Y-34969630D02*
X230829630Y-35757500D01*
X230617500Y-35757500D01*
X230617500Y-35545370D01*
X231405370Y-34757500D01*
X231617500Y-34757500D01*
X231617500Y-34969630D01*
G36*
X231617500Y-34969630D02*
G01*
X230829630Y-35757500D01*
X230617500Y-35757500D01*
X230617500Y-35545370D01*
X231405370Y-34757500D01*
X231617500Y-34757500D01*
X231617500Y-34969630D01*
G37*
X231617500Y-51329630D02*
X230829630Y-52117500D01*
X230617500Y-52117500D01*
X230617500Y-51905370D01*
X231405370Y-51117500D01*
X231617500Y-51117500D01*
X231617500Y-51329630D01*
G36*
X231617500Y-51329630D02*
G01*
X230829630Y-52117500D01*
X230617500Y-52117500D01*
X230617500Y-51905370D01*
X231405370Y-51117500D01*
X231617500Y-51117500D01*
X231617500Y-51329630D01*
G37*
X234787500Y-32449600D02*
X234049630Y-33187500D01*
X233787500Y-33187500D01*
X233787500Y-33025400D01*
X234525400Y-32287500D01*
X234787500Y-32287500D01*
X234787500Y-32449600D01*
G36*
X234787500Y-32449600D02*
G01*
X234049630Y-33187500D01*
X233787500Y-33187500D01*
X233787500Y-33025400D01*
X234525400Y-32287500D01*
X234787500Y-32287500D01*
X234787500Y-32449600D01*
G37*
X234787500Y-53849600D02*
X234049630Y-54587500D01*
X233787500Y-54587500D01*
X233787500Y-54425400D01*
X234525400Y-53687500D01*
X234787500Y-53687500D01*
X234787500Y-53849600D01*
G36*
X234787500Y-53849600D02*
G01*
X234049630Y-54587500D01*
X233787500Y-54587500D01*
X233787500Y-54425400D01*
X234525400Y-53687500D01*
X234787500Y-53687500D01*
X234787500Y-53849600D01*
G37*
%TO.C,J15*%
X83837500Y-59099999D02*
X82237500Y-59099999D01*
X82237500Y-58299999D01*
X81887500Y-58299999D01*
X81887500Y-56999999D01*
X83837500Y-56999999D01*
X83837500Y-59099999D01*
G36*
X83837500Y-59099999D02*
G01*
X82237500Y-59099999D01*
X82237500Y-58299999D01*
X81887500Y-58299999D01*
X81887500Y-56999999D01*
X83837500Y-56999999D01*
X83837500Y-59099999D01*
G37*
X83837500Y-44099999D02*
X81887500Y-44099999D01*
X81887500Y-42799999D01*
X82237500Y-42799999D01*
X82237500Y-41999999D01*
X83837500Y-41999999D01*
X83837500Y-44099999D01*
G36*
X83837500Y-44099999D02*
G01*
X81887500Y-44099999D01*
X81887500Y-42799999D01*
X82237500Y-42799999D01*
X82237500Y-41999999D01*
X83837500Y-41999999D01*
X83837500Y-44099999D01*
G37*
%TD*%
D12*
%TO.C,C18*%
X163225000Y-37000000D03*
X164775000Y-37000000D03*
%TD*%
D13*
%TO.C,U8*%
X97687500Y-47027499D03*
X97287500Y-47027499D03*
X96887500Y-47027499D03*
X96487500Y-47027499D03*
X96087500Y-47027499D03*
X95687500Y-47027499D03*
D14*
X94957500Y-47757499D03*
X94957500Y-48157499D03*
X94957500Y-48557499D03*
X94957500Y-48957499D03*
X94957500Y-49357499D03*
X94957500Y-49757499D03*
D13*
X95687500Y-50487499D03*
X96087500Y-50487499D03*
X96487500Y-50487499D03*
X96887500Y-50487499D03*
X97287500Y-50487499D03*
X97687500Y-50487499D03*
D14*
X98417500Y-49757499D03*
X98417500Y-49357499D03*
X98417500Y-48957499D03*
X98417500Y-48557499D03*
X98417500Y-48157499D03*
X98417500Y-47757499D03*
%TD*%
D15*
%TO.C,P1*%
X240760000Y-81215000D03*
X240760000Y-83655000D03*
X240760000Y-86095000D03*
X237590000Y-81115000D03*
X237590000Y-83655000D03*
X237590000Y-86195000D03*
D16*
X234260000Y-87900000D03*
D17*
X230585000Y-84205000D03*
D18*
X241460000Y-88250000D03*
D19*
X236610000Y-88250000D03*
D20*
X232460000Y-87750000D03*
D21*
X229510000Y-85855000D03*
X229510000Y-81455000D03*
D22*
X231460000Y-77100000D03*
D19*
X236610000Y-77100000D03*
D18*
X241460000Y-77100000D03*
D23*
X242610000Y-82435000D03*
X242610000Y-84875000D03*
%TD*%
D24*
%TO.C,R7*%
X210125000Y-42600000D03*
X208475000Y-42600000D03*
%TD*%
D25*
%TO.C,Q1*%
X108925000Y-27200000D03*
X108925000Y-25300000D03*
X106825000Y-26250000D03*
%TD*%
D26*
%TO.C,D11*%
X215600000Y-63526000D03*
X215600000Y-65026000D03*
%TD*%
D27*
%TO.C,C16*%
X121737500Y-53887499D03*
X121737500Y-55437499D03*
%TD*%
D28*
%TO.C,C8*%
X187400000Y-79625000D03*
X187400000Y-78075000D03*
%TD*%
D27*
%TO.C,C11*%
X104300000Y-27800000D03*
X104300000Y-29350000D03*
%TD*%
D29*
%TO.C,R14*%
X213900000Y-63475000D03*
X213900000Y-65125000D03*
%TD*%
D24*
%TO.C,R16*%
X113150000Y-27200000D03*
X111500000Y-27200000D03*
%TD*%
D27*
%TO.C,C19*%
X161000000Y-38325000D03*
X161000000Y-39875000D03*
%TD*%
D12*
%TO.C,C13*%
X137125000Y-34310000D03*
X138675000Y-34310000D03*
%TD*%
D30*
%TO.C,U12*%
X170137500Y-78495000D03*
X170137500Y-77545000D03*
X170137500Y-76595000D03*
X167647500Y-76595000D03*
X167647500Y-77545000D03*
X167647500Y-78495000D03*
%TD*%
D31*
%TO.C,J4*%
X242341500Y-38159250D03*
D32*
X242341500Y-40929250D03*
X242341500Y-35389250D03*
%TD*%
D27*
%TO.C,C2*%
X156120000Y-77400000D03*
X156120000Y-78950000D03*
%TD*%
D33*
%TO.C,J16*%
X91882500Y-36799999D03*
X92982500Y-36799999D03*
X94082500Y-36799999D03*
X95182500Y-36799999D03*
X96282500Y-36799999D03*
X97382500Y-36799999D03*
X98482500Y-36799999D03*
X99582500Y-36799999D03*
X100682500Y-36799999D03*
D34*
X102062500Y-25799999D03*
X102062500Y-34799999D03*
X85912500Y-34799999D03*
X85912500Y-25799999D03*
%TD*%
D29*
%TO.C,R1*%
X158120000Y-77350000D03*
X158120000Y-79000000D03*
%TD*%
D35*
%TO.C,C7*%
X225635000Y-77700001D03*
X224085000Y-77700001D03*
%TD*%
D36*
%TO.C,R11*%
X206330000Y-60425000D03*
X206330000Y-58775000D03*
%TD*%
D37*
%TO.C,J15*%
X83987500Y-45299999D03*
X83987500Y-45799999D03*
X83987500Y-46299999D03*
X83987500Y-46799999D03*
X83987500Y-47299999D03*
X83987500Y-47799999D03*
X83987500Y-48299999D03*
X83987500Y-48799999D03*
X83987500Y-49299999D03*
X83987500Y-49799999D03*
X83987500Y-50299999D03*
X83987500Y-50799999D03*
X83987500Y-51299999D03*
X83987500Y-51799999D03*
X83987500Y-52299999D03*
X83987500Y-52799999D03*
X83987500Y-53299999D03*
X83987500Y-53799999D03*
X83987500Y-54299999D03*
X83987500Y-54799999D03*
X83987500Y-55299999D03*
X83987500Y-55799999D03*
%TD*%
D24*
%TO.C,R2*%
X188000000Y-39000000D03*
X186350000Y-39000000D03*
%TD*%
D27*
%TO.C,C22*%
X117237500Y-57887499D03*
X117237500Y-59437499D03*
%TD*%
D35*
%TO.C,C9*%
X95362500Y-51999999D03*
X93812500Y-51999999D03*
%TD*%
D38*
%TO.C,CR2*%
X98487498Y-41413999D03*
X98987500Y-41413999D03*
D39*
X99487499Y-41413999D03*
D38*
X99987498Y-41413999D03*
X100487500Y-41413999D03*
X100487500Y-40524999D03*
X99987498Y-40524999D03*
D39*
X99487499Y-40524999D03*
D38*
X98987500Y-40524999D03*
X98487498Y-40524999D03*
%TD*%
D40*
%TO.C,D6*%
X238300000Y-39170000D03*
X238300000Y-38200000D03*
%TD*%
D28*
%TO.C,C6*%
X185300000Y-79625000D03*
X185300000Y-78075000D03*
%TD*%
D29*
%TO.C,R4*%
X210940000Y-69625000D03*
X210940000Y-71275000D03*
%TD*%
D28*
%TO.C,C24*%
X112737500Y-58637499D03*
X112737500Y-57087499D03*
%TD*%
%TO.C,C23*%
X121737500Y-51437499D03*
X121737500Y-49887499D03*
%TD*%
D41*
%TO.C,U7*%
X211950000Y-63130000D03*
X210650000Y-63130000D03*
X211300000Y-65070000D03*
%TD*%
D42*
%TO.C,R15*%
X111500000Y-25200000D03*
X113150000Y-25200000D03*
%TD*%
D26*
%TO.C,D5*%
X188000000Y-37160000D03*
X186500000Y-37160000D03*
%TD*%
D29*
%TO.C,R6*%
X210800000Y-73350000D03*
X210800000Y-75000000D03*
%TD*%
D36*
%TO.C,R8*%
X221860000Y-85325000D03*
X221860000Y-83675000D03*
%TD*%
D28*
%TO.C,C4*%
X183200000Y-79625000D03*
X183200000Y-78075000D03*
%TD*%
D35*
%TO.C,C3*%
X225610000Y-82300001D03*
X224060000Y-82300001D03*
%TD*%
D24*
%TO.C,R12*%
X211925000Y-61000000D03*
X210275000Y-61000000D03*
%TD*%
D43*
%TO.C,BT1*%
X89430000Y-79000000D03*
X111400000Y-79000000D03*
%TD*%
D27*
%TO.C,C1*%
X153920000Y-77400000D03*
X153920000Y-78950000D03*
%TD*%
D44*
%TO.C,U4*%
X212830000Y-73225000D03*
X212830000Y-74525000D03*
X214770000Y-73875000D03*
%TD*%
D12*
%TO.C,C17*%
X161625000Y-28800000D03*
X163175000Y-28800000D03*
%TD*%
D44*
%TO.C,U2*%
X212900000Y-69700000D03*
X212900000Y-71000000D03*
X214840000Y-70350000D03*
%TD*%
D27*
%TO.C,C14*%
X151920000Y-77400000D03*
X151920000Y-78950000D03*
%TD*%
D45*
%TO.C,IC1*%
X114617500Y-53832499D03*
X115987500Y-53832499D03*
X117357500Y-53832499D03*
X114617500Y-52462499D03*
X115987500Y-52462499D03*
X117357500Y-52462499D03*
X114617500Y-51092499D03*
X115987500Y-51092499D03*
X117357500Y-51092499D03*
D46*
X113987500Y-55299999D03*
X114487500Y-55299999D03*
X114987500Y-55299999D03*
X115487500Y-55299999D03*
X115987500Y-55299999D03*
X116487500Y-55299999D03*
X116987500Y-55299999D03*
X117487500Y-55299999D03*
X117987500Y-55299999D03*
D47*
X118825000Y-54462499D03*
X118825000Y-53962499D03*
X118825000Y-53462499D03*
X118825000Y-52962499D03*
X118825000Y-52462499D03*
X118825000Y-51962499D03*
X118825000Y-51462499D03*
X118825000Y-50962499D03*
X118825000Y-50462499D03*
D46*
X117987500Y-49624999D03*
X117487500Y-49624999D03*
X116987500Y-49624999D03*
X116487500Y-49624999D03*
X115987500Y-49624999D03*
X115487500Y-49624999D03*
X114987500Y-49624999D03*
X114487500Y-49624999D03*
X113987500Y-49624999D03*
D47*
X113150000Y-50462499D03*
X113150000Y-50962499D03*
X113150000Y-51462499D03*
X113150000Y-51962499D03*
X113150000Y-52462499D03*
X113150000Y-52962499D03*
X113150000Y-53462499D03*
X113150000Y-53962499D03*
X113150000Y-54462499D03*
%TD*%
D48*
%TO.C,U10*%
X140350000Y-45580000D03*
X140350000Y-44310000D03*
X140350000Y-43040000D03*
X140350000Y-41770000D03*
X140350000Y-40500000D03*
X140350000Y-39230000D03*
X140350000Y-37960000D03*
X140350000Y-36690000D03*
X135400000Y-36690000D03*
X135400000Y-37960000D03*
X135400000Y-39230000D03*
X135400000Y-40500000D03*
X135400000Y-41770000D03*
X135400000Y-43040000D03*
X135400000Y-44310000D03*
X135400000Y-45580000D03*
%TD*%
D36*
%TO.C,R17*%
X110857500Y-58687499D03*
X110857500Y-57037499D03*
%TD*%
D49*
%TO.C,U6*%
X204370000Y-60450000D03*
X204370000Y-59150000D03*
X202430000Y-59800000D03*
%TD*%
D38*
%TO.C,CR1*%
X92882498Y-41413999D03*
X93382500Y-41413999D03*
D39*
X93882499Y-41413999D03*
D38*
X94382498Y-41413999D03*
X94882500Y-41413999D03*
X94882500Y-40524999D03*
X94382498Y-40524999D03*
D39*
X93882499Y-40524999D03*
D38*
X93382500Y-40524999D03*
X92882498Y-40524999D03*
%TD*%
D27*
%TO.C,C12*%
X93987500Y-59725000D03*
X93987500Y-61275000D03*
%TD*%
D31*
%TO.C,J5*%
X242141500Y-63659250D03*
D32*
X242141500Y-66429250D03*
X242141500Y-60889250D03*
%TD*%
D29*
%TO.C,R10*%
X219700000Y-83575000D03*
X219700000Y-85225000D03*
%TD*%
%TO.C,R5*%
X202570000Y-65725000D03*
X202570000Y-67375000D03*
%TD*%
D50*
%TO.C,CR4*%
X161620000Y-81378600D03*
X161620000Y-77975000D03*
%TD*%
D35*
%TO.C,C5*%
X225610000Y-80000001D03*
X224060000Y-80000001D03*
%TD*%
D51*
%TO.C,D1*%
X227460000Y-82130000D03*
X227460000Y-83100000D03*
%TD*%
D12*
%TO.C,C15*%
X109387500Y-53862499D03*
X110937500Y-53862499D03*
%TD*%
D44*
%TO.C,U3*%
X204700000Y-65800000D03*
X204700000Y-67100000D03*
X206640000Y-66450000D03*
%TD*%
D52*
%TO.C,J1*%
X165600000Y-81120000D03*
X166400000Y-81120000D03*
D53*
X167550000Y-81120000D03*
X168550000Y-81120000D03*
X169050000Y-81120000D03*
X170050000Y-81120000D03*
D52*
X171200000Y-81120000D03*
X172000000Y-81120000D03*
X172000000Y-81120000D03*
X171200000Y-81120000D03*
D53*
X170550000Y-81120000D03*
X169550000Y-81120000D03*
X168050000Y-81120000D03*
X167050000Y-81120000D03*
D52*
X166400000Y-81120000D03*
X165600000Y-81120000D03*
D54*
X164480000Y-81695000D03*
D55*
X164480000Y-85875000D03*
D54*
X173120000Y-81695000D03*
D55*
X173120000Y-85875000D03*
%TD*%
D56*
%TO.C,U9*%
X92362500Y-54259999D03*
X91712500Y-54259999D03*
X91062500Y-54259999D03*
X90412500Y-54259999D03*
X89762500Y-54259999D03*
X89112500Y-54259999D03*
X88462500Y-54259999D03*
X87812500Y-54259999D03*
X87812500Y-59999999D03*
X88462500Y-59999999D03*
X89112500Y-59999999D03*
X89762500Y-59999999D03*
X90412500Y-59999999D03*
X91062500Y-59999999D03*
X91712500Y-59999999D03*
X92362500Y-59999999D03*
%TD*%
D42*
%TO.C,R3*%
X208000000Y-44500000D03*
X209650000Y-44500000D03*
%TD*%
D27*
%TO.C,C10*%
X93987500Y-54924999D03*
X93987500Y-56474999D03*
%TD*%
D57*
%TO.C,M1*%
X178900000Y-31560000D03*
X178900000Y-34640000D03*
X178500000Y-31560000D03*
X178500000Y-34640000D03*
X178100000Y-31560000D03*
X178100000Y-34640000D03*
X177700000Y-31560000D03*
X177700000Y-34640000D03*
X177300000Y-31560000D03*
X177300000Y-34640000D03*
X176900000Y-31560000D03*
X176900000Y-34640000D03*
X176500000Y-31560000D03*
X176500000Y-34640000D03*
X176100000Y-31560000D03*
X176100000Y-34640000D03*
X175700000Y-31560000D03*
X175700000Y-34640000D03*
X175300000Y-31560000D03*
X175300000Y-34640000D03*
X174900000Y-31560000D03*
X174900000Y-34640000D03*
X174500000Y-31560000D03*
X174500000Y-34640000D03*
X174100000Y-31560000D03*
X174100000Y-34640000D03*
X173700000Y-31560000D03*
X173700000Y-34640000D03*
X173300000Y-31560000D03*
X173300000Y-34640000D03*
X172900000Y-31560000D03*
X172900000Y-34640000D03*
X172500000Y-31560000D03*
X172500000Y-34640000D03*
X172100000Y-31560000D03*
X172100000Y-34640000D03*
X171700000Y-31560000D03*
X171700000Y-34640000D03*
X171300000Y-31560000D03*
X171300000Y-34640000D03*
X170900000Y-31560000D03*
X170900000Y-34640000D03*
X170500000Y-31560000D03*
X170500000Y-34640000D03*
X170100000Y-31560000D03*
X170100000Y-34640000D03*
X169700000Y-31560000D03*
X169700000Y-34640000D03*
X169300000Y-31560000D03*
X169300000Y-34640000D03*
X168900000Y-31560000D03*
X168900000Y-34640000D03*
X168500000Y-31560000D03*
X168500000Y-34640000D03*
X168100000Y-31560000D03*
X168100000Y-34640000D03*
X167700000Y-31560000D03*
X167700000Y-34640000D03*
X167300000Y-31560000D03*
X167300000Y-34640000D03*
X166900000Y-31560000D03*
X166900000Y-34640000D03*
X166500000Y-31560000D03*
X166500000Y-34640000D03*
X166100000Y-31560000D03*
X166100000Y-34640000D03*
X165700000Y-31560000D03*
X165700000Y-34640000D03*
X165300000Y-31560000D03*
X165300000Y-34640000D03*
X164900000Y-31560000D03*
X164900000Y-34640000D03*
X164500000Y-31560000D03*
X164500000Y-34640000D03*
X164100000Y-31560000D03*
X164100000Y-34640000D03*
X163700000Y-31560000D03*
X163700000Y-34640000D03*
X163300000Y-31560000D03*
X163300000Y-34640000D03*
X162900000Y-31560000D03*
X162900000Y-34640000D03*
X162500000Y-31560000D03*
X162500000Y-34640000D03*
X162100000Y-31560000D03*
X162100000Y-34640000D03*
X161700000Y-31560000D03*
X161700000Y-34640000D03*
X161300000Y-31560000D03*
X161300000Y-34640000D03*
X160900000Y-31560000D03*
X160900000Y-34640000D03*
X160500000Y-31560000D03*
X160500000Y-34640000D03*
X160100000Y-31560000D03*
X160100000Y-34640000D03*
X159700000Y-31560000D03*
X159700000Y-34640000D03*
X159300000Y-31560000D03*
X159300000Y-34640000D03*
X178900000Y-65560000D03*
X178900000Y-68640000D03*
X178500000Y-65560000D03*
X178500000Y-68640000D03*
X178100000Y-65560000D03*
X178100000Y-68640000D03*
X177700000Y-65560000D03*
X177700000Y-68640000D03*
X177300000Y-65560000D03*
X177300000Y-68640000D03*
X176900000Y-65560000D03*
X176900000Y-68640000D03*
X176500000Y-65560000D03*
X176500000Y-68640000D03*
X176100000Y-65560000D03*
X176100000Y-68640000D03*
X175700000Y-65560000D03*
X175700000Y-68640000D03*
X175300000Y-65560000D03*
X175300000Y-68640000D03*
X174900000Y-65560000D03*
X174900000Y-68640000D03*
X174500000Y-65560000D03*
X174500000Y-68640000D03*
X174100000Y-65560000D03*
X174100000Y-68640000D03*
X173700000Y-65560000D03*
X173700000Y-68640000D03*
X173300000Y-65560000D03*
X173300000Y-68640000D03*
X172900000Y-65560000D03*
X172900000Y-68640000D03*
X172500000Y-65560000D03*
X172500000Y-68640000D03*
X172100000Y-65560000D03*
X172100000Y-68640000D03*
X171700000Y-65560000D03*
X171700000Y-68640000D03*
X171300000Y-65560000D03*
X171300000Y-68640000D03*
X170900000Y-65560000D03*
X170900000Y-68640000D03*
X170500000Y-65560000D03*
X170500000Y-68640000D03*
X170100000Y-65560000D03*
X170100000Y-68640000D03*
X169700000Y-65560000D03*
X169700000Y-68640000D03*
X169300000Y-65560000D03*
X169300000Y-68640000D03*
X168900000Y-65560000D03*
X168900000Y-68640000D03*
X168500000Y-65560000D03*
X168500000Y-68640000D03*
X168100000Y-65560000D03*
X168100000Y-68640000D03*
X167700000Y-65560000D03*
X167700000Y-68640000D03*
X167300000Y-65560000D03*
X167300000Y-68640000D03*
X166900000Y-65560000D03*
X166900000Y-68640000D03*
X166500000Y-65560000D03*
X166500000Y-68640000D03*
X166100000Y-65560000D03*
X166100000Y-68640000D03*
X165700000Y-65560000D03*
X165700000Y-68640000D03*
X165300000Y-65560000D03*
X165300000Y-68640000D03*
X164900000Y-65560000D03*
X164900000Y-68640000D03*
X164500000Y-65560000D03*
X164500000Y-68640000D03*
X164100000Y-65560000D03*
X164100000Y-68640000D03*
X163700000Y-65560000D03*
X163700000Y-68640000D03*
X163300000Y-65560000D03*
X163300000Y-68640000D03*
X162900000Y-65560000D03*
X162900000Y-68640000D03*
X162500000Y-65560000D03*
X162500000Y-68640000D03*
X162100000Y-65560000D03*
X162100000Y-68640000D03*
X161700000Y-65560000D03*
X161700000Y-68640000D03*
X161300000Y-65560000D03*
X161300000Y-68640000D03*
X160900000Y-65560000D03*
X160900000Y-68640000D03*
X160500000Y-65560000D03*
X160500000Y-68640000D03*
X160100000Y-65560000D03*
X160100000Y-68640000D03*
X159700000Y-65560000D03*
X159700000Y-68640000D03*
X159300000Y-65560000D03*
X159300000Y-68640000D03*
%TD*%
D24*
%TO.C,R13*%
X204055000Y-62600000D03*
X202405000Y-62600000D03*
%TD*%
D12*
%TO.C,C21*%
X117137500Y-47700000D03*
X118687500Y-47700000D03*
%TD*%
D58*
%TO.C,CR3*%
X226504500Y-86900001D03*
X226504500Y-86399999D03*
D59*
X226504500Y-85900000D03*
D58*
X226504500Y-85400001D03*
X226504500Y-84899999D03*
X225615500Y-84899999D03*
X225615500Y-85400001D03*
D59*
X225615500Y-85900000D03*
D58*
X225615500Y-86399999D03*
X225615500Y-86900001D03*
%TD*%
D60*
%TO.C,D7*%
X227315000Y-58300000D03*
X228285000Y-58300000D03*
%TD*%
D61*
%TO.C,U11*%
X149720000Y-77655000D03*
X149070000Y-77655000D03*
X148420000Y-77655000D03*
X148420000Y-79575000D03*
X149070000Y-79575000D03*
X149720000Y-79575000D03*
%TD*%
D49*
%TO.C,U5*%
X220070000Y-80950000D03*
X220070000Y-79650000D03*
X218130000Y-80300000D03*
%TD*%
D12*
%TO.C,C20*%
X121825000Y-77908500D03*
X123375000Y-77908500D03*
%TD*%
M02*
