%TF.GenerationSoftware,KiCad,Pcbnew,9.0.2*%
%TF.CreationDate,2026-02-23T14:19:41+01:00*%
%TF.ProjectId,audiograb,61756469-6f67-4726-9162-2e6b69636164,0*%
%TF.SameCoordinates,Original*%
%TF.FileFunction,Legend,Bot*%
%TF.FilePolarity,Positive*%
%FSLAX46Y46*%
G04 Gerber Fmt 4.6, Leading zero omitted, Abs format (unit mm)*
G04 Created by KiCad (PCBNEW 9.0.2) date 2026-02-23 14:19:41*
%MOMM*%
%LPD*%
G01*
G04 APERTURE LIST*
%ADD10C,0.150000*%
%ADD11C,0.120000*%
G04 APERTURE END LIST*
D10*
X215261904Y-21806819D02*
X214690476Y-21806819D01*
X214976190Y-22806819D02*
X214976190Y-21806819D01*
X214357142Y-22806819D02*
X214357142Y-21806819D01*
X214357142Y-21806819D02*
X213976190Y-21806819D01*
X213976190Y-21806819D02*
X213880952Y-21854438D01*
X213880952Y-21854438D02*
X213833333Y-21902057D01*
X213833333Y-21902057D02*
X213785714Y-21997295D01*
X213785714Y-21997295D02*
X213785714Y-22140152D01*
X213785714Y-22140152D02*
X213833333Y-22235390D01*
X213833333Y-22235390D02*
X213880952Y-22283009D01*
X213880952Y-22283009D02*
X213976190Y-22330628D01*
X213976190Y-22330628D02*
X214357142Y-22330628D01*
X212880952Y-21806819D02*
X213357142Y-21806819D01*
X213357142Y-21806819D02*
X213404761Y-22283009D01*
X213404761Y-22283009D02*
X213357142Y-22235390D01*
X213357142Y-22235390D02*
X213261904Y-22187771D01*
X213261904Y-22187771D02*
X213023809Y-22187771D01*
X213023809Y-22187771D02*
X212928571Y-22235390D01*
X212928571Y-22235390D02*
X212880952Y-22283009D01*
X212880952Y-22283009D02*
X212833333Y-22378247D01*
X212833333Y-22378247D02*
X212833333Y-22616342D01*
X212833333Y-22616342D02*
X212880952Y-22711580D01*
X212880952Y-22711580D02*
X212928571Y-22759200D01*
X212928571Y-22759200D02*
X213023809Y-22806819D01*
X213023809Y-22806819D02*
X213261904Y-22806819D01*
X213261904Y-22806819D02*
X213357142Y-22759200D01*
X213357142Y-22759200D02*
X213404761Y-22711580D01*
X218761904Y-21806819D02*
X218190476Y-21806819D01*
X218476190Y-22806819D02*
X218476190Y-21806819D01*
X217857142Y-22806819D02*
X217857142Y-21806819D01*
X217857142Y-21806819D02*
X217476190Y-21806819D01*
X217476190Y-21806819D02*
X217380952Y-21854438D01*
X217380952Y-21854438D02*
X217333333Y-21902057D01*
X217333333Y-21902057D02*
X217285714Y-21997295D01*
X217285714Y-21997295D02*
X217285714Y-22140152D01*
X217285714Y-22140152D02*
X217333333Y-22235390D01*
X217333333Y-22235390D02*
X217380952Y-22283009D01*
X217380952Y-22283009D02*
X217476190Y-22330628D01*
X217476190Y-22330628D02*
X217857142Y-22330628D01*
X216428571Y-21806819D02*
X216619047Y-21806819D01*
X216619047Y-21806819D02*
X216714285Y-21854438D01*
X216714285Y-21854438D02*
X216761904Y-21902057D01*
X216761904Y-21902057D02*
X216857142Y-22044914D01*
X216857142Y-22044914D02*
X216904761Y-22235390D01*
X216904761Y-22235390D02*
X216904761Y-22616342D01*
X216904761Y-22616342D02*
X216857142Y-22711580D01*
X216857142Y-22711580D02*
X216809523Y-22759200D01*
X216809523Y-22759200D02*
X216714285Y-22806819D01*
X216714285Y-22806819D02*
X216523809Y-22806819D01*
X216523809Y-22806819D02*
X216428571Y-22759200D01*
X216428571Y-22759200D02*
X216380952Y-22711580D01*
X216380952Y-22711580D02*
X216333333Y-22616342D01*
X216333333Y-22616342D02*
X216333333Y-22378247D01*
X216333333Y-22378247D02*
X216380952Y-22283009D01*
X216380952Y-22283009D02*
X216428571Y-22235390D01*
X216428571Y-22235390D02*
X216523809Y-22187771D01*
X216523809Y-22187771D02*
X216714285Y-22187771D01*
X216714285Y-22187771D02*
X216809523Y-22235390D01*
X216809523Y-22235390D02*
X216857142Y-22283009D01*
X216857142Y-22283009D02*
X216904761Y-22378247D01*
D11*
%TO.C,TP5*%
X214950000Y-24000000D02*
G75*
G02*
X213050000Y-24000000I-950000J0D01*
G01*
X213050000Y-24000000D02*
G75*
G02*
X214950000Y-24000000I950000J0D01*
G01*
%TO.C,TP6*%
X218450000Y-24000000D02*
G75*
G02*
X216550000Y-24000000I-950000J0D01*
G01*
X216550000Y-24000000D02*
G75*
G02*
X218450000Y-24000000I950000J0D01*
G01*
%TD*%
M02*
