%TF.GenerationSoftware,KiCad,Pcbnew,9.0.2*%
%TF.CreationDate,2026-02-23T14:19:40+01:00*%
%TF.ProjectId,audiograb,61756469-6f67-4726-9162-2e6b69636164,0*%
%TF.SameCoordinates,Original*%
%TF.FileFunction,Copper,L4,Bot*%
%TF.FilePolarity,Positive*%
%FSLAX46Y46*%
G04 Gerber Fmt 4.6, Leading zero omitted, Abs format (unit mm)*
G04 Created by KiCad (PCBNEW 9.0.2) date 2026-02-23 14:19:40*
%MOMM*%
%LPD*%
G01*
G04 APERTURE LIST*
%TA.AperFunction,ComponentPad*%
%ADD10R,1.700000X1.700000*%
%TD*%
%TA.AperFunction,ComponentPad*%
%ADD11C,1.700000*%
%TD*%
%TA.AperFunction,ComponentPad*%
%ADD12C,2.000000*%
%TD*%
%TA.AperFunction,SMDPad,CuDef*%
%ADD13R,4.560000X1.000000*%
%TD*%
%TA.AperFunction,ComponentPad*%
%ADD14C,3.000000*%
%TD*%
%TA.AperFunction,HeatsinkPad*%
%ADD15C,0.500000*%
%TD*%
%TA.AperFunction,HeatsinkPad*%
%ADD16R,2.500000X2.500000*%
%TD*%
%TA.AperFunction,ComponentPad*%
%ADD17C,1.950000*%
%TD*%
%TA.AperFunction,ComponentPad*%
%ADD18R,1.498000X1.498000*%
%TD*%
%TA.AperFunction,ComponentPad*%
%ADD19C,1.498000*%
%TD*%
%TA.AperFunction,HeatsinkPad*%
%ADD20O,1.000000X2.100000*%
%TD*%
%TA.AperFunction,HeatsinkPad*%
%ADD21O,1.000000X1.800000*%
%TD*%
%TA.AperFunction,ComponentPad*%
%ADD22C,5.800000*%
%TD*%
%TA.AperFunction,SMDPad,CuDef*%
%ADD23C,1.500000*%
%TD*%
%TA.AperFunction,ViaPad*%
%ADD24C,0.600000*%
%TD*%
%TA.AperFunction,ViaPad*%
%ADD25C,0.500000*%
%TD*%
%TA.AperFunction,Conductor*%
%ADD26C,0.200000*%
%TD*%
%TA.AperFunction,Conductor*%
%ADD27C,0.400000*%
%TD*%
%TA.AperFunction,Conductor*%
%ADD28C,0.250000*%
%TD*%
%TA.AperFunction,Conductor*%
%ADD29C,0.500000*%
%TD*%
G04 APERTURE END LIST*
D10*
%TO.P,J3,1,Pin_1*%
%TO.N,+3V3*%
X149760000Y-22860000D03*
D11*
%TO.P,J3,2,Pin_2*%
%TO.N,+5V*%
X149760000Y-25400000D03*
%TO.P,J3,3,Pin_3*%
%TO.N,/compute-module/GPIO2*%
X152300000Y-22860000D03*
%TO.P,J3,4,Pin_4*%
%TO.N,+5V*%
X152300000Y-25400000D03*
%TO.P,J3,5,Pin_5*%
%TO.N,unconnected-(J3-Pin_5-Pad5)*%
X154840000Y-22860000D03*
%TO.P,J3,6,Pin_6*%
%TO.N,GND*%
X154840000Y-25400000D03*
%TO.P,J3,7,Pin_7*%
%TO.N,unconnected-(J3-Pin_7-Pad7)*%
X157380000Y-22860000D03*
%TO.P,J3,8,Pin_8*%
%TO.N,unconnected-(J3-Pin_8-Pad8)*%
X157380000Y-25400000D03*
%TO.P,J3,9,Pin_9*%
%TO.N,GND*%
X159920000Y-22860000D03*
%TO.P,J3,10,Pin_10*%
%TO.N,unconnected-(J3-Pin_10-Pad10)*%
X159920000Y-25400000D03*
%TO.P,J3,11,Pin_11*%
%TO.N,/compute-module/GPIO17*%
X162460000Y-22860000D03*
%TO.P,J3,12,Pin_12*%
%TO.N,unconnected-(J3-Pin_12-Pad12)*%
X162460000Y-25400000D03*
%TO.P,J3,13,Pin_13*%
%TO.N,unconnected-(J3-Pin_13-Pad13)*%
X165000000Y-22860000D03*
%TO.P,J3,14,Pin_14*%
%TO.N,GND*%
X165000000Y-25400000D03*
%TO.P,J3,15,Pin_15*%
%TO.N,unconnected-(J3-Pin_15-Pad15)*%
X167540000Y-22860000D03*
%TO.P,J3,16,Pin_16*%
%TO.N,unconnected-(J3-Pin_16-Pad16)*%
X167540000Y-25400000D03*
%TO.P,J3,17,Pin_17*%
%TO.N,+3V3*%
X170080000Y-22860000D03*
%TO.P,J3,18,Pin_18*%
%TO.N,unconnected-(J3-Pin_18-Pad18)*%
X170080000Y-25400000D03*
%TO.P,J3,19,Pin_19*%
%TO.N,unconnected-(J3-Pin_19-Pad19)*%
X172620000Y-22860000D03*
%TO.P,J3,20,Pin_20*%
%TO.N,GND*%
X172620000Y-25400000D03*
%TO.P,J3,21,Pin_21*%
%TO.N,unconnected-(J3-Pin_21-Pad21)*%
X175160000Y-22860000D03*
%TO.P,J3,22,Pin_22*%
%TO.N,unconnected-(J3-Pin_22-Pad22)*%
X175160000Y-25400000D03*
%TO.P,J3,23,Pin_23*%
%TO.N,/compute-module/GPIO11*%
X177700000Y-22860000D03*
%TO.P,J3,24,Pin_24*%
%TO.N,unconnected-(J3-Pin_24-Pad24)*%
X177700000Y-25400000D03*
%TO.P,J3,25,Pin_25*%
%TO.N,GND*%
X180240000Y-22860000D03*
%TO.P,J3,26,Pin_26*%
%TO.N,unconnected-(J3-Pin_26-Pad26)*%
X180240000Y-25400000D03*
%TO.P,J3,27,Pin_27*%
%TO.N,/compute-module/ID_SD*%
X182780000Y-22860000D03*
%TO.P,J3,28,Pin_28*%
%TO.N,/compute-module/ID_SC*%
X182780000Y-25400000D03*
%TO.P,J3,29,Pin_29*%
%TO.N,+1V8_CM5*%
X185320000Y-22860000D03*
%TO.P,J3,30,Pin_30*%
%TO.N,GND*%
X185320000Y-25400000D03*
%TO.P,J3,31,Pin_31*%
%TO.N,+3V3_CM5*%
X187860000Y-22860000D03*
%TO.P,J3,32,Pin_32*%
%TO.N,unconnected-(J3-Pin_32-Pad32)*%
X187860000Y-25400000D03*
%TO.P,J3,33,Pin_33*%
%TO.N,unconnected-(J3-Pin_33-Pad33)*%
X190400000Y-22860000D03*
%TO.P,J3,34,Pin_34*%
%TO.N,GND*%
X190400000Y-25400000D03*
%TO.P,J3,35,Pin_35*%
%TO.N,/compute-module/GPIO19*%
X192940000Y-22860000D03*
%TO.P,J3,36,Pin_36*%
%TO.N,unconnected-(J3-Pin_36-Pad36)*%
X192940000Y-25400000D03*
%TO.P,J3,37,Pin_37*%
%TO.N,/compute-module/GPIO26*%
X195480000Y-22860000D03*
%TO.P,J3,38,Pin_38*%
%TO.N,unconnected-(J3-Pin_38-Pad38)*%
X195480000Y-25400000D03*
%TO.P,J3,39,Pin_39*%
%TO.N,GND*%
X198020000Y-22860000D03*
%TO.P,J3,40,Pin_40*%
%TO.N,unconnected-(J3-Pin_40-Pad40)*%
X198020000Y-25400000D03*
%TD*%
D12*
%TO.P,J7,1,1*%
%TO.N,Net-(U1A-J2)*%
X205900000Y-27600000D03*
%TD*%
%TO.P,J9,1,1*%
%TO.N,Net-(U1A-J4)*%
X205800000Y-37400000D03*
%TD*%
D13*
%TO.P,J4,SH3*%
%TO.N,GND*%
X242341500Y-40929250D03*
%TO.P,J4,SH4*%
X242341500Y-35389250D03*
%TD*%
D12*
%TO.P,TP1,1,1*%
%TO.N,Net-(U1A-UART1_TX)*%
X202100000Y-30200000D03*
%TD*%
D14*
%TO.P,TP14,1,1*%
%TO.N,/SD2*%
X98800000Y-61400000D03*
%TD*%
D12*
%TO.P,J14,1,1*%
%TO.N,Net-(U1A-J9)*%
X206200000Y-53000000D03*
%TD*%
D14*
%TO.P,TP16,1,1*%
%TO.N,/SD5*%
X82500000Y-67500000D03*
%TD*%
%TO.P,TP13,1,1*%
%TO.N,Net-(J16-VDD)*%
X107900000Y-31900000D03*
%TD*%
D12*
%TO.P,J6,1,1*%
%TO.N,Net-(U1A-J1)*%
X202700000Y-24500000D03*
%TD*%
%TO.P,J12,1,1*%
%TO.N,Net-(U1A-J7)*%
X206100000Y-48000000D03*
%TD*%
%TO.P,TP2,1,1*%
%TO.N,Net-(U1A-UART1_DTR)*%
X201800000Y-39100000D03*
%TD*%
D15*
%TO.P,IC1,37,EP*%
%TO.N,GND*%
X114987500Y-53462499D03*
X115987500Y-53462499D03*
X116987500Y-53462499D03*
X114987500Y-52462499D03*
X115987500Y-52462499D03*
D16*
X115987500Y-52462499D03*
D15*
X116987500Y-52462499D03*
X114987500Y-51462499D03*
X115987500Y-51462499D03*
X116987500Y-51462499D03*
%TD*%
D12*
%TO.P,J10,1,1*%
%TO.N,Net-(U1A-J5)*%
X205600000Y-42000000D03*
%TD*%
%TO.P,TP4,1,1*%
%TO.N,Net-(U1A-UART1_RX)*%
X201800000Y-34300000D03*
%TD*%
D17*
%TO.P,J17,1*%
%TO.N,Net-(U11-VOUT)*%
X150500000Y-85000000D03*
%TO.P,J17,2*%
%TO.N,GND*%
X155500000Y-85000000D03*
%TD*%
D12*
%TO.P,J13,1,1*%
%TO.N,Net-(U1A-J8)*%
X202100000Y-50700000D03*
%TD*%
D13*
%TO.P,J5,SH3*%
%TO.N,GND*%
X242141500Y-66429250D03*
%TO.P,J5,SH4*%
X242141500Y-60889250D03*
%TD*%
D12*
%TO.P,J11,1,1*%
%TO.N,Net-(U1A-J6)*%
X202200000Y-45100000D03*
%TD*%
D10*
%TO.P,J2,1,Pin_1*%
%TO.N,GND*%
X126960000Y-23000000D03*
D11*
%TO.P,J2,2,Pin_2*%
%TO.N,/compute-module/nRPIBOOT*%
X126960000Y-25540000D03*
%TO.P,J2,3,Pin_3*%
%TO.N,GND*%
X129500000Y-23000000D03*
%TO.P,J2,4,Pin_4*%
%TO.N,/compute-module/EEPROM_nWP*%
X129500000Y-25540000D03*
%TO.P,J2,5,Pin_5*%
%TO.N,GND*%
X132040000Y-23000000D03*
%TO.P,J2,6,Pin_6*%
%TO.N,/compute-module/SYNC_OUT*%
X132040000Y-25540000D03*
%TO.P,J2,7,Pin_7*%
%TO.N,GND*%
X134580000Y-23000000D03*
%TO.P,J2,8,Pin_8*%
%TO.N,unconnected-(J2-Pin_8-Pad8)*%
X134580000Y-25540000D03*
%TO.P,J2,9,Pin_9*%
%TO.N,GND*%
X137120000Y-23000000D03*
%TO.P,J2,10,Pin_10*%
%TO.N,/compute-module/USB_OTG_ID*%
X137120000Y-25540000D03*
%TO.P,J2,11,Pin_11*%
%TO.N,GND*%
X139660000Y-23000000D03*
%TO.P,J2,12,Pin_12*%
%TO.N,/compute-module/PMIC_ENABLE*%
X139660000Y-25540000D03*
%TO.P,J2,13,Pin_13*%
%TO.N,GND*%
X142200000Y-23000000D03*
%TO.P,J2,14,Pin_14*%
%TO.N,/compute-module/PWR_BUT*%
X142200000Y-25540000D03*
%TD*%
D18*
%TO.P,SW1,1*%
%TO.N,/compute-module/PWR_BUT*%
X118950000Y-30550000D03*
D19*
%TO.P,SW1,2*%
X125450000Y-30550000D03*
%TO.P,SW1,3*%
%TO.N,GND*%
X118950000Y-35050000D03*
%TO.P,SW1,4*%
X125450000Y-35050000D03*
%TD*%
D17*
%TO.P,J19,1*%
%TO.N,+3V3*%
X119900000Y-83200000D03*
%TO.P,J19,2*%
%TO.N,GND*%
X124900000Y-83200000D03*
%TD*%
D12*
%TO.P,TP3,1,1*%
%TO.N,Net-(U1A-UART1_RTS)*%
X211100000Y-27100000D03*
%TD*%
D17*
%TO.P,J18,1*%
%TO.N,VBAT_BB*%
X183700000Y-84591500D03*
%TO.P,J18,2*%
%TO.N,GND*%
X188700000Y-84591500D03*
%TD*%
D20*
%TO.P,J1,S1,SHIELD*%
%TO.N,GND*%
X164480000Y-81695000D03*
D21*
X164480000Y-85875000D03*
D20*
X173120000Y-81695000D03*
D21*
X173120000Y-85875000D03*
%TD*%
D14*
%TO.P,TP18,1,1*%
%TO.N,/SD7*%
X88000000Y-64500000D03*
%TD*%
D12*
%TO.P,J8,1,1*%
%TO.N,Net-(U1A-J3)*%
X205300000Y-32500000D03*
%TD*%
D22*
%TO.P,M1,SH1*%
%TO.N,N/C*%
X147600000Y-33600000D03*
%TO.P,M1,SH2*%
X195600000Y-33600000D03*
%TO.P,M1,SH3*%
X147600000Y-66600000D03*
%TO.P,M1,SH4*%
X195600000Y-66600000D03*
%TD*%
D14*
%TO.P,TP17,1,1*%
%TO.N,Net-(U10-Q4)*%
X114400000Y-42300000D03*
%TD*%
%TO.P,TP19,1,1*%
%TO.N,Net-(U10-Q3)*%
X125200000Y-43500000D03*
%TD*%
%TO.P,TP15,1,1*%
%TO.N,/SD3*%
X83600000Y-62300000D03*
%TD*%
D23*
%TO.P,TP5,1,1*%
%TO.N,Net-(U1A-SYS_CLK)*%
X214000000Y-24000000D03*
%TD*%
%TO.P,TP6,1,1*%
%TO.N,Net-(U1A-SLEEP_CLK)*%
X217500000Y-24000000D03*
%TD*%
D24*
%TO.N,GND*%
X89487500Y-52099999D03*
X236260000Y-81160000D03*
X88487500Y-52099999D03*
X90487500Y-52099999D03*
%TO.N,/compute-module/VBAT*%
X163200000Y-33600000D03*
X122000000Y-67500000D03*
%TO.N,VBAT_BB*%
X222165057Y-33838017D03*
X215686120Y-50686120D03*
X216500000Y-49500000D03*
X222602799Y-34384264D03*
X181475000Y-79625000D03*
X216500000Y-50100000D03*
X221489647Y-34354106D03*
%TO.N,/modem/UIM_VCC*%
X224000000Y-52700000D03*
X239660000Y-81260000D03*
X216700000Y-83300000D03*
X227660000Y-77700001D03*
%TO.N,+1V8_CM5*%
X159600000Y-38900000D03*
X94000000Y-53700000D03*
%TO.N,+3V3_CM5*%
X163225000Y-38400000D03*
X123137500Y-51462499D03*
X113937500Y-57262499D03*
X118312500Y-57887499D03*
X115900000Y-47500000D03*
%TO.N,+5V*%
X164117584Y-77882416D03*
X154000000Y-75495000D03*
X160500000Y-28800000D03*
X166500000Y-77500000D03*
%TO.N,Net-(IC1-VDD18PLL)*%
X110937500Y-55062499D03*
%TO.N,Net-(J16-CD{slash}DAT3)*%
X93382500Y-44424999D03*
X96887500Y-52499999D03*
%TO.N,Net-(J16-CLK)*%
X94887500Y-42499999D03*
X96587500Y-45899999D03*
%TO.N,Net-(J16-DAT2)*%
X98000000Y-52400000D03*
X92882498Y-42824999D03*
%TO.N,Net-(J16-CMD)*%
X96887500Y-51799999D03*
X93987500Y-47199999D03*
%TO.N,Net-(J16-DAT1)*%
X97032500Y-43624999D03*
X98987500Y-42799999D03*
%TO.N,/modem/UIM_RESET_N*%
X239660000Y-83700000D03*
X227660000Y-84900000D03*
X223860000Y-85400000D03*
X226737500Y-52862500D03*
%TO.N,/modem/UIM_DATA*%
X216100000Y-85000000D03*
X236460000Y-86240000D03*
X225900000Y-52800000D03*
X230460000Y-87700000D03*
%TO.N,/modem/UIM_CLK*%
X239860000Y-86140000D03*
X230460000Y-86700000D03*
X223513945Y-86353945D03*
X225000000Y-52800000D03*
%TO.N,+3V3*%
X135580000Y-34310000D03*
X110500000Y-24000000D03*
X205500000Y-62500000D03*
X95500000Y-54000000D03*
X121500000Y-76500000D03*
X217100000Y-65900000D03*
X95300000Y-59974999D03*
%TO.N,/USB3-0-D_N*%
X124600000Y-71153390D03*
X115187503Y-61500000D03*
%TO.N,/compute-module/PWR_BUT*%
X154500000Y-29000000D03*
X139850000Y-28550000D03*
%TO.N,/USB3-0-D_P*%
X124000000Y-71700000D03*
X114487500Y-61500000D03*
%TO.N,/compute-module/EEPROM_nWP*%
X175500000Y-27500000D03*
X175900000Y-35600000D03*
%TO.N,/compute-module/nRPIBOOT*%
X157000000Y-27600000D03*
%TO.N,/compute-module/GPIO19*%
X183100000Y-32700000D03*
%TO.N,/compute-module/GPIO2*%
X167800000Y-33400000D03*
%TO.N,/compute-module/GPIO17*%
X169000000Y-33500000D03*
%TO.N,/compute-module/GPIO26*%
X182600000Y-33800000D03*
%TO.N,/compute-module/GPIO11*%
X181000000Y-31400000D03*
D25*
%TO.N,Net-(U1A-J1)*%
X215600000Y-36400000D03*
%TO.N,Net-(U1A-J2)*%
X215320000Y-37700000D03*
%TO.N,Net-(U1A-J3)*%
X215420000Y-39000000D03*
%TO.N,Net-(U1A-J4)*%
X215300000Y-40100000D03*
%TO.N,Net-(U1A-J5)*%
X215400000Y-41300000D03*
%TO.N,Net-(U1A-J6)*%
X215400000Y-42500000D03*
D24*
%TO.N,Net-(U1A-J7)*%
X215320000Y-43700000D03*
%TO.N,Net-(U1A-J8)*%
X215320000Y-44900000D03*
%TO.N,Net-(U1A-J9)*%
X215287499Y-45998840D03*
%TO.N,/sd-interface/SD3*%
X89987500Y-50499999D03*
X89987500Y-52699999D03*
%TO.N,/sd-interface/SD7*%
X88182500Y-48274999D03*
X87987500Y-52699999D03*
%TO.N,/sd-interface/SD2*%
X90987500Y-52699999D03*
X90987500Y-51099999D03*
%TO.N,/sd-interface/SD5*%
X88987500Y-49799999D03*
X88987500Y-52699999D03*
%TO.N,/modem/1V8_WAKE*%
X211000000Y-44000000D03*
X216600000Y-43600000D03*
%TO.N,/CC2*%
X160000000Y-42500000D03*
X171100000Y-75200000D03*
%TO.N,/CC1*%
X166810000Y-75195000D03*
X159000000Y-41500000D03*
%TO.N,/compute-module/USB_OTG_ID*%
X161000000Y-43500000D03*
X165500000Y-66500000D03*
%TO.N,/modem/1V8_TX_ON*%
X223675000Y-34200000D03*
X212000000Y-59700000D03*
%TO.N,Net-(U10-Q3)*%
X102100000Y-55100000D03*
X132125000Y-39510000D03*
D25*
%TO.N,Net-(U1A-UART1_TX)*%
X216500000Y-39000000D03*
%TO.N,Net-(U1A-UART1_DTR)*%
X216500000Y-42500000D03*
%TO.N,Net-(U1A-UART1_RTS)*%
X216500000Y-37500000D03*
%TO.N,Net-(U1A-UART1_RX)*%
X216500000Y-40000000D03*
D24*
%TO.N,Net-(U1A-SYS_CLK)*%
X220000000Y-53000000D03*
%TO.N,Net-(U1A-SLEEP_CLK)*%
X221000000Y-53000000D03*
%TO.N,Net-(U10-Q4)*%
X133500000Y-31100000D03*
X143600000Y-44100000D03*
%TO.N,/SD_SWITCH_DISABLE*%
X133500000Y-40900000D03*
X138130000Y-41770000D03*
X166800000Y-29600000D03*
X151900000Y-41770000D03*
%TO.N,/modem/UIM_SIM_DET*%
X210200000Y-77800000D03*
X219575000Y-34100000D03*
%TO.N,/SD_SWITCH_ENABLE*%
X145100000Y-43040000D03*
X138700000Y-42500000D03*
X164321268Y-27800000D03*
X133500000Y-39600000D03*
%TO.N,/modem/1V8_RESET_IN_N*%
X216600000Y-44900000D03*
X207600000Y-63500000D03*
%TO.N,/modem/1V8_POWER_ON_N*%
X217800000Y-70300000D03*
X226500000Y-34200000D03*
%TO.N,/modem/1V8_BOOT_MODE*%
X232475000Y-40100000D03*
X219600000Y-73775000D03*
%TO.N,/sd-interface/SD-pin7*%
X116187500Y-57062499D03*
X103800000Y-49074999D03*
%TO.N,/sd-interface/SD-pin5*%
X102778750Y-49341249D03*
X118587500Y-56662499D03*
%TO.N,/sd-interface/SD-pin8*%
X104882500Y-47757499D03*
X115587500Y-56662499D03*
%TO.N,/sd-interface/SD-pin3*%
X120237500Y-55162499D03*
X101157500Y-49562499D03*
%TO.N,/EXT_5V_ENABLE*%
X155000000Y-41000000D03*
X166200000Y-30600000D03*
%TO.N,/SD7*%
X175600000Y-41600000D03*
X173500000Y-33200000D03*
%TO.N,/USB3-1-D_P*%
X167200000Y-64600000D03*
X216575000Y-47300000D03*
%TO.N,Net-(U10-Q2)*%
X147300000Y-75500000D03*
X134500000Y-50500000D03*
%TO.N,/MODEM_TX_ON*%
X200500000Y-59500000D03*
X209500000Y-67000000D03*
%TO.N,/USB3-1-D_N*%
X216575000Y-46000000D03*
X166600000Y-64000000D03*
%TO.N,/SD5*%
X166800000Y-33200000D03*
X172300000Y-42500000D03*
%TO.N,/SD3*%
X171400000Y-39000000D03*
X168300000Y-32700000D03*
%TO.N,/SD2*%
X174100000Y-32500000D03*
X170800000Y-36000000D03*
%TO.N,/SD_SET_HOST*%
X157000000Y-35500000D03*
X164300000Y-28800000D03*
%TO.N,/EXT_5V_DISABLE*%
X156300000Y-41000000D03*
X167300000Y-30600000D03*
%TO.N,/SD_RESET_HOST*%
X164500000Y-29500000D03*
X144600000Y-46600000D03*
%TO.N,Net-(D1-A2)*%
X226560000Y-83600000D03*
X223235000Y-83675000D03*
%TO.N,Net-(U10-Q1)*%
X113112500Y-31087500D03*
X142500000Y-43900000D03*
%TD*%
D26*
%TO.N,Net-(U10-Q3)*%
X126600000Y-44900000D02*
X125200000Y-43500000D01*
X126600000Y-45000000D02*
X126600000Y-44900000D01*
%TO.N,/compute-module/GPIO11*%
X176600000Y-23960000D02*
X177700000Y-22860000D01*
X176600000Y-29000000D02*
X176600000Y-23960000D01*
X177200000Y-29600000D02*
X176600000Y-29000000D01*
X181000000Y-31400000D02*
X179200000Y-29600000D01*
X179200000Y-29600000D02*
X177200000Y-29600000D01*
D27*
%TO.N,/modem/1V8_POWER_ON_N*%
X229700000Y-65600000D02*
X225000000Y-70300000D01*
X229700000Y-38400000D02*
X229700000Y-65600000D01*
X226500000Y-35200000D02*
X229700000Y-38400000D01*
X225000000Y-70300000D02*
X217800000Y-70300000D01*
X226500000Y-34200000D02*
X226500000Y-35200000D01*
D26*
%TO.N,/compute-module/VBAT*%
X145500000Y-49500000D02*
X134000000Y-49500000D01*
X156500000Y-38500000D02*
X145500000Y-49500000D01*
X133000000Y-50500000D02*
X133000000Y-56500000D01*
X162900000Y-33600000D02*
X158000000Y-38500000D01*
X158000000Y-38500000D02*
X156500000Y-38500000D01*
X163200000Y-33600000D02*
X162900000Y-33600000D01*
X134000000Y-49500000D02*
X133000000Y-50500000D01*
X133000000Y-56500000D02*
X122000000Y-67500000D01*
%TO.N,/modem/UIM_VCC*%
X223400000Y-52700000D02*
X224000000Y-52700000D01*
X216700000Y-83300000D02*
X213500000Y-80100000D01*
X227859999Y-77900000D02*
X236300000Y-77900000D01*
X213500000Y-62600000D02*
X223400000Y-52700000D01*
X213500000Y-80100000D02*
X213500000Y-62600000D01*
X236300000Y-77900000D02*
X239660000Y-81260000D01*
X227660000Y-77700001D02*
X227859999Y-77900000D01*
%TO.N,Net-(J16-CD{slash}DAT3)*%
X93187500Y-50299999D02*
X93187500Y-44619999D01*
X96887500Y-52499999D02*
X95387500Y-52499999D01*
X93187500Y-44619999D02*
X93382500Y-44424999D01*
X95387500Y-52499999D02*
X93187500Y-50299999D01*
%TO.N,Net-(J16-CLK)*%
X96587500Y-45387500D02*
X96587500Y-45899999D01*
X95132500Y-42744999D02*
X95132500Y-43932500D01*
X94887500Y-42499999D02*
X95132500Y-42744999D01*
X95132500Y-43932500D02*
X96587500Y-45387500D01*
%TO.N,Net-(J16-DAT2)*%
X97887499Y-52400000D02*
X97087500Y-53199999D01*
X98000000Y-52400000D02*
X97887499Y-52400000D01*
X92287500Y-43369999D02*
X92832500Y-42824999D01*
X92832500Y-42824999D02*
X92882498Y-42824999D01*
X94987500Y-53199999D02*
X92287500Y-50499999D01*
X92287500Y-50499999D02*
X92287500Y-43369999D01*
X97087500Y-53199999D02*
X94987500Y-53199999D01*
%TO.N,Net-(J16-CMD)*%
X95787500Y-51799999D02*
X96887500Y-51799999D01*
X93987500Y-47199999D02*
X93987500Y-49999999D01*
X93987500Y-49999999D02*
X95787500Y-51799999D01*
%TO.N,Net-(J16-DAT1)*%
X97032500Y-43624999D02*
X98332500Y-43624999D01*
X98987500Y-42969999D02*
X98987500Y-42799999D01*
X98332500Y-43624999D02*
X98987500Y-42969999D01*
%TO.N,/modem/UIM_RESET_N*%
X226600000Y-53000000D02*
X226737500Y-52862500D01*
X239660000Y-83700000D02*
X235860000Y-83700000D01*
X223360000Y-85400000D02*
X216100000Y-78140000D01*
X216100000Y-78140000D02*
X216100000Y-63400000D01*
X223860000Y-85400000D02*
X223360000Y-85400000D01*
X228316000Y-85556000D02*
X227660000Y-84900000D01*
X216100000Y-63400000D02*
X226500000Y-53000000D01*
X234004000Y-85556000D02*
X228316000Y-85556000D01*
X235860000Y-83700000D02*
X234004000Y-85556000D01*
X226500000Y-53000000D02*
X226600000Y-53000000D01*
%TO.N,/modem/UIM_DATA*%
X211900000Y-63100000D02*
X211900000Y-80800000D01*
X225400000Y-51900000D02*
X223100000Y-51900000D01*
X223100000Y-51900000D02*
X211900000Y-63100000D01*
X235000000Y-87700000D02*
X230460000Y-87700000D01*
X211900000Y-80800000D02*
X216100000Y-85000000D01*
X236460000Y-86240000D02*
X235000000Y-87700000D01*
X225900000Y-52800000D02*
X225900000Y-52400000D01*
X225900000Y-52400000D02*
X225400000Y-51900000D01*
%TO.N,/modem/UIM_CLK*%
X221953945Y-86353945D02*
X214700000Y-79100000D01*
X230460000Y-86700000D02*
X234060000Y-86700000D01*
X224800000Y-52800000D02*
X225000000Y-52800000D01*
X234060000Y-86700000D02*
X235660000Y-85100000D01*
X238820000Y-85100000D02*
X239860000Y-86140000D01*
X214700000Y-79100000D02*
X214700000Y-62900000D01*
X235660000Y-85100000D02*
X238820000Y-85100000D01*
X223513945Y-86353945D02*
X221953945Y-86353945D01*
X214700000Y-62900000D02*
X224800000Y-52800000D01*
%TO.N,/USB3-0-D_N*%
X115400000Y-62500000D02*
X124053390Y-71153390D01*
X124053390Y-71153390D02*
X124600000Y-71153390D01*
X115400000Y-61712497D02*
X115400000Y-62500000D01*
X115187503Y-61500000D02*
X115400000Y-61712497D01*
%TO.N,/compute-module/PWR_BUT*%
X140700000Y-27900000D02*
X153400000Y-27900000D01*
X140700000Y-27900000D02*
X141100000Y-27900000D01*
X142200000Y-26800000D02*
X142200000Y-25540000D01*
X139850000Y-28550000D02*
X140050000Y-28550000D01*
X153400000Y-27900000D02*
X154500000Y-29000000D01*
X140050000Y-28550000D02*
X140700000Y-27900000D01*
X141100000Y-27900000D02*
X142200000Y-26800000D01*
%TO.N,/USB3-0-D_P*%
X124000000Y-71700000D02*
X114487500Y-62187500D01*
X114487500Y-62187500D02*
X114487500Y-61500000D01*
%TO.N,/compute-module/EEPROM_nWP*%
X175500000Y-27500000D02*
X175500000Y-35200000D01*
X175500000Y-35200000D02*
X175900000Y-35600000D01*
%TO.N,/compute-module/nRPIBOOT*%
X156900000Y-27500000D02*
X149300000Y-27500000D01*
X157000000Y-27600000D02*
X156900000Y-27500000D01*
X149300000Y-27500000D02*
X146000000Y-24200000D01*
X128300000Y-24200000D02*
X126960000Y-25540000D01*
X146000000Y-24200000D02*
X128300000Y-24200000D01*
%TO.N,/compute-module/GPIO19*%
X191900000Y-24953661D02*
X191900000Y-23900000D01*
X183100000Y-32700000D02*
X185800000Y-32700000D01*
X191900000Y-25846339D02*
X191889000Y-25835339D01*
X191900000Y-23900000D02*
X192940000Y-22860000D01*
X185800000Y-32700000D02*
X191900000Y-26600000D01*
X191889000Y-24964661D02*
X191900000Y-24953661D01*
X191900000Y-26600000D02*
X191900000Y-25846339D01*
X191889000Y-25835339D02*
X191889000Y-24964661D01*
%TO.N,/compute-module/GPIO2*%
X167800000Y-29200000D02*
X165900000Y-27300000D01*
X164200000Y-27300000D02*
X163900000Y-27000000D01*
X153580000Y-24140000D02*
X152300000Y-22860000D01*
X163900000Y-27000000D02*
X154200000Y-27000000D01*
X153580000Y-26380000D02*
X153580000Y-24140000D01*
X167800000Y-33400000D02*
X167800000Y-29200000D01*
X165900000Y-27300000D02*
X164200000Y-27300000D01*
X154200000Y-27000000D02*
X153580000Y-26380000D01*
%TO.N,/compute-module/GPIO17*%
X163700000Y-26000000D02*
X164400000Y-26700000D01*
X162460000Y-22860000D02*
X163700000Y-24100000D01*
X163700000Y-24100000D02*
X163700000Y-26000000D01*
X164400000Y-26700000D02*
X166200000Y-26700000D01*
X168849000Y-33349000D02*
X169000000Y-33500000D01*
X166200000Y-26700000D02*
X168849000Y-29349000D01*
X168849000Y-29349000D02*
X168849000Y-33349000D01*
%TO.N,/compute-module/GPIO26*%
X194200000Y-26400000D02*
X194200000Y-24140000D01*
X183000000Y-33800000D02*
X183300000Y-33500000D01*
X182600000Y-33800000D02*
X183000000Y-33800000D01*
X183300000Y-33500000D02*
X187100000Y-33500000D01*
X194200000Y-24140000D02*
X195480000Y-22860000D01*
X187100000Y-33500000D02*
X194200000Y-26400000D01*
%TO.N,Net-(U1A-J1)*%
X215600000Y-35100000D02*
X208500000Y-28000000D01*
X215600000Y-36400000D02*
X215600000Y-35100000D01*
X208500000Y-28000000D02*
X208500000Y-26000000D01*
X203100000Y-24500000D02*
X202700000Y-24100000D01*
X207000000Y-24500000D02*
X202700000Y-24500000D01*
X208500000Y-26000000D02*
X207000000Y-24500000D01*
%TO.N,Net-(U1A-J2)*%
X215320000Y-37020000D02*
X205900000Y-27600000D01*
X215320000Y-37700000D02*
X215320000Y-37020000D01*
%TO.N,Net-(U1A-J3)*%
X213500000Y-39000000D02*
X207000000Y-32500000D01*
X215420000Y-39000000D02*
X213500000Y-39000000D01*
X207000000Y-32500000D02*
X205300000Y-32500000D01*
%TO.N,Net-(U1A-J4)*%
X207400000Y-39000000D02*
X205800000Y-37400000D01*
X211600000Y-40100000D02*
X210500000Y-39000000D01*
X215300000Y-40100000D02*
X211600000Y-40100000D01*
X210500000Y-39000000D02*
X207400000Y-39000000D01*
%TO.N,Net-(U1A-J5)*%
X214700000Y-42000000D02*
X205600000Y-42000000D01*
X215400000Y-41300000D02*
X214700000Y-42000000D01*
%TO.N,Net-(U1A-J6)*%
X215400000Y-42500000D02*
X208000000Y-42500000D01*
X205400000Y-45100000D02*
X202200000Y-45100000D01*
X208000000Y-42500000D02*
X205400000Y-45100000D01*
%TO.N,Net-(U1A-J7)*%
X215320000Y-43700000D02*
X212300000Y-43700000D01*
X212300000Y-43700000D02*
X208000000Y-48000000D01*
X208000000Y-48000000D02*
X206100000Y-48000000D01*
%TO.N,Net-(U1A-J8)*%
X212600000Y-44900000D02*
X206800000Y-50700000D01*
X215320000Y-44900000D02*
X212600000Y-44900000D01*
X206800000Y-50700000D02*
X202100000Y-50700000D01*
%TO.N,Net-(U1A-J9)*%
X208700000Y-50500000D02*
X206200000Y-53000000D01*
X214501160Y-45998840D02*
X210000000Y-50500000D01*
X210000000Y-50500000D02*
X208700000Y-50500000D01*
X215287499Y-45998840D02*
X214501160Y-45998840D01*
%TO.N,/sd-interface/SD3*%
X89987500Y-50499999D02*
X89987500Y-52699999D01*
%TO.N,/sd-interface/SD7*%
X88182500Y-48274999D02*
X87987500Y-48469999D01*
X87987500Y-48469999D02*
X87987500Y-52699999D01*
%TO.N,/sd-interface/SD2*%
X90987500Y-51099999D02*
X90987500Y-52699999D01*
%TO.N,/sd-interface/SD5*%
X88987500Y-49799999D02*
X88987500Y-52699999D01*
D28*
%TO.N,/modem/1V8_WAKE*%
X216000000Y-43000000D02*
X212000000Y-43000000D01*
X212000000Y-43000000D02*
X211000000Y-44000000D01*
X216600000Y-43600000D02*
X216000000Y-43000000D01*
D26*
%TO.N,/CC2*%
X160000000Y-43500000D02*
X161000000Y-44500000D01*
X161000000Y-44500000D02*
X161000000Y-63500000D01*
X161000000Y-63500000D02*
X171100000Y-73600000D01*
X171100000Y-73600000D02*
X171100000Y-75200000D01*
X160000000Y-42500000D02*
X160000000Y-43500000D01*
%TO.N,/CC1*%
X159000000Y-64000000D02*
X166810000Y-71810000D01*
X166810000Y-71810000D02*
X166810000Y-75195000D01*
X159000000Y-41500000D02*
X159000000Y-64000000D01*
%TO.N,/compute-module/USB_OTG_ID*%
X162000000Y-62500000D02*
X162000000Y-44500000D01*
X162000000Y-44500000D02*
X161000000Y-43500000D01*
X165500000Y-66500000D02*
X162000000Y-63000000D01*
X162000000Y-63000000D02*
X162000000Y-62500000D01*
D29*
%TO.N,/modem/1V8_TX_ON*%
X220800000Y-50900000D02*
X223675000Y-48025000D01*
X223675000Y-48025000D02*
X223675000Y-34200000D01*
X220400000Y-51300000D02*
X220800000Y-50900000D01*
X212000000Y-59700000D02*
X220800000Y-50900000D01*
D26*
%TO.N,Net-(U10-Q3)*%
X120800000Y-61000000D02*
X108000000Y-61000000D01*
X126600000Y-55200000D02*
X120800000Y-61000000D01*
X126600000Y-45500000D02*
X126600000Y-55200000D01*
X108000000Y-61000000D02*
X102100000Y-55100000D01*
X132125000Y-39510000D02*
X132090000Y-39510000D01*
X132090000Y-39510000D02*
X126600000Y-45000000D01*
X126600000Y-45000000D02*
X126600000Y-45500000D01*
%TO.N,Net-(U1A-UART1_TX)*%
X215049000Y-38549000D02*
X206700000Y-30200000D01*
X216500000Y-39000000D02*
X216049000Y-38549000D01*
X206700000Y-30200000D02*
X202100000Y-30200000D01*
X216049000Y-38549000D02*
X215049000Y-38549000D01*
%TO.N,Net-(U1A-UART1_DTR)*%
X216500000Y-41500000D02*
X215551000Y-40551000D01*
X215551000Y-40551000D02*
X210551000Y-40551000D01*
X216500000Y-42500000D02*
X216500000Y-41500000D01*
X202700000Y-40000000D02*
X201800000Y-39100000D01*
X210000000Y-40000000D02*
X202700000Y-40000000D01*
X210551000Y-40551000D02*
X210000000Y-40000000D01*
%TO.N,Net-(U1A-UART1_RTS)*%
X216500000Y-37500000D02*
X216500000Y-32500000D01*
X216500000Y-32500000D02*
X211100000Y-27100000D01*
%TO.N,Net-(U1A-UART1_RX)*%
X212649000Y-39649000D02*
X207300000Y-34300000D01*
X207300000Y-34300000D02*
X201800000Y-34300000D01*
X216500000Y-40000000D02*
X216149000Y-39649000D01*
X216149000Y-39649000D02*
X212649000Y-39649000D01*
%TO.N,Net-(U1A-SYS_CLK)*%
X220000000Y-53000000D02*
X224500000Y-48500000D01*
X214500000Y-24000000D02*
X214000000Y-24000000D01*
X224500000Y-48500000D02*
X224500000Y-34000000D01*
X224500000Y-34000000D02*
X214500000Y-24000000D01*
%TO.N,Net-(U1A-SLEEP_CLK)*%
X225500000Y-48500000D02*
X225500000Y-32000000D01*
X225500000Y-32000000D02*
X217500000Y-24000000D01*
X221000000Y-53000000D02*
X225500000Y-48500000D01*
%TO.N,Net-(U10-Q4)*%
X143600000Y-34800000D02*
X143600000Y-44100000D01*
X139900000Y-31100000D02*
X143600000Y-34800000D01*
X133500000Y-31100000D02*
X139900000Y-31100000D01*
%TO.N,/SD_SWITCH_DISABLE*%
X156070000Y-37600000D02*
X151900000Y-41770000D01*
X166800000Y-29600000D02*
X165900000Y-29600000D01*
X165900000Y-29600000D02*
X157900000Y-37600000D01*
X133800000Y-41700000D02*
X133500000Y-41400000D01*
X157900000Y-37600000D02*
X156070000Y-37600000D01*
X138130000Y-41770000D02*
X138060000Y-41700000D01*
X138060000Y-41700000D02*
X133800000Y-41700000D01*
X133500000Y-41400000D02*
X133500000Y-40900000D01*
D27*
%TO.N,/modem/UIM_SIM_DET*%
X210200000Y-59500000D02*
X219575000Y-50125000D01*
X219575000Y-50125000D02*
X219575000Y-34100000D01*
X210200000Y-77800000D02*
X210200000Y-59500000D01*
D26*
%TO.N,/SD_SWITCH_ENABLE*%
X145100000Y-43000000D02*
X154700000Y-33400000D01*
X154700000Y-32000000D02*
X158900000Y-27800000D01*
X137400000Y-39900000D02*
X133800000Y-39900000D01*
X133800000Y-39900000D02*
X133500000Y-39600000D01*
X138700000Y-42500000D02*
X138700000Y-41200000D01*
X158900000Y-27800000D02*
X164321268Y-27800000D01*
X145100000Y-43040000D02*
X145100000Y-43000000D01*
X154700000Y-33400000D02*
X154700000Y-32000000D01*
X138700000Y-41200000D02*
X137400000Y-39900000D01*
D27*
%TO.N,/modem/1V8_RESET_IN_N*%
X207600000Y-60400000D02*
X217600000Y-50400000D01*
X217600000Y-50400000D02*
X217600000Y-45900000D01*
X217600000Y-45900000D02*
X216600000Y-44900000D01*
X207600000Y-63500000D02*
X207600000Y-60400000D01*
%TO.N,/modem/1V8_BOOT_MODE*%
X230525000Y-73775000D02*
X219600000Y-73775000D01*
X235000000Y-69300000D02*
X230525000Y-73775000D01*
X235000000Y-42625000D02*
X235000000Y-69300000D01*
X232475000Y-40100000D02*
X235000000Y-42625000D01*
D26*
%TO.N,/sd-interface/SD-pin7*%
X103800000Y-49074999D02*
X103882500Y-49074999D01*
X103882500Y-49074999D02*
X112832500Y-58024999D01*
X115225000Y-58024999D02*
X116187500Y-57062499D01*
X112832500Y-58024999D02*
X115225000Y-58024999D01*
%TO.N,/sd-interface/SD-pin5*%
X102778750Y-49341249D02*
X112862500Y-59424999D01*
X117895000Y-59424999D02*
X119057500Y-58262499D01*
X119057500Y-57132499D02*
X118587500Y-56662499D01*
X119057500Y-58262499D02*
X119057500Y-57132499D01*
X112862500Y-59424999D02*
X117895000Y-59424999D01*
%TO.N,/sd-interface/SD-pin8*%
X114270000Y-56662499D02*
X115587500Y-56662499D01*
X105365000Y-47757499D02*
X114270000Y-56662499D01*
X104882500Y-47757499D02*
X105365000Y-47757499D01*
%TO.N,/sd-interface/SD-pin3*%
X101832500Y-50237499D02*
X101832500Y-50324999D01*
X111932500Y-60424999D02*
X118695000Y-60424999D01*
X101157500Y-49562499D02*
X101832500Y-50237499D01*
X118695000Y-60424999D02*
X120237500Y-58882499D01*
X120237500Y-58882499D02*
X120237500Y-55162499D01*
X101832500Y-50324999D02*
X111932500Y-60424999D01*
%TO.N,/EXT_5V_ENABLE*%
X164800000Y-36100000D02*
X160500000Y-40400000D01*
X157000000Y-40400000D02*
X156600000Y-40400000D01*
X164800000Y-32000000D02*
X164800000Y-36100000D01*
X166200000Y-30600000D02*
X164800000Y-32000000D01*
X155600000Y-40400000D02*
X157000000Y-40400000D01*
X160200000Y-40400000D02*
X157000000Y-40400000D01*
X160500000Y-40400000D02*
X160200000Y-40400000D01*
X155000000Y-41000000D02*
X155600000Y-40400000D01*
%TO.N,/SD7*%
X173500000Y-33200000D02*
X173500000Y-39500000D01*
X173500000Y-39500000D02*
X175600000Y-41600000D01*
%TO.N,/USB3-1-D_P*%
X191600000Y-64600000D02*
X199500000Y-56700000D01*
X199500000Y-56700000D02*
X207175000Y-56700000D01*
X167200000Y-64600000D02*
X191600000Y-64600000D01*
X207175000Y-56700000D02*
X216575000Y-47300000D01*
%TO.N,Net-(U10-Q2)*%
X136000000Y-52000000D02*
X136000000Y-65800000D01*
X136000000Y-65800000D02*
X145700000Y-75500000D01*
X134500000Y-50500000D02*
X136000000Y-52000000D01*
X145700000Y-75500000D02*
X147300000Y-75500000D01*
D29*
%TO.N,/MODEM_TX_ON*%
X200500000Y-59500000D02*
X208000000Y-67000000D01*
X208000000Y-67000000D02*
X209500000Y-67000000D01*
D26*
%TO.N,/USB3-1-D_N*%
X191200000Y-64000000D02*
X199000000Y-56200000D01*
X206375000Y-56200000D02*
X216575000Y-46000000D01*
X199000000Y-56200000D02*
X206375000Y-56200000D01*
X216575000Y-46000000D02*
X216575000Y-46200000D01*
X166600000Y-64000000D02*
X191200000Y-64000000D01*
%TO.N,/SD5*%
X166800000Y-33200000D02*
X166800000Y-37000000D01*
X166800000Y-37000000D02*
X172300000Y-42500000D01*
%TO.N,/SD3*%
X168300000Y-35900000D02*
X171400000Y-39000000D01*
X168300000Y-32700000D02*
X168300000Y-35900000D01*
%TO.N,/SD2*%
X170800000Y-36000000D02*
X170800000Y-34900000D01*
X170800000Y-34900000D02*
X173200000Y-32500000D01*
X173200000Y-32500000D02*
X174100000Y-32500000D01*
%TO.N,/SD_SET_HOST*%
X157000000Y-35500000D02*
X157000000Y-33700000D01*
X161900000Y-28800000D02*
X164300000Y-28800000D01*
X157000000Y-33700000D02*
X161900000Y-28800000D01*
%TO.N,/EXT_5V_DISABLE*%
X163200000Y-41000000D02*
X156300000Y-41000000D01*
X167300000Y-30600000D02*
X165500000Y-32400000D01*
X165500000Y-32400000D02*
X165500000Y-38700000D01*
X165500000Y-38700000D02*
X163200000Y-41000000D01*
%TO.N,/SD_RESET_HOST*%
X157500000Y-36500000D02*
X164500000Y-29500000D01*
X144600000Y-46600000D02*
X154700000Y-36500000D01*
X154700000Y-36500000D02*
X157500000Y-36500000D01*
%TO.N,Net-(D1-A2)*%
X224085000Y-83675000D02*
X224160000Y-83600000D01*
X223235000Y-83675000D02*
X224085000Y-83675000D01*
X224160000Y-83600000D02*
X226560000Y-83600000D01*
%TO.N,Net-(U10-Q1)*%
X142500000Y-43900000D02*
X142500000Y-36900000D01*
X138000000Y-32400000D02*
X114400000Y-32400000D01*
X114400000Y-32375000D02*
X113112500Y-31087500D01*
X114400000Y-32400000D02*
X114400000Y-32375000D01*
X142500000Y-36900000D02*
X138000000Y-32400000D01*
%TD*%
M02*
